M48
METRIC,LZ,000.000
;FILE_FORMAT=3:3
;TYPE=PLATED
;Layer: PTH_Through
;EasyEDA v6.5.34, 2023-09-21 20:05:10
;25a6d9880ab04e118feb333d8ddcd0f2,9bdec9015a8d4a8fb4e1132389f24c00,10
;Gerber Generator version 0.2
;Holesize 1 = 0.310 mm
T01C0.310
;Holesize 2 = 0.889 mm
T02C0.889
;Holesize 3 = 0.915 mm
T03C0.915
%
G05
G90
T01
X022600Y021600
X029800Y017300
X107500Y292499
X075500Y020500
X081000Y017500
X125500Y020500
X175000Y017000
X025000Y274999
X025000Y025000
X025000Y075000
X025000Y125000
X025000Y175000
X025000Y225000
X075000Y274999
X075000Y225000
X074999Y175001
X075000Y125000
X074999Y074999
X075000Y025000
X125000Y025000
X125000Y075000
X124998Y124998
X125000Y175000
X125000Y225000
X125000Y274999
X175001Y275001
X175001Y224998
X175000Y175000
X175000Y125000
X175001Y074999
X175001Y025001
X028700Y283399
X026300Y283399
T02
X021190Y293499
X023730Y293499
X026270Y293499
X028810Y293499
X021190Y006500
X023730Y006500
X026270Y006500
X028810Y006500
T03
X014000Y289999
X014000Y284999
M30
