G04 Layer: TopPasteMaskLayer*
G04 EasyEDA v6.5.34, 2023-09-21 20:05:10*
G04 25a6d9880ab04e118feb333d8ddcd0f2,9bdec9015a8d4a8fb4e1132389f24c00,10*
G04 Gerber Generator version 0.2*
G04 Scale: 100 percent, Rotated: No, Reflected: No *
G04 Dimensions in millimeters *
G04 leading zeros omitted , absolute positions ,4 integer and 5 decimal *
%FSLAX45Y45*%
%MOMM*%

%ADD10R,1.5000X1.0000*%

%LPD*%
G36*
X2226970Y27927452D02*
G01*
X2221992Y27922423D01*
X2221992Y27877465D01*
X2226970Y27872436D01*
X2274976Y27872436D01*
X2281986Y27877465D01*
X2281986Y27922423D01*
X2274976Y27927452D01*
G37*
G36*
X2325014Y27927452D02*
G01*
X2318004Y27922423D01*
X2318004Y27877465D01*
X2325014Y27872436D01*
X2372969Y27872436D01*
X2377998Y27877465D01*
X2377998Y27922423D01*
X2372969Y27927452D01*
G37*
G36*
X2226970Y22927462D02*
G01*
X2221992Y22922433D01*
X2221992Y22877475D01*
X2226970Y22872446D01*
X2274976Y22872446D01*
X2281986Y22877475D01*
X2281986Y22922433D01*
X2274976Y22927462D01*
G37*
G36*
X2325014Y22927462D02*
G01*
X2318004Y22922433D01*
X2318004Y22877475D01*
X2325014Y22872446D01*
X2372969Y22872446D01*
X2377998Y22877475D01*
X2377998Y22922433D01*
X2372969Y22927462D01*
G37*
G36*
X2226970Y17927472D02*
G01*
X2221992Y17922443D01*
X2221992Y17877485D01*
X2226970Y17872456D01*
X2274976Y17872456D01*
X2281986Y17877485D01*
X2281986Y17922443D01*
X2274976Y17927472D01*
G37*
G36*
X2325014Y17927472D02*
G01*
X2318004Y17922443D01*
X2318004Y17877485D01*
X2325014Y17872456D01*
X2372969Y17872456D01*
X2377998Y17877485D01*
X2377998Y17922443D01*
X2372969Y17927472D01*
G37*
G36*
X2226970Y12927482D02*
G01*
X2221992Y12922453D01*
X2221992Y12877495D01*
X2226970Y12872466D01*
X2274976Y12872466D01*
X2281986Y12877495D01*
X2281986Y12922453D01*
X2274976Y12927482D01*
G37*
G36*
X2325014Y12927482D02*
G01*
X2318004Y12922453D01*
X2318004Y12877495D01*
X2325014Y12872466D01*
X2372969Y12872466D01*
X2377998Y12877495D01*
X2377998Y12922453D01*
X2372969Y12927482D01*
G37*
G36*
X2226970Y7927492D02*
G01*
X2221992Y7922463D01*
X2221992Y7877505D01*
X2226970Y7872475D01*
X2274976Y7872475D01*
X2281986Y7877505D01*
X2281986Y7922463D01*
X2274976Y7927492D01*
G37*
G36*
X2325014Y7927492D02*
G01*
X2318004Y7922463D01*
X2318004Y7877505D01*
X2325014Y7872475D01*
X2372969Y7872475D01*
X2377998Y7877505D01*
X2377998Y7922463D01*
X2372969Y7927492D01*
G37*
G36*
X2226970Y2927502D02*
G01*
X2221992Y2922473D01*
X2221992Y2877515D01*
X2226970Y2872486D01*
X2274976Y2872486D01*
X2281986Y2877515D01*
X2281986Y2922473D01*
X2274976Y2927502D01*
G37*
G36*
X2325014Y2927502D02*
G01*
X2318004Y2922473D01*
X2318004Y2877515D01*
X2325014Y2872486D01*
X2372969Y2872486D01*
X2377998Y2877515D01*
X2377998Y2922473D01*
X2372969Y2927502D01*
G37*
G36*
X7226960Y27927452D02*
G01*
X7221981Y27922423D01*
X7221981Y27877465D01*
X7226960Y27872436D01*
X7274966Y27872436D01*
X7281976Y27877465D01*
X7281976Y27922423D01*
X7274966Y27927452D01*
G37*
G36*
X7325004Y27927452D02*
G01*
X7317994Y27922423D01*
X7317994Y27877465D01*
X7325004Y27872436D01*
X7372959Y27872436D01*
X7377988Y27877465D01*
X7377988Y27922423D01*
X7372959Y27927452D01*
G37*
G36*
X7226960Y22927462D02*
G01*
X7221981Y22922433D01*
X7221981Y22877475D01*
X7226960Y22872446D01*
X7274966Y22872446D01*
X7281976Y22877475D01*
X7281976Y22922433D01*
X7274966Y22927462D01*
G37*
G36*
X7325004Y22927462D02*
G01*
X7317994Y22922433D01*
X7317994Y22877475D01*
X7325004Y22872446D01*
X7372959Y22872446D01*
X7377988Y22877475D01*
X7377988Y22922433D01*
X7372959Y22927462D01*
G37*
G36*
X7226960Y17927472D02*
G01*
X7221981Y17922443D01*
X7221981Y17877485D01*
X7226960Y17872456D01*
X7274966Y17872456D01*
X7281976Y17877485D01*
X7281976Y17922443D01*
X7274966Y17927472D01*
G37*
G36*
X7325004Y17927472D02*
G01*
X7317994Y17922443D01*
X7317994Y17877485D01*
X7325004Y17872456D01*
X7372959Y17872456D01*
X7377988Y17877485D01*
X7377988Y17922443D01*
X7372959Y17927472D01*
G37*
G36*
X7226960Y12927482D02*
G01*
X7221981Y12922453D01*
X7221981Y12877495D01*
X7226960Y12872466D01*
X7274966Y12872466D01*
X7281976Y12877495D01*
X7281976Y12922453D01*
X7274966Y12927482D01*
G37*
G36*
X7325004Y12927482D02*
G01*
X7317994Y12922453D01*
X7317994Y12877495D01*
X7325004Y12872466D01*
X7372959Y12872466D01*
X7377988Y12877495D01*
X7377988Y12922453D01*
X7372959Y12927482D01*
G37*
G36*
X7226960Y7927492D02*
G01*
X7221981Y7922463D01*
X7221981Y7877505D01*
X7226960Y7872475D01*
X7274966Y7872475D01*
X7281976Y7877505D01*
X7281976Y7922463D01*
X7274966Y7927492D01*
G37*
G36*
X7325004Y7927492D02*
G01*
X7317994Y7922463D01*
X7317994Y7877505D01*
X7325004Y7872475D01*
X7372959Y7872475D01*
X7377988Y7877505D01*
X7377988Y7922463D01*
X7372959Y7927492D01*
G37*
G36*
X7226960Y2927502D02*
G01*
X7221981Y2922473D01*
X7221981Y2877515D01*
X7226960Y2872486D01*
X7274966Y2872486D01*
X7281976Y2877515D01*
X7281976Y2922473D01*
X7274966Y2927502D01*
G37*
G36*
X7325004Y2927502D02*
G01*
X7317994Y2922473D01*
X7317994Y2877515D01*
X7325004Y2872486D01*
X7372959Y2872486D01*
X7377988Y2877515D01*
X7377988Y2922473D01*
X7372959Y2927502D01*
G37*
G36*
X12226950Y27927452D02*
G01*
X12221972Y27922423D01*
X12221972Y27877465D01*
X12226950Y27872436D01*
X12274956Y27872436D01*
X12281966Y27877465D01*
X12281966Y27922423D01*
X12274956Y27927452D01*
G37*
G36*
X12324994Y27927452D02*
G01*
X12317984Y27922423D01*
X12317984Y27877465D01*
X12324994Y27872436D01*
X12372949Y27872436D01*
X12377978Y27877465D01*
X12377978Y27922423D01*
X12372949Y27927452D01*
G37*
G36*
X12226950Y22927462D02*
G01*
X12221972Y22922433D01*
X12221972Y22877475D01*
X12226950Y22872446D01*
X12274956Y22872446D01*
X12281966Y22877475D01*
X12281966Y22922433D01*
X12274956Y22927462D01*
G37*
G36*
X12324994Y22927462D02*
G01*
X12317984Y22922433D01*
X12317984Y22877475D01*
X12324994Y22872446D01*
X12372949Y22872446D01*
X12377978Y22877475D01*
X12377978Y22922433D01*
X12372949Y22927462D01*
G37*
G36*
X12226950Y17927472D02*
G01*
X12221972Y17922443D01*
X12221972Y17877485D01*
X12226950Y17872456D01*
X12274956Y17872456D01*
X12281966Y17877485D01*
X12281966Y17922443D01*
X12274956Y17927472D01*
G37*
G36*
X12324994Y17927472D02*
G01*
X12317984Y17922443D01*
X12317984Y17877485D01*
X12324994Y17872456D01*
X12372949Y17872456D01*
X12377978Y17877485D01*
X12377978Y17922443D01*
X12372949Y17927472D01*
G37*
G36*
X12226950Y12927482D02*
G01*
X12221972Y12922453D01*
X12221972Y12877495D01*
X12226950Y12872466D01*
X12274956Y12872466D01*
X12281966Y12877495D01*
X12281966Y12922453D01*
X12274956Y12927482D01*
G37*
G36*
X12324994Y12927482D02*
G01*
X12317984Y12922453D01*
X12317984Y12877495D01*
X12324994Y12872466D01*
X12372949Y12872466D01*
X12377978Y12877495D01*
X12377978Y12922453D01*
X12372949Y12927482D01*
G37*
G36*
X12226950Y7927492D02*
G01*
X12221972Y7922463D01*
X12221972Y7877505D01*
X12226950Y7872475D01*
X12274956Y7872475D01*
X12281966Y7877505D01*
X12281966Y7922463D01*
X12274956Y7927492D01*
G37*
G36*
X12324994Y7927492D02*
G01*
X12317984Y7922463D01*
X12317984Y7877505D01*
X12324994Y7872475D01*
X12372949Y7872475D01*
X12377978Y7877505D01*
X12377978Y7922463D01*
X12372949Y7927492D01*
G37*
G36*
X12226950Y2927502D02*
G01*
X12221972Y2922473D01*
X12221972Y2877515D01*
X12226950Y2872486D01*
X12274956Y2872486D01*
X12281966Y2877515D01*
X12281966Y2922473D01*
X12274956Y2927502D01*
G37*
G36*
X12324994Y2927502D02*
G01*
X12317984Y2922473D01*
X12317984Y2877515D01*
X12324994Y2872486D01*
X12372949Y2872486D01*
X12377978Y2877515D01*
X12377978Y2922473D01*
X12372949Y2927502D01*
G37*
G36*
X17226940Y27927452D02*
G01*
X17221962Y27922423D01*
X17221962Y27877465D01*
X17226940Y27872436D01*
X17274946Y27872436D01*
X17281956Y27877465D01*
X17281956Y27922423D01*
X17274946Y27927452D01*
G37*
G36*
X17324984Y27927452D02*
G01*
X17317974Y27922423D01*
X17317974Y27877465D01*
X17324984Y27872436D01*
X17372939Y27872436D01*
X17377968Y27877465D01*
X17377968Y27922423D01*
X17372939Y27927452D01*
G37*
G36*
X17226940Y22927462D02*
G01*
X17221962Y22922433D01*
X17221962Y22877475D01*
X17226940Y22872446D01*
X17274946Y22872446D01*
X17281956Y22877475D01*
X17281956Y22922433D01*
X17274946Y22927462D01*
G37*
G36*
X17324984Y22927462D02*
G01*
X17317974Y22922433D01*
X17317974Y22877475D01*
X17324984Y22872446D01*
X17372939Y22872446D01*
X17377968Y22877475D01*
X17377968Y22922433D01*
X17372939Y22927462D01*
G37*
G36*
X17226940Y17927472D02*
G01*
X17221962Y17922443D01*
X17221962Y17877485D01*
X17226940Y17872456D01*
X17274946Y17872456D01*
X17281956Y17877485D01*
X17281956Y17922443D01*
X17274946Y17927472D01*
G37*
G36*
X17324984Y17927472D02*
G01*
X17317974Y17922443D01*
X17317974Y17877485D01*
X17324984Y17872456D01*
X17372939Y17872456D01*
X17377968Y17877485D01*
X17377968Y17922443D01*
X17372939Y17927472D01*
G37*
G36*
X17226940Y12927482D02*
G01*
X17221962Y12922453D01*
X17221962Y12877495D01*
X17226940Y12872466D01*
X17274946Y12872466D01*
X17281956Y12877495D01*
X17281956Y12922453D01*
X17274946Y12927482D01*
G37*
G36*
X17324984Y12927482D02*
G01*
X17317974Y12922453D01*
X17317974Y12877495D01*
X17324984Y12872466D01*
X17372939Y12872466D01*
X17377968Y12877495D01*
X17377968Y12922453D01*
X17372939Y12927482D01*
G37*
G36*
X17226940Y7927492D02*
G01*
X17221962Y7922463D01*
X17221962Y7877505D01*
X17226940Y7872475D01*
X17274946Y7872475D01*
X17281956Y7877505D01*
X17281956Y7922463D01*
X17274946Y7927492D01*
G37*
G36*
X17324984Y7927492D02*
G01*
X17317974Y7922463D01*
X17317974Y7877505D01*
X17324984Y7872475D01*
X17372939Y7872475D01*
X17377968Y7877505D01*
X17377968Y7922463D01*
X17372939Y7927492D01*
G37*
G36*
X17226940Y2927502D02*
G01*
X17221962Y2922473D01*
X17221962Y2877515D01*
X17226940Y2872486D01*
X17274946Y2872486D01*
X17281956Y2877515D01*
X17281956Y2922473D01*
X17274946Y2927502D01*
G37*
G36*
X17324984Y2927502D02*
G01*
X17317974Y2922473D01*
X17317974Y2877515D01*
X17324984Y2872486D01*
X17372939Y2872486D01*
X17377968Y2877515D01*
X17377968Y2922473D01*
X17372939Y2927502D01*
G37*
D10*
G01*
X2259990Y27659939D03*
G01*
X2259990Y27499945D03*
G01*
X2259990Y27339950D03*
G01*
X2739999Y27339950D03*
G01*
X2739999Y27499945D03*
G01*
X2739999Y27659939D03*
G01*
X2259990Y22659949D03*
G01*
X2259990Y22499954D03*
G01*
X2259990Y22339960D03*
G01*
X2739999Y22339960D03*
G01*
X2739999Y22499954D03*
G01*
X2739999Y22659949D03*
G01*
X2259990Y17659959D03*
G01*
X2259990Y17499964D03*
G01*
X2259990Y17339970D03*
G01*
X2739999Y17339970D03*
G01*
X2739999Y17499964D03*
G01*
X2739999Y17659959D03*
G01*
X2259990Y12659969D03*
G01*
X2259990Y12499975D03*
G01*
X2259990Y12339980D03*
G01*
X2739999Y12339980D03*
G01*
X2739999Y12499975D03*
G01*
X2739999Y12659969D03*
G01*
X2259990Y7659979D03*
G01*
X2259990Y7499985D03*
G01*
X2259990Y7339990D03*
G01*
X2739999Y7339990D03*
G01*
X2739999Y7499985D03*
G01*
X2739999Y7659979D03*
G01*
X2259990Y2659989D03*
G01*
X2259990Y2499995D03*
G01*
X2259990Y2340000D03*
G01*
X2739999Y2340000D03*
G01*
X2739999Y2499995D03*
G01*
X2739999Y2659989D03*
G01*
X7259980Y27659939D03*
G01*
X7259980Y27499945D03*
G01*
X7259980Y27339950D03*
G01*
X7739989Y27339950D03*
G01*
X7739989Y27499945D03*
G01*
X7739989Y27659939D03*
G01*
X7259980Y22659949D03*
G01*
X7259980Y22499954D03*
G01*
X7259980Y22339960D03*
G01*
X7739989Y22339960D03*
G01*
X7739989Y22499954D03*
G01*
X7739989Y22659949D03*
G01*
X7259980Y17659959D03*
G01*
X7259980Y17499964D03*
G01*
X7259980Y17339970D03*
G01*
X7739989Y17339970D03*
G01*
X7739989Y17499964D03*
G01*
X7739989Y17659959D03*
G01*
X7259980Y12659969D03*
G01*
X7259980Y12499975D03*
G01*
X7259980Y12339980D03*
G01*
X7739989Y12339980D03*
G01*
X7739989Y12499975D03*
G01*
X7739989Y12659969D03*
G01*
X7259980Y7659979D03*
G01*
X7259980Y7499985D03*
G01*
X7259980Y7339990D03*
G01*
X7739989Y7339990D03*
G01*
X7739989Y7499985D03*
G01*
X7739989Y7659979D03*
G01*
X7259980Y2659989D03*
G01*
X7259980Y2499995D03*
G01*
X7259980Y2340000D03*
G01*
X7739989Y2340000D03*
G01*
X7739989Y2499995D03*
G01*
X7739989Y2659989D03*
G01*
X12259970Y27659939D03*
G01*
X12259970Y27499945D03*
G01*
X12259970Y27339950D03*
G01*
X12739979Y27339950D03*
G01*
X12739979Y27499945D03*
G01*
X12739979Y27659939D03*
G01*
X12259970Y22659949D03*
G01*
X12259970Y22499954D03*
G01*
X12259970Y22339960D03*
G01*
X12739979Y22339960D03*
G01*
X12739979Y22499954D03*
G01*
X12739979Y22659949D03*
G01*
X12259970Y17659959D03*
G01*
X12259970Y17499964D03*
G01*
X12259970Y17339970D03*
G01*
X12739979Y17339970D03*
G01*
X12739979Y17499964D03*
G01*
X12739979Y17659959D03*
G01*
X12259970Y12659969D03*
G01*
X12259970Y12499975D03*
G01*
X12259970Y12339980D03*
G01*
X12739979Y12339980D03*
G01*
X12739979Y12499975D03*
G01*
X12739979Y12659969D03*
G01*
X12259970Y7659979D03*
G01*
X12259970Y7499985D03*
G01*
X12259970Y7339990D03*
G01*
X12739979Y7339990D03*
G01*
X12739979Y7499985D03*
G01*
X12739979Y7659979D03*
G01*
X12259970Y2659989D03*
G01*
X12259970Y2499995D03*
G01*
X12259970Y2340000D03*
G01*
X12739979Y2340000D03*
G01*
X12739979Y2499995D03*
G01*
X12739979Y2659989D03*
G01*
X17259960Y27659939D03*
G01*
X17259960Y27499945D03*
G01*
X17259960Y27339950D03*
G01*
X17739969Y27339950D03*
G01*
X17739969Y27499945D03*
G01*
X17739969Y27659939D03*
G01*
X17259960Y22659949D03*
G01*
X17259960Y22499954D03*
G01*
X17259960Y22339960D03*
G01*
X17739969Y22339960D03*
G01*
X17739969Y22499954D03*
G01*
X17739969Y22659949D03*
G01*
X17259960Y17659959D03*
G01*
X17259960Y17499964D03*
G01*
X17259960Y17339970D03*
G01*
X17739969Y17339970D03*
G01*
X17739969Y17499964D03*
G01*
X17739969Y17659959D03*
G01*
X17259960Y12659969D03*
G01*
X17259960Y12499975D03*
G01*
X17259960Y12339980D03*
G01*
X17739969Y12339980D03*
G01*
X17739969Y12499975D03*
G01*
X17739969Y12659969D03*
G01*
X17259960Y7659979D03*
G01*
X17259960Y7499985D03*
G01*
X17259960Y7339990D03*
G01*
X17739969Y7339990D03*
G01*
X17739969Y7499985D03*
G01*
X17739969Y7659979D03*
G01*
X17259960Y2659989D03*
G01*
X17259960Y2499995D03*
G01*
X17259960Y2340000D03*
G01*
X17739969Y2340000D03*
G01*
X17739969Y2499995D03*
G01*
X17739969Y2659989D03*
M02*
