G04 Layer: BottomLayer*
G04 EasyEDA v6.5.34, 2023-09-21 20:05:10*
G04 25a6d9880ab04e118feb333d8ddcd0f2,9bdec9015a8d4a8fb4e1132389f24c00,10*
G04 Gerber Generator version 0.2*
G04 Scale: 100 percent, Rotated: No, Reflected: No *
G04 Dimensions in millimeters *
G04 leading zeros omitted , absolute positions ,4 integer and 5 decimal *
%FSLAX45Y45*%
%MOMM*%

%ADD10C,2.0000*%
%ADD11C,0.2540*%
%ADD12R,1.5748X1.5748*%
%ADD13C,1.5748*%
%ADD14C,1.5240*%
%ADD15C,0.6200*%
%ADD16C,0.0132*%

%LPD*%
G36*
X764794Y526034D02*
G01*
X760933Y526796D01*
X757631Y529031D01*
X529031Y757631D01*
X526796Y760933D01*
X526034Y764794D01*
X526034Y28689757D01*
X526796Y28693668D01*
X529031Y28696970D01*
X532282Y28699155D01*
X536194Y28699917D01*
X1598980Y28699917D01*
X1600708Y28700628D01*
X1649272Y28749244D01*
X1649984Y28750920D01*
X1649984Y29464000D01*
X1650746Y29467860D01*
X1652981Y29471162D01*
X1656283Y29473398D01*
X1660143Y29474160D01*
X2033574Y29474160D01*
X2037842Y29473245D01*
X2041296Y29470603D01*
X2043379Y29466743D01*
X2043633Y29462374D01*
X2042007Y29458310D01*
X2038857Y29455313D01*
X2029053Y29451960D01*
X2024125Y29448861D01*
X2020062Y29444797D01*
X2016963Y29439870D01*
X2015083Y29434434D01*
X2014372Y29428135D01*
X2014372Y29271772D01*
X2015083Y29265473D01*
X2016963Y29259987D01*
X2020062Y29255110D01*
X2024125Y29250995D01*
X2029053Y29247896D01*
X2034489Y29246017D01*
X2040839Y29245306D01*
X2197150Y29245306D01*
X2203500Y29246017D01*
X2208936Y29247896D01*
X2213864Y29250995D01*
X2217928Y29255110D01*
X2221026Y29259987D01*
X2222906Y29265473D01*
X2223668Y29271772D01*
X2223668Y29428135D01*
X2222906Y29434434D01*
X2221026Y29439870D01*
X2217928Y29444797D01*
X2213864Y29448861D01*
X2208936Y29451960D01*
X2199132Y29455313D01*
X2195982Y29458310D01*
X2194356Y29462374D01*
X2194610Y29466743D01*
X2196693Y29470603D01*
X2200148Y29473245D01*
X2204415Y29474160D01*
X2615539Y29474160D01*
X2619857Y29473194D01*
X2623362Y29470502D01*
X2625344Y29466539D01*
X2625496Y29462120D01*
X2623769Y29458056D01*
X2620416Y29455110D01*
X2616200Y29453839D01*
X2613355Y29453687D01*
X2599893Y29450995D01*
X2586939Y29446626D01*
X2574696Y29440530D01*
X2563317Y29432961D01*
X2553004Y29423918D01*
X2544013Y29413657D01*
X2536393Y29402277D01*
X2530348Y29389984D01*
X2525928Y29377030D01*
X2523286Y29363619D01*
X2522372Y29349953D01*
X2523286Y29336288D01*
X2525928Y29322877D01*
X2530348Y29309923D01*
X2536393Y29297630D01*
X2544013Y29286250D01*
X2553004Y29275938D01*
X2563317Y29266946D01*
X2574696Y29259326D01*
X2583027Y29255212D01*
X2586024Y29252976D01*
X2588006Y29249827D01*
X2588717Y29246118D01*
X2591257Y28385770D01*
X2590698Y28382366D01*
X2588971Y28379369D01*
X2582875Y28371800D01*
X2578150Y28363367D01*
X2574950Y28354274D01*
X2573324Y28344774D01*
X2573324Y28335122D01*
X2574950Y28325622D01*
X2578150Y28316529D01*
X2582875Y28308096D01*
X2588920Y28300578D01*
X2596184Y28294228D01*
X2604414Y28289148D01*
X2613355Y28285541D01*
X2622753Y28283509D01*
X2632405Y28283103D01*
X2641955Y28284322D01*
X2651201Y28287167D01*
X2659837Y28291536D01*
X2667558Y28297225D01*
X2674264Y28304236D01*
X2679649Y28312211D01*
X2683611Y28321000D01*
X2686050Y28330347D01*
X2686862Y28339948D01*
X2686050Y28349549D01*
X2683611Y28358896D01*
X2679649Y28367685D01*
X2674264Y28375660D01*
X2671267Y28378759D01*
X2669184Y28381960D01*
X2668473Y28385770D01*
X2665933Y29246372D01*
X2666593Y29250081D01*
X2668574Y29253281D01*
X2671572Y29255516D01*
X2679293Y29259326D01*
X2690672Y29266946D01*
X2700985Y29275938D01*
X2709976Y29286250D01*
X2717596Y29297630D01*
X2723642Y29309923D01*
X2728061Y29322877D01*
X2730703Y29336288D01*
X2731617Y29349953D01*
X2730703Y29363619D01*
X2728061Y29377030D01*
X2723642Y29389984D01*
X2717596Y29402277D01*
X2709976Y29413657D01*
X2700985Y29423918D01*
X2690672Y29432961D01*
X2679293Y29440530D01*
X2667050Y29446626D01*
X2654096Y29450995D01*
X2640634Y29453687D01*
X2637790Y29453839D01*
X2633573Y29455110D01*
X2630220Y29458056D01*
X2628493Y29462120D01*
X2628646Y29466539D01*
X2630627Y29470502D01*
X2634132Y29473194D01*
X2638450Y29474160D01*
X2869539Y29474160D01*
X2873857Y29473194D01*
X2877362Y29470502D01*
X2879344Y29466539D01*
X2879496Y29462120D01*
X2877769Y29458056D01*
X2874416Y29455110D01*
X2870200Y29453839D01*
X2867355Y29453687D01*
X2853893Y29450995D01*
X2840939Y29446626D01*
X2828696Y29440530D01*
X2817317Y29432961D01*
X2807004Y29423918D01*
X2798013Y29413657D01*
X2790393Y29402277D01*
X2784348Y29389984D01*
X2779928Y29377030D01*
X2777286Y29363619D01*
X2776372Y29349953D01*
X2777286Y29336288D01*
X2779928Y29322877D01*
X2784348Y29309923D01*
X2790393Y29297630D01*
X2798013Y29286250D01*
X2807004Y29275938D01*
X2817317Y29266946D01*
X2828696Y29259326D01*
X2835605Y29255923D01*
X2838602Y29253637D01*
X2840583Y29250436D01*
X2841244Y29246677D01*
X2831896Y28386379D01*
X2831287Y28383026D01*
X2829610Y28380080D01*
X2822854Y28371800D01*
X2818180Y28363367D01*
X2814980Y28354274D01*
X2813304Y28344774D01*
X2813304Y28335122D01*
X2814980Y28325622D01*
X2818180Y28316529D01*
X2822854Y28308096D01*
X2828950Y28300578D01*
X2836164Y28294228D01*
X2844393Y28289148D01*
X2853334Y28285541D01*
X2862783Y28283509D01*
X2872384Y28283103D01*
X2881985Y28284322D01*
X2891180Y28287167D01*
X2899816Y28291536D01*
X2907588Y28297225D01*
X2914243Y28304236D01*
X2919628Y28312211D01*
X2923641Y28321000D01*
X2926029Y28330347D01*
X2926842Y28339948D01*
X2926029Y28349549D01*
X2923641Y28358896D01*
X2919628Y28367685D01*
X2914243Y28375660D01*
X2911906Y28378099D01*
X2909824Y28381401D01*
X2909112Y28385211D01*
X2918460Y29245814D01*
X2919171Y29249471D01*
X2921152Y29252570D01*
X2924149Y29254805D01*
X2933293Y29259326D01*
X2944672Y29266946D01*
X2954985Y29275938D01*
X2963976Y29286250D01*
X2971596Y29297630D01*
X2977642Y29309923D01*
X2982061Y29322877D01*
X2984703Y29336288D01*
X2985617Y29349953D01*
X2984703Y29363619D01*
X2982061Y29377030D01*
X2977642Y29389984D01*
X2971596Y29402277D01*
X2963976Y29413657D01*
X2954985Y29423918D01*
X2944672Y29432961D01*
X2933293Y29440530D01*
X2921050Y29446626D01*
X2908096Y29450995D01*
X2894634Y29453687D01*
X2891790Y29453839D01*
X2887573Y29455110D01*
X2884220Y29458056D01*
X2882493Y29462120D01*
X2882646Y29466539D01*
X2884627Y29470502D01*
X2888132Y29473194D01*
X2892450Y29474160D01*
X19234912Y29474160D01*
X19238772Y29473398D01*
X19242074Y29471162D01*
X19470928Y29242308D01*
X19473164Y29239006D01*
X19473926Y29235146D01*
X19473926Y764794D01*
X19473164Y760933D01*
X19470928Y757631D01*
X19242328Y529031D01*
X19239026Y526796D01*
X19235166Y526034D01*
X2896057Y526034D01*
X2891942Y526897D01*
X2888488Y529437D01*
X2886405Y533095D01*
X2885998Y537311D01*
X2887319Y541375D01*
X2890215Y544474D01*
X2894076Y546150D01*
X2908096Y548944D01*
X2921050Y553313D01*
X2933293Y559409D01*
X2944672Y566978D01*
X2954985Y576021D01*
X2963976Y586282D01*
X2971596Y597662D01*
X2977642Y609955D01*
X2982061Y622909D01*
X2984703Y636320D01*
X2985617Y649986D01*
X2984703Y663651D01*
X2982061Y677062D01*
X2977642Y690016D01*
X2971596Y702310D01*
X2963976Y713689D01*
X2954985Y724001D01*
X2944672Y732993D01*
X2933293Y740613D01*
X2921050Y746658D01*
X2908096Y751078D01*
X2894634Y753719D01*
X2881020Y754634D01*
X2867355Y753719D01*
X2853893Y751078D01*
X2840939Y746658D01*
X2828696Y740613D01*
X2817317Y732993D01*
X2807004Y724001D01*
X2798013Y713689D01*
X2790393Y702310D01*
X2784348Y690016D01*
X2779928Y677062D01*
X2777286Y663651D01*
X2776372Y649986D01*
X2777286Y636320D01*
X2779928Y622909D01*
X2784348Y609955D01*
X2790393Y597662D01*
X2798013Y586282D01*
X2807004Y576021D01*
X2817317Y566978D01*
X2828696Y559409D01*
X2840939Y553313D01*
X2853893Y548944D01*
X2867914Y546150D01*
X2871774Y544474D01*
X2874670Y541375D01*
X2875991Y537311D01*
X2875584Y533095D01*
X2873502Y529437D01*
X2870047Y526897D01*
X2865932Y526034D01*
X2642057Y526034D01*
X2637942Y526897D01*
X2634488Y529437D01*
X2632405Y533095D01*
X2631998Y537311D01*
X2633319Y541375D01*
X2636215Y544474D01*
X2640076Y546150D01*
X2654096Y548944D01*
X2667050Y553313D01*
X2679293Y559409D01*
X2690672Y566978D01*
X2700985Y576021D01*
X2709976Y586282D01*
X2717596Y597662D01*
X2723642Y609955D01*
X2728061Y622909D01*
X2730703Y636320D01*
X2731617Y649986D01*
X2730703Y663651D01*
X2728061Y677062D01*
X2723642Y690016D01*
X2717596Y702310D01*
X2709976Y713689D01*
X2700985Y724001D01*
X2690672Y732993D01*
X2679293Y740613D01*
X2667050Y746658D01*
X2654096Y751078D01*
X2640634Y753719D01*
X2627020Y754634D01*
X2613355Y753719D01*
X2599893Y751078D01*
X2586939Y746658D01*
X2574696Y740613D01*
X2563317Y732993D01*
X2553004Y724001D01*
X2544013Y713689D01*
X2536393Y702310D01*
X2530348Y690016D01*
X2525928Y677062D01*
X2523286Y663651D01*
X2522372Y649986D01*
X2523286Y636320D01*
X2525928Y622909D01*
X2530348Y609955D01*
X2536393Y597662D01*
X2544013Y586282D01*
X2553004Y576021D01*
X2563317Y566978D01*
X2574696Y559409D01*
X2586939Y553313D01*
X2599893Y548944D01*
X2613914Y546150D01*
X2617774Y544474D01*
X2620670Y541375D01*
X2621991Y537311D01*
X2621584Y533095D01*
X2619502Y529437D01*
X2616047Y526897D01*
X2611932Y526034D01*
X2206040Y526034D01*
X2202078Y526846D01*
X2198725Y529132D01*
X2196541Y532536D01*
X2195880Y536498D01*
X2196795Y540461D01*
X2199182Y543712D01*
X2202688Y545795D01*
X2208936Y547979D01*
X2213864Y551078D01*
X2217928Y555142D01*
X2221026Y560070D01*
X2222906Y565505D01*
X2223668Y571804D01*
X2223668Y728167D01*
X2222906Y734466D01*
X2221026Y739952D01*
X2217928Y744829D01*
X2213864Y748944D01*
X2208936Y752043D01*
X2203500Y753922D01*
X2197150Y754634D01*
X2040839Y754634D01*
X2034489Y753922D01*
X2029053Y752043D01*
X2024125Y748944D01*
X2020062Y744829D01*
X2016963Y739952D01*
X2015083Y734466D01*
X2014372Y728167D01*
X2014372Y571804D01*
X2015083Y565505D01*
X2016963Y560070D01*
X2020062Y555142D01*
X2024125Y551078D01*
X2029053Y547979D01*
X2035302Y545795D01*
X2038807Y543712D01*
X2041194Y540461D01*
X2042109Y536498D01*
X2041448Y532536D01*
X2039264Y529132D01*
X2035911Y526846D01*
X2031949Y526034D01*
G37*

%LPC*%
G36*
X2418740Y556158D02*
G01*
X2425293Y559409D01*
X2436672Y566978D01*
X2446985Y576021D01*
X2455976Y586282D01*
X2463596Y597662D01*
X2466848Y604266D01*
X2418740Y604266D01*
G37*
G36*
X2327300Y556158D02*
G01*
X2327300Y604266D01*
X2279142Y604266D01*
X2282393Y597662D01*
X2290013Y586282D01*
X2299004Y576021D01*
X2309317Y566978D01*
X2320696Y559409D01*
G37*
G36*
X2279142Y695706D02*
G01*
X2327300Y695706D01*
X2327300Y743864D01*
X2320696Y740613D01*
X2309317Y732993D01*
X2299004Y724001D01*
X2290013Y713689D01*
X2282393Y702310D01*
G37*
G36*
X2418740Y695706D02*
G01*
X2466848Y695706D01*
X2463596Y702310D01*
X2455976Y713689D01*
X2446985Y724001D01*
X2436672Y732993D01*
X2425293Y740613D01*
X2418740Y743864D01*
G37*
G36*
X15004491Y1074166D02*
G01*
X15022576Y1075537D01*
X15040356Y1078788D01*
X15057780Y1083868D01*
X15074544Y1090676D01*
X15090495Y1099210D01*
X15105532Y1109319D01*
X15119451Y1120902D01*
X15132100Y1133856D01*
X15143327Y1148080D01*
X15153030Y1163370D01*
X15161158Y1179525D01*
X15167508Y1196492D01*
X15172131Y1214018D01*
X15174925Y1231900D01*
X15175839Y1249984D01*
X15174925Y1268069D01*
X15172131Y1285951D01*
X15167508Y1303477D01*
X15161158Y1320444D01*
X15153030Y1336598D01*
X15143327Y1351889D01*
X15132100Y1366113D01*
X15119451Y1379067D01*
X15105532Y1390650D01*
X15090495Y1400759D01*
X15074544Y1409293D01*
X15057780Y1416100D01*
X15040356Y1421180D01*
X15022576Y1424432D01*
X15004491Y1425803D01*
X14986406Y1425346D01*
X14968423Y1423009D01*
X14950795Y1418894D01*
X14933726Y1412900D01*
X14917318Y1405229D01*
X14901773Y1395933D01*
X14887295Y1385062D01*
X14873986Y1372768D01*
X14862048Y1359154D01*
X14851532Y1344371D01*
X14842642Y1328623D01*
X14835378Y1312011D01*
X14829891Y1294790D01*
X14826183Y1277061D01*
X14824303Y1259027D01*
X14824303Y1240942D01*
X14826183Y1222908D01*
X14829891Y1205179D01*
X14835378Y1187958D01*
X14842642Y1171346D01*
X14851532Y1155598D01*
X14862048Y1140815D01*
X14873986Y1127201D01*
X14887295Y1114907D01*
X14901773Y1104036D01*
X14917318Y1094740D01*
X14933726Y1087069D01*
X14950795Y1081074D01*
X14968423Y1076960D01*
X14986406Y1074623D01*
G37*
G36*
X5004511Y1074166D02*
G01*
X5022596Y1075537D01*
X5040376Y1078788D01*
X5057800Y1083868D01*
X5074564Y1090676D01*
X5090515Y1099210D01*
X5105552Y1109319D01*
X5119471Y1120902D01*
X5132120Y1133856D01*
X5143347Y1148080D01*
X5153050Y1163370D01*
X5161178Y1179525D01*
X5167528Y1196492D01*
X5172151Y1214018D01*
X5174945Y1231900D01*
X5175859Y1249984D01*
X5174945Y1268069D01*
X5172151Y1285951D01*
X5167528Y1303477D01*
X5161178Y1320444D01*
X5153050Y1336598D01*
X5143347Y1351889D01*
X5132120Y1366113D01*
X5119471Y1379067D01*
X5105552Y1390650D01*
X5090515Y1400759D01*
X5074564Y1409293D01*
X5057800Y1416100D01*
X5040376Y1421180D01*
X5022596Y1424432D01*
X5004511Y1425803D01*
X4986426Y1425346D01*
X4968443Y1423009D01*
X4950815Y1418894D01*
X4933746Y1412900D01*
X4917338Y1405229D01*
X4901793Y1395933D01*
X4887315Y1385062D01*
X4874006Y1372768D01*
X4862068Y1359154D01*
X4851552Y1344371D01*
X4842662Y1328623D01*
X4835398Y1312011D01*
X4829911Y1294790D01*
X4826203Y1277061D01*
X4824323Y1259027D01*
X4824323Y1240942D01*
X4826203Y1222908D01*
X4829911Y1205179D01*
X4835398Y1187958D01*
X4842662Y1171346D01*
X4851552Y1155598D01*
X4862068Y1140815D01*
X4874006Y1127201D01*
X4887315Y1114907D01*
X4901793Y1104036D01*
X4917338Y1094740D01*
X4933746Y1087069D01*
X4950815Y1081074D01*
X4968443Y1076960D01*
X4986426Y1074623D01*
G37*
G36*
X17502378Y1643176D02*
G01*
X17511928Y1644396D01*
X17521174Y1647240D01*
X17529759Y1651558D01*
X17537531Y1657299D01*
X17544237Y1664258D01*
X17549622Y1672285D01*
X17553584Y1681073D01*
X17556022Y1690370D01*
X17556835Y1699971D01*
X17556022Y1709623D01*
X17553584Y1718919D01*
X17549622Y1727707D01*
X17544237Y1735734D01*
X17537531Y1742693D01*
X17529759Y1748434D01*
X17521174Y1752752D01*
X17511928Y1755597D01*
X17502378Y1756816D01*
X17492726Y1756410D01*
X17483328Y1754378D01*
X17474336Y1750771D01*
X17466157Y1745742D01*
X17460925Y1741119D01*
X17457826Y1739239D01*
X17454219Y1738579D01*
X12920167Y1738579D01*
X12916306Y1739392D01*
X12913004Y1741576D01*
X12609677Y2044852D01*
X12607645Y2047748D01*
X12606782Y2051202D01*
X12606020Y2059584D01*
X12603632Y2068931D01*
X12599619Y2077720D01*
X12594234Y2085695D01*
X12587579Y2092655D01*
X12579807Y2098395D01*
X12571171Y2102764D01*
X12561976Y2105558D01*
X12552426Y2106828D01*
X12542774Y2106371D01*
X12533325Y2104339D01*
X12524384Y2100783D01*
X12516154Y2095703D01*
X12508941Y2089353D01*
X12502845Y2081834D01*
X12498171Y2073402D01*
X12494971Y2064308D01*
X12493345Y2054809D01*
X12493345Y2045157D01*
X12494971Y2035657D01*
X12498171Y2026564D01*
X12502845Y2018131D01*
X12508941Y2010613D01*
X12516154Y2004263D01*
X12524384Y1999183D01*
X12533325Y1995627D01*
X12542774Y1993595D01*
X12548260Y1993341D01*
X12551918Y1992477D01*
X12555016Y1990394D01*
X12872313Y1673047D01*
X12878562Y1667916D01*
X12885216Y1664360D01*
X12892430Y1662175D01*
X12900456Y1661363D01*
X17454219Y1661363D01*
X17457826Y1660753D01*
X17460925Y1658874D01*
X17466157Y1654251D01*
X17474336Y1649222D01*
X17483328Y1645615D01*
X17492726Y1643583D01*
G37*
G36*
X2982417Y1673148D02*
G01*
X2991967Y1674418D01*
X3001213Y1677212D01*
X3009798Y1681581D01*
X3017570Y1687322D01*
X3024276Y1694281D01*
X3029661Y1702257D01*
X3033623Y1711045D01*
X3036062Y1720392D01*
X3036874Y1729993D01*
X3036062Y1739595D01*
X3033623Y1748942D01*
X3029661Y1757730D01*
X3024276Y1765706D01*
X3017570Y1772666D01*
X3009798Y1778406D01*
X3001213Y1782775D01*
X2991967Y1785569D01*
X2982417Y1786839D01*
X2972765Y1786382D01*
X2963367Y1784350D01*
X2954375Y1780793D01*
X2946196Y1775714D01*
X2938932Y1769364D01*
X2932887Y1761845D01*
X2928162Y1753412D01*
X2924962Y1744319D01*
X2923336Y1734820D01*
X2923336Y1725168D01*
X2924962Y1715668D01*
X2928162Y1706575D01*
X2932887Y1698142D01*
X2938932Y1690624D01*
X2946196Y1684274D01*
X2954375Y1679193D01*
X2963367Y1675638D01*
X2972765Y1673606D01*
G37*
G36*
X8102396Y1693164D02*
G01*
X8111947Y1694383D01*
X8121192Y1697228D01*
X8129778Y1701546D01*
X8137550Y1707286D01*
X8144256Y1714246D01*
X8149640Y1722272D01*
X8153603Y1731060D01*
X8156041Y1740357D01*
X8156854Y1749958D01*
X8156041Y1759610D01*
X8153603Y1768906D01*
X8149640Y1777695D01*
X8144256Y1785721D01*
X8137550Y1792681D01*
X8129778Y1798421D01*
X8121192Y1802739D01*
X8111947Y1805584D01*
X8102396Y1806803D01*
X8092744Y1806397D01*
X8083346Y1804365D01*
X8074355Y1800758D01*
X8066176Y1795729D01*
X8060944Y1791106D01*
X8057845Y1789226D01*
X8054238Y1788566D01*
X7870190Y1788566D01*
X7866329Y1789379D01*
X7863027Y1791563D01*
X7609687Y2044903D01*
X7607655Y2047798D01*
X7606741Y2051202D01*
X7606030Y2059584D01*
X7603642Y2068931D01*
X7599629Y2077720D01*
X7594244Y2085695D01*
X7587589Y2092655D01*
X7579817Y2098395D01*
X7571181Y2102764D01*
X7561986Y2105558D01*
X7552436Y2106828D01*
X7542784Y2106371D01*
X7533335Y2104339D01*
X7524394Y2100783D01*
X7516164Y2095703D01*
X7508951Y2089353D01*
X7502855Y2081834D01*
X7498181Y2073402D01*
X7494981Y2064308D01*
X7493355Y2054809D01*
X7493355Y2045157D01*
X7494981Y2035657D01*
X7498181Y2026564D01*
X7502855Y2018131D01*
X7508951Y2010613D01*
X7516164Y2004263D01*
X7524394Y1999183D01*
X7533335Y1995627D01*
X7542784Y1993595D01*
X7548270Y1993341D01*
X7551928Y1992477D01*
X7555026Y1990394D01*
X7822336Y1723034D01*
X7828584Y1717903D01*
X7835239Y1714347D01*
X7842503Y1712163D01*
X7850479Y1711350D01*
X8054238Y1711350D01*
X8057845Y1710740D01*
X8060944Y1708861D01*
X8066176Y1704238D01*
X8074355Y1699209D01*
X8083346Y1695602D01*
X8092744Y1693570D01*
G37*
G36*
X2262428Y2103170D02*
G01*
X2271979Y2104390D01*
X2281174Y2107234D01*
X2289810Y2111552D01*
X2297582Y2117293D01*
X2304237Y2124252D01*
X2309622Y2132279D01*
X2313635Y2141067D01*
X2316022Y2150364D01*
X2316886Y2159965D01*
X2316022Y2169617D01*
X2313635Y2178913D01*
X2309622Y2187702D01*
X2304237Y2195728D01*
X2297582Y2202688D01*
X2289810Y2208428D01*
X2281174Y2212746D01*
X2271979Y2215591D01*
X2262428Y2216810D01*
X2252776Y2216404D01*
X2243328Y2214372D01*
X2234387Y2210765D01*
X2226157Y2205736D01*
X2218944Y2199335D01*
X2212848Y2191816D01*
X2208174Y2183434D01*
X2204974Y2174341D01*
X2203348Y2164791D01*
X2203348Y2155190D01*
X2204974Y2145639D01*
X2208174Y2136546D01*
X2212848Y2128164D01*
X2218944Y2120646D01*
X2226157Y2114245D01*
X2234387Y2109216D01*
X2243328Y2105609D01*
X2252776Y2103577D01*
G37*
G36*
X15004491Y28324098D02*
G01*
X15022576Y28325521D01*
X15040356Y28328772D01*
X15057780Y28333801D01*
X15074544Y28340659D01*
X15090495Y28349143D01*
X15105532Y28359252D01*
X15119451Y28370834D01*
X15132100Y28383839D01*
X15143327Y28398012D01*
X15153030Y28413303D01*
X15161158Y28429508D01*
X15167508Y28446476D01*
X15172131Y28463951D01*
X15174925Y28481832D01*
X15175839Y28499917D01*
X15174925Y28518053D01*
X15172131Y28535934D01*
X15167508Y28553410D01*
X15161158Y28570377D01*
X15153030Y28586582D01*
X15143327Y28601873D01*
X15132100Y28616046D01*
X15119451Y28629051D01*
X15105532Y28640633D01*
X15090495Y28650742D01*
X15074544Y28659226D01*
X15057780Y28666084D01*
X15040356Y28671113D01*
X15022576Y28674364D01*
X15004491Y28675787D01*
X14986406Y28675330D01*
X14968423Y28672993D01*
X14950795Y28668827D01*
X14933726Y28662884D01*
X14917318Y28655213D01*
X14901773Y28645865D01*
X14887295Y28634994D01*
X14873986Y28622701D01*
X14862048Y28609086D01*
X14851532Y28594354D01*
X14842642Y28578606D01*
X14835378Y28561995D01*
X14829891Y28544723D01*
X14826183Y28526994D01*
X14824303Y28509010D01*
X14824303Y28490875D01*
X14826183Y28472892D01*
X14829891Y28455162D01*
X14835378Y28437890D01*
X14842642Y28421279D01*
X14851532Y28405531D01*
X14862048Y28390799D01*
X14873986Y28377184D01*
X14887295Y28364891D01*
X14901773Y28354020D01*
X14917318Y28344672D01*
X14933726Y28337002D01*
X14950795Y28331058D01*
X14968423Y28326892D01*
X14986406Y28324556D01*
G37*
G36*
X5004511Y28324098D02*
G01*
X5022596Y28325521D01*
X5040376Y28328772D01*
X5057800Y28333801D01*
X5074564Y28340659D01*
X5090515Y28349143D01*
X5105552Y28359252D01*
X5119471Y28370834D01*
X5132120Y28383839D01*
X5143347Y28398012D01*
X5153050Y28413303D01*
X5161178Y28429508D01*
X5167528Y28446476D01*
X5172151Y28463951D01*
X5174945Y28481832D01*
X5175859Y28499917D01*
X5174945Y28518053D01*
X5172151Y28535934D01*
X5167528Y28553410D01*
X5161178Y28570377D01*
X5153050Y28586582D01*
X5143347Y28601873D01*
X5132120Y28616046D01*
X5119471Y28629051D01*
X5105552Y28640633D01*
X5090515Y28650742D01*
X5074564Y28659226D01*
X5057800Y28666084D01*
X5040376Y28671113D01*
X5022596Y28674364D01*
X5004511Y28675787D01*
X4986426Y28675330D01*
X4968443Y28672993D01*
X4950815Y28668827D01*
X4933746Y28662884D01*
X4917338Y28655213D01*
X4901793Y28645865D01*
X4887315Y28634994D01*
X4874006Y28622701D01*
X4862068Y28609086D01*
X4851552Y28594354D01*
X4842662Y28578606D01*
X4835398Y28561995D01*
X4829911Y28544723D01*
X4826203Y28526994D01*
X4824323Y28509010D01*
X4824323Y28490875D01*
X4826203Y28472892D01*
X4829911Y28455162D01*
X4835398Y28437890D01*
X4842662Y28421279D01*
X4851552Y28405531D01*
X4862068Y28390799D01*
X4874006Y28377184D01*
X4887315Y28364891D01*
X4901793Y28354020D01*
X4917338Y28344672D01*
X4933746Y28337002D01*
X4950815Y28331058D01*
X4968443Y28326892D01*
X4986426Y28324556D01*
G37*
G36*
X1355547Y28408172D02*
G01*
X1355547Y28455467D01*
X1308201Y28455467D01*
X1308862Y28453892D01*
X1315821Y28442158D01*
X1324305Y28431489D01*
X1334109Y28421990D01*
X1345082Y28413913D01*
G37*
G36*
X1444447Y28408274D02*
G01*
X1449070Y28410408D01*
X1460550Y28417774D01*
X1470964Y28426562D01*
X1480108Y28436671D01*
X1487830Y28447898D01*
X1491640Y28455467D01*
X1444447Y28455467D01*
G37*
G36*
X1444447Y28544367D02*
G01*
X1491640Y28544367D01*
X1487830Y28551987D01*
X1480108Y28563214D01*
X1470964Y28573323D01*
X1460550Y28582112D01*
X1449070Y28589477D01*
X1444447Y28591611D01*
G37*
G36*
X1308201Y28544367D02*
G01*
X1355547Y28544367D01*
X1355547Y28591713D01*
X1345082Y28585972D01*
X1334109Y28577895D01*
X1324305Y28568396D01*
X1315821Y28557727D01*
X1308862Y28545993D01*
G37*
G36*
X10752429Y29193083D02*
G01*
X10761980Y29194353D01*
X10771174Y29197147D01*
X10779810Y29201516D01*
X10787583Y29207256D01*
X10794238Y29214216D01*
X10799622Y29222192D01*
X10803636Y29230980D01*
X10806023Y29240327D01*
X10806887Y29249928D01*
X10806023Y29259530D01*
X10803636Y29268877D01*
X10799622Y29277665D01*
X10794238Y29285641D01*
X10787583Y29292600D01*
X10779810Y29298341D01*
X10771174Y29302710D01*
X10761980Y29305503D01*
X10752429Y29306774D01*
X10742777Y29306316D01*
X10733328Y29304284D01*
X10724388Y29300728D01*
X10716158Y29295648D01*
X10708944Y29289298D01*
X10702848Y29281780D01*
X10698175Y29273347D01*
X10694974Y29264254D01*
X10693349Y29254754D01*
X10693349Y29245102D01*
X10694974Y29235603D01*
X10698175Y29226510D01*
X10702848Y29218077D01*
X10708944Y29210558D01*
X10716158Y29204208D01*
X10724388Y29199128D01*
X10733328Y29195572D01*
X10742777Y29193540D01*
G37*
G36*
X2418740Y29256075D02*
G01*
X2425293Y29259326D01*
X2436672Y29266946D01*
X2446985Y29275938D01*
X2455976Y29286250D01*
X2463596Y29297630D01*
X2466848Y29304234D01*
X2418740Y29304234D01*
G37*
G36*
X2327300Y29256075D02*
G01*
X2327300Y29304234D01*
X2279142Y29304234D01*
X2282393Y29297630D01*
X2290013Y29286250D01*
X2299004Y29275938D01*
X2309317Y29266946D01*
X2320696Y29259326D01*
G37*
G36*
X2279142Y29395674D02*
G01*
X2327300Y29395674D01*
X2327300Y29443781D01*
X2320696Y29440530D01*
X2309317Y29432961D01*
X2299004Y29423918D01*
X2290013Y29413657D01*
X2282393Y29402277D01*
G37*
G36*
X2418740Y29395674D02*
G01*
X2466848Y29395674D01*
X2463596Y29402277D01*
X2455976Y29413657D01*
X2446985Y29423918D01*
X2436672Y29432961D01*
X2425293Y29440530D01*
X2418740Y29443781D01*
G37*

%LPD*%
D10*
X12499975Y27499945D02*
G01*
X12499975Y28899865D01*
X12499847Y27500071D02*
G01*
X12499847Y2500121D01*
D11*
X2629994Y28339943D02*
G01*
X2626995Y29349928D01*
X2869994Y28339943D02*
G01*
X2880995Y29349928D01*
D10*
X7502987Y28899865D02*
G01*
X4349991Y28899865D01*
X3570465Y28120339D01*
X2379472Y28120339D01*
X17500091Y27500071D02*
G01*
X17500091Y28149804D01*
X16750029Y28899865D01*
X7502987Y28899865D01*
X7502987Y27502949D01*
X7499982Y27499945D01*
X2372868Y29349954D02*
G01*
X2372868Y28556204D01*
X2379472Y28120339D01*
X2499868Y27999944D01*
X2499868Y27500071D01*
D11*
X12549969Y2049995D02*
G01*
X12899974Y1699996D01*
X13099976Y1699996D01*
X12549969Y2049995D02*
G01*
X12899974Y1699996D01*
X17499967Y1699996D01*
X7549989Y2049995D02*
G01*
X7850002Y1749983D01*
X8099983Y1749983D01*
D10*
X2499995Y27499945D02*
G01*
X2499995Y22499954D01*
X2499995Y22499954D02*
G01*
X2499995Y17499964D01*
X2499995Y17499964D02*
G01*
X2499995Y12499975D01*
X2499995Y12499975D02*
G01*
X2499995Y7499985D01*
X2499995Y7499985D02*
G01*
X2499995Y2499995D01*
X2372995Y649986D02*
G01*
X2369995Y652985D01*
X2369995Y1259997D01*
X2499995Y1389997D01*
X2499995Y2499995D01*
X7499982Y27499945D02*
G01*
X7499982Y22499954D01*
X7499858Y22499828D02*
G01*
X7499858Y17500092D01*
X7499858Y17500092D02*
G01*
X7499858Y12499847D01*
X7499858Y12499847D02*
G01*
X7499858Y2500121D01*
X17500091Y27500071D02*
G01*
X17500091Y2500121D01*
D12*
G01*
X2118995Y29349928D03*
D13*
G01*
X2372995Y29349928D03*
G01*
X2626995Y29349928D03*
G01*
X2880995Y29349928D03*
D12*
G01*
X2118995Y650011D03*
D13*
G01*
X2372995Y649986D03*
G01*
X2626995Y649986D03*
G01*
X2880995Y649986D03*
D14*
G01*
X1399997Y28999942D03*
G01*
X1399997Y28499943D03*
D15*
G01*
X2259990Y2159990D03*
G01*
X2980004Y1729994D03*
G01*
X10749991Y29249928D03*
G01*
X7549997Y2049983D03*
G01*
X8099983Y1749983D03*
G01*
X12549987Y2049983D03*
G01*
X17499965Y1699996D03*
G01*
X2499995Y27499945D03*
G01*
X2499995Y2499995D03*
G01*
X2499995Y7499985D03*
G01*
X2499995Y12499975D03*
G01*
X2499995Y17499964D03*
G01*
X2499995Y22499954D03*
G01*
X7499984Y27499945D03*
G01*
X7499984Y22499954D03*
G01*
X7499858Y17500092D03*
G01*
X7499984Y12499975D03*
G01*
X7499858Y7499858D03*
G01*
X7499984Y2499995D03*
G01*
X12499975Y2499995D03*
G01*
X12499975Y7499985D03*
G01*
X12499847Y12499847D03*
G01*
X12499975Y17499964D03*
G01*
X12499975Y22499954D03*
G01*
X12499975Y27499945D03*
G01*
X17500091Y27500071D03*
G01*
X17500091Y22499828D03*
G01*
X17499965Y17499964D03*
G01*
X17499965Y12499975D03*
G01*
X17500091Y7499858D03*
G01*
X17500091Y2500121D03*
G01*
X2869996Y28339948D03*
G01*
X2629992Y28339948D03*
M02*
