G04 Layer: TopLayer*
G04 EasyEDA v6.5.34, 2023-09-21 20:05:10*
G04 25a6d9880ab04e118feb333d8ddcd0f2,9bdec9015a8d4a8fb4e1132389f24c00,10*
G04 Gerber Generator version 0.2*
G04 Scale: 100 percent, Rotated: No, Reflected: No *
G04 Dimensions in millimeters *
G04 leading zeros omitted , absolute positions ,4 integer and 5 decimal *
%FSLAX45Y45*%
%MOMM*%

%AMMACRO1*21,1,$1,$2,0,0,$3*%
%ADD10C,3.0000*%
%ADD11C,5.0000*%
%ADD12C,1.0000*%
%ADD13C,0.2540*%
%ADD14MACRO1,0.54X0.7901X90.0000*%
%ADD15R,1.5000X1.0000*%
%ADD16R,1.5748X1.5748*%
%ADD17C,1.5748*%
%ADD18C,1.5240*%
%ADD19C,0.6200*%
%ADD20C,0.0159*%

%LPD*%
G36*
X1560169Y28499917D02*
G01*
X1556258Y28500730D01*
X1552956Y28502914D01*
X1550771Y28506216D01*
X1550009Y28510077D01*
X1550009Y28698952D01*
X1548993Y28699917D01*
X1110183Y28699917D01*
X1106271Y28700730D01*
X1102969Y28702914D01*
X1100785Y28706216D01*
X1100023Y28710077D01*
X1100023Y29289756D01*
X1100785Y29293667D01*
X1102969Y29296969D01*
X1106271Y29299153D01*
X1110183Y29299915D01*
X1548993Y29299915D01*
X1550009Y29300932D01*
X1550009Y29464000D01*
X1550771Y29467860D01*
X1552956Y29471162D01*
X1556258Y29473398D01*
X1560169Y29474160D01*
X2033574Y29474160D01*
X2037842Y29473245D01*
X2041296Y29470603D01*
X2043379Y29466743D01*
X2043633Y29462374D01*
X2042007Y29458310D01*
X2038857Y29455313D01*
X2029053Y29451960D01*
X2024125Y29448861D01*
X2020062Y29444797D01*
X2016963Y29439870D01*
X2015083Y29434434D01*
X2014372Y29428135D01*
X2014372Y29395674D01*
X2073300Y29395674D01*
X2073300Y29464000D01*
X2074062Y29467860D01*
X2076246Y29471162D01*
X2079548Y29473398D01*
X2083409Y29474160D01*
X2154580Y29474160D01*
X2158441Y29473398D01*
X2161743Y29471162D01*
X2163927Y29467860D01*
X2164740Y29464000D01*
X2164740Y29395674D01*
X2223668Y29395674D01*
X2223668Y29428135D01*
X2222906Y29434434D01*
X2221026Y29439870D01*
X2217928Y29444797D01*
X2213864Y29448861D01*
X2208936Y29451960D01*
X2199132Y29455313D01*
X2195982Y29458310D01*
X2194356Y29462374D01*
X2194610Y29466743D01*
X2196693Y29470603D01*
X2200148Y29473245D01*
X2204415Y29474160D01*
X2269845Y29474160D01*
X2273706Y29473398D01*
X2277008Y29471162D01*
X2279243Y29467860D01*
X2280005Y29464000D01*
X2280005Y29399788D01*
X2278938Y29395267D01*
X2276348Y29389984D01*
X2271928Y29377030D01*
X2269286Y29363619D01*
X2268372Y29349953D01*
X2269286Y29336288D01*
X2271928Y29322877D01*
X2276348Y29309923D01*
X2278938Y29304589D01*
X2280005Y29300119D01*
X2280005Y28520948D01*
X2280716Y28519221D01*
X2282647Y28517291D01*
X2284831Y28513989D01*
X2285644Y28510077D01*
X2284831Y28506216D01*
X2282647Y28502914D01*
X2279345Y28500730D01*
X2275484Y28499917D01*
G37*

%LPC*%
G36*
X1355547Y28908146D02*
G01*
X1355547Y28955492D01*
X1308201Y28955492D01*
X1308862Y28953917D01*
X1315821Y28942182D01*
X1324305Y28931463D01*
X1334109Y28921964D01*
X1345082Y28913886D01*
G37*
G36*
X1444447Y28908298D02*
G01*
X1449070Y28910432D01*
X1460550Y28917747D01*
X1470964Y28926536D01*
X1480108Y28936696D01*
X1487830Y28947922D01*
X1491640Y28955492D01*
X1444447Y28955492D01*
G37*
G36*
X1444447Y29044392D02*
G01*
X1491640Y29044392D01*
X1487830Y29051961D01*
X1480108Y29063188D01*
X1470964Y29073348D01*
X1460550Y29082136D01*
X1449070Y29089451D01*
X1444447Y29091585D01*
G37*
G36*
X1308201Y29044392D02*
G01*
X1355547Y29044392D01*
X1355547Y29091737D01*
X1345082Y29085997D01*
X1334109Y29077920D01*
X1324305Y29068420D01*
X1315821Y29057701D01*
X1308862Y29045966D01*
G37*
G36*
X2164740Y29245306D02*
G01*
X2197150Y29245306D01*
X2203500Y29246017D01*
X2208936Y29247896D01*
X2213864Y29250995D01*
X2217928Y29255110D01*
X2221026Y29259987D01*
X2222906Y29265473D01*
X2223668Y29271772D01*
X2223668Y29304234D01*
X2164740Y29304234D01*
G37*
G36*
X2040839Y29245306D02*
G01*
X2073300Y29245306D01*
X2073300Y29304234D01*
X2014372Y29304234D01*
X2014372Y29271772D01*
X2015083Y29265473D01*
X2016963Y29259987D01*
X2020062Y29255110D01*
X2024125Y29250995D01*
X2029053Y29247896D01*
X2034489Y29246017D01*
G37*

%LPD*%
G36*
X1560169Y526034D02*
G01*
X1556258Y526796D01*
X1552956Y529031D01*
X1550771Y532282D01*
X1550009Y536194D01*
X1550009Y2439822D01*
X1550771Y2443734D01*
X1552956Y2447036D01*
X1556258Y2449220D01*
X1560169Y2449982D01*
X2039823Y2449982D01*
X2043734Y2449220D01*
X2047036Y2447036D01*
X2049221Y2443734D01*
X2049983Y2439822D01*
X2049983Y1051001D01*
X2050999Y1049985D01*
X2269845Y1049985D01*
X2273706Y1049223D01*
X2277008Y1047038D01*
X2279243Y1043736D01*
X2280005Y1039825D01*
X2280005Y699820D01*
X2278938Y695350D01*
X2276348Y690016D01*
X2271928Y677062D01*
X2269286Y663651D01*
X2268372Y649986D01*
X2269286Y636320D01*
X2271928Y622909D01*
X2276348Y609955D01*
X2278938Y604672D01*
X2280005Y600151D01*
X2280005Y536194D01*
X2279243Y532282D01*
X2277008Y529031D01*
X2273706Y526796D01*
X2269845Y526034D01*
X2206040Y526034D01*
X2202078Y526846D01*
X2198725Y529132D01*
X2196541Y532536D01*
X2195880Y536498D01*
X2196795Y540461D01*
X2199182Y543712D01*
X2202688Y545795D01*
X2208936Y547979D01*
X2213864Y551078D01*
X2217928Y555142D01*
X2221026Y560070D01*
X2222906Y565505D01*
X2223668Y571804D01*
X2223668Y604266D01*
X2164740Y604266D01*
X2164740Y536194D01*
X2163927Y532282D01*
X2161743Y529031D01*
X2158441Y526796D01*
X2154580Y526034D01*
X2083409Y526034D01*
X2079548Y526796D01*
X2076246Y529031D01*
X2074062Y532282D01*
X2073300Y536194D01*
X2073300Y604266D01*
X2014372Y604266D01*
X2014372Y571804D01*
X2015083Y565505D01*
X2016963Y560070D01*
X2020062Y555142D01*
X2024125Y551078D01*
X2029053Y547979D01*
X2035302Y545795D01*
X2038807Y543712D01*
X2041194Y540461D01*
X2042109Y536498D01*
X2041448Y532536D01*
X2039264Y529132D01*
X2035911Y526846D01*
X2031949Y526034D01*
G37*

%LPC*%
G36*
X2164740Y695706D02*
G01*
X2223668Y695706D01*
X2223668Y728167D01*
X2222906Y734466D01*
X2221026Y739952D01*
X2217928Y744829D01*
X2213864Y748944D01*
X2208936Y752043D01*
X2203500Y753922D01*
X2197150Y754634D01*
X2164740Y754634D01*
G37*
G36*
X2014372Y695706D02*
G01*
X2073300Y695706D01*
X2073300Y754634D01*
X2040839Y754634D01*
X2034489Y753922D01*
X2029053Y752043D01*
X2024125Y748944D01*
X2020062Y744829D01*
X2016963Y739952D01*
X2015083Y734466D01*
X2014372Y728167D01*
G37*

%LPD*%
D10*
X2118868Y29349954D02*
G01*
X1799996Y28749942D01*
D11*
X1799996Y27499945D02*
G01*
X1799996Y28749942D01*
X6806684Y29100018D02*
G01*
X6806684Y2499995D01*
X1799996Y22499828D02*
G01*
X1799996Y17500092D01*
X1799996Y17500092D02*
G01*
X1799996Y12499975D01*
D10*
X1800605Y2500121D02*
G01*
X1800605Y799337D01*
X1949958Y649986D01*
X2118868Y649986D01*
D12*
X12259970Y17499964D02*
G01*
X11808528Y17499964D01*
X17259960Y17499964D02*
G01*
X16800068Y17499964D01*
X17259960Y22499954D02*
G01*
X16799966Y22499954D01*
D11*
X1799996Y12499975D02*
G01*
X1799996Y2499995D01*
D13*
X2869994Y28339943D02*
G01*
X2869994Y27449945D01*
X2759999Y27339950D01*
X2739999Y27339950D01*
X2739999Y27659939D02*
G01*
X2739999Y28229938D01*
X2629994Y28339943D01*
D11*
X16800068Y27500071D02*
G01*
X16800068Y2499995D01*
D12*
X17259960Y2499995D02*
G01*
X16799966Y2499995D01*
X12259970Y2499995D02*
G01*
X11799976Y2499995D01*
X7259980Y2499995D02*
G01*
X6799986Y2499995D01*
X7259980Y7499985D02*
G01*
X6799986Y7499985D01*
X17259960Y7499985D02*
G01*
X16799966Y7499985D01*
X12259970Y7499985D02*
G01*
X11799976Y7499985D01*
X17259960Y12499975D02*
G01*
X16799966Y12499975D01*
X12259970Y12499975D02*
G01*
X11799976Y12499975D01*
X7259980Y12499975D02*
G01*
X6799986Y12499975D01*
X7259980Y17499964D02*
G01*
X6799986Y17499964D01*
X12259970Y22499954D02*
G01*
X11799976Y22499954D01*
X7259980Y22499954D02*
G01*
X6799986Y22499954D01*
X17259960Y27499945D02*
G01*
X16799966Y27499945D01*
X12259970Y27499945D02*
G01*
X11799976Y27499945D01*
X7259980Y27499945D02*
G01*
X6799986Y27499945D01*
X2259990Y27499945D02*
G01*
X1799996Y27499945D01*
X2259990Y2499995D02*
G01*
X1699996Y2499995D01*
X2259990Y7499985D02*
G01*
X1699996Y7499985D01*
X2259990Y12499975D02*
G01*
X1699996Y12499975D01*
X1700021Y17500092D02*
G01*
X2260091Y17500092D01*
X2260091Y22499828D02*
G01*
X1800097Y22499828D01*
D13*
X12259965Y2340000D02*
G01*
X12549969Y2049995D01*
X8099983Y1749996D02*
G01*
X12599863Y1749996D01*
X12999976Y2150107D01*
X12999976Y27499945D01*
X12839971Y27659942D01*
X12739984Y27659942D01*
X7259980Y2340000D02*
G01*
X7549997Y2049983D01*
X2245481Y27899946D02*
G01*
X2259992Y27885443D01*
X2259992Y27659942D01*
X2259992Y12659972D02*
G01*
X2245481Y12674475D01*
X2245481Y12899974D01*
X2259992Y17659957D02*
G01*
X2245481Y17674462D01*
X2245481Y17899961D01*
X2259992Y22659949D02*
G01*
X2245481Y22674455D01*
X2245481Y22899954D01*
X2259992Y7659979D02*
G01*
X2245481Y7674483D01*
X2245481Y7899981D01*
X2259992Y2659992D02*
G01*
X2245481Y2674490D01*
X2245481Y2899996D01*
X2739999Y22659949D02*
G01*
X2789994Y22659949D01*
X2899991Y22549954D01*
X2899991Y22449952D01*
X2789994Y22339957D01*
X2739999Y22339957D01*
X2739999Y17659957D02*
G01*
X2789994Y17659957D01*
X2899991Y17549967D01*
X2899991Y17449967D01*
X2789994Y17339970D01*
X2739999Y17339970D01*
X2739999Y7659979D02*
G01*
X2789994Y7659979D01*
X2899991Y7549982D01*
X2899991Y7399982D01*
X2839999Y7339992D01*
X2739999Y7339992D01*
X7354491Y27899946D02*
G01*
X7499982Y27754455D01*
X7499982Y27499945D01*
X7499982Y27499945D02*
G01*
X7739992Y27499945D01*
X7354491Y22899954D02*
G01*
X7499982Y22754462D01*
X7499982Y22499954D01*
X7499982Y22499954D02*
G01*
X7739992Y22499954D01*
X7354491Y17899961D02*
G01*
X7499982Y17754475D01*
X7499982Y17499967D01*
X7499982Y17499967D02*
G01*
X7739992Y17499967D01*
X7245474Y27899946D02*
G01*
X7259985Y27885443D01*
X7259985Y27659942D01*
X7245474Y22899954D02*
G01*
X7259985Y22885450D01*
X7259985Y22659949D01*
X7245474Y17899961D02*
G01*
X7259985Y17885463D01*
X7259985Y17659957D01*
X7245474Y12899974D02*
G01*
X7259985Y12885470D01*
X7259985Y12659972D01*
X7245474Y7899981D02*
G01*
X7259985Y7885478D01*
X7259985Y7659979D01*
X7245474Y2899996D02*
G01*
X7259985Y2885493D01*
X7259985Y2659992D01*
X12245466Y2899996D02*
G01*
X12259965Y2885493D01*
X12259965Y2659992D01*
X12245466Y7899981D02*
G01*
X12259965Y7885478D01*
X12259965Y7659979D01*
X12245466Y12899974D02*
G01*
X12259965Y12885470D01*
X12259965Y12659972D01*
X12245466Y17899961D02*
G01*
X12259965Y17885463D01*
X12259965Y17659957D01*
X12245466Y22899954D02*
G01*
X12259965Y22885450D01*
X12259965Y22659949D01*
X12245466Y27899946D02*
G01*
X12259965Y27885443D01*
X12259965Y27659942D01*
X17245459Y27899946D02*
G01*
X17259957Y27885443D01*
X17259957Y27659942D01*
X17245459Y22899954D02*
G01*
X17259957Y22885450D01*
X17259957Y22659949D01*
X17245459Y17899961D02*
G01*
X17259957Y17885463D01*
X17259957Y17659957D01*
X17245459Y12899974D02*
G01*
X17259957Y12885470D01*
X17259957Y12659972D01*
X17245459Y7899981D02*
G01*
X17259957Y7885478D01*
X17259957Y7659979D01*
X17245459Y2899996D02*
G01*
X17259957Y2885493D01*
X17259957Y2659992D01*
X7354491Y12899974D02*
G01*
X7499982Y12754483D01*
X7499982Y12499975D01*
X7499982Y12499975D02*
G01*
X7739992Y12499975D01*
X7499982Y7499982D02*
G01*
X7739992Y7499982D01*
X7354491Y2899996D02*
G01*
X7499984Y2754503D01*
X7499984Y2499995D01*
X12354483Y27899946D02*
G01*
X12499975Y27754455D01*
X12499975Y27499945D01*
X12499975Y27499945D02*
G01*
X12739984Y27499945D01*
X12354483Y22899954D02*
G01*
X12499975Y22754462D01*
X12499975Y22499954D01*
X12499975Y22499954D02*
G01*
X12739984Y22499954D01*
X12354483Y17899961D02*
G01*
X12499975Y17754475D01*
X12499975Y17499967D01*
X12499975Y17499967D02*
G01*
X12739984Y17499967D01*
X12354483Y12899974D02*
G01*
X12499975Y12754483D01*
X12499975Y12499975D01*
X12499975Y12499975D02*
G01*
X12739984Y12499975D01*
X12354483Y7899981D02*
G01*
X12499975Y7754490D01*
X12499975Y7499982D01*
X12499975Y7499982D02*
G01*
X12739984Y7499982D01*
X12354483Y2899996D02*
G01*
X12499975Y2754505D01*
X12499975Y2499995D01*
X17354476Y27899946D02*
G01*
X17499967Y27754455D01*
X17499967Y27499945D01*
X17499967Y27499945D02*
G01*
X17739964Y27499945D01*
X17499967Y7499982D02*
G01*
X17739964Y7499982D01*
X17499967Y7499982D02*
G01*
X17499967Y7754490D01*
X17354476Y7899981D01*
X17499967Y12499975D02*
G01*
X17739964Y12499975D01*
X17354476Y12899974D02*
G01*
X17499967Y12754483D01*
X17499967Y12499975D01*
X17739964Y17499967D02*
G01*
X17499967Y17499967D01*
X17499967Y17499967D02*
G01*
X17499967Y17754475D01*
X17354476Y17899961D01*
X17499967Y22499954D02*
G01*
X17739964Y22499954D01*
X17499967Y22499954D02*
G01*
X17499967Y22754462D01*
X17354476Y22899954D01*
X7739992Y27339950D02*
G01*
X7853870Y27226072D01*
X7999984Y27226072D01*
X7739992Y22659949D02*
G01*
X7789986Y22659949D01*
X7899981Y22549954D01*
X7899981Y22449952D01*
X7789986Y22339957D01*
X7739992Y22339957D01*
X7739992Y17659957D02*
G01*
X7789986Y17659957D01*
X7899981Y17549967D01*
X7899981Y17449967D01*
X7789986Y17339970D01*
X7739992Y17339970D01*
X7739992Y12659972D02*
G01*
X7789986Y12659972D01*
X7899981Y12549974D01*
X7899981Y12449975D01*
X7789986Y12339977D01*
X7739992Y12339977D01*
X7739893Y2659887D02*
G01*
X7790185Y2659887D01*
X7899908Y2549903D01*
X7899908Y2450084D01*
X7790185Y2340099D01*
X7739893Y2340099D01*
X7739893Y7659880D02*
G01*
X7789923Y7659880D01*
X7899908Y7549895D01*
X7899908Y7450076D01*
X7789923Y7340092D01*
X7739893Y7340092D01*
X12739984Y22659949D02*
G01*
X12789979Y22659949D01*
X12899974Y22549954D01*
X12899974Y22449952D01*
X12789979Y22339957D01*
X12739984Y22339957D01*
X12739984Y17659957D02*
G01*
X12789979Y17659957D01*
X12899974Y17549967D01*
X12899974Y17449967D01*
X12789979Y17339970D01*
X12739984Y17339970D01*
X12739984Y12659972D02*
G01*
X12789979Y12659972D01*
X12899974Y12549974D01*
X12899974Y12449975D01*
X12789979Y12339977D01*
X12739984Y12339977D01*
X12739984Y7659979D02*
G01*
X12789979Y7659979D01*
X12899974Y7549982D01*
X12899974Y7449982D01*
X12789979Y7339992D01*
X12739984Y7339992D01*
X12739984Y2659992D02*
G01*
X12789979Y2659992D01*
X12899974Y2549997D01*
X12899974Y2449995D01*
X12789979Y2340000D01*
X12739984Y2340000D01*
X12739984Y27339950D02*
G01*
X12824284Y27255645D01*
X12999976Y27255645D01*
X17739865Y2659887D02*
G01*
X17789908Y2659887D01*
X17899893Y2549903D01*
X17899893Y2450084D01*
X17789908Y2340099D01*
X17739865Y2340099D01*
X17739964Y7659979D02*
G01*
X17789972Y7659979D01*
X17899966Y7549982D01*
X17899966Y7449982D01*
X17789972Y7339992D01*
X17739964Y7339992D01*
X17739964Y12659972D02*
G01*
X17789972Y12659972D01*
X17899966Y12549974D01*
X17899966Y12449975D01*
X17789972Y12339977D01*
X17739964Y12339977D01*
X17739964Y17659957D02*
G01*
X17789972Y17659957D01*
X17899966Y17549967D01*
X17899966Y17449967D01*
X17789972Y17339970D01*
X17739964Y17339970D01*
X17739964Y22659949D02*
G01*
X17789972Y22659949D01*
X17899966Y22549954D01*
X17899966Y22449952D01*
X17789972Y22339957D01*
X17739964Y22339957D01*
X17500091Y1700019D02*
G01*
X17599919Y1700019D01*
X17999969Y2100069D01*
X17999969Y27499945D01*
X17839964Y27659942D01*
X17739964Y27659942D01*
X17739964Y27339950D02*
G01*
X17835425Y27244489D01*
X17999969Y27244489D01*
X2260091Y2340099D02*
G01*
X2260091Y2160092D01*
X2259990Y2159990D01*
X2880989Y650001D02*
G01*
X2905696Y674700D01*
X2905696Y899919D01*
X17260056Y2340099D02*
G01*
X17249960Y1049995D01*
X17120108Y899919D01*
X2750058Y899919D01*
X2626865Y776988D01*
X2626865Y649988D01*
X7354491Y7899981D02*
G01*
X7499982Y7754490D01*
X7499982Y7499982D01*
X2739999Y12659969D02*
G01*
X2809999Y12659969D01*
X2909994Y12559974D01*
X2909994Y12459975D01*
X2789999Y12339980D01*
X2739999Y12339980D01*
X2739999Y2659989D02*
G01*
X2779999Y2659989D01*
X2869994Y2569994D01*
X2869994Y2439995D01*
X2769999Y2340000D01*
X2739999Y2340000D01*
X2350008Y27904437D02*
G01*
X2354498Y27899946D01*
X2372995Y29349928D02*
G01*
X2372995Y29349928D01*
X2350008Y29326941D01*
X2739999Y27499945D02*
G01*
X2499995Y27499945D01*
X2354503Y27899944D02*
G01*
X2499995Y27754453D01*
X2499995Y27499945D01*
X2499995Y2499995D02*
G01*
X2499995Y2499995D01*
X2499995Y2754503D01*
X2354503Y2899994D01*
X2739999Y2499995D02*
G01*
X2499995Y2499995D01*
X2499995Y7499985D02*
G01*
X2499995Y7499985D01*
X2499995Y7754493D01*
X2354503Y7899984D01*
X2739999Y7499985D02*
G01*
X2499995Y7499985D01*
X2739999Y12499975D02*
G01*
X2499995Y12499975D01*
X2499995Y12499975D02*
G01*
X2499995Y12754483D01*
X2354503Y12899974D01*
X2499995Y17499964D02*
G01*
X2499995Y17499964D01*
X2499995Y17754473D01*
X2354503Y17899964D01*
X2739999Y17499964D02*
G01*
X2499995Y17499964D01*
X2499995Y22499954D02*
G01*
X2499995Y22499954D01*
X2499995Y22754462D01*
X2354503Y22899954D01*
X2739999Y22499954D02*
G01*
X2499995Y22499954D01*
X2260091Y27340052D02*
G01*
X2260091Y25690068D01*
X2739897Y25210008D01*
X2739897Y22659848D01*
X2260091Y7340092D02*
G01*
X2260091Y5690107D01*
X2739897Y5210047D01*
X2739897Y2659887D01*
X2260091Y22340062D02*
G01*
X2260091Y20739862D01*
X2739999Y20259954D01*
X2739999Y17659957D01*
X2260091Y17340071D02*
G01*
X2260091Y15689834D01*
X2739897Y15210028D01*
X2739897Y12659868D01*
X2260091Y12340081D02*
G01*
X2260091Y10690097D01*
X2739897Y10210037D01*
X2739897Y7659878D01*
X17500091Y2500121D02*
G01*
X17500091Y2500121D01*
X17739868Y2500121D01*
X17354550Y2899918D02*
G01*
X17500091Y2754629D01*
X17500091Y2500121D01*
X12499975Y2499995D02*
G01*
X12499975Y2499995D01*
X12739984Y2499995D01*
X2259995Y2159995D02*
G01*
X2689994Y1729996D01*
X2979994Y1729996D01*
X7499984Y2499995D02*
G01*
X7499984Y2499995D01*
X7739992Y2499995D01*
X7260081Y27340052D02*
G01*
X7260081Y25739852D01*
X7739888Y25260045D01*
X7739888Y22659848D01*
X7260081Y22340062D02*
G01*
X7260081Y20689824D01*
X7739888Y20210018D01*
X7739888Y17659858D01*
X7260081Y17340071D02*
G01*
X7260081Y15690087D01*
X7739888Y15210028D01*
X7739888Y12659868D01*
X7260081Y12340081D02*
G01*
X7260081Y10690097D01*
X7739888Y10210037D01*
X7739888Y7659878D01*
X7260081Y7340092D02*
G01*
X7260081Y5789929D01*
X7739888Y5309870D01*
X7739888Y2659887D01*
X12739877Y2659887D02*
G01*
X12740131Y5259831D01*
X12260072Y5739892D01*
X12260072Y7340092D01*
X12260072Y12340081D02*
G01*
X12260072Y10739881D01*
X12740131Y10259821D01*
X12739877Y7659878D01*
X12260077Y17340069D02*
G01*
X12260077Y15739869D01*
X12740134Y15259812D01*
X12739872Y12659865D01*
X12260072Y22340062D02*
G01*
X12260072Y20739862D01*
X12739877Y20260055D01*
X12739877Y17659858D01*
X12260072Y27340052D02*
G01*
X12260072Y25639776D01*
X12739877Y25159970D01*
X12739877Y22659848D01*
X17260061Y27340052D02*
G01*
X17259808Y25640029D01*
X17739868Y25159970D01*
X17739868Y22659848D01*
X17260061Y22340062D02*
G01*
X17259808Y20740116D01*
X17739868Y20260055D01*
X17739868Y17659858D01*
X17260061Y17340071D02*
G01*
X17259808Y15740126D01*
X17739868Y15260066D01*
X17739868Y12659868D01*
X17260061Y12340081D02*
G01*
X17259808Y10740136D01*
X17739868Y10260076D01*
X17739868Y7659878D01*
X17260061Y7340092D02*
G01*
X17259808Y5740145D01*
X17739868Y5260086D01*
X17739868Y2659887D01*
D11*
X1799996Y27499945D02*
G01*
X1799996Y22499828D01*
X16800068Y27500071D02*
G01*
X16800068Y27900121D01*
X15599918Y29100018D01*
X3550158Y29100018D01*
X3199891Y28750005D01*
X1800097Y28750005D01*
X11808528Y29100018D02*
G01*
X11808528Y2499995D01*
D13*
X2980004Y1729994D02*
G01*
X7679943Y1729994D01*
X7999984Y2050034D01*
X7999984Y27500069D01*
X7839969Y27659837D01*
X7739893Y27659837D01*
D14*
G01*
X2354501Y27899944D03*
G01*
X2245489Y27899944D03*
G01*
X2354501Y22899954D03*
G01*
X2245489Y22899954D03*
G01*
X2354501Y17899964D03*
G01*
X2245489Y17899964D03*
G01*
X2354501Y12899974D03*
G01*
X2245489Y12899974D03*
G01*
X2354501Y7899984D03*
G01*
X2245489Y7899984D03*
G01*
X2354501Y2899994D03*
G01*
X2245489Y2899994D03*
G01*
X7354491Y27899944D03*
G01*
X7245479Y27899944D03*
G01*
X7354491Y22899954D03*
G01*
X7245479Y22899954D03*
G01*
X7354491Y17899964D03*
G01*
X7245479Y17899964D03*
G01*
X7354491Y12899974D03*
G01*
X7245479Y12899974D03*
G01*
X7354491Y7899984D03*
G01*
X7245479Y7899984D03*
G01*
X7354491Y2899994D03*
G01*
X7245479Y2899994D03*
G01*
X12354481Y27899944D03*
G01*
X12245469Y27899944D03*
G01*
X12354481Y22899954D03*
G01*
X12245469Y22899954D03*
G01*
X12354481Y17899964D03*
G01*
X12245469Y17899964D03*
G01*
X12354481Y12899974D03*
G01*
X12245469Y12899974D03*
G01*
X12354481Y7899984D03*
G01*
X12245469Y7899984D03*
G01*
X12354481Y2899994D03*
G01*
X12245469Y2899994D03*
G01*
X17354471Y27899944D03*
G01*
X17245459Y27899944D03*
G01*
X17354471Y22899954D03*
G01*
X17245459Y22899954D03*
G01*
X17354471Y17899964D03*
G01*
X17245459Y17899964D03*
G01*
X17354471Y12899974D03*
G01*
X17245459Y12899974D03*
G01*
X17354471Y7899984D03*
G01*
X17245459Y7899984D03*
G01*
X17354471Y2899994D03*
G01*
X17245459Y2899994D03*
D15*
G01*
X2259990Y27659939D03*
G01*
X2259990Y27499945D03*
G01*
X2259990Y27339950D03*
G01*
X2739999Y27339950D03*
G01*
X2739999Y27499945D03*
G01*
X2739999Y27659939D03*
G01*
X2259990Y22659949D03*
G01*
X2259990Y22499954D03*
G01*
X2259990Y22339960D03*
G01*
X2739999Y22339960D03*
G01*
X2739999Y22499954D03*
G01*
X2739999Y22659949D03*
G01*
X2259990Y17659959D03*
G01*
X2259990Y17499964D03*
G01*
X2259990Y17339970D03*
G01*
X2739999Y17339970D03*
G01*
X2739999Y17499964D03*
G01*
X2739999Y17659959D03*
G01*
X2259990Y12659969D03*
G01*
X2259990Y12499975D03*
G01*
X2259990Y12339980D03*
G01*
X2739999Y12339980D03*
G01*
X2739999Y12499975D03*
G01*
X2739999Y12659969D03*
G01*
X2259990Y7659979D03*
G01*
X2259990Y7499985D03*
G01*
X2259990Y7339990D03*
G01*
X2739999Y7339990D03*
G01*
X2739999Y7499985D03*
G01*
X2739999Y7659979D03*
G01*
X2259990Y2659989D03*
G01*
X2259990Y2499995D03*
G01*
X2259990Y2340000D03*
G01*
X2739999Y2340000D03*
G01*
X2739999Y2499995D03*
G01*
X2739999Y2659989D03*
G01*
X7259980Y27659939D03*
G01*
X7259980Y27499945D03*
G01*
X7259980Y27339950D03*
G01*
X7739989Y27339950D03*
G01*
X7739989Y27499945D03*
G01*
X7739989Y27659939D03*
G01*
X7259980Y22659949D03*
G01*
X7259980Y22499954D03*
G01*
X7259980Y22339960D03*
G01*
X7739989Y22339960D03*
G01*
X7739989Y22499954D03*
G01*
X7739989Y22659949D03*
G01*
X7259980Y17659959D03*
G01*
X7259980Y17499964D03*
G01*
X7259980Y17339970D03*
G01*
X7739989Y17339970D03*
G01*
X7739989Y17499964D03*
G01*
X7739989Y17659959D03*
G01*
X7259980Y12659969D03*
G01*
X7259980Y12499975D03*
G01*
X7259980Y12339980D03*
G01*
X7739989Y12339980D03*
G01*
X7739989Y12499975D03*
G01*
X7739989Y12659969D03*
G01*
X7259980Y7659979D03*
G01*
X7259980Y7499985D03*
G01*
X7259980Y7339990D03*
G01*
X7739989Y7339990D03*
G01*
X7739989Y7499985D03*
G01*
X7739989Y7659979D03*
G01*
X7259980Y2659989D03*
G01*
X7259980Y2499995D03*
G01*
X7259980Y2340000D03*
G01*
X7739989Y2340000D03*
G01*
X7739989Y2499995D03*
G01*
X7739989Y2659989D03*
G01*
X12259970Y27659939D03*
G01*
X12259970Y27499945D03*
G01*
X12259970Y27339950D03*
G01*
X12739979Y27339950D03*
G01*
X12739979Y27499945D03*
G01*
X12739979Y27659939D03*
G01*
X12259970Y22659949D03*
G01*
X12259970Y22499954D03*
G01*
X12259970Y22339960D03*
G01*
X12739979Y22339960D03*
G01*
X12739979Y22499954D03*
G01*
X12739979Y22659949D03*
G01*
X12259970Y17659959D03*
G01*
X12259970Y17499964D03*
G01*
X12259970Y17339970D03*
G01*
X12739979Y17339970D03*
G01*
X12739979Y17499964D03*
G01*
X12739979Y17659959D03*
G01*
X12259970Y12659969D03*
G01*
X12259970Y12499975D03*
G01*
X12259970Y12339980D03*
G01*
X12739979Y12339980D03*
G01*
X12739979Y12499975D03*
G01*
X12739979Y12659969D03*
G01*
X12259970Y7659979D03*
G01*
X12259970Y7499985D03*
G01*
X12259970Y7339990D03*
G01*
X12739979Y7339990D03*
G01*
X12739979Y7499985D03*
G01*
X12739979Y7659979D03*
G01*
X12259970Y2659989D03*
G01*
X12259970Y2499995D03*
G01*
X12259970Y2340000D03*
G01*
X12739979Y2340000D03*
G01*
X12739979Y2499995D03*
G01*
X12739979Y2659989D03*
G01*
X17259960Y27659939D03*
G01*
X17259960Y27499945D03*
G01*
X17259960Y27339950D03*
G01*
X17739969Y27339950D03*
G01*
X17739969Y27499945D03*
G01*
X17739969Y27659939D03*
G01*
X17259960Y22659949D03*
G01*
X17259960Y22499954D03*
G01*
X17259960Y22339960D03*
G01*
X17739969Y22339960D03*
G01*
X17739969Y22499954D03*
G01*
X17739969Y22659949D03*
G01*
X17259960Y17659959D03*
G01*
X17259960Y17499964D03*
G01*
X17259960Y17339970D03*
G01*
X17739969Y17339970D03*
G01*
X17739969Y17499964D03*
G01*
X17739969Y17659959D03*
G01*
X17259960Y12659969D03*
G01*
X17259960Y12499975D03*
G01*
X17259960Y12339980D03*
G01*
X17739969Y12339980D03*
G01*
X17739969Y12499975D03*
G01*
X17739969Y12659969D03*
G01*
X17259960Y7659979D03*
G01*
X17259960Y7499985D03*
G01*
X17259960Y7339990D03*
G01*
X17739969Y7339990D03*
G01*
X17739969Y7499985D03*
G01*
X17739969Y7659979D03*
G01*
X17259960Y2659989D03*
G01*
X17259960Y2499995D03*
G01*
X17259960Y2340000D03*
G01*
X17739969Y2340000D03*
G01*
X17739969Y2499995D03*
G01*
X17739969Y2659989D03*
D16*
G01*
X2118995Y29349928D03*
D17*
G01*
X2372995Y29349928D03*
G01*
X2626995Y29349928D03*
G01*
X2880995Y29349928D03*
D16*
G01*
X2118995Y650011D03*
D17*
G01*
X2372995Y649986D03*
G01*
X2626995Y649986D03*
G01*
X2880995Y649986D03*
D18*
G01*
X1399997Y28999942D03*
G01*
X1399997Y28499943D03*
D19*
G01*
X2259990Y2159990D03*
G01*
X2980004Y1729994D03*
G01*
X10749991Y29249928D03*
G01*
X7549997Y2049983D03*
G01*
X8099983Y1749983D03*
G01*
X12549987Y2049983D03*
G01*
X17499965Y1699996D03*
G01*
X2499995Y27499945D03*
G01*
X2499995Y2499995D03*
G01*
X2499995Y7499985D03*
G01*
X2499995Y12499975D03*
G01*
X2499995Y17499964D03*
G01*
X2499995Y22499954D03*
G01*
X7499984Y27499945D03*
G01*
X7499984Y22499954D03*
G01*
X7499858Y17500092D03*
G01*
X7499984Y12499975D03*
G01*
X7499858Y7499858D03*
G01*
X7499984Y2499995D03*
G01*
X12499975Y2499995D03*
G01*
X12499975Y7499985D03*
G01*
X12499847Y12499847D03*
G01*
X12499975Y17499964D03*
G01*
X12499975Y22499954D03*
G01*
X12499975Y27499945D03*
G01*
X17500091Y27500071D03*
G01*
X17500091Y22499828D03*
G01*
X17499965Y17499964D03*
G01*
X17499965Y12499975D03*
G01*
X17500091Y7499858D03*
G01*
X17500091Y2500121D03*
G01*
X2869996Y28339948D03*
G01*
X2629992Y28339948D03*
M02*
