G04 Layer: TopSilkscreenLayer*
G04 EasyEDA v6.5.34, 2023-09-21 20:05:10*
G04 25a6d9880ab04e118feb333d8ddcd0f2,9bdec9015a8d4a8fb4e1132389f24c00,10*
G04 Gerber Generator version 0.2*
G04 Scale: 100 percent, Rotated: No, Reflected: No *
G04 Dimensions in millimeters *
G04 leading zeros omitted , absolute positions ,4 integer and 5 decimal *
%FSLAX45Y45*%
%MOMM*%

%ADD10C,0.2032*%
%ADD11C,0.1016*%
%ADD12C,0.1524*%
%ADD13C,0.2030*%
%ADD14C,0.2500*%
%ADD15C,0.2540*%
%ADD16C,0.0103*%

%LPD*%
G36*
X18024957Y29274922D02*
G01*
X18024957Y29235806D01*
X18251982Y29235806D01*
X18251982Y29047897D01*
X18064124Y29047897D01*
X18064124Y29235806D01*
X18024957Y29235806D01*
X18024957Y29008781D01*
X18291149Y29008781D01*
X18291149Y29274922D01*
G37*
G36*
X18403366Y29274922D02*
G01*
X18403366Y29197960D01*
X18442482Y29197960D01*
X18442482Y29274922D01*
G37*
G36*
X18479008Y29274922D02*
G01*
X18479008Y29235806D01*
X18516854Y29235806D01*
X18516854Y29199281D01*
X18479008Y29199281D01*
X18479008Y29122268D01*
X18518174Y29122268D01*
X18518174Y29160114D01*
X18554700Y29160114D01*
X18554700Y29122268D01*
X18592546Y29122268D01*
X18592546Y29047897D01*
X18554700Y29047897D01*
X18554700Y28972205D01*
X18593866Y28972205D01*
X18593866Y29046627D01*
X18630392Y29046627D01*
X18630392Y29008781D01*
X18669508Y29008781D01*
X18669508Y29084422D01*
X18781725Y29084422D01*
X18781725Y29046627D01*
X18857417Y29046627D01*
X18857417Y29010051D01*
X18820892Y29010051D01*
X18820892Y29046627D01*
X18781725Y29046627D01*
X18781725Y29010051D01*
X18745200Y29010051D01*
X18745200Y29047897D01*
X18706084Y29047897D01*
X18706084Y28972205D01*
X18668238Y28972205D01*
X18668238Y28970935D01*
X18781725Y28970935D01*
X18781725Y28934410D01*
X18745200Y28934410D01*
X18745200Y28970935D01*
X18668238Y28970935D01*
X18668238Y28934410D01*
X18631712Y28934410D01*
X18631712Y28972205D01*
X18554700Y28972205D01*
X18554700Y28970935D01*
X18592546Y28970935D01*
X18592546Y28934410D01*
X18480328Y28934410D01*
X18480328Y29008781D01*
X18518174Y29008781D01*
X18518174Y29085743D01*
X18441212Y29085743D01*
X18441212Y29047897D01*
X18404636Y29047897D01*
X18404636Y29122268D01*
X18442482Y29122268D01*
X18442482Y29161435D01*
X18327674Y29161435D01*
X18327674Y29122268D01*
X18365520Y29122268D01*
X18365520Y29085743D01*
X18327674Y29085743D01*
X18327674Y29046627D01*
X18479008Y29046627D01*
X18479008Y29010051D01*
X18442482Y29010051D01*
X18442482Y29046627D01*
X18403366Y29046627D01*
X18403366Y29010051D01*
X18366841Y29010051D01*
X18366841Y29046627D01*
X18327674Y29046627D01*
X18327674Y29008781D01*
X18365520Y29008781D01*
X18365520Y28972205D01*
X18251982Y28972205D01*
X18251982Y28970935D01*
X18441212Y28970935D01*
X18441212Y28934410D01*
X18404636Y28934410D01*
X18404636Y28970935D01*
X18251982Y28970935D01*
X18251982Y28933089D01*
X18403366Y28933089D01*
X18403366Y28857397D01*
X18442482Y28857397D01*
X18442482Y28933089D01*
X18479008Y28933089D01*
X18479008Y28895243D01*
X18668238Y28895243D01*
X18668238Y28857397D01*
X18707354Y28857397D01*
X18707354Y28895243D01*
X18781725Y28895243D01*
X18781725Y28820872D01*
X18743879Y28820872D01*
X18743879Y28743910D01*
X18783046Y28743910D01*
X18783046Y28819551D01*
X18857417Y28819551D01*
X18857417Y28781705D01*
X18895263Y28781705D01*
X18895263Y28743910D01*
X18933109Y28743910D01*
X18933109Y28707334D01*
X18858738Y28707334D01*
X18858738Y28745180D01*
X18819571Y28745180D01*
X18819571Y28669538D01*
X18783046Y28669538D01*
X18783046Y28707334D01*
X18706084Y28707334D01*
X18706084Y28669538D01*
X18669508Y28669538D01*
X18669508Y28781705D01*
X18707354Y28781705D01*
X18707354Y28820872D01*
X18631712Y28820872D01*
X18631712Y28895243D01*
X18516854Y28895243D01*
X18516854Y28858718D01*
X18479008Y28858718D01*
X18479008Y28857397D01*
X18592546Y28857397D01*
X18592546Y28820872D01*
X18556020Y28820872D01*
X18556020Y28857397D01*
X18479008Y28857397D01*
X18479008Y28781705D01*
X18518174Y28781705D01*
X18518174Y28819551D01*
X18554700Y28819551D01*
X18554700Y28781705D01*
X18592546Y28781705D01*
X18592546Y28707334D01*
X18554700Y28707334D01*
X18554700Y28668218D01*
X18593866Y28668218D01*
X18593866Y28706064D01*
X18630392Y28706064D01*
X18630392Y28668218D01*
X18668238Y28668218D01*
X18668238Y28630372D01*
X18707354Y28630372D01*
X18707354Y28668218D01*
X19046596Y28668218D01*
X19046596Y28631692D01*
X19010071Y28631692D01*
X19010071Y28668218D01*
X18857417Y28668218D01*
X18857417Y28631692D01*
X18820892Y28631692D01*
X18820892Y28668218D01*
X18781725Y28668218D01*
X18781725Y28631692D01*
X18743879Y28631692D01*
X18743879Y28630372D01*
X18895263Y28630372D01*
X18895263Y28593846D01*
X18858738Y28593846D01*
X18858738Y28630372D01*
X18743879Y28630372D01*
X18743879Y28593846D01*
X18668238Y28593846D01*
X18668238Y28556000D01*
X18631712Y28556000D01*
X18631712Y28593846D01*
X18593866Y28593846D01*
X18593866Y28631692D01*
X18480328Y28631692D01*
X18480328Y28706064D01*
X18518174Y28706064D01*
X18518174Y28745180D01*
X18403366Y28745180D01*
X18403366Y28668218D01*
X18441212Y28668218D01*
X18441212Y28630372D01*
X18479008Y28630372D01*
X18479008Y28592526D01*
X18516854Y28592526D01*
X18516854Y28556000D01*
X18479008Y28556000D01*
X18479008Y28479038D01*
X18518174Y28479038D01*
X18518174Y28516834D01*
X18554700Y28516834D01*
X18554700Y28479038D01*
X18593866Y28479038D01*
X18593866Y28518154D01*
X18556020Y28518154D01*
X18556020Y28554680D01*
X18706084Y28554680D01*
X18706084Y28518154D01*
X18669508Y28518154D01*
X18669508Y28554680D01*
X18630392Y28554680D01*
X18630392Y28516834D01*
X18668238Y28516834D01*
X18668238Y28480308D01*
X18707354Y28480308D01*
X18707354Y28516834D01*
X18745200Y28516834D01*
X18745200Y28592526D01*
X18781725Y28592526D01*
X18781725Y28518154D01*
X18896584Y28518154D01*
X18896584Y28592526D01*
X18934430Y28592526D01*
X18934430Y28630372D01*
X19008801Y28630372D01*
X19008801Y28593846D01*
X18970955Y28593846D01*
X18970955Y28556000D01*
X18933109Y28556000D01*
X18933109Y28518154D01*
X18781725Y28518154D01*
X18781725Y28516834D01*
X18895263Y28516834D01*
X18895263Y28442462D01*
X18934430Y28442462D01*
X18934430Y28479038D01*
X18972225Y28479038D01*
X18972225Y28516834D01*
X19010071Y28516834D01*
X19010071Y28554680D01*
X19047917Y28554680D01*
X19047917Y28630372D01*
X19122288Y28630372D01*
X19122288Y28554680D01*
X19160134Y28554680D01*
X19160134Y28516834D01*
X19197980Y28516834D01*
X19197980Y28404616D01*
X19161455Y28404616D01*
X19161455Y28480308D01*
X19123609Y28480308D01*
X19123609Y28518154D01*
X19084442Y28518154D01*
X19084442Y28479038D01*
X19122288Y28479038D01*
X19122288Y28404616D01*
X19085763Y28404616D01*
X19085763Y28442462D01*
X19047917Y28442462D01*
X19047917Y28480308D01*
X19008801Y28480308D01*
X19008801Y28442462D01*
X18857417Y28442462D01*
X18857417Y28441192D01*
X18933109Y28441192D01*
X18933109Y28404616D01*
X18896584Y28404616D01*
X18896584Y28441192D01*
X18857417Y28441192D01*
X18857417Y28404616D01*
X18820892Y28404616D01*
X18820892Y28516834D01*
X18781725Y28516834D01*
X18781725Y28480308D01*
X18630392Y28480308D01*
X18630392Y28442462D01*
X18592546Y28442462D01*
X18592546Y28404616D01*
X18554700Y28404616D01*
X18554700Y28365500D01*
X18631712Y28365500D01*
X18631712Y28403346D01*
X18669508Y28403346D01*
X18669508Y28479038D01*
X18706084Y28479038D01*
X18706084Y28441192D01*
X18781725Y28441192D01*
X18781725Y28404616D01*
X18743879Y28404616D01*
X18743879Y28365500D01*
X18933109Y28365500D01*
X18933109Y28328975D01*
X18896584Y28328975D01*
X18896584Y28365500D01*
X18857417Y28365500D01*
X18857417Y28328975D01*
X18783046Y28328975D01*
X18783046Y28365500D01*
X18743879Y28365500D01*
X18743879Y28328975D01*
X18707354Y28328975D01*
X18707354Y28366821D01*
X18668238Y28366821D01*
X18668238Y28328975D01*
X18630392Y28328975D01*
X18630392Y28291129D01*
X18593866Y28291129D01*
X18593866Y28328975D01*
X18480328Y28328975D01*
X18480328Y28403346D01*
X18518174Y28403346D01*
X18518174Y28442462D01*
X18441212Y28442462D01*
X18441212Y28404616D01*
X18366841Y28404616D01*
X18366841Y28442462D01*
X18328995Y28442462D01*
X18328995Y28554680D01*
X18365520Y28554680D01*
X18365520Y28516834D01*
X18404636Y28516834D01*
X18404636Y28556000D01*
X18366841Y28556000D01*
X18366841Y28592526D01*
X18404636Y28592526D01*
X18404636Y28631692D01*
X18366841Y28631692D01*
X18366841Y28669538D01*
X18328995Y28669538D01*
X18328995Y28706064D01*
X18366841Y28706064D01*
X18366841Y28781705D01*
X18442482Y28781705D01*
X18442482Y28820872D01*
X18328995Y28820872D01*
X18328995Y28858718D01*
X18291149Y28858718D01*
X18291149Y28896564D01*
X18215457Y28896564D01*
X18215457Y28972205D01*
X18024957Y28972205D01*
X18024957Y28745180D01*
X18064124Y28745180D01*
X18064124Y28781705D01*
X18101970Y28781705D01*
X18101970Y28820872D01*
X18064124Y28820872D01*
X18064124Y28895243D01*
X18101970Y28895243D01*
X18101970Y28933089D01*
X18176341Y28933089D01*
X18176341Y28858718D01*
X18138495Y28858718D01*
X18138495Y28857397D01*
X18289828Y28857397D01*
X18289828Y28820872D01*
X18253303Y28820872D01*
X18253303Y28857397D01*
X18138495Y28857397D01*
X18138495Y28781705D01*
X18176341Y28781705D01*
X18176341Y28745180D01*
X18024957Y28745180D01*
X18024957Y28743910D01*
X18062803Y28743910D01*
X18062803Y28707334D01*
X18024957Y28707334D01*
X18024957Y28630372D01*
X18064124Y28630372D01*
X18064124Y28706064D01*
X18100649Y28706064D01*
X18100649Y28630372D01*
X18138495Y28630372D01*
X18138495Y28592526D01*
X18215457Y28592526D01*
X18215457Y28707334D01*
X18177611Y28707334D01*
X18177611Y28743910D01*
X18215457Y28743910D01*
X18215457Y28783026D01*
X18177611Y28783026D01*
X18177611Y28819551D01*
X18251982Y28819551D01*
X18251982Y28781705D01*
X18327674Y28781705D01*
X18327674Y28707334D01*
X18291149Y28707334D01*
X18291149Y28745180D01*
X18251982Y28745180D01*
X18251982Y28706064D01*
X18289828Y28706064D01*
X18289828Y28669538D01*
X18251982Y28669538D01*
X18251982Y28668218D01*
X18327674Y28668218D01*
X18327674Y28631692D01*
X18291149Y28631692D01*
X18291149Y28668218D01*
X18251982Y28668218D01*
X18251982Y28630372D01*
X18365520Y28630372D01*
X18365520Y28593846D01*
X18328995Y28593846D01*
X18328995Y28630372D01*
X18289828Y28630372D01*
X18289828Y28593846D01*
X18251982Y28593846D01*
X18251982Y28592526D01*
X18327674Y28592526D01*
X18327674Y28556000D01*
X18291149Y28556000D01*
X18291149Y28592526D01*
X18251982Y28592526D01*
X18251982Y28556000D01*
X18138495Y28556000D01*
X18138495Y28554680D01*
X18289828Y28554680D01*
X18289828Y28518154D01*
X18253303Y28518154D01*
X18253303Y28554680D01*
X18138495Y28554680D01*
X18138495Y28480308D01*
X18024957Y28480308D01*
X18024957Y28327654D01*
X18064124Y28327654D01*
X18064124Y28441192D01*
X18100649Y28441192D01*
X18100649Y28366821D01*
X18139765Y28366821D01*
X18139765Y28441192D01*
X18177611Y28441192D01*
X18177611Y28479038D01*
X18215457Y28479038D01*
X18215457Y28516834D01*
X18251982Y28516834D01*
X18251982Y28479038D01*
X18289828Y28479038D01*
X18289828Y28442462D01*
X18214136Y28442462D01*
X18214136Y28404616D01*
X18176341Y28404616D01*
X18176341Y28366821D01*
X18253303Y28366821D01*
X18253303Y28403346D01*
X18291149Y28403346D01*
X18291149Y28441192D01*
X18327674Y28441192D01*
X18327674Y28403346D01*
X18365520Y28403346D01*
X18365520Y28328975D01*
X18328995Y28328975D01*
X18328995Y28366821D01*
X18100649Y28366821D01*
X18100649Y28365500D01*
X18138495Y28365500D01*
X18138495Y28327654D01*
X18215457Y28327654D01*
X18215457Y28365500D01*
X18251982Y28365500D01*
X18251982Y28327654D01*
X18327674Y28327654D01*
X18327674Y28251962D01*
X18365520Y28251962D01*
X18365520Y28215437D01*
X18327674Y28215437D01*
X18327674Y28214116D01*
X18403366Y28214116D01*
X18403366Y28177591D01*
X18366841Y28177591D01*
X18366841Y28214116D01*
X18327674Y28214116D01*
X18327674Y28138475D01*
X18403366Y28138475D01*
X18403366Y28101950D01*
X18366841Y28101950D01*
X18366841Y28138475D01*
X18327674Y28138475D01*
X18327674Y28024937D01*
X18404636Y28024937D01*
X18404636Y28100629D01*
X18441212Y28100629D01*
X18441212Y28024937D01*
X18480328Y28024937D01*
X18480328Y28100629D01*
X18518174Y28100629D01*
X18518174Y28139745D01*
X18404636Y28139745D01*
X18404636Y28176321D01*
X18442482Y28176321D01*
X18442482Y28327654D01*
X18479008Y28327654D01*
X18479008Y28289808D01*
X18516854Y28289808D01*
X18516854Y28253283D01*
X18479008Y28253283D01*
X18479008Y28251962D01*
X18592546Y28251962D01*
X18592546Y28215437D01*
X18556020Y28215437D01*
X18556020Y28251962D01*
X18479008Y28251962D01*
X18479008Y28176321D01*
X18518174Y28176321D01*
X18518174Y28214116D01*
X18554700Y28214116D01*
X18554700Y28177591D01*
X18631712Y28177591D01*
X18631712Y28251962D01*
X18669508Y28251962D01*
X18669508Y28327654D01*
X18706084Y28327654D01*
X18706084Y28289808D01*
X18858738Y28289808D01*
X18858738Y28327654D01*
X19084442Y28327654D01*
X19084442Y28289808D01*
X19197980Y28289808D01*
X19197980Y28253283D01*
X19161455Y28253283D01*
X19161455Y28289808D01*
X19084442Y28289808D01*
X19084442Y28215437D01*
X18972225Y28215437D01*
X18972225Y28327654D01*
X18895263Y28327654D01*
X18895263Y28253283D01*
X18781725Y28253283D01*
X18781725Y28177591D01*
X18745200Y28177591D01*
X18745200Y28215437D01*
X18668238Y28215437D01*
X18668238Y28177591D01*
X18554700Y28177591D01*
X18554700Y28176321D01*
X18630392Y28176321D01*
X18630392Y28139745D01*
X18592546Y28139745D01*
X18592546Y28101950D01*
X18554700Y28101950D01*
X18554700Y28062783D01*
X18668238Y28062783D01*
X18668238Y28024937D01*
X18707354Y28024937D01*
X18707354Y28064104D01*
X18669508Y28064104D01*
X18669508Y28100629D01*
X18707354Y28100629D01*
X18707354Y28138475D01*
X18820892Y28138475D01*
X18820892Y28214116D01*
X18857417Y28214116D01*
X18857417Y28176321D01*
X18896584Y28176321D01*
X18896584Y28214116D01*
X19235826Y28214116D01*
X19235826Y28177591D01*
X19197980Y28177591D01*
X19197980Y28139745D01*
X19123609Y28139745D01*
X19123609Y28214116D01*
X18933109Y28214116D01*
X18933109Y28139745D01*
X18857417Y28139745D01*
X18857417Y28101950D01*
X18743879Y28101950D01*
X18743879Y28024937D01*
X18783046Y28024937D01*
X18783046Y28062783D01*
X18857417Y28062783D01*
X18857417Y28024937D01*
X19047917Y28024937D01*
X19047917Y28062783D01*
X19085763Y28062783D01*
X19085763Y28101950D01*
X19046596Y28101950D01*
X19046596Y28064104D01*
X18934430Y28064104D01*
X18934430Y28100629D01*
X19010071Y28100629D01*
X19010071Y28176321D01*
X19046596Y28176321D01*
X19046596Y28138475D01*
X19122288Y28138475D01*
X19122288Y28024937D01*
X19161455Y28024937D01*
X19161455Y28062783D01*
X19197980Y28062783D01*
X19197980Y28024937D01*
X19237096Y28024937D01*
X19237096Y28064104D01*
X19199301Y28064104D01*
X19199301Y28138475D01*
X19274942Y28138475D01*
X19274942Y28253283D01*
X19237096Y28253283D01*
X19237096Y28289808D01*
X19274942Y28289808D01*
X19274942Y28366821D01*
X19235826Y28366821D01*
X19235826Y28291129D01*
X19199301Y28291129D01*
X19199301Y28328975D01*
X19123609Y28328975D01*
X19123609Y28365500D01*
X19199301Y28365500D01*
X19199301Y28403346D01*
X19237096Y28403346D01*
X19237096Y28441192D01*
X19274942Y28441192D01*
X19274942Y28480308D01*
X19237096Y28480308D01*
X19237096Y28518154D01*
X19199301Y28518154D01*
X19199301Y28554680D01*
X19237096Y28554680D01*
X19237096Y28592526D01*
X19274942Y28592526D01*
X19274942Y28631692D01*
X19237096Y28631692D01*
X19237096Y28669538D01*
X19199301Y28669538D01*
X19199301Y28706064D01*
X19237096Y28706064D01*
X19237096Y28743910D01*
X19274942Y28743910D01*
X19274942Y28783026D01*
X19197980Y28783026D01*
X19197980Y28707334D01*
X19160134Y28707334D01*
X19160134Y28668218D01*
X19197980Y28668218D01*
X19197980Y28556000D01*
X19161455Y28556000D01*
X19161455Y28631692D01*
X19123609Y28631692D01*
X19123609Y28669538D01*
X19085763Y28669538D01*
X19085763Y28706064D01*
X19123609Y28706064D01*
X19123609Y28745180D01*
X19085763Y28745180D01*
X19085763Y28781705D01*
X19161455Y28781705D01*
X19161455Y28819551D01*
X19199301Y28819551D01*
X19199301Y28857397D01*
X19237096Y28857397D01*
X19237096Y28895243D01*
X19274942Y28895243D01*
X19274942Y28934410D01*
X19237096Y28934410D01*
X19237096Y28972205D01*
X19197980Y28972205D01*
X19197980Y28934410D01*
X19161455Y28934410D01*
X19161455Y28972205D01*
X19122288Y28972205D01*
X19122288Y28933089D01*
X19160134Y28933089D01*
X19160134Y28896564D01*
X19047917Y28896564D01*
X19047917Y28933089D01*
X19085763Y28933089D01*
X19085763Y28972205D01*
X19046596Y28972205D01*
X19046596Y28934410D01*
X19010071Y28934410D01*
X19010071Y28972205D01*
X18970955Y28972205D01*
X18970955Y28933089D01*
X19008801Y28933089D01*
X19008801Y28895243D01*
X19197980Y28895243D01*
X19197980Y28858718D01*
X19161455Y28858718D01*
X19161455Y28895243D01*
X19046596Y28895243D01*
X19046596Y28858718D01*
X18972225Y28858718D01*
X18972225Y28896564D01*
X18933109Y28896564D01*
X18933109Y28857397D01*
X19160134Y28857397D01*
X19160134Y28820872D01*
X19123609Y28820872D01*
X19123609Y28857397D01*
X19084442Y28857397D01*
X19084442Y28820872D01*
X19047917Y28820872D01*
X19047917Y28857397D01*
X18933109Y28857397D01*
X18933109Y28819551D01*
X19046596Y28819551D01*
X19046596Y28783026D01*
X19010071Y28783026D01*
X19010071Y28819551D01*
X18970955Y28819551D01*
X18970955Y28781705D01*
X19008801Y28781705D01*
X19008801Y28745180D01*
X18934430Y28745180D01*
X18934430Y28783026D01*
X18896584Y28783026D01*
X18896584Y28820872D01*
X18858738Y28820872D01*
X18858738Y28857397D01*
X18896584Y28857397D01*
X18896584Y28896564D01*
X18820892Y28896564D01*
X18820892Y28970935D01*
X18857417Y28970935D01*
X18857417Y28933089D01*
X18896584Y28933089D01*
X18896584Y28972205D01*
X18858738Y28972205D01*
X18858738Y29008781D01*
X18896584Y29008781D01*
X18896584Y29084422D01*
X18933109Y29084422D01*
X18933109Y29008781D01*
X18972225Y29008781D01*
X18972225Y29161435D01*
X18896584Y29161435D01*
X18896584Y29237127D01*
X18858738Y29237127D01*
X18858738Y29274922D01*
X18668238Y29274922D01*
X18668238Y29235806D01*
X18781725Y29235806D01*
X18781725Y29197960D01*
X18819571Y29197960D01*
X18819571Y29160114D01*
X18857417Y29160114D01*
X18857417Y29122268D01*
X18895263Y29122268D01*
X18895263Y29085743D01*
X18820892Y29085743D01*
X18820892Y29123589D01*
X18707354Y29123589D01*
X18707354Y29160114D01*
X18745200Y29160114D01*
X18745200Y29199281D01*
X18706084Y29199281D01*
X18706084Y29161435D01*
X18668238Y29161435D01*
X18668238Y29123589D01*
X18631712Y29123589D01*
X18631712Y29161435D01*
X18556020Y29161435D01*
X18556020Y29197960D01*
X18631712Y29197960D01*
X18631712Y29274922D01*
X18592546Y29274922D01*
X18592546Y29237127D01*
X18556020Y29237127D01*
X18556020Y29274922D01*
G37*
G36*
X19008801Y29274922D02*
G01*
X19008801Y29235806D01*
X19235826Y29235806D01*
X19235826Y29047897D01*
X19047917Y29047897D01*
X19047917Y29235806D01*
X19008801Y29235806D01*
X19008801Y29008781D01*
X19274942Y29008781D01*
X19274942Y29274922D01*
G37*
G36*
X18327674Y29237127D02*
G01*
X18327674Y29197960D01*
X18366841Y29197960D01*
X18366841Y29237127D01*
G37*
G36*
X18100649Y29199281D02*
G01*
X18100649Y29084422D01*
X18215457Y29084422D01*
X18215457Y29199281D01*
G37*
G36*
X19084442Y29199281D02*
G01*
X19084442Y29084422D01*
X19199301Y29084422D01*
X19199301Y29199281D01*
G37*
G36*
X18062803Y28556000D02*
G01*
X18062803Y28516834D01*
X18101970Y28516834D01*
X18101970Y28556000D01*
G37*
G36*
X18024957Y28291129D02*
G01*
X18024957Y28251962D01*
X18251982Y28251962D01*
X18251982Y28064104D01*
X18064124Y28064104D01*
X18064124Y28251962D01*
X18024957Y28251962D01*
X18024957Y28024937D01*
X18291149Y28024937D01*
X18291149Y28291129D01*
G37*
G36*
X19008801Y28291129D02*
G01*
X19008801Y28251962D01*
X19047917Y28251962D01*
X19047917Y28291129D01*
G37*
G36*
X18100649Y28215437D02*
G01*
X18100649Y28100629D01*
X18215457Y28100629D01*
X18215457Y28215437D01*
G37*
G36*
X19210832Y944371D02*
G01*
X19204482Y944168D01*
X19198336Y943610D01*
X19192443Y942695D01*
X19186753Y941425D01*
X19181216Y939800D01*
X19175882Y937869D01*
X19170751Y935634D01*
X19165722Y933043D01*
X19160896Y930249D01*
X19156121Y927150D01*
X19147028Y920140D01*
X19142608Y916330D01*
X19134023Y907948D01*
X19129806Y903478D01*
X19147840Y885952D01*
X19156172Y894842D01*
X19160591Y898956D01*
X19165214Y902766D01*
X19169989Y906271D01*
X19174866Y909421D01*
X19179946Y912164D01*
X19185128Y914552D01*
X19190462Y916432D01*
X19195948Y917803D01*
X19201536Y918667D01*
X19207276Y918971D01*
X19213830Y918667D01*
X19219976Y917854D01*
X19225666Y916482D01*
X19230898Y914603D01*
X19235674Y912266D01*
X19240042Y909472D01*
X19243954Y906221D01*
X19247408Y902563D01*
X19250507Y898499D01*
X19253149Y894130D01*
X19255333Y889406D01*
X19257162Y884377D01*
X19258584Y879043D01*
X19259550Y873455D01*
X19260159Y867613D01*
X19260362Y861568D01*
X19259956Y853389D01*
X19258889Y845108D01*
X19257010Y836625D01*
X19254368Y827938D01*
X19250964Y819099D01*
X19246799Y810006D01*
X19241770Y800709D01*
X19235978Y791159D01*
X19229374Y781354D01*
X19221958Y771245D01*
X19213677Y760882D01*
X19204584Y750265D01*
X19194627Y739292D01*
X19183756Y727964D01*
X19172072Y716330D01*
X19159474Y704342D01*
X19145961Y691946D01*
X19131584Y679196D01*
X19131584Y660400D01*
X19304304Y660400D01*
X19304304Y687070D01*
X19218656Y687019D01*
X19207378Y686765D01*
X19189903Y685800D01*
X19178574Y684784D01*
X19200317Y705866D01*
X19210528Y716280D01*
X19220180Y726541D01*
X19229324Y736701D01*
X19237909Y746810D01*
X19245935Y756818D01*
X19253403Y766724D01*
X19260210Y776579D01*
X19266408Y786333D01*
X19271996Y796086D01*
X19276872Y805738D01*
X19281038Y815340D01*
X19284492Y824890D01*
X19287236Y834440D01*
X19289217Y843940D01*
X19290436Y853389D01*
X19290842Y862837D01*
X19290690Y868883D01*
X19290182Y874776D01*
X19289420Y880465D01*
X19288353Y886002D01*
X19286982Y891286D01*
X19285305Y896366D01*
X19283324Y901242D01*
X19281089Y905865D01*
X19278549Y910285D01*
X19275806Y914450D01*
X19272707Y918413D01*
X19269405Y922070D01*
X19265798Y925525D01*
X19261988Y928674D01*
X19257924Y931570D01*
X19253555Y934161D01*
X19249034Y936498D01*
X19244208Y938580D01*
X19239179Y940308D01*
X19233946Y941730D01*
X19228460Y942898D01*
X19222821Y943711D01*
X19216928Y944219D01*
G37*
G36*
X18899174Y939292D02*
G01*
X18988836Y660400D01*
X19024904Y660400D01*
X19114058Y939292D01*
X19082054Y939292D01*
X19030391Y767334D01*
X19015506Y716737D01*
X19008140Y693166D01*
X19006616Y693166D01*
X18999200Y716737D01*
X18979184Y785368D01*
X18932448Y939292D01*
G37*
D10*
X2061885Y28739993D02*
G01*
X2052741Y28758535D01*
X2025055Y28786221D01*
X2218857Y28786221D01*
X2071029Y28856325D02*
G01*
X2061885Y28856325D01*
X2043343Y28865469D01*
X2034199Y28874867D01*
X2025055Y28893155D01*
X2025055Y28930239D01*
X2034199Y28948781D01*
X2043343Y28957925D01*
X2061885Y28967069D01*
X2080427Y28967069D01*
X2098715Y28957925D01*
X2126655Y28939383D01*
X2218857Y28847181D01*
X2218857Y28976467D01*
X2025055Y29037427D02*
G01*
X2218857Y29111341D01*
X2025055Y29185255D02*
G01*
X2218857Y29111341D01*
X2311181Y28798527D02*
G01*
X2292639Y28789129D01*
X2274097Y28770841D01*
X2264953Y28752299D01*
X2264953Y28715469D01*
X2274097Y28696927D01*
X2292639Y28678385D01*
X2311181Y28669241D01*
X2338867Y28659843D01*
X2385095Y28659843D01*
X2412781Y28669241D01*
X2431323Y28678385D01*
X2449611Y28696927D01*
X2459009Y28715469D01*
X2459009Y28752299D01*
X2449611Y28770841D01*
X2431323Y28789129D01*
X2412781Y28798527D01*
X2385095Y28798527D01*
X2385095Y28752299D02*
G01*
X2385095Y28798527D01*
X2264953Y28859487D02*
G01*
X2459009Y28859487D01*
X2264953Y28859487D02*
G01*
X2459009Y28988773D01*
X2264953Y28988773D02*
G01*
X2459009Y28988773D01*
X2264953Y29049733D02*
G01*
X2459009Y29049733D01*
X2264953Y29049733D02*
G01*
X2264953Y29114249D01*
X2274097Y29142189D01*
X2292639Y29160477D01*
X2311181Y29169875D01*
X2338867Y29179019D01*
X2385095Y29179019D01*
X2412781Y29169875D01*
X2431323Y29160477D01*
X2449611Y29142189D01*
X2459009Y29114249D01*
X2459009Y29049733D01*
X2554952Y28980005D02*
G01*
X2749008Y28980005D01*
X2554952Y28980005D02*
G01*
X2554952Y29063063D01*
X2564096Y29090749D01*
X2573494Y29099893D01*
X2591782Y29109291D01*
X2610324Y29109291D01*
X2628866Y29099893D01*
X2638010Y29090749D01*
X2647408Y29063063D01*
X2647408Y28980005D02*
G01*
X2647408Y29063063D01*
X2656552Y29090749D01*
X2665696Y29099893D01*
X2684238Y29109291D01*
X2711924Y29109291D01*
X2730466Y29099893D01*
X2739610Y29090749D01*
X2749008Y29063063D01*
X2749008Y28980005D01*
X2554952Y29170251D02*
G01*
X2749008Y29170251D01*
X2814952Y28979848D02*
G01*
X3009008Y28979848D01*
X2814952Y28979848D02*
G01*
X2814952Y29044618D01*
X2824096Y29072304D01*
X2842638Y29090846D01*
X2861180Y29099990D01*
X2888866Y29109134D01*
X2935094Y29109134D01*
X2962780Y29099990D01*
X2981322Y29090846D01*
X2999610Y29072304D01*
X3009008Y29044618D01*
X3009008Y28979848D01*
X2814952Y29170094D02*
G01*
X3009008Y29170094D01*
X2071885Y830049D02*
G01*
X2062741Y848591D01*
X2035055Y876277D01*
X2228857Y876277D01*
X2081029Y946381D02*
G01*
X2071885Y946381D01*
X2053343Y955525D01*
X2044199Y964923D01*
X2035055Y983211D01*
X2035055Y1020295D01*
X2044199Y1038837D01*
X2053343Y1047981D01*
X2071885Y1057125D01*
X2090427Y1057125D01*
X2108715Y1047981D01*
X2136655Y1029439D01*
X2228857Y937237D01*
X2228857Y1066523D01*
X2035055Y1127483D02*
G01*
X2228857Y1201397D01*
X2035055Y1275311D02*
G01*
X2228857Y1201397D01*
X2321181Y958583D02*
G01*
X2302639Y949185D01*
X2284097Y930897D01*
X2274953Y912355D01*
X2274953Y875525D01*
X2284097Y856983D01*
X2302639Y838441D01*
X2321181Y829297D01*
X2348867Y819899D01*
X2395095Y819899D01*
X2422781Y829297D01*
X2441323Y838441D01*
X2459611Y856983D01*
X2469009Y875525D01*
X2469009Y912355D01*
X2459611Y930897D01*
X2441323Y949185D01*
X2422781Y958583D01*
X2395095Y958583D01*
X2395095Y912355D02*
G01*
X2395095Y958583D01*
X2274953Y1019543D02*
G01*
X2469009Y1019543D01*
X2274953Y1019543D02*
G01*
X2469009Y1148829D01*
X2274953Y1148829D02*
G01*
X2469009Y1148829D01*
X2274953Y1209789D02*
G01*
X2469009Y1209789D01*
X2274953Y1209789D02*
G01*
X2274953Y1274305D01*
X2284097Y1302245D01*
X2302639Y1320533D01*
X2321181Y1329931D01*
X2348867Y1339075D01*
X2395095Y1339075D01*
X2422781Y1329931D01*
X2441323Y1320533D01*
X2459611Y1302245D01*
X2469009Y1274305D01*
X2469009Y1209789D01*
X2544848Y820061D02*
G01*
X2738904Y820061D01*
X2544848Y820061D02*
G01*
X2544848Y903119D01*
X2554246Y930805D01*
X2563390Y939949D01*
X2581932Y949347D01*
X2600474Y949347D01*
X2618762Y939949D01*
X2628160Y930805D01*
X2637304Y903119D01*
X2637304Y820061D02*
G01*
X2637304Y903119D01*
X2646448Y930805D01*
X2655846Y939949D01*
X2674134Y949347D01*
X2702074Y949347D01*
X2720362Y939949D01*
X2729760Y930805D01*
X2738904Y903119D01*
X2738904Y820061D01*
X2544848Y1065679D02*
G01*
X2554246Y1047137D01*
X2572534Y1028849D01*
X2591076Y1019451D01*
X2618762Y1010307D01*
X2664990Y1010307D01*
X2692676Y1019451D01*
X2711218Y1028849D01*
X2729760Y1047137D01*
X2738904Y1065679D01*
X2738904Y1102509D01*
X2729760Y1121051D01*
X2711218Y1139593D01*
X2692676Y1148737D01*
X2664990Y1158135D01*
X2618762Y1158135D01*
X2591076Y1148737D01*
X2572534Y1139593D01*
X2554246Y1121051D01*
X2544848Y1102509D01*
X2544848Y1065679D01*
X2814848Y820064D02*
G01*
X3008904Y820064D01*
X2814848Y820064D02*
G01*
X2814848Y884580D01*
X2824246Y912266D01*
X2842534Y930808D01*
X2861076Y939952D01*
X2888762Y949350D01*
X2934990Y949350D01*
X2962676Y939952D01*
X2981218Y930808D01*
X2999760Y912266D01*
X3008904Y884580D01*
X3008904Y820064D01*
X2814848Y1065682D02*
G01*
X2824246Y1047140D01*
X2842534Y1028852D01*
X2861076Y1019454D01*
X2888762Y1010310D01*
X2934990Y1010310D01*
X2962676Y1019454D01*
X2981218Y1028852D01*
X2999760Y1047140D01*
X3008904Y1065682D01*
X3008904Y1102512D01*
X2999760Y1121054D01*
X2981218Y1139596D01*
X2962676Y1148740D01*
X2934990Y1158138D01*
X2888762Y1158138D01*
X2861076Y1148740D01*
X2842534Y1139596D01*
X2824246Y1121054D01*
X2814848Y1102512D01*
X2814848Y1065682D01*
D11*
X499998Y-816541D02*
G01*
X8951653Y-816541D01*
X11048306Y-816541D02*
G01*
X19499961Y-816541D01*
X652398Y-854641D02*
G01*
X499998Y-816541D01*
X652398Y-778441D01*
X19347561Y-854641D02*
G01*
X19499961Y-816541D01*
X19347561Y-778441D01*
X9002522Y-606297D02*
G01*
X9025636Y-594868D01*
X9060179Y-560323D01*
X9060179Y-802639D01*
X9286493Y-641095D02*
G01*
X9274809Y-675639D01*
X9251950Y-698754D01*
X9217152Y-710437D01*
X9205722Y-710437D01*
X9170924Y-698754D01*
X9147809Y-675639D01*
X9136379Y-641095D01*
X9136379Y-629412D01*
X9147809Y-594868D01*
X9170924Y-571754D01*
X9205722Y-560323D01*
X9217152Y-560323D01*
X9251950Y-571754D01*
X9274809Y-594868D01*
X9286493Y-641095D01*
X9286493Y-698754D01*
X9274809Y-756412D01*
X9251950Y-791210D01*
X9217152Y-802639D01*
X9194038Y-802639D01*
X9159493Y-791210D01*
X9147809Y-768095D01*
X9432036Y-560323D02*
G01*
X9397238Y-571754D01*
X9374124Y-606297D01*
X9362693Y-664210D01*
X9362693Y-698754D01*
X9374124Y-756412D01*
X9397238Y-791210D01*
X9432036Y-802639D01*
X9455150Y-802639D01*
X9489693Y-791210D01*
X9512808Y-756412D01*
X9524238Y-698754D01*
X9524238Y-664210D01*
X9512808Y-606297D01*
X9489693Y-571754D01*
X9455150Y-560323D01*
X9432036Y-560323D01*
X9612122Y-744981D02*
G01*
X9600438Y-756412D01*
X9612122Y-768095D01*
X9623552Y-756412D01*
X9612122Y-744981D01*
X9769093Y-560323D02*
G01*
X9734550Y-571754D01*
X9711436Y-606297D01*
X9699752Y-664210D01*
X9699752Y-698754D01*
X9711436Y-756412D01*
X9734550Y-791210D01*
X9769093Y-802639D01*
X9792208Y-802639D01*
X9826752Y-791210D01*
X9849865Y-756412D01*
X9861550Y-698754D01*
X9861550Y-664210D01*
X9849865Y-606297D01*
X9826752Y-571754D01*
X9792208Y-560323D01*
X9769093Y-560323D01*
X10006838Y-560323D02*
G01*
X9972293Y-571754D01*
X9949179Y-606297D01*
X9937750Y-664210D01*
X9937750Y-698754D01*
X9949179Y-756412D01*
X9972293Y-791210D01*
X10006838Y-802639D01*
X10029952Y-802639D01*
X10064750Y-791210D01*
X10087609Y-756412D01*
X10099293Y-698754D01*
X10099293Y-664210D01*
X10087609Y-606297D01*
X10064750Y-571754D01*
X10029952Y-560323D01*
X10006838Y-560323D01*
X10244836Y-560323D02*
G01*
X10210038Y-571754D01*
X10186924Y-606297D01*
X10175493Y-664210D01*
X10175493Y-698754D01*
X10186924Y-756412D01*
X10210038Y-791210D01*
X10244836Y-802639D01*
X10267950Y-802639D01*
X10302493Y-791210D01*
X10325608Y-756412D01*
X10337038Y-698754D01*
X10337038Y-664210D01*
X10325608Y-606297D01*
X10302493Y-571754D01*
X10267950Y-560323D01*
X10244836Y-560323D01*
X10413238Y-641095D02*
G01*
X10413238Y-802639D01*
X10413238Y-687323D02*
G01*
X10448036Y-652526D01*
X10471150Y-641095D01*
X10505693Y-641095D01*
X10528808Y-652526D01*
X10540238Y-687323D01*
X10540238Y-802639D01*
X10540238Y-687323D02*
G01*
X10575036Y-652526D01*
X10598150Y-641095D01*
X10632693Y-641095D01*
X10655808Y-652526D01*
X10667238Y-687323D01*
X10667238Y-802639D01*
X10743438Y-641095D02*
G01*
X10743438Y-802639D01*
X10743438Y-687323D02*
G01*
X10778236Y-652526D01*
X10801350Y-641095D01*
X10835893Y-641095D01*
X10859008Y-652526D01*
X10870438Y-687323D01*
X10870438Y-802639D01*
X10870438Y-687323D02*
G01*
X10905236Y-652526D01*
X10928350Y-641095D01*
X10962893Y-641095D01*
X10986008Y-652526D01*
X10997438Y-687323D01*
X10997438Y-802639D01*
X499998Y499998D02*
G01*
X499998Y-1070541D01*
X19499961Y499998D02*
G01*
X19499961Y-1070541D01*
X-507471Y499998D02*
G01*
X-507471Y13899687D01*
X-507471Y16100252D02*
G01*
X-507471Y29499940D01*
X-469371Y652398D02*
G01*
X-507471Y499998D01*
X-545571Y652398D01*
X-469371Y29347540D02*
G01*
X-507471Y29499940D01*
X-545571Y29347540D01*
X-308797Y16037788D02*
G01*
X-297367Y16037788D01*
X-274253Y16026358D01*
X-262823Y16014928D01*
X-251139Y15991814D01*
X-251139Y15945586D01*
X-262823Y15922472D01*
X-274253Y15910788D01*
X-297367Y15899358D01*
X-320481Y15899358D01*
X-343595Y15910788D01*
X-378139Y15933902D01*
X-493709Y16049472D01*
X-493709Y15887928D01*
X-331911Y15661614D02*
G01*
X-366709Y15673044D01*
X-389823Y15696158D01*
X-401253Y15730702D01*
X-401253Y15742386D01*
X-389823Y15776930D01*
X-366709Y15800044D01*
X-331911Y15811728D01*
X-320481Y15811728D01*
X-285683Y15800044D01*
X-262823Y15776930D01*
X-251139Y15742386D01*
X-251139Y15730702D01*
X-262823Y15696158D01*
X-285683Y15673044D01*
X-331911Y15661614D01*
X-389823Y15661614D01*
X-447481Y15673044D01*
X-482025Y15696158D01*
X-493709Y15730702D01*
X-493709Y15753816D01*
X-482025Y15788614D01*
X-458911Y15800044D01*
X-251139Y15516072D02*
G01*
X-262823Y15550616D01*
X-297367Y15573730D01*
X-355025Y15585414D01*
X-389823Y15585414D01*
X-447481Y15573730D01*
X-482025Y15550616D01*
X-493709Y15516072D01*
X-493709Y15492958D01*
X-482025Y15458414D01*
X-447481Y15435300D01*
X-389823Y15423616D01*
X-355025Y15423616D01*
X-297367Y15435300D01*
X-262823Y15458414D01*
X-251139Y15492958D01*
X-251139Y15516072D01*
X-435797Y15335986D02*
G01*
X-447481Y15347416D01*
X-458911Y15335986D01*
X-447481Y15324302D01*
X-435797Y15335986D01*
X-251139Y15179014D02*
G01*
X-262823Y15213558D01*
X-297367Y15236672D01*
X-355025Y15248102D01*
X-389823Y15248102D01*
X-447481Y15236672D01*
X-482025Y15213558D01*
X-493709Y15179014D01*
X-493709Y15155900D01*
X-482025Y15121102D01*
X-447481Y15097988D01*
X-389823Y15086558D01*
X-355025Y15086558D01*
X-297367Y15097988D01*
X-262823Y15121102D01*
X-251139Y15155900D01*
X-251139Y15179014D01*
X-251139Y14941016D02*
G01*
X-262823Y14975814D01*
X-297367Y14998928D01*
X-355025Y15010358D01*
X-389823Y15010358D01*
X-447481Y14998928D01*
X-482025Y14975814D01*
X-493709Y14941016D01*
X-493709Y14917902D01*
X-482025Y14883358D01*
X-447481Y14860244D01*
X-389823Y14848814D01*
X-355025Y14848814D01*
X-297367Y14860244D01*
X-262823Y14883358D01*
X-251139Y14917902D01*
X-251139Y14941016D01*
X-251139Y14703272D02*
G01*
X-262823Y14737816D01*
X-297367Y14760930D01*
X-355025Y14772614D01*
X-389823Y14772614D01*
X-447481Y14760930D01*
X-482025Y14737816D01*
X-493709Y14703272D01*
X-493709Y14680158D01*
X-482025Y14645614D01*
X-447481Y14622500D01*
X-389823Y14610816D01*
X-355025Y14610816D01*
X-297367Y14622500D01*
X-262823Y14645614D01*
X-251139Y14680158D01*
X-251139Y14703272D01*
X-331911Y14534616D02*
G01*
X-493709Y14534616D01*
X-378139Y14534616D02*
G01*
X-343595Y14500072D01*
X-331911Y14476958D01*
X-331911Y14442414D01*
X-343595Y14419300D01*
X-378139Y14407616D01*
X-493709Y14407616D01*
X-378139Y14407616D02*
G01*
X-343595Y14373072D01*
X-331911Y14349958D01*
X-331911Y14315414D01*
X-343595Y14292300D01*
X-378139Y14280616D01*
X-493709Y14280616D01*
X-331911Y14204416D02*
G01*
X-493709Y14204416D01*
X-378139Y14204416D02*
G01*
X-343595Y14169872D01*
X-331911Y14146758D01*
X-331911Y14112214D01*
X-343595Y14089100D01*
X-378139Y14077416D01*
X-493709Y14077416D01*
X-378139Y14077416D02*
G01*
X-343595Y14042872D01*
X-331911Y14019758D01*
X-331911Y13985214D01*
X-343595Y13962100D01*
X-378139Y13950416D01*
X-493709Y13950416D01*
X499998Y499998D02*
G01*
X-761471Y499998D01*
X499998Y29499940D02*
G01*
X-761471Y29499940D01*
D10*
X3089930Y29455110D02*
G01*
X3089930Y29261054D01*
X3150890Y29455110D02*
G01*
X3150890Y29261054D01*
X3150890Y29455110D02*
G01*
X3280176Y29261054D01*
X3280176Y29455110D02*
G01*
X3280176Y29261054D01*
X3341136Y29455110D02*
G01*
X3341136Y29261054D01*
X3341136Y29455110D02*
G01*
X3424448Y29455110D01*
X3452134Y29445712D01*
X3461278Y29436568D01*
X3470422Y29418026D01*
X3470422Y29390339D01*
X3461278Y29371798D01*
X3452134Y29362654D01*
X3424448Y29353510D01*
X3341136Y29353510D01*
X3531382Y29455110D02*
G01*
X3531382Y29316426D01*
X3540780Y29288739D01*
X3559322Y29270198D01*
X3587008Y29261054D01*
X3605296Y29261054D01*
X3632982Y29270198D01*
X3651524Y29288739D01*
X3660922Y29316426D01*
X3660922Y29455110D01*
X3786398Y29455110D02*
G01*
X3786398Y29261054D01*
X3721882Y29455110D02*
G01*
X3851168Y29455110D01*
X4054368Y29455110D02*
G01*
X4054368Y29261054D01*
X4054368Y29455110D02*
G01*
X4137426Y29455110D01*
X4165112Y29445712D01*
X4174256Y29436568D01*
X4183654Y29418026D01*
X4183654Y29390339D01*
X4174256Y29371798D01*
X4165112Y29362654D01*
X4137426Y29353510D01*
X4054368Y29353510D01*
X4244614Y29455110D02*
G01*
X4244614Y29261054D01*
X4305574Y29455110D02*
G01*
X4305574Y29261054D01*
X4305574Y29455110D02*
G01*
X4434860Y29261054D01*
X4434860Y29455110D02*
G01*
X4434860Y29261054D01*
X4625106Y29427170D02*
G01*
X4606564Y29445712D01*
X4578878Y29455110D01*
X4542048Y29455110D01*
X4514362Y29445712D01*
X4495820Y29427170D01*
X4495820Y29408882D01*
X4504964Y29390339D01*
X4514362Y29381195D01*
X4532650Y29371798D01*
X4588022Y29353510D01*
X4606564Y29344112D01*
X4615962Y29334968D01*
X4625106Y29316426D01*
X4625106Y29288739D01*
X4606564Y29270198D01*
X4578878Y29261054D01*
X4542048Y29261054D01*
X4514362Y29270198D01*
X4495820Y29288739D01*
X3115309Y744981D02*
G01*
X3097022Y735837D01*
X3078479Y717295D01*
X3069336Y698754D01*
X3059938Y671068D01*
X3059938Y625094D01*
X3069336Y597154D01*
X3078479Y578865D01*
X3097022Y560323D01*
X3115309Y551179D01*
X3152393Y551179D01*
X3170936Y560323D01*
X3189224Y578865D01*
X3198622Y597154D01*
X3207765Y625094D01*
X3207765Y671068D01*
X3198622Y698754D01*
X3189224Y717295D01*
X3170936Y735837D01*
X3152393Y744981D01*
X3115309Y744981D01*
X3268725Y744981D02*
G01*
X3268725Y606552D01*
X3277870Y578865D01*
X3296411Y560323D01*
X3324097Y551179D01*
X3342640Y551179D01*
X3370325Y560323D01*
X3388868Y578865D01*
X3398011Y606552D01*
X3398011Y744981D01*
X3523741Y744981D02*
G01*
X3523741Y551179D01*
X3458972Y744981D02*
G01*
X3588258Y744981D01*
X3649218Y744981D02*
G01*
X3649218Y551179D01*
X3649218Y744981D02*
G01*
X3732275Y744981D01*
X3760215Y735837D01*
X3769359Y726694D01*
X3778504Y708152D01*
X3778504Y680465D01*
X3769359Y661923D01*
X3760215Y652779D01*
X3732275Y643381D01*
X3649218Y643381D01*
X3839463Y744981D02*
G01*
X3839463Y606552D01*
X3848861Y578865D01*
X3867150Y560323D01*
X3894836Y551179D01*
X3913377Y551179D01*
X3941063Y560323D01*
X3959606Y578865D01*
X3968750Y606552D01*
X3968750Y744981D01*
X4094479Y744981D02*
G01*
X4094479Y551179D01*
X4029709Y744981D02*
G01*
X4158995Y744981D01*
X4362195Y744981D02*
G01*
X4362195Y551179D01*
X4362195Y744981D02*
G01*
X4445508Y744981D01*
X4473193Y735837D01*
X4482338Y726694D01*
X4491736Y708152D01*
X4491736Y680465D01*
X4482338Y661923D01*
X4473193Y652779D01*
X4445508Y643381D01*
X4362195Y643381D01*
X4552695Y744981D02*
G01*
X4552695Y551179D01*
X4613656Y744981D02*
G01*
X4613656Y551179D01*
X4613656Y744981D02*
G01*
X4742941Y551179D01*
X4742941Y744981D02*
G01*
X4742941Y551179D01*
X4933188Y717295D02*
G01*
X4914645Y735837D01*
X4886959Y744981D01*
X4849875Y744981D01*
X4822190Y735837D01*
X4803902Y717295D01*
X4803902Y698754D01*
X4813045Y680465D01*
X4822190Y671068D01*
X4840731Y661923D01*
X4896104Y643381D01*
X4914645Y634237D01*
X4923790Y625094D01*
X4933188Y606552D01*
X4933188Y578865D01*
X4914645Y560323D01*
X4886959Y551179D01*
X4849875Y551179D01*
X4822190Y560323D01*
X4803902Y578865D01*
X1020053Y29033309D02*
G01*
X1031483Y29039151D01*
X1048501Y29056169D01*
X1048501Y28936789D01*
X1091681Y29027721D02*
G01*
X1091681Y29033309D01*
X1097269Y29044739D01*
X1102857Y29050327D01*
X1114287Y29056169D01*
X1137147Y29056169D01*
X1148323Y29050327D01*
X1154165Y29044739D01*
X1159753Y29033309D01*
X1159753Y29021879D01*
X1154165Y29010703D01*
X1142735Y28993685D01*
X1085839Y28936789D01*
X1165341Y28936789D01*
X1202933Y29056169D02*
G01*
X1248399Y28936789D01*
X1293865Y29056169D02*
G01*
X1248399Y28936789D01*
X1065265Y28527595D02*
G01*
X1059423Y28539025D01*
X1048247Y28550455D01*
X1036817Y28556043D01*
X1014211Y28556043D01*
X1002781Y28550455D01*
X991351Y28539025D01*
X985763Y28527595D01*
X979921Y28510577D01*
X979921Y28482129D01*
X985763Y28465111D01*
X991351Y28453681D01*
X1002781Y28442505D01*
X1014211Y28436663D01*
X1036817Y28436663D01*
X1048247Y28442505D01*
X1059423Y28453681D01*
X1065265Y28465111D01*
X1065265Y28482129D01*
X1036817Y28482129D02*
G01*
X1065265Y28482129D01*
X1102603Y28556043D02*
G01*
X1102603Y28436663D01*
X1102603Y28556043D02*
G01*
X1182359Y28436663D01*
X1182359Y28556043D02*
G01*
X1182359Y28436663D01*
X1219697Y28556043D02*
G01*
X1219697Y28436663D01*
X1219697Y28556043D02*
G01*
X1259575Y28556043D01*
X1276593Y28550455D01*
X1288023Y28539025D01*
X1293611Y28527595D01*
X1299199Y28510577D01*
X1299199Y28482129D01*
X1293611Y28465111D01*
X1288023Y28453681D01*
X1276593Y28442505D01*
X1259575Y28436663D01*
X1219697Y28436663D01*
X909883Y28773307D02*
G01*
X921313Y28779149D01*
X938331Y28796167D01*
X938331Y28676787D01*
X1009959Y28796167D02*
G01*
X992941Y28790325D01*
X981511Y28773307D01*
X975923Y28744859D01*
X975923Y28727841D01*
X981511Y28699393D01*
X992941Y28682375D01*
X1009959Y28676787D01*
X1021389Y28676787D01*
X1038407Y28682375D01*
X1049837Y28699393D01*
X1055425Y28727841D01*
X1055425Y28744859D01*
X1049837Y28773307D01*
X1038407Y28790325D01*
X1021389Y28796167D01*
X1009959Y28796167D01*
X1127053Y28796167D02*
G01*
X1110035Y28790325D01*
X1098605Y28773307D01*
X1093017Y28744859D01*
X1093017Y28727841D01*
X1098605Y28699393D01*
X1110035Y28682375D01*
X1127053Y28676787D01*
X1138483Y28676787D01*
X1155501Y28682375D01*
X1166931Y28699393D01*
X1172519Y28727841D01*
X1172519Y28744859D01*
X1166931Y28773307D01*
X1155501Y28790325D01*
X1138483Y28796167D01*
X1127053Y28796167D01*
X1244147Y28796167D02*
G01*
X1227129Y28790325D01*
X1215699Y28773307D01*
X1210111Y28744859D01*
X1210111Y28727841D01*
X1215699Y28699393D01*
X1227129Y28682375D01*
X1244147Y28676787D01*
X1255577Y28676787D01*
X1272595Y28682375D01*
X1283771Y28699393D01*
X1289613Y28727841D01*
X1289613Y28744859D01*
X1283771Y28773307D01*
X1272595Y28790325D01*
X1255577Y28796167D01*
X1244147Y28796167D01*
X1326951Y28756289D02*
G01*
X1326951Y28699393D01*
X1332793Y28682375D01*
X1343969Y28676787D01*
X1361241Y28676787D01*
X1372417Y28682375D01*
X1389435Y28699393D01*
X1389435Y28756289D02*
G01*
X1389435Y28676787D01*
X1427027Y28796167D02*
G01*
X1427027Y28676787D01*
X1427027Y28796167D02*
G01*
X1500941Y28796167D01*
X1427027Y28739271D02*
G01*
X1472493Y28739271D01*
X18188177Y27908250D02*
G01*
X18169636Y27926792D01*
X18141950Y27935936D01*
X18105120Y27935936D01*
X18077434Y27926792D01*
X18058891Y27908250D01*
X18058891Y27889708D01*
X18068036Y27871165D01*
X18077434Y27862021D01*
X18095722Y27852878D01*
X18151093Y27834336D01*
X18169636Y27825192D01*
X18179034Y27815794D01*
X18188177Y27797505D01*
X18188177Y27769565D01*
X18169636Y27751278D01*
X18141950Y27741879D01*
X18105120Y27741879D01*
X18077434Y27751278D01*
X18058891Y27769565D01*
X18359881Y27843479D02*
G01*
X18341593Y27862021D01*
X18323052Y27871165D01*
X18295366Y27871165D01*
X18276824Y27862021D01*
X18258281Y27843479D01*
X18249138Y27815794D01*
X18249138Y27797505D01*
X18258281Y27769565D01*
X18276824Y27751278D01*
X18295366Y27741879D01*
X18323052Y27741879D01*
X18341593Y27751278D01*
X18359881Y27769565D01*
X18531840Y27871165D02*
G01*
X18531840Y27741879D01*
X18531840Y27843479D02*
G01*
X18513298Y27862021D01*
X18494756Y27871165D01*
X18467070Y27871165D01*
X18448527Y27862021D01*
X18430240Y27843479D01*
X18420841Y27815794D01*
X18420841Y27797505D01*
X18430240Y27769565D01*
X18448527Y27751278D01*
X18467070Y27741879D01*
X18494756Y27741879D01*
X18513298Y27751278D01*
X18531840Y27769565D01*
X18592800Y27871165D02*
G01*
X18592800Y27741879D01*
X18592800Y27834336D02*
G01*
X18620486Y27862021D01*
X18638774Y27871165D01*
X18666713Y27871165D01*
X18685002Y27862021D01*
X18694400Y27834336D01*
X18694400Y27741879D01*
X18952972Y27935936D02*
G01*
X18934429Y27926792D01*
X18915888Y27908250D01*
X18906743Y27889708D01*
X18897600Y27862021D01*
X18897600Y27815794D01*
X18906743Y27788108D01*
X18915888Y27769565D01*
X18934429Y27751278D01*
X18952972Y27741879D01*
X18989802Y27741879D01*
X19008343Y27751278D01*
X19026886Y27769565D01*
X19036029Y27788108D01*
X19045174Y27815794D01*
X19045174Y27862021D01*
X19036029Y27889708D01*
X19026886Y27908250D01*
X19008343Y27926792D01*
X18989802Y27935936D01*
X18952972Y27935936D01*
X18980658Y27778963D02*
G01*
X19036029Y27723592D01*
X19106134Y27935936D02*
G01*
X19106134Y27741879D01*
X19106134Y27935936D02*
G01*
X19189445Y27935936D01*
X19217131Y27926792D01*
X19226275Y27917394D01*
X19235674Y27899105D01*
X19235674Y27880563D01*
X19226275Y27862021D01*
X19217131Y27852878D01*
X19189445Y27843479D01*
X19106134Y27843479D01*
X19170904Y27843479D02*
G01*
X19235674Y27741879D01*
D12*
X2377973Y28065552D02*
G01*
X2372639Y28075966D01*
X2362225Y28086380D01*
X2352065Y28091460D01*
X2331237Y28091460D01*
X2320823Y28086380D01*
X2310409Y28075966D01*
X2305075Y28065552D01*
X2299995Y28049804D01*
X2299995Y28023896D01*
X2305075Y28008402D01*
X2310409Y27997988D01*
X2320823Y27987574D01*
X2331237Y27982494D01*
X2352065Y27982494D01*
X2362225Y27987574D01*
X2372639Y27997988D01*
X2377973Y28008402D01*
X2412263Y28070632D02*
G01*
X2422677Y28075966D01*
X2438171Y28091460D01*
X2438171Y27982494D01*
X2377973Y23065562D02*
G01*
X2372639Y23075976D01*
X2362225Y23086390D01*
X2352065Y23091470D01*
X2331237Y23091470D01*
X2320823Y23086390D01*
X2310409Y23075976D01*
X2305075Y23065562D01*
X2299995Y23049814D01*
X2299995Y23023906D01*
X2305075Y23008412D01*
X2310409Y22997998D01*
X2320823Y22987584D01*
X2331237Y22982504D01*
X2352065Y22982504D01*
X2362225Y22987584D01*
X2372639Y22997998D01*
X2377973Y23008412D01*
X2417343Y23065562D02*
G01*
X2417343Y23070642D01*
X2422677Y23081056D01*
X2427757Y23086390D01*
X2438171Y23091470D01*
X2458999Y23091470D01*
X2469413Y23086390D01*
X2474493Y23081056D01*
X2479827Y23070642D01*
X2479827Y23060228D01*
X2474493Y23049814D01*
X2464079Y23034320D01*
X2412263Y22982504D01*
X2484907Y22982504D01*
X2377973Y18065572D02*
G01*
X2372639Y18075986D01*
X2362225Y18086400D01*
X2352065Y18091480D01*
X2331237Y18091480D01*
X2320823Y18086400D01*
X2310409Y18075986D01*
X2305075Y18065572D01*
X2299995Y18049824D01*
X2299995Y18023916D01*
X2305075Y18008422D01*
X2310409Y17998008D01*
X2320823Y17987594D01*
X2331237Y17982514D01*
X2352065Y17982514D01*
X2362225Y17987594D01*
X2372639Y17998008D01*
X2377973Y18008422D01*
X2422677Y18091480D02*
G01*
X2479827Y18091480D01*
X2448585Y18049824D01*
X2464079Y18049824D01*
X2474493Y18044744D01*
X2479827Y18039664D01*
X2484907Y18023916D01*
X2484907Y18013502D01*
X2479827Y17998008D01*
X2469413Y17987594D01*
X2453665Y17982514D01*
X2438171Y17982514D01*
X2422677Y17987594D01*
X2417343Y17992674D01*
X2412263Y18003088D01*
X2377973Y13065582D02*
G01*
X2372639Y13075996D01*
X2362225Y13086410D01*
X2352065Y13091490D01*
X2331237Y13091490D01*
X2320823Y13086410D01*
X2310409Y13075996D01*
X2305075Y13065582D01*
X2299995Y13049834D01*
X2299995Y13023926D01*
X2305075Y13008432D01*
X2310409Y12998018D01*
X2320823Y12987604D01*
X2331237Y12982524D01*
X2352065Y12982524D01*
X2362225Y12987604D01*
X2372639Y12998018D01*
X2377973Y13008432D01*
X2464079Y13091490D02*
G01*
X2412263Y13018846D01*
X2490241Y13018846D01*
X2464079Y13091490D02*
G01*
X2464079Y12982524D01*
X2377973Y8065592D02*
G01*
X2372639Y8076006D01*
X2362225Y8086420D01*
X2352065Y8091500D01*
X2331237Y8091500D01*
X2320823Y8086420D01*
X2310409Y8076006D01*
X2305075Y8065592D01*
X2299995Y8049844D01*
X2299995Y8023936D01*
X2305075Y8008442D01*
X2310409Y7998028D01*
X2320823Y7987614D01*
X2331237Y7982534D01*
X2352065Y7982534D01*
X2362225Y7987614D01*
X2372639Y7998028D01*
X2377973Y8008442D01*
X2474493Y8091500D02*
G01*
X2422677Y8091500D01*
X2417343Y8044764D01*
X2422677Y8049844D01*
X2438171Y8055178D01*
X2453665Y8055178D01*
X2469413Y8049844D01*
X2479827Y8039684D01*
X2484907Y8023936D01*
X2484907Y8013522D01*
X2479827Y7998028D01*
X2469413Y7987614D01*
X2453665Y7982534D01*
X2438171Y7982534D01*
X2422677Y7987614D01*
X2417343Y7992694D01*
X2412263Y8003108D01*
X2177973Y3089402D02*
G01*
X2172639Y3099815D01*
X2162225Y3110229D01*
X2152065Y3115310D01*
X2131237Y3115310D01*
X2120823Y3110229D01*
X2110409Y3099815D01*
X2105075Y3089402D01*
X2099995Y3073654D01*
X2099995Y3047745D01*
X2105075Y3032252D01*
X2110409Y3021837D01*
X2120823Y3011423D01*
X2131237Y3006344D01*
X2152065Y3006344D01*
X2162225Y3011423D01*
X2172639Y3021837D01*
X2177973Y3032252D01*
X2274493Y3099815D02*
G01*
X2269413Y3110229D01*
X2253665Y3115310D01*
X2243505Y3115310D01*
X2227757Y3110229D01*
X2217343Y3094481D01*
X2212263Y3068573D01*
X2212263Y3042665D01*
X2217343Y3021837D01*
X2227757Y3011423D01*
X2243505Y3006344D01*
X2248585Y3006344D01*
X2264079Y3011423D01*
X2274493Y3021837D01*
X2279827Y3037331D01*
X2279827Y3042665D01*
X2274493Y3058160D01*
X2264079Y3068573D01*
X2248585Y3073654D01*
X2243505Y3073654D01*
X2227757Y3068573D01*
X2217343Y3058160D01*
X2212263Y3042665D01*
X7377963Y28065552D02*
G01*
X7372629Y28075966D01*
X7362215Y28086380D01*
X7352055Y28091460D01*
X7331227Y28091460D01*
X7320813Y28086380D01*
X7310399Y28075966D01*
X7305065Y28065552D01*
X7299985Y28049804D01*
X7299985Y28023896D01*
X7305065Y28008402D01*
X7310399Y27997988D01*
X7320813Y27987574D01*
X7331227Y27982494D01*
X7352055Y27982494D01*
X7362215Y27987574D01*
X7372629Y27997988D01*
X7377963Y28008402D01*
X7484897Y28091460D02*
G01*
X7433081Y27982494D01*
X7412253Y28091460D02*
G01*
X7484897Y28091460D01*
X7377963Y23065562D02*
G01*
X7372629Y23075976D01*
X7362215Y23086390D01*
X7352055Y23091470D01*
X7331227Y23091470D01*
X7320813Y23086390D01*
X7310399Y23075976D01*
X7305065Y23065562D01*
X7299985Y23049814D01*
X7299985Y23023906D01*
X7305065Y23008412D01*
X7310399Y22997998D01*
X7320813Y22987584D01*
X7331227Y22982504D01*
X7352055Y22982504D01*
X7362215Y22987584D01*
X7372629Y22997998D01*
X7377963Y23008412D01*
X7438161Y23091470D02*
G01*
X7422667Y23086390D01*
X7417333Y23075976D01*
X7417333Y23065562D01*
X7422667Y23055148D01*
X7433081Y23049814D01*
X7453655Y23044734D01*
X7469403Y23039654D01*
X7479817Y23029240D01*
X7484897Y23018826D01*
X7484897Y23003078D01*
X7479817Y22992664D01*
X7474483Y22987584D01*
X7458989Y22982504D01*
X7438161Y22982504D01*
X7422667Y22987584D01*
X7417333Y22992664D01*
X7412253Y23003078D01*
X7412253Y23018826D01*
X7417333Y23029240D01*
X7427747Y23039654D01*
X7443495Y23044734D01*
X7464069Y23049814D01*
X7474483Y23055148D01*
X7479817Y23065562D01*
X7479817Y23075976D01*
X7474483Y23086390D01*
X7458989Y23091470D01*
X7438161Y23091470D01*
X7377963Y18065572D02*
G01*
X7372629Y18075986D01*
X7362215Y18086400D01*
X7352055Y18091480D01*
X7331227Y18091480D01*
X7320813Y18086400D01*
X7310399Y18075986D01*
X7305065Y18065572D01*
X7299985Y18049824D01*
X7299985Y18023916D01*
X7305065Y18008422D01*
X7310399Y17998008D01*
X7320813Y17987594D01*
X7331227Y17982514D01*
X7352055Y17982514D01*
X7362215Y17987594D01*
X7372629Y17998008D01*
X7377963Y18008422D01*
X7479817Y18055158D02*
G01*
X7474483Y18039664D01*
X7464069Y18029250D01*
X7448575Y18023916D01*
X7443495Y18023916D01*
X7427747Y18029250D01*
X7417333Y18039664D01*
X7412253Y18055158D01*
X7412253Y18060238D01*
X7417333Y18075986D01*
X7427747Y18086400D01*
X7443495Y18091480D01*
X7448575Y18091480D01*
X7464069Y18086400D01*
X7474483Y18075986D01*
X7479817Y18055158D01*
X7479817Y18029250D01*
X7474483Y18003088D01*
X7464069Y17987594D01*
X7448575Y17982514D01*
X7438161Y17982514D01*
X7422667Y17987594D01*
X7417333Y17998008D01*
X7377963Y13065582D02*
G01*
X7372629Y13075996D01*
X7362215Y13086410D01*
X7352055Y13091490D01*
X7331227Y13091490D01*
X7320813Y13086410D01*
X7310399Y13075996D01*
X7305065Y13065582D01*
X7299985Y13049834D01*
X7299985Y13023926D01*
X7305065Y13008432D01*
X7310399Y12998018D01*
X7320813Y12987604D01*
X7331227Y12982524D01*
X7352055Y12982524D01*
X7362215Y12987604D01*
X7372629Y12998018D01*
X7377963Y13008432D01*
X7412253Y13070662D02*
G01*
X7422667Y13075996D01*
X7438161Y13091490D01*
X7438161Y12982524D01*
X7503693Y13091490D02*
G01*
X7487945Y13086410D01*
X7477785Y13070662D01*
X7472451Y13044754D01*
X7472451Y13029260D01*
X7477785Y13003098D01*
X7487945Y12987604D01*
X7503693Y12982524D01*
X7514107Y12982524D01*
X7529601Y12987604D01*
X7540015Y13003098D01*
X7545095Y13029260D01*
X7545095Y13044754D01*
X7540015Y13070662D01*
X7529601Y13086410D01*
X7514107Y13091490D01*
X7503693Y13091490D01*
X7177963Y8039392D02*
G01*
X7172629Y8049806D01*
X7162215Y8060220D01*
X7152055Y8065300D01*
X7131227Y8065300D01*
X7120813Y8060220D01*
X7110399Y8049806D01*
X7105065Y8039392D01*
X7099985Y8023644D01*
X7099985Y7997736D01*
X7105065Y7982242D01*
X7110399Y7971828D01*
X7120813Y7961414D01*
X7131227Y7956334D01*
X7152055Y7956334D01*
X7162215Y7961414D01*
X7172629Y7971828D01*
X7177963Y7982242D01*
X7212253Y8044472D02*
G01*
X7222667Y8049806D01*
X7238161Y8065300D01*
X7238161Y7956334D01*
X7272451Y8044472D02*
G01*
X7282865Y8049806D01*
X7298359Y8065300D01*
X7298359Y7956334D01*
X7377963Y3065602D02*
G01*
X7372629Y3076016D01*
X7362215Y3086430D01*
X7352055Y3091510D01*
X7331227Y3091510D01*
X7320813Y3086430D01*
X7310399Y3076016D01*
X7305065Y3065602D01*
X7299985Y3049854D01*
X7299985Y3023946D01*
X7305065Y3008452D01*
X7310399Y2998038D01*
X7320813Y2987624D01*
X7331227Y2982544D01*
X7352055Y2982544D01*
X7362215Y2987624D01*
X7372629Y2998038D01*
X7377963Y3008452D01*
X7412253Y3070682D02*
G01*
X7422667Y3076016D01*
X7438161Y3091510D01*
X7438161Y2982544D01*
X7477785Y3065602D02*
G01*
X7477785Y3070682D01*
X7482865Y3081096D01*
X7487945Y3086430D01*
X7498359Y3091510D01*
X7519187Y3091510D01*
X7529601Y3086430D01*
X7534935Y3081096D01*
X7540015Y3070682D01*
X7540015Y3060268D01*
X7534935Y3049854D01*
X7524521Y3034360D01*
X7472451Y2982544D01*
X7545095Y2982544D01*
X12377953Y28065552D02*
G01*
X12372619Y28075966D01*
X12362205Y28086380D01*
X12352045Y28091460D01*
X12331217Y28091460D01*
X12320803Y28086380D01*
X12310389Y28075966D01*
X12305055Y28065552D01*
X12299975Y28049804D01*
X12299975Y28023896D01*
X12305055Y28008402D01*
X12310389Y27997988D01*
X12320803Y27987574D01*
X12331217Y27982494D01*
X12352045Y27982494D01*
X12362205Y27987574D01*
X12372619Y27997988D01*
X12377953Y28008402D01*
X12412243Y28070632D02*
G01*
X12422657Y28075966D01*
X12438151Y28091460D01*
X12438151Y27982494D01*
X12482855Y28091460D02*
G01*
X12540005Y28091460D01*
X12508763Y28049804D01*
X12524511Y28049804D01*
X12534925Y28044724D01*
X12540005Y28039644D01*
X12545085Y28023896D01*
X12545085Y28013482D01*
X12540005Y27997988D01*
X12529591Y27987574D01*
X12514097Y27982494D01*
X12498349Y27982494D01*
X12482855Y27987574D01*
X12477775Y27992654D01*
X12472441Y28003068D01*
X12377953Y23065562D02*
G01*
X12372619Y23075976D01*
X12362205Y23086390D01*
X12352045Y23091470D01*
X12331217Y23091470D01*
X12320803Y23086390D01*
X12310389Y23075976D01*
X12305055Y23065562D01*
X12299975Y23049814D01*
X12299975Y23023906D01*
X12305055Y23008412D01*
X12310389Y22997998D01*
X12320803Y22987584D01*
X12331217Y22982504D01*
X12352045Y22982504D01*
X12362205Y22987584D01*
X12372619Y22997998D01*
X12377953Y23008412D01*
X12412243Y23070642D02*
G01*
X12422657Y23075976D01*
X12438151Y23091470D01*
X12438151Y22982504D01*
X12524511Y23091470D02*
G01*
X12472441Y23018826D01*
X12550419Y23018826D01*
X12524511Y23091470D02*
G01*
X12524511Y22982504D01*
X12377953Y18065572D02*
G01*
X12372619Y18075986D01*
X12362205Y18086400D01*
X12352045Y18091480D01*
X12331217Y18091480D01*
X12320803Y18086400D01*
X12310389Y18075986D01*
X12305055Y18065572D01*
X12299975Y18049824D01*
X12299975Y18023916D01*
X12305055Y18008422D01*
X12310389Y17998008D01*
X12320803Y17987594D01*
X12331217Y17982514D01*
X12352045Y17982514D01*
X12362205Y17987594D01*
X12372619Y17998008D01*
X12377953Y18008422D01*
X12412243Y18070652D02*
G01*
X12422657Y18075986D01*
X12438151Y18091480D01*
X12438151Y17982514D01*
X12534925Y18091480D02*
G01*
X12482855Y18091480D01*
X12477775Y18044744D01*
X12482855Y18049824D01*
X12498349Y18055158D01*
X12514097Y18055158D01*
X12529591Y18049824D01*
X12540005Y18039664D01*
X12545085Y18023916D01*
X12545085Y18013502D01*
X12540005Y17998008D01*
X12529591Y17987594D01*
X12514097Y17982514D01*
X12498349Y17982514D01*
X12482855Y17987594D01*
X12477775Y17992674D01*
X12472441Y18003088D01*
X12377953Y13065582D02*
G01*
X12372619Y13075996D01*
X12362205Y13086410D01*
X12352045Y13091490D01*
X12331217Y13091490D01*
X12320803Y13086410D01*
X12310389Y13075996D01*
X12305055Y13065582D01*
X12299975Y13049834D01*
X12299975Y13023926D01*
X12305055Y13008432D01*
X12310389Y12998018D01*
X12320803Y12987604D01*
X12331217Y12982524D01*
X12352045Y12982524D01*
X12362205Y12987604D01*
X12372619Y12998018D01*
X12377953Y13008432D01*
X12412243Y13070662D02*
G01*
X12422657Y13075996D01*
X12438151Y13091490D01*
X12438151Y12982524D01*
X12534925Y13075996D02*
G01*
X12529591Y13086410D01*
X12514097Y13091490D01*
X12503683Y13091490D01*
X12487935Y13086410D01*
X12477775Y13070662D01*
X12472441Y13044754D01*
X12472441Y13018846D01*
X12477775Y12998018D01*
X12487935Y12987604D01*
X12503683Y12982524D01*
X12508763Y12982524D01*
X12524511Y12987604D01*
X12534925Y12998018D01*
X12540005Y13013512D01*
X12540005Y13018846D01*
X12534925Y13034340D01*
X12524511Y13044754D01*
X12508763Y13049834D01*
X12503683Y13049834D01*
X12487935Y13044754D01*
X12477775Y13034340D01*
X12472441Y13018846D01*
X12377953Y8065592D02*
G01*
X12372619Y8076006D01*
X12362205Y8086420D01*
X12352045Y8091500D01*
X12331217Y8091500D01*
X12320803Y8086420D01*
X12310389Y8076006D01*
X12305055Y8065592D01*
X12299975Y8049844D01*
X12299975Y8023936D01*
X12305055Y8008442D01*
X12310389Y7998028D01*
X12320803Y7987614D01*
X12331217Y7982534D01*
X12352045Y7982534D01*
X12362205Y7987614D01*
X12372619Y7998028D01*
X12377953Y8008442D01*
X12412243Y8070672D02*
G01*
X12422657Y8076006D01*
X12438151Y8091500D01*
X12438151Y7982534D01*
X12545085Y8091500D02*
G01*
X12493269Y7982534D01*
X12472441Y8091500D02*
G01*
X12545085Y8091500D01*
X12377953Y3065602D02*
G01*
X12372619Y3076016D01*
X12362205Y3086430D01*
X12352045Y3091510D01*
X12331217Y3091510D01*
X12320803Y3086430D01*
X12310389Y3076016D01*
X12305055Y3065602D01*
X12299975Y3049854D01*
X12299975Y3023946D01*
X12305055Y3008452D01*
X12310389Y2998038D01*
X12320803Y2987624D01*
X12331217Y2982544D01*
X12352045Y2982544D01*
X12362205Y2987624D01*
X12372619Y2998038D01*
X12377953Y3008452D01*
X12412243Y3070682D02*
G01*
X12422657Y3076016D01*
X12438151Y3091510D01*
X12438151Y2982544D01*
X12498349Y3091510D02*
G01*
X12482855Y3086430D01*
X12477775Y3076016D01*
X12477775Y3065602D01*
X12482855Y3055188D01*
X12493269Y3049854D01*
X12514097Y3044774D01*
X12529591Y3039694D01*
X12540005Y3029280D01*
X12545085Y3018866D01*
X12545085Y3003118D01*
X12540005Y2992704D01*
X12534925Y2987624D01*
X12519177Y2982544D01*
X12498349Y2982544D01*
X12482855Y2987624D01*
X12477775Y2992704D01*
X12472441Y3003118D01*
X12472441Y3018866D01*
X12477775Y3029280D01*
X12487935Y3039694D01*
X12503683Y3044774D01*
X12524511Y3049854D01*
X12534925Y3055188D01*
X12540005Y3065602D01*
X12540005Y3076016D01*
X12534925Y3086430D01*
X12519177Y3091510D01*
X12498349Y3091510D01*
X17377943Y28065552D02*
G01*
X17372609Y28075966D01*
X17362195Y28086380D01*
X17352035Y28091460D01*
X17331207Y28091460D01*
X17320793Y28086380D01*
X17310379Y28075966D01*
X17305045Y28065552D01*
X17299965Y28049804D01*
X17299965Y28023896D01*
X17305045Y28008402D01*
X17310379Y27997988D01*
X17320793Y27987574D01*
X17331207Y27982494D01*
X17352035Y27982494D01*
X17362195Y27987574D01*
X17372609Y27997988D01*
X17377943Y28008402D01*
X17412233Y28070632D02*
G01*
X17422647Y28075966D01*
X17438141Y28091460D01*
X17438141Y27982494D01*
X17539995Y28055138D02*
G01*
X17534915Y28039644D01*
X17524501Y28029230D01*
X17508753Y28023896D01*
X17503673Y28023896D01*
X17487925Y28029230D01*
X17477765Y28039644D01*
X17472431Y28055138D01*
X17472431Y28060218D01*
X17477765Y28075966D01*
X17487925Y28086380D01*
X17503673Y28091460D01*
X17508753Y28091460D01*
X17524501Y28086380D01*
X17534915Y28075966D01*
X17539995Y28055138D01*
X17539995Y28029230D01*
X17534915Y28003068D01*
X17524501Y27987574D01*
X17508753Y27982494D01*
X17498339Y27982494D01*
X17482845Y27987574D01*
X17477765Y27997988D01*
X17377943Y23065562D02*
G01*
X17372609Y23075976D01*
X17362195Y23086390D01*
X17352035Y23091470D01*
X17331207Y23091470D01*
X17320793Y23086390D01*
X17310379Y23075976D01*
X17305045Y23065562D01*
X17299965Y23049814D01*
X17299965Y23023906D01*
X17305045Y23008412D01*
X17310379Y22997998D01*
X17320793Y22987584D01*
X17331207Y22982504D01*
X17352035Y22982504D01*
X17362195Y22987584D01*
X17372609Y22997998D01*
X17377943Y23008412D01*
X17417313Y23065562D02*
G01*
X17417313Y23070642D01*
X17422647Y23081056D01*
X17427727Y23086390D01*
X17438141Y23091470D01*
X17458969Y23091470D01*
X17469383Y23086390D01*
X17474463Y23081056D01*
X17479797Y23070642D01*
X17479797Y23060228D01*
X17474463Y23049814D01*
X17464049Y23034320D01*
X17412233Y22982504D01*
X17484877Y22982504D01*
X17550409Y23091470D02*
G01*
X17534915Y23086390D01*
X17524501Y23070642D01*
X17519167Y23044734D01*
X17519167Y23029240D01*
X17524501Y23003078D01*
X17534915Y22987584D01*
X17550409Y22982504D01*
X17560823Y22982504D01*
X17576317Y22987584D01*
X17586731Y23003078D01*
X17592065Y23029240D01*
X17592065Y23044734D01*
X17586731Y23070642D01*
X17576317Y23086390D01*
X17560823Y23091470D01*
X17550409Y23091470D01*
X17377943Y18065572D02*
G01*
X17372609Y18075986D01*
X17362195Y18086400D01*
X17352035Y18091480D01*
X17331207Y18091480D01*
X17320793Y18086400D01*
X17310379Y18075986D01*
X17305045Y18065572D01*
X17299965Y18049824D01*
X17299965Y18023916D01*
X17305045Y18008422D01*
X17310379Y17998008D01*
X17320793Y17987594D01*
X17331207Y17982514D01*
X17352035Y17982514D01*
X17362195Y17987594D01*
X17372609Y17998008D01*
X17377943Y18008422D01*
X17417313Y18065572D02*
G01*
X17417313Y18070652D01*
X17422647Y18081066D01*
X17427727Y18086400D01*
X17438141Y18091480D01*
X17458969Y18091480D01*
X17469383Y18086400D01*
X17474463Y18081066D01*
X17479797Y18070652D01*
X17479797Y18060238D01*
X17474463Y18049824D01*
X17464049Y18034330D01*
X17412233Y17982514D01*
X17484877Y17982514D01*
X17519167Y18070652D02*
G01*
X17529581Y18075986D01*
X17545075Y18091480D01*
X17545075Y17982514D01*
X17377943Y13065582D02*
G01*
X17372609Y13075996D01*
X17362195Y13086410D01*
X17352035Y13091490D01*
X17331207Y13091490D01*
X17320793Y13086410D01*
X17310379Y13075996D01*
X17305045Y13065582D01*
X17299965Y13049834D01*
X17299965Y13023926D01*
X17305045Y13008432D01*
X17310379Y12998018D01*
X17320793Y12987604D01*
X17331207Y12982524D01*
X17352035Y12982524D01*
X17362195Y12987604D01*
X17372609Y12998018D01*
X17377943Y13008432D01*
X17417313Y13065582D02*
G01*
X17417313Y13070662D01*
X17422647Y13081076D01*
X17427727Y13086410D01*
X17438141Y13091490D01*
X17458969Y13091490D01*
X17469383Y13086410D01*
X17474463Y13081076D01*
X17479797Y13070662D01*
X17479797Y13060248D01*
X17474463Y13049834D01*
X17464049Y13034340D01*
X17412233Y12982524D01*
X17484877Y12982524D01*
X17524501Y13065582D02*
G01*
X17524501Y13070662D01*
X17529581Y13081076D01*
X17534915Y13086410D01*
X17545075Y13091490D01*
X17565903Y13091490D01*
X17576317Y13086410D01*
X17581651Y13081076D01*
X17586731Y13070662D01*
X17586731Y13060248D01*
X17581651Y13049834D01*
X17571237Y13034340D01*
X17519167Y12982524D01*
X17592065Y12982524D01*
X17377943Y8065592D02*
G01*
X17372609Y8076006D01*
X17362195Y8086420D01*
X17352035Y8091500D01*
X17331207Y8091500D01*
X17320793Y8086420D01*
X17310379Y8076006D01*
X17305045Y8065592D01*
X17299965Y8049844D01*
X17299965Y8023936D01*
X17305045Y8008442D01*
X17310379Y7998028D01*
X17320793Y7987614D01*
X17331207Y7982534D01*
X17352035Y7982534D01*
X17362195Y7987614D01*
X17372609Y7998028D01*
X17377943Y8008442D01*
X17417313Y8065592D02*
G01*
X17417313Y8070672D01*
X17422647Y8081086D01*
X17427727Y8086420D01*
X17438141Y8091500D01*
X17458969Y8091500D01*
X17469383Y8086420D01*
X17474463Y8081086D01*
X17479797Y8070672D01*
X17479797Y8060258D01*
X17474463Y8049844D01*
X17464049Y8034350D01*
X17412233Y7982534D01*
X17484877Y7982534D01*
X17529581Y8091500D02*
G01*
X17586731Y8091500D01*
X17555489Y8049844D01*
X17571237Y8049844D01*
X17581651Y8044764D01*
X17586731Y8039684D01*
X17592065Y8023936D01*
X17592065Y8013522D01*
X17586731Y7998028D01*
X17576317Y7987614D01*
X17560823Y7982534D01*
X17545075Y7982534D01*
X17529581Y7987614D01*
X17524501Y7992694D01*
X17519167Y8003108D01*
X17377943Y3065602D02*
G01*
X17372609Y3076016D01*
X17362195Y3086430D01*
X17352035Y3091510D01*
X17331207Y3091510D01*
X17320793Y3086430D01*
X17310379Y3076016D01*
X17305045Y3065602D01*
X17299965Y3049854D01*
X17299965Y3023946D01*
X17305045Y3008452D01*
X17310379Y2998038D01*
X17320793Y2987624D01*
X17331207Y2982544D01*
X17352035Y2982544D01*
X17362195Y2987624D01*
X17372609Y2998038D01*
X17377943Y3008452D01*
X17417313Y3065602D02*
G01*
X17417313Y3070682D01*
X17422647Y3081096D01*
X17427727Y3086430D01*
X17438141Y3091510D01*
X17458969Y3091510D01*
X17469383Y3086430D01*
X17474463Y3081096D01*
X17479797Y3070682D01*
X17479797Y3060268D01*
X17474463Y3049854D01*
X17464049Y3034360D01*
X17412233Y2982544D01*
X17484877Y2982544D01*
X17571237Y3091510D02*
G01*
X17519167Y3018866D01*
X17597145Y3018866D01*
X17571237Y3091510D02*
G01*
X17571237Y2982544D01*
X2474595Y27920061D02*
G01*
X2474595Y27811095D01*
X2474595Y27811095D02*
G01*
X2536825Y27811095D01*
X2571115Y27920061D02*
G01*
X2571115Y27811095D01*
X2571115Y27920061D02*
G01*
X2638679Y27920061D01*
X2571115Y27868245D02*
G01*
X2612770Y27868245D01*
X2571115Y27811095D02*
G01*
X2638679Y27811095D01*
X2672968Y27920061D02*
G01*
X2672968Y27811095D01*
X2672968Y27920061D02*
G01*
X2709545Y27920061D01*
X2725038Y27914980D01*
X2735452Y27904567D01*
X2740533Y27894153D01*
X2745866Y27878404D01*
X2745866Y27852496D01*
X2740533Y27837003D01*
X2735452Y27826588D01*
X2725038Y27816175D01*
X2709545Y27811095D01*
X2672968Y27811095D01*
X2780156Y27899233D02*
G01*
X2790570Y27904567D01*
X2806065Y27920061D01*
X2806065Y27811095D01*
X2474595Y22920070D02*
G01*
X2474595Y22811104D01*
X2474595Y22811104D02*
G01*
X2536825Y22811104D01*
X2571115Y22920070D02*
G01*
X2571115Y22811104D01*
X2571115Y22920070D02*
G01*
X2638679Y22920070D01*
X2571115Y22868254D02*
G01*
X2612770Y22868254D01*
X2571115Y22811104D02*
G01*
X2638679Y22811104D01*
X2672968Y22920070D02*
G01*
X2672968Y22811104D01*
X2672968Y22920070D02*
G01*
X2709545Y22920070D01*
X2725038Y22914991D01*
X2735452Y22904577D01*
X2740533Y22894162D01*
X2745866Y22878414D01*
X2745866Y22852506D01*
X2740533Y22837012D01*
X2735452Y22826599D01*
X2725038Y22816185D01*
X2709545Y22811104D01*
X2672968Y22811104D01*
X2785236Y22894162D02*
G01*
X2785236Y22899243D01*
X2790570Y22909656D01*
X2795650Y22914991D01*
X2806065Y22920070D01*
X2826893Y22920070D01*
X2837306Y22914991D01*
X2842386Y22909656D01*
X2847720Y22899243D01*
X2847720Y22888829D01*
X2842386Y22878414D01*
X2831972Y22862920D01*
X2780156Y22811104D01*
X2852800Y22811104D01*
X2474595Y17920080D02*
G01*
X2474595Y17811114D01*
X2474595Y17811114D02*
G01*
X2536825Y17811114D01*
X2571115Y17920080D02*
G01*
X2571115Y17811114D01*
X2571115Y17920080D02*
G01*
X2638679Y17920080D01*
X2571115Y17868264D02*
G01*
X2612770Y17868264D01*
X2571115Y17811114D02*
G01*
X2638679Y17811114D01*
X2672968Y17920080D02*
G01*
X2672968Y17811114D01*
X2672968Y17920080D02*
G01*
X2709545Y17920080D01*
X2725038Y17915001D01*
X2735452Y17904587D01*
X2740533Y17894173D01*
X2745866Y17878425D01*
X2745866Y17852517D01*
X2740533Y17837023D01*
X2735452Y17826609D01*
X2725038Y17816195D01*
X2709545Y17811114D01*
X2672968Y17811114D01*
X2790570Y17920080D02*
G01*
X2847720Y17920080D01*
X2816479Y17878425D01*
X2831972Y17878425D01*
X2842386Y17873345D01*
X2847720Y17868264D01*
X2852800Y17852517D01*
X2852800Y17842103D01*
X2847720Y17826609D01*
X2837306Y17816195D01*
X2821559Y17811114D01*
X2806065Y17811114D01*
X2790570Y17816195D01*
X2785236Y17821275D01*
X2780156Y17831688D01*
X2474595Y12920090D02*
G01*
X2474595Y12811125D01*
X2474595Y12811125D02*
G01*
X2536825Y12811125D01*
X2571115Y12920090D02*
G01*
X2571115Y12811125D01*
X2571115Y12920090D02*
G01*
X2638679Y12920090D01*
X2571115Y12868275D02*
G01*
X2612770Y12868275D01*
X2571115Y12811125D02*
G01*
X2638679Y12811125D01*
X2672968Y12920090D02*
G01*
X2672968Y12811125D01*
X2672968Y12920090D02*
G01*
X2709545Y12920090D01*
X2725038Y12915011D01*
X2735452Y12904596D01*
X2740533Y12894183D01*
X2745866Y12878435D01*
X2745866Y12852527D01*
X2740533Y12837033D01*
X2735452Y12826619D01*
X2725038Y12816204D01*
X2709545Y12811125D01*
X2672968Y12811125D01*
X2831972Y12920090D02*
G01*
X2780156Y12847446D01*
X2858134Y12847446D01*
X2831972Y12920090D02*
G01*
X2831972Y12811125D01*
X2474595Y7920101D02*
G01*
X2474595Y7811135D01*
X2474595Y7811135D02*
G01*
X2536825Y7811135D01*
X2571115Y7920101D02*
G01*
X2571115Y7811135D01*
X2571115Y7920101D02*
G01*
X2638679Y7920101D01*
X2571115Y7868285D02*
G01*
X2612770Y7868285D01*
X2571115Y7811135D02*
G01*
X2638679Y7811135D01*
X2672968Y7920101D02*
G01*
X2672968Y7811135D01*
X2672968Y7920101D02*
G01*
X2709545Y7920101D01*
X2725038Y7915020D01*
X2735452Y7904606D01*
X2740533Y7894193D01*
X2745866Y7878445D01*
X2745866Y7852537D01*
X2740533Y7837043D01*
X2735452Y7826629D01*
X2725038Y7816214D01*
X2709545Y7811135D01*
X2672968Y7811135D01*
X2842386Y7920101D02*
G01*
X2790570Y7920101D01*
X2785236Y7873364D01*
X2790570Y7878445D01*
X2806065Y7883779D01*
X2821559Y7883779D01*
X2837306Y7878445D01*
X2847720Y7868285D01*
X2852800Y7852537D01*
X2852800Y7842122D01*
X2847720Y7826629D01*
X2837306Y7816214D01*
X2821559Y7811135D01*
X2806065Y7811135D01*
X2790570Y7816214D01*
X2785236Y7821295D01*
X2780156Y7831709D01*
X2474595Y2920111D02*
G01*
X2474595Y2811145D01*
X2474595Y2811145D02*
G01*
X2536825Y2811145D01*
X2571115Y2920111D02*
G01*
X2571115Y2811145D01*
X2571115Y2920111D02*
G01*
X2638679Y2920111D01*
X2571115Y2868295D02*
G01*
X2612770Y2868295D01*
X2571115Y2811145D02*
G01*
X2638679Y2811145D01*
X2672968Y2920111D02*
G01*
X2672968Y2811145D01*
X2672968Y2920111D02*
G01*
X2709545Y2920111D01*
X2725038Y2915030D01*
X2735452Y2904617D01*
X2740533Y2894203D01*
X2745866Y2878454D01*
X2745866Y2852546D01*
X2740533Y2837053D01*
X2735452Y2826638D01*
X2725038Y2816225D01*
X2709545Y2811145D01*
X2672968Y2811145D01*
X2842386Y2904617D02*
G01*
X2837306Y2915030D01*
X2821559Y2920111D01*
X2811145Y2920111D01*
X2795650Y2915030D01*
X2785236Y2899282D01*
X2780156Y2873375D01*
X2780156Y2847467D01*
X2785236Y2826638D01*
X2795650Y2816225D01*
X2811145Y2811145D01*
X2816479Y2811145D01*
X2831972Y2816225D01*
X2842386Y2826638D01*
X2847720Y2842132D01*
X2847720Y2847467D01*
X2842386Y2862961D01*
X2831972Y2873375D01*
X2816479Y2878454D01*
X2811145Y2878454D01*
X2795650Y2873375D01*
X2785236Y2862961D01*
X2780156Y2847467D01*
X7474584Y27920061D02*
G01*
X7474584Y27811095D01*
X7474584Y27811095D02*
G01*
X7536815Y27811095D01*
X7571104Y27920061D02*
G01*
X7571104Y27811095D01*
X7571104Y27920061D02*
G01*
X7638668Y27920061D01*
X7571104Y27868245D02*
G01*
X7612761Y27868245D01*
X7571104Y27811095D02*
G01*
X7638668Y27811095D01*
X7672959Y27920061D02*
G01*
X7672959Y27811095D01*
X7672959Y27920061D02*
G01*
X7709534Y27920061D01*
X7725029Y27914980D01*
X7735443Y27904567D01*
X7740522Y27894153D01*
X7745856Y27878404D01*
X7745856Y27852496D01*
X7740522Y27837003D01*
X7735443Y27826588D01*
X7725029Y27816175D01*
X7709534Y27811095D01*
X7672959Y27811095D01*
X7852790Y27920061D02*
G01*
X7800975Y27811095D01*
X7780147Y27920061D02*
G01*
X7852790Y27920061D01*
X7474584Y22920070D02*
G01*
X7474584Y22811104D01*
X7474584Y22811104D02*
G01*
X7536815Y22811104D01*
X7571104Y22920070D02*
G01*
X7571104Y22811104D01*
X7571104Y22920070D02*
G01*
X7638668Y22920070D01*
X7571104Y22868254D02*
G01*
X7612761Y22868254D01*
X7571104Y22811104D02*
G01*
X7638668Y22811104D01*
X7672959Y22920070D02*
G01*
X7672959Y22811104D01*
X7672959Y22920070D02*
G01*
X7709534Y22920070D01*
X7725029Y22914991D01*
X7735443Y22904577D01*
X7740522Y22894162D01*
X7745856Y22878414D01*
X7745856Y22852506D01*
X7740522Y22837012D01*
X7735443Y22826599D01*
X7725029Y22816185D01*
X7709534Y22811104D01*
X7672959Y22811104D01*
X7806054Y22920070D02*
G01*
X7790561Y22914991D01*
X7785227Y22904577D01*
X7785227Y22894162D01*
X7790561Y22883749D01*
X7800975Y22878414D01*
X7821549Y22873335D01*
X7837297Y22868254D01*
X7847711Y22857841D01*
X7852790Y22847427D01*
X7852790Y22831679D01*
X7847711Y22821264D01*
X7842377Y22816185D01*
X7826883Y22811104D01*
X7806054Y22811104D01*
X7790561Y22816185D01*
X7785227Y22821264D01*
X7780147Y22831679D01*
X7780147Y22847427D01*
X7785227Y22857841D01*
X7795640Y22868254D01*
X7811134Y22873335D01*
X7831963Y22878414D01*
X7842377Y22883749D01*
X7847711Y22894162D01*
X7847711Y22904577D01*
X7842377Y22914991D01*
X7826883Y22920070D01*
X7806054Y22920070D01*
X7474584Y17920080D02*
G01*
X7474584Y17811114D01*
X7474584Y17811114D02*
G01*
X7536815Y17811114D01*
X7571104Y17920080D02*
G01*
X7571104Y17811114D01*
X7571104Y17920080D02*
G01*
X7638668Y17920080D01*
X7571104Y17868264D02*
G01*
X7612761Y17868264D01*
X7571104Y17811114D02*
G01*
X7638668Y17811114D01*
X7672959Y17920080D02*
G01*
X7672959Y17811114D01*
X7672959Y17920080D02*
G01*
X7709534Y17920080D01*
X7725029Y17915001D01*
X7735443Y17904587D01*
X7740522Y17894173D01*
X7745856Y17878425D01*
X7745856Y17852517D01*
X7740522Y17837023D01*
X7735443Y17826609D01*
X7725029Y17816195D01*
X7709534Y17811114D01*
X7672959Y17811114D01*
X7847711Y17883759D02*
G01*
X7842377Y17868264D01*
X7831963Y17857851D01*
X7816468Y17852517D01*
X7811134Y17852517D01*
X7795640Y17857851D01*
X7785227Y17868264D01*
X7780147Y17883759D01*
X7780147Y17888838D01*
X7785227Y17904587D01*
X7795640Y17915001D01*
X7811134Y17920080D01*
X7816468Y17920080D01*
X7831963Y17915001D01*
X7842377Y17904587D01*
X7847711Y17883759D01*
X7847711Y17857851D01*
X7842377Y17831688D01*
X7831963Y17816195D01*
X7816468Y17811114D01*
X7806054Y17811114D01*
X7790561Y17816195D01*
X7785227Y17826609D01*
X7474584Y12920090D02*
G01*
X7474584Y12811125D01*
X7474584Y12811125D02*
G01*
X7536815Y12811125D01*
X7571104Y12920090D02*
G01*
X7571104Y12811125D01*
X7571104Y12920090D02*
G01*
X7638668Y12920090D01*
X7571104Y12868275D02*
G01*
X7612761Y12868275D01*
X7571104Y12811125D02*
G01*
X7638668Y12811125D01*
X7672959Y12920090D02*
G01*
X7672959Y12811125D01*
X7672959Y12920090D02*
G01*
X7709534Y12920090D01*
X7725029Y12915011D01*
X7735443Y12904596D01*
X7740522Y12894183D01*
X7745856Y12878435D01*
X7745856Y12852527D01*
X7740522Y12837033D01*
X7735443Y12826619D01*
X7725029Y12816204D01*
X7709534Y12811125D01*
X7672959Y12811125D01*
X7780147Y12899262D02*
G01*
X7790561Y12904596D01*
X7806054Y12920090D01*
X7806054Y12811125D01*
X7871586Y12920090D02*
G01*
X7855838Y12915011D01*
X7845425Y12899262D01*
X7840345Y12873354D01*
X7840345Y12857861D01*
X7845425Y12831699D01*
X7855838Y12816204D01*
X7871586Y12811125D01*
X7882000Y12811125D01*
X7897495Y12816204D01*
X7907909Y12831699D01*
X7912988Y12857861D01*
X7912988Y12873354D01*
X7907909Y12899262D01*
X7897495Y12915011D01*
X7882000Y12920090D01*
X7871586Y12920090D01*
X7474584Y7920101D02*
G01*
X7474584Y7811135D01*
X7474584Y7811135D02*
G01*
X7536815Y7811135D01*
X7571104Y7920101D02*
G01*
X7571104Y7811135D01*
X7571104Y7920101D02*
G01*
X7638668Y7920101D01*
X7571104Y7868285D02*
G01*
X7612761Y7868285D01*
X7571104Y7811135D02*
G01*
X7638668Y7811135D01*
X7672959Y7920101D02*
G01*
X7672959Y7811135D01*
X7672959Y7920101D02*
G01*
X7709534Y7920101D01*
X7725029Y7915020D01*
X7735443Y7904606D01*
X7740522Y7894193D01*
X7745856Y7878445D01*
X7745856Y7852537D01*
X7740522Y7837043D01*
X7735443Y7826629D01*
X7725029Y7816214D01*
X7709534Y7811135D01*
X7672959Y7811135D01*
X7780147Y7899272D02*
G01*
X7790561Y7904606D01*
X7806054Y7920101D01*
X7806054Y7811135D01*
X7840345Y7899272D02*
G01*
X7850759Y7904606D01*
X7866252Y7920101D01*
X7866252Y7811135D01*
X7474584Y2920111D02*
G01*
X7474584Y2811145D01*
X7474584Y2811145D02*
G01*
X7536815Y2811145D01*
X7571104Y2920111D02*
G01*
X7571104Y2811145D01*
X7571104Y2920111D02*
G01*
X7638668Y2920111D01*
X7571104Y2868295D02*
G01*
X7612761Y2868295D01*
X7571104Y2811145D02*
G01*
X7638668Y2811145D01*
X7672959Y2920111D02*
G01*
X7672959Y2811145D01*
X7672959Y2920111D02*
G01*
X7709534Y2920111D01*
X7725029Y2915030D01*
X7735443Y2904617D01*
X7740522Y2894203D01*
X7745856Y2878454D01*
X7745856Y2852546D01*
X7740522Y2837053D01*
X7735443Y2826638D01*
X7725029Y2816225D01*
X7709534Y2811145D01*
X7672959Y2811145D01*
X7780147Y2899282D02*
G01*
X7790561Y2904617D01*
X7806054Y2920111D01*
X7806054Y2811145D01*
X7845425Y2894203D02*
G01*
X7845425Y2899282D01*
X7850759Y2909696D01*
X7855838Y2915030D01*
X7866252Y2920111D01*
X7887081Y2920111D01*
X7897495Y2915030D01*
X7902575Y2909696D01*
X7907909Y2899282D01*
X7907909Y2888869D01*
X7902575Y2878454D01*
X7892415Y2862961D01*
X7840345Y2811145D01*
X7912988Y2811145D01*
X12474575Y27920061D02*
G01*
X12474575Y27811095D01*
X12474575Y27811095D02*
G01*
X12536804Y27811095D01*
X12571095Y27920061D02*
G01*
X12571095Y27811095D01*
X12571095Y27920061D02*
G01*
X12638659Y27920061D01*
X12571095Y27868245D02*
G01*
X12612750Y27868245D01*
X12571095Y27811095D02*
G01*
X12638659Y27811095D01*
X12672949Y27920061D02*
G01*
X12672949Y27811095D01*
X12672949Y27920061D02*
G01*
X12709525Y27920061D01*
X12725018Y27914980D01*
X12735433Y27904567D01*
X12740513Y27894153D01*
X12745847Y27878404D01*
X12745847Y27852496D01*
X12740513Y27837003D01*
X12735433Y27826588D01*
X12725018Y27816175D01*
X12709525Y27811095D01*
X12672949Y27811095D01*
X12780136Y27899233D02*
G01*
X12790550Y27904567D01*
X12806045Y27920061D01*
X12806045Y27811095D01*
X12850749Y27920061D02*
G01*
X12907899Y27920061D01*
X12876656Y27878404D01*
X12892404Y27878404D01*
X12902565Y27873325D01*
X12907899Y27868245D01*
X12912979Y27852496D01*
X12912979Y27842083D01*
X12907899Y27826588D01*
X12897484Y27816175D01*
X12881990Y27811095D01*
X12866243Y27811095D01*
X12850749Y27816175D01*
X12845415Y27821254D01*
X12840334Y27831669D01*
X12474575Y22920070D02*
G01*
X12474575Y22811104D01*
X12474575Y22811104D02*
G01*
X12536804Y22811104D01*
X12571095Y22920070D02*
G01*
X12571095Y22811104D01*
X12571095Y22920070D02*
G01*
X12638659Y22920070D01*
X12571095Y22868254D02*
G01*
X12612750Y22868254D01*
X12571095Y22811104D02*
G01*
X12638659Y22811104D01*
X12672949Y22920070D02*
G01*
X12672949Y22811104D01*
X12672949Y22920070D02*
G01*
X12709525Y22920070D01*
X12725018Y22914991D01*
X12735433Y22904577D01*
X12740513Y22894162D01*
X12745847Y22878414D01*
X12745847Y22852506D01*
X12740513Y22837012D01*
X12735433Y22826599D01*
X12725018Y22816185D01*
X12709525Y22811104D01*
X12672949Y22811104D01*
X12780136Y22899243D02*
G01*
X12790550Y22904577D01*
X12806045Y22920070D01*
X12806045Y22811104D01*
X12892404Y22920070D02*
G01*
X12840334Y22847427D01*
X12918313Y22847427D01*
X12892404Y22920070D02*
G01*
X12892404Y22811104D01*
X12474575Y17920080D02*
G01*
X12474575Y17811114D01*
X12474575Y17811114D02*
G01*
X12536804Y17811114D01*
X12571095Y17920080D02*
G01*
X12571095Y17811114D01*
X12571095Y17920080D02*
G01*
X12638659Y17920080D01*
X12571095Y17868264D02*
G01*
X12612750Y17868264D01*
X12571095Y17811114D02*
G01*
X12638659Y17811114D01*
X12672949Y17920080D02*
G01*
X12672949Y17811114D01*
X12672949Y17920080D02*
G01*
X12709525Y17920080D01*
X12725018Y17915001D01*
X12735433Y17904587D01*
X12740513Y17894173D01*
X12745847Y17878425D01*
X12745847Y17852517D01*
X12740513Y17837023D01*
X12735433Y17826609D01*
X12725018Y17816195D01*
X12709525Y17811114D01*
X12672949Y17811114D01*
X12780136Y17899253D02*
G01*
X12790550Y17904587D01*
X12806045Y17920080D01*
X12806045Y17811114D01*
X12902565Y17920080D02*
G01*
X12850749Y17920080D01*
X12845415Y17873345D01*
X12850749Y17878425D01*
X12866243Y17883759D01*
X12881990Y17883759D01*
X12897484Y17878425D01*
X12907899Y17868264D01*
X12912979Y17852517D01*
X12912979Y17842103D01*
X12907899Y17826609D01*
X12897484Y17816195D01*
X12881990Y17811114D01*
X12866243Y17811114D01*
X12850749Y17816195D01*
X12845415Y17821275D01*
X12840334Y17831688D01*
X12474575Y12920090D02*
G01*
X12474575Y12811125D01*
X12474575Y12811125D02*
G01*
X12536804Y12811125D01*
X12571095Y12920090D02*
G01*
X12571095Y12811125D01*
X12571095Y12920090D02*
G01*
X12638659Y12920090D01*
X12571095Y12868275D02*
G01*
X12612750Y12868275D01*
X12571095Y12811125D02*
G01*
X12638659Y12811125D01*
X12672949Y12920090D02*
G01*
X12672949Y12811125D01*
X12672949Y12920090D02*
G01*
X12709525Y12920090D01*
X12725018Y12915011D01*
X12735433Y12904596D01*
X12740513Y12894183D01*
X12745847Y12878435D01*
X12745847Y12852527D01*
X12740513Y12837033D01*
X12735433Y12826619D01*
X12725018Y12816204D01*
X12709525Y12811125D01*
X12672949Y12811125D01*
X12780136Y12899262D02*
G01*
X12790550Y12904596D01*
X12806045Y12920090D01*
X12806045Y12811125D01*
X12902565Y12904596D02*
G01*
X12897484Y12915011D01*
X12881990Y12920090D01*
X12871577Y12920090D01*
X12855829Y12915011D01*
X12845415Y12899262D01*
X12840334Y12873354D01*
X12840334Y12847446D01*
X12845415Y12826619D01*
X12855829Y12816204D01*
X12871577Y12811125D01*
X12876656Y12811125D01*
X12892404Y12816204D01*
X12902565Y12826619D01*
X12907899Y12842112D01*
X12907899Y12847446D01*
X12902565Y12862940D01*
X12892404Y12873354D01*
X12876656Y12878435D01*
X12871577Y12878435D01*
X12855829Y12873354D01*
X12845415Y12862940D01*
X12840334Y12847446D01*
X12474575Y7920101D02*
G01*
X12474575Y7811135D01*
X12474575Y7811135D02*
G01*
X12536804Y7811135D01*
X12571095Y7920101D02*
G01*
X12571095Y7811135D01*
X12571095Y7920101D02*
G01*
X12638659Y7920101D01*
X12571095Y7868285D02*
G01*
X12612750Y7868285D01*
X12571095Y7811135D02*
G01*
X12638659Y7811135D01*
X12672949Y7920101D02*
G01*
X12672949Y7811135D01*
X12672949Y7920101D02*
G01*
X12709525Y7920101D01*
X12725018Y7915020D01*
X12735433Y7904606D01*
X12740513Y7894193D01*
X12745847Y7878445D01*
X12745847Y7852537D01*
X12740513Y7837043D01*
X12735433Y7826629D01*
X12725018Y7816214D01*
X12709525Y7811135D01*
X12672949Y7811135D01*
X12780136Y7899272D02*
G01*
X12790550Y7904606D01*
X12806045Y7920101D01*
X12806045Y7811135D01*
X12912979Y7920101D02*
G01*
X12861163Y7811135D01*
X12840334Y7920101D02*
G01*
X12912979Y7920101D01*
X12474575Y2920111D02*
G01*
X12474575Y2811145D01*
X12474575Y2811145D02*
G01*
X12536804Y2811145D01*
X12571095Y2920111D02*
G01*
X12571095Y2811145D01*
X12571095Y2920111D02*
G01*
X12638659Y2920111D01*
X12571095Y2868295D02*
G01*
X12612750Y2868295D01*
X12571095Y2811145D02*
G01*
X12638659Y2811145D01*
X12672949Y2920111D02*
G01*
X12672949Y2811145D01*
X12672949Y2920111D02*
G01*
X12709525Y2920111D01*
X12725018Y2915030D01*
X12735433Y2904617D01*
X12740513Y2894203D01*
X12745847Y2878454D01*
X12745847Y2852546D01*
X12740513Y2837053D01*
X12735433Y2826638D01*
X12725018Y2816225D01*
X12709525Y2811145D01*
X12672949Y2811145D01*
X12780136Y2899282D02*
G01*
X12790550Y2904617D01*
X12806045Y2920111D01*
X12806045Y2811145D01*
X12866243Y2920111D02*
G01*
X12850749Y2915030D01*
X12845415Y2904617D01*
X12845415Y2894203D01*
X12850749Y2883788D01*
X12861163Y2878454D01*
X12881990Y2873375D01*
X12897484Y2868295D01*
X12907899Y2857880D01*
X12912979Y2847467D01*
X12912979Y2831719D01*
X12907899Y2821304D01*
X12902565Y2816225D01*
X12887070Y2811145D01*
X12866243Y2811145D01*
X12850749Y2816225D01*
X12845415Y2821304D01*
X12840334Y2831719D01*
X12840334Y2847467D01*
X12845415Y2857880D01*
X12855829Y2868295D01*
X12871577Y2873375D01*
X12892404Y2878454D01*
X12902565Y2883788D01*
X12907899Y2894203D01*
X12907899Y2904617D01*
X12902565Y2915030D01*
X12887070Y2920111D01*
X12866243Y2920111D01*
X17474565Y27920061D02*
G01*
X17474565Y27811095D01*
X17474565Y27811095D02*
G01*
X17536795Y27811095D01*
X17571084Y27920061D02*
G01*
X17571084Y27811095D01*
X17571084Y27920061D02*
G01*
X17638649Y27920061D01*
X17571084Y27868245D02*
G01*
X17612741Y27868245D01*
X17571084Y27811095D02*
G01*
X17638649Y27811095D01*
X17672938Y27920061D02*
G01*
X17672938Y27811095D01*
X17672938Y27920061D02*
G01*
X17709515Y27920061D01*
X17725009Y27914980D01*
X17735423Y27904567D01*
X17740502Y27894153D01*
X17745836Y27878404D01*
X17745836Y27852496D01*
X17740502Y27837003D01*
X17735423Y27826588D01*
X17725009Y27816175D01*
X17709515Y27811095D01*
X17672938Y27811095D01*
X17780127Y27899233D02*
G01*
X17790541Y27904567D01*
X17806034Y27920061D01*
X17806034Y27811095D01*
X17907888Y27883738D02*
G01*
X17902554Y27868245D01*
X17892395Y27857830D01*
X17876647Y27852496D01*
X17871566Y27852496D01*
X17855818Y27857830D01*
X17845404Y27868245D01*
X17840325Y27883738D01*
X17840325Y27888819D01*
X17845404Y27904567D01*
X17855818Y27914980D01*
X17871566Y27920061D01*
X17876647Y27920061D01*
X17892395Y27914980D01*
X17902554Y27904567D01*
X17907888Y27883738D01*
X17907888Y27857830D01*
X17902554Y27831669D01*
X17892395Y27816175D01*
X17876647Y27811095D01*
X17866233Y27811095D01*
X17850738Y27816175D01*
X17845404Y27826588D01*
X17474565Y22920070D02*
G01*
X17474565Y22811104D01*
X17474565Y22811104D02*
G01*
X17536795Y22811104D01*
X17571084Y22920070D02*
G01*
X17571084Y22811104D01*
X17571084Y22920070D02*
G01*
X17638649Y22920070D01*
X17571084Y22868254D02*
G01*
X17612741Y22868254D01*
X17571084Y22811104D02*
G01*
X17638649Y22811104D01*
X17672938Y22920070D02*
G01*
X17672938Y22811104D01*
X17672938Y22920070D02*
G01*
X17709515Y22920070D01*
X17725009Y22914991D01*
X17735423Y22904577D01*
X17740502Y22894162D01*
X17745836Y22878414D01*
X17745836Y22852506D01*
X17740502Y22837012D01*
X17735423Y22826599D01*
X17725009Y22816185D01*
X17709515Y22811104D01*
X17672938Y22811104D01*
X17785206Y22894162D02*
G01*
X17785206Y22899243D01*
X17790541Y22909656D01*
X17795620Y22914991D01*
X17806034Y22920070D01*
X17826863Y22920070D01*
X17837277Y22914991D01*
X17842356Y22909656D01*
X17847691Y22899243D01*
X17847691Y22888829D01*
X17842356Y22878414D01*
X17831943Y22862920D01*
X17780127Y22811104D01*
X17852770Y22811104D01*
X17918302Y22920070D02*
G01*
X17902554Y22914991D01*
X17892395Y22899243D01*
X17887061Y22873335D01*
X17887061Y22857841D01*
X17892395Y22831679D01*
X17902554Y22816185D01*
X17918302Y22811104D01*
X17928716Y22811104D01*
X17944211Y22816185D01*
X17954625Y22831679D01*
X17959704Y22857841D01*
X17959704Y22873335D01*
X17954625Y22899243D01*
X17944211Y22914991D01*
X17928716Y22920070D01*
X17918302Y22920070D01*
X17474565Y17920080D02*
G01*
X17474565Y17811114D01*
X17474565Y17811114D02*
G01*
X17536795Y17811114D01*
X17571084Y17920080D02*
G01*
X17571084Y17811114D01*
X17571084Y17920080D02*
G01*
X17638649Y17920080D01*
X17571084Y17868264D02*
G01*
X17612741Y17868264D01*
X17571084Y17811114D02*
G01*
X17638649Y17811114D01*
X17672938Y17920080D02*
G01*
X17672938Y17811114D01*
X17672938Y17920080D02*
G01*
X17709515Y17920080D01*
X17725009Y17915001D01*
X17735423Y17904587D01*
X17740502Y17894173D01*
X17745836Y17878425D01*
X17745836Y17852517D01*
X17740502Y17837023D01*
X17735423Y17826609D01*
X17725009Y17816195D01*
X17709515Y17811114D01*
X17672938Y17811114D01*
X17785206Y17894173D02*
G01*
X17785206Y17899253D01*
X17790541Y17909667D01*
X17795620Y17915001D01*
X17806034Y17920080D01*
X17826863Y17920080D01*
X17837277Y17915001D01*
X17842356Y17909667D01*
X17847691Y17899253D01*
X17847691Y17888838D01*
X17842356Y17878425D01*
X17831943Y17862930D01*
X17780127Y17811114D01*
X17852770Y17811114D01*
X17887061Y17899253D02*
G01*
X17897475Y17904587D01*
X17912968Y17920080D01*
X17912968Y17811114D01*
X17474565Y12920090D02*
G01*
X17474565Y12811125D01*
X17474565Y12811125D02*
G01*
X17536795Y12811125D01*
X17571084Y12920090D02*
G01*
X17571084Y12811125D01*
X17571084Y12920090D02*
G01*
X17638649Y12920090D01*
X17571084Y12868275D02*
G01*
X17612741Y12868275D01*
X17571084Y12811125D02*
G01*
X17638649Y12811125D01*
X17672938Y12920090D02*
G01*
X17672938Y12811125D01*
X17672938Y12920090D02*
G01*
X17709515Y12920090D01*
X17725009Y12915011D01*
X17735423Y12904596D01*
X17740502Y12894183D01*
X17745836Y12878435D01*
X17745836Y12852527D01*
X17740502Y12837033D01*
X17735423Y12826619D01*
X17725009Y12816204D01*
X17709515Y12811125D01*
X17672938Y12811125D01*
X17785206Y12894183D02*
G01*
X17785206Y12899262D01*
X17790541Y12909677D01*
X17795620Y12915011D01*
X17806034Y12920090D01*
X17826863Y12920090D01*
X17837277Y12915011D01*
X17842356Y12909677D01*
X17847691Y12899262D01*
X17847691Y12888849D01*
X17842356Y12878435D01*
X17831943Y12862940D01*
X17780127Y12811125D01*
X17852770Y12811125D01*
X17892395Y12894183D02*
G01*
X17892395Y12899262D01*
X17897475Y12909677D01*
X17902554Y12915011D01*
X17912968Y12920090D01*
X17933797Y12920090D01*
X17944211Y12915011D01*
X17949545Y12909677D01*
X17954625Y12899262D01*
X17954625Y12888849D01*
X17949545Y12878435D01*
X17939131Y12862940D01*
X17887061Y12811125D01*
X17959704Y12811125D01*
X17474565Y7920101D02*
G01*
X17474565Y7811135D01*
X17474565Y7811135D02*
G01*
X17536795Y7811135D01*
X17571084Y7920101D02*
G01*
X17571084Y7811135D01*
X17571084Y7920101D02*
G01*
X17638649Y7920101D01*
X17571084Y7868285D02*
G01*
X17612741Y7868285D01*
X17571084Y7811135D02*
G01*
X17638649Y7811135D01*
X17672938Y7920101D02*
G01*
X17672938Y7811135D01*
X17672938Y7920101D02*
G01*
X17709515Y7920101D01*
X17725009Y7915020D01*
X17735423Y7904606D01*
X17740502Y7894193D01*
X17745836Y7878445D01*
X17745836Y7852537D01*
X17740502Y7837043D01*
X17735423Y7826629D01*
X17725009Y7816214D01*
X17709515Y7811135D01*
X17672938Y7811135D01*
X17785206Y7894193D02*
G01*
X17785206Y7899272D01*
X17790541Y7909687D01*
X17795620Y7915020D01*
X17806034Y7920101D01*
X17826863Y7920101D01*
X17837277Y7915020D01*
X17842356Y7909687D01*
X17847691Y7899272D01*
X17847691Y7888859D01*
X17842356Y7878445D01*
X17831943Y7862951D01*
X17780127Y7811135D01*
X17852770Y7811135D01*
X17897475Y7920101D02*
G01*
X17954625Y7920101D01*
X17923383Y7878445D01*
X17939131Y7878445D01*
X17949545Y7873364D01*
X17954625Y7868285D01*
X17959704Y7852537D01*
X17959704Y7842122D01*
X17954625Y7826629D01*
X17944211Y7816214D01*
X17928716Y7811135D01*
X17912968Y7811135D01*
X17897475Y7816214D01*
X17892395Y7821295D01*
X17887061Y7831709D01*
X17474565Y2920111D02*
G01*
X17474565Y2811145D01*
X17474565Y2811145D02*
G01*
X17536795Y2811145D01*
X17571084Y2920111D02*
G01*
X17571084Y2811145D01*
X17571084Y2920111D02*
G01*
X17638649Y2920111D01*
X17571084Y2868295D02*
G01*
X17612741Y2868295D01*
X17571084Y2811145D02*
G01*
X17638649Y2811145D01*
X17672938Y2920111D02*
G01*
X17672938Y2811145D01*
X17672938Y2920111D02*
G01*
X17709515Y2920111D01*
X17725009Y2915030D01*
X17735423Y2904617D01*
X17740502Y2894203D01*
X17745836Y2878454D01*
X17745836Y2852546D01*
X17740502Y2837053D01*
X17735423Y2826638D01*
X17725009Y2816225D01*
X17709515Y2811145D01*
X17672938Y2811145D01*
X17785206Y2894203D02*
G01*
X17785206Y2899282D01*
X17790541Y2909696D01*
X17795620Y2915030D01*
X17806034Y2920111D01*
X17826863Y2920111D01*
X17837277Y2915030D01*
X17842356Y2909696D01*
X17847691Y2899282D01*
X17847691Y2888869D01*
X17842356Y2878454D01*
X17831943Y2862961D01*
X17780127Y2811145D01*
X17852770Y2811145D01*
X17939131Y2920111D02*
G01*
X17887061Y2847467D01*
X17965038Y2847467D01*
X17939131Y2920111D02*
G01*
X17939131Y2811145D01*
X2401625Y27949804D02*
G01*
X2322616Y27949804D01*
X2322616Y27850084D02*
G01*
X2401625Y27850084D01*
X2416865Y27865324D02*
G01*
X2416865Y27934564D01*
X2198364Y27949804D02*
G01*
X2277374Y27949804D01*
X2277374Y27850084D02*
G01*
X2198364Y27850084D01*
X2183124Y27865324D02*
G01*
X2183124Y27934564D01*
X2401625Y22949814D02*
G01*
X2322616Y22949814D01*
X2322616Y22850094D02*
G01*
X2401625Y22850094D01*
X2416865Y22865334D02*
G01*
X2416865Y22934574D01*
X2198364Y22949814D02*
G01*
X2277374Y22949814D01*
X2277374Y22850094D02*
G01*
X2198364Y22850094D01*
X2183124Y22865334D02*
G01*
X2183124Y22934574D01*
X2401625Y17949824D02*
G01*
X2322616Y17949824D01*
X2322616Y17850104D02*
G01*
X2401625Y17850104D01*
X2416865Y17865344D02*
G01*
X2416865Y17934584D01*
X2198364Y17949824D02*
G01*
X2277374Y17949824D01*
X2277374Y17850104D02*
G01*
X2198364Y17850104D01*
X2183124Y17865344D02*
G01*
X2183124Y17934584D01*
X2401625Y12949834D02*
G01*
X2322616Y12949834D01*
X2322616Y12850113D02*
G01*
X2401625Y12850113D01*
X2416865Y12865354D02*
G01*
X2416865Y12934594D01*
X2198364Y12949834D02*
G01*
X2277374Y12949834D01*
X2277374Y12850113D02*
G01*
X2198364Y12850113D01*
X2183124Y12865354D02*
G01*
X2183124Y12934594D01*
X2401625Y7949844D02*
G01*
X2322616Y7949844D01*
X2322616Y7850123D02*
G01*
X2401625Y7850123D01*
X2416865Y7865363D02*
G01*
X2416865Y7934604D01*
X2198364Y7949844D02*
G01*
X2277374Y7949844D01*
X2277374Y7850123D02*
G01*
X2198364Y7850123D01*
X2183124Y7865363D02*
G01*
X2183124Y7934604D01*
X2401625Y2949854D02*
G01*
X2322616Y2949854D01*
X2322616Y2850134D02*
G01*
X2401625Y2850134D01*
X2416865Y2865373D02*
G01*
X2416865Y2934614D01*
X2198364Y2949854D02*
G01*
X2277374Y2949854D01*
X2277374Y2850134D02*
G01*
X2198364Y2850134D01*
X2183124Y2865373D02*
G01*
X2183124Y2934614D01*
X7401615Y27949804D02*
G01*
X7322606Y27949804D01*
X7322606Y27850084D02*
G01*
X7401615Y27850084D01*
X7416855Y27865324D02*
G01*
X7416855Y27934564D01*
X7198354Y27949804D02*
G01*
X7277364Y27949804D01*
X7277364Y27850084D02*
G01*
X7198354Y27850084D01*
X7183114Y27865324D02*
G01*
X7183114Y27934564D01*
X7401615Y22949814D02*
G01*
X7322606Y22949814D01*
X7322606Y22850094D02*
G01*
X7401615Y22850094D01*
X7416855Y22865334D02*
G01*
X7416855Y22934574D01*
X7198354Y22949814D02*
G01*
X7277364Y22949814D01*
X7277364Y22850094D02*
G01*
X7198354Y22850094D01*
X7183114Y22865334D02*
G01*
X7183114Y22934574D01*
X7401615Y17949824D02*
G01*
X7322606Y17949824D01*
X7322606Y17850104D02*
G01*
X7401615Y17850104D01*
X7416855Y17865344D02*
G01*
X7416855Y17934584D01*
X7198354Y17949824D02*
G01*
X7277364Y17949824D01*
X7277364Y17850104D02*
G01*
X7198354Y17850104D01*
X7183114Y17865344D02*
G01*
X7183114Y17934584D01*
X7401615Y12949834D02*
G01*
X7322606Y12949834D01*
X7322606Y12850113D02*
G01*
X7401615Y12850113D01*
X7416855Y12865354D02*
G01*
X7416855Y12934594D01*
X7198354Y12949834D02*
G01*
X7277364Y12949834D01*
X7277364Y12850113D02*
G01*
X7198354Y12850113D01*
X7183114Y12865354D02*
G01*
X7183114Y12934594D01*
X7401615Y7949844D02*
G01*
X7322606Y7949844D01*
X7322606Y7850123D02*
G01*
X7401615Y7850123D01*
X7416855Y7865363D02*
G01*
X7416855Y7934604D01*
X7198354Y7949844D02*
G01*
X7277364Y7949844D01*
X7277364Y7850123D02*
G01*
X7198354Y7850123D01*
X7183114Y7865363D02*
G01*
X7183114Y7934604D01*
X7401615Y2949854D02*
G01*
X7322606Y2949854D01*
X7322606Y2850134D02*
G01*
X7401615Y2850134D01*
X7416855Y2865373D02*
G01*
X7416855Y2934614D01*
X7198354Y2949854D02*
G01*
X7277364Y2949854D01*
X7277364Y2850134D02*
G01*
X7198354Y2850134D01*
X7183114Y2865373D02*
G01*
X7183114Y2934614D01*
X12401605Y27949804D02*
G01*
X12322596Y27949804D01*
X12322596Y27850084D02*
G01*
X12401605Y27850084D01*
X12416845Y27865324D02*
G01*
X12416845Y27934564D01*
X12198344Y27949804D02*
G01*
X12277354Y27949804D01*
X12277354Y27850084D02*
G01*
X12198344Y27850084D01*
X12183104Y27865324D02*
G01*
X12183104Y27934564D01*
X12401605Y22949814D02*
G01*
X12322596Y22949814D01*
X12322596Y22850094D02*
G01*
X12401605Y22850094D01*
X12416845Y22865334D02*
G01*
X12416845Y22934574D01*
X12198344Y22949814D02*
G01*
X12277354Y22949814D01*
X12277354Y22850094D02*
G01*
X12198344Y22850094D01*
X12183104Y22865334D02*
G01*
X12183104Y22934574D01*
X12401605Y17949824D02*
G01*
X12322596Y17949824D01*
X12322596Y17850104D02*
G01*
X12401605Y17850104D01*
X12416845Y17865344D02*
G01*
X12416845Y17934584D01*
X12198344Y17949824D02*
G01*
X12277354Y17949824D01*
X12277354Y17850104D02*
G01*
X12198344Y17850104D01*
X12183104Y17865344D02*
G01*
X12183104Y17934584D01*
X12401605Y12949834D02*
G01*
X12322596Y12949834D01*
X12322596Y12850113D02*
G01*
X12401605Y12850113D01*
X12416845Y12865354D02*
G01*
X12416845Y12934594D01*
X12198344Y12949834D02*
G01*
X12277354Y12949834D01*
X12277354Y12850113D02*
G01*
X12198344Y12850113D01*
X12183104Y12865354D02*
G01*
X12183104Y12934594D01*
X12401605Y7949844D02*
G01*
X12322596Y7949844D01*
X12322596Y7850123D02*
G01*
X12401605Y7850123D01*
X12416845Y7865363D02*
G01*
X12416845Y7934604D01*
X12198344Y7949844D02*
G01*
X12277354Y7949844D01*
X12277354Y7850123D02*
G01*
X12198344Y7850123D01*
X12183104Y7865363D02*
G01*
X12183104Y7934604D01*
X12401605Y2949854D02*
G01*
X12322596Y2949854D01*
X12322596Y2850134D02*
G01*
X12401605Y2850134D01*
X12416845Y2865373D02*
G01*
X12416845Y2934614D01*
X12198344Y2949854D02*
G01*
X12277354Y2949854D01*
X12277354Y2850134D02*
G01*
X12198344Y2850134D01*
X12183104Y2865373D02*
G01*
X12183104Y2934614D01*
X17401595Y27949804D02*
G01*
X17322586Y27949804D01*
X17322586Y27850084D02*
G01*
X17401595Y27850084D01*
X17416835Y27865324D02*
G01*
X17416835Y27934564D01*
X17198334Y27949804D02*
G01*
X17277344Y27949804D01*
X17277344Y27850084D02*
G01*
X17198334Y27850084D01*
X17183094Y27865324D02*
G01*
X17183094Y27934564D01*
X17401595Y22949814D02*
G01*
X17322586Y22949814D01*
X17322586Y22850094D02*
G01*
X17401595Y22850094D01*
X17416835Y22865334D02*
G01*
X17416835Y22934574D01*
X17198334Y22949814D02*
G01*
X17277344Y22949814D01*
X17277344Y22850094D02*
G01*
X17198334Y22850094D01*
X17183094Y22865334D02*
G01*
X17183094Y22934574D01*
X17401595Y17949824D02*
G01*
X17322586Y17949824D01*
X17322586Y17850104D02*
G01*
X17401595Y17850104D01*
X17416835Y17865344D02*
G01*
X17416835Y17934584D01*
X17198334Y17949824D02*
G01*
X17277344Y17949824D01*
X17277344Y17850104D02*
G01*
X17198334Y17850104D01*
X17183094Y17865344D02*
G01*
X17183094Y17934584D01*
X17401595Y12949834D02*
G01*
X17322586Y12949834D01*
X17322586Y12850113D02*
G01*
X17401595Y12850113D01*
X17416835Y12865354D02*
G01*
X17416835Y12934594D01*
X17198334Y12949834D02*
G01*
X17277344Y12949834D01*
X17277344Y12850113D02*
G01*
X17198334Y12850113D01*
X17183094Y12865354D02*
G01*
X17183094Y12934594D01*
X17401595Y7949844D02*
G01*
X17322586Y7949844D01*
X17322586Y7850123D02*
G01*
X17401595Y7850123D01*
X17416835Y7865363D02*
G01*
X17416835Y7934604D01*
X17198334Y7949844D02*
G01*
X17277344Y7949844D01*
X17277344Y7850123D02*
G01*
X17198334Y7850123D01*
X17183094Y7865363D02*
G01*
X17183094Y7934604D01*
X17401595Y2949854D02*
G01*
X17322586Y2949854D01*
X17322586Y2850134D02*
G01*
X17401595Y2850134D01*
X17416835Y2865373D02*
G01*
X17416835Y2934614D01*
X17198334Y2949854D02*
G01*
X17277344Y2949854D01*
X17277344Y2850134D02*
G01*
X17198334Y2850134D01*
X17183094Y2865373D02*
G01*
X17183094Y2934614D01*
X2242375Y27723795D02*
G01*
X2242375Y27757564D01*
X2242375Y27757564D01*
X2757614Y27757564D01*
X2757614Y27757564D01*
X2757614Y27723795D01*
X2242375Y27276094D02*
G01*
X2242375Y27242325D01*
X2242375Y27242325D01*
X2757614Y27242325D01*
X2757614Y27242325D01*
X2757614Y27276094D01*
X2242375Y22723805D02*
G01*
X2242375Y22757574D01*
X2242375Y22757574D01*
X2757614Y22757574D01*
X2757614Y22757574D01*
X2757614Y22723805D01*
X2242375Y22276104D02*
G01*
X2242375Y22242335D01*
X2242375Y22242335D01*
X2757614Y22242335D01*
X2757614Y22242335D01*
X2757614Y22276104D01*
X2242375Y17723815D02*
G01*
X2242375Y17757584D01*
X2242375Y17757584D01*
X2757614Y17757584D01*
X2757614Y17757584D01*
X2757614Y17723815D01*
X2242375Y17276114D02*
G01*
X2242375Y17242345D01*
X2242375Y17242345D01*
X2757614Y17242345D01*
X2757614Y17242345D01*
X2757614Y17276114D01*
X2242375Y12723825D02*
G01*
X2242375Y12757594D01*
X2242375Y12757594D01*
X2757614Y12757594D01*
X2757614Y12757594D01*
X2757614Y12723825D01*
X2242375Y12276124D02*
G01*
X2242375Y12242355D01*
X2242375Y12242355D01*
X2757614Y12242355D01*
X2757614Y12242355D01*
X2757614Y12276124D01*
X2242375Y7723835D02*
G01*
X2242375Y7757604D01*
X2242375Y7757604D01*
X2757614Y7757604D01*
X2757614Y7757604D01*
X2757614Y7723835D01*
X2242375Y7276134D02*
G01*
X2242375Y7242365D01*
X2242375Y7242365D01*
X2757614Y7242365D01*
X2757614Y7242365D01*
X2757614Y7276134D01*
X2242375Y2723845D02*
G01*
X2242375Y2757614D01*
X2242375Y2757614D01*
X2757614Y2757614D01*
X2757614Y2757614D01*
X2757614Y2723845D01*
X2242375Y2276144D02*
G01*
X2242375Y2242375D01*
X2242375Y2242375D01*
X2757614Y2242375D01*
X2757614Y2242375D01*
X2757614Y2276144D01*
X7242365Y27723795D02*
G01*
X7242365Y27757564D01*
X7242365Y27757564D01*
X7757604Y27757564D01*
X7757604Y27757564D01*
X7757604Y27723795D01*
X7242365Y27276094D02*
G01*
X7242365Y27242325D01*
X7242365Y27242325D01*
X7757604Y27242325D01*
X7757604Y27242325D01*
X7757604Y27276094D01*
X7242365Y22723805D02*
G01*
X7242365Y22757574D01*
X7242365Y22757574D01*
X7757604Y22757574D01*
X7757604Y22757574D01*
X7757604Y22723805D01*
X7242365Y22276104D02*
G01*
X7242365Y22242335D01*
X7242365Y22242335D01*
X7757604Y22242335D01*
X7757604Y22242335D01*
X7757604Y22276104D01*
X7242365Y17723815D02*
G01*
X7242365Y17757584D01*
X7242365Y17757584D01*
X7757604Y17757584D01*
X7757604Y17757584D01*
X7757604Y17723815D01*
X7242365Y17276114D02*
G01*
X7242365Y17242345D01*
X7242365Y17242345D01*
X7757604Y17242345D01*
X7757604Y17242345D01*
X7757604Y17276114D01*
X7242365Y12723825D02*
G01*
X7242365Y12757594D01*
X7242365Y12757594D01*
X7757604Y12757594D01*
X7757604Y12757594D01*
X7757604Y12723825D01*
X7242365Y12276124D02*
G01*
X7242365Y12242355D01*
X7242365Y12242355D01*
X7757604Y12242355D01*
X7757604Y12242355D01*
X7757604Y12276124D01*
X7242365Y7723835D02*
G01*
X7242365Y7757604D01*
X7242365Y7757604D01*
X7757604Y7757604D01*
X7757604Y7757604D01*
X7757604Y7723835D01*
X7242365Y7276134D02*
G01*
X7242365Y7242365D01*
X7242365Y7242365D01*
X7757604Y7242365D01*
X7757604Y7242365D01*
X7757604Y7276134D01*
X7242365Y2723845D02*
G01*
X7242365Y2757614D01*
X7242365Y2757614D01*
X7757604Y2757614D01*
X7757604Y2757614D01*
X7757604Y2723845D01*
X7242365Y2276144D02*
G01*
X7242365Y2242375D01*
X7242365Y2242375D01*
X7757604Y2242375D01*
X7757604Y2242375D01*
X7757604Y2276144D01*
X12242355Y27723795D02*
G01*
X12242355Y27757564D01*
X12242355Y27757564D01*
X12757594Y27757564D01*
X12757594Y27757564D01*
X12757594Y27723795D01*
X12242355Y27276094D02*
G01*
X12242355Y27242325D01*
X12242355Y27242325D01*
X12757594Y27242325D01*
X12757594Y27242325D01*
X12757594Y27276094D01*
X12242355Y22723805D02*
G01*
X12242355Y22757574D01*
X12242355Y22757574D01*
X12757594Y22757574D01*
X12757594Y22757574D01*
X12757594Y22723805D01*
X12242355Y22276104D02*
G01*
X12242355Y22242335D01*
X12242355Y22242335D01*
X12757594Y22242335D01*
X12757594Y22242335D01*
X12757594Y22276104D01*
X12242355Y17723815D02*
G01*
X12242355Y17757584D01*
X12242355Y17757584D01*
X12757594Y17757584D01*
X12757594Y17757584D01*
X12757594Y17723815D01*
X12242355Y17276114D02*
G01*
X12242355Y17242345D01*
X12242355Y17242345D01*
X12757594Y17242345D01*
X12757594Y17242345D01*
X12757594Y17276114D01*
X12242355Y12723825D02*
G01*
X12242355Y12757594D01*
X12242355Y12757594D01*
X12757594Y12757594D01*
X12757594Y12757594D01*
X12757594Y12723825D01*
X12242355Y12276124D02*
G01*
X12242355Y12242355D01*
X12242355Y12242355D01*
X12757594Y12242355D01*
X12757594Y12242355D01*
X12757594Y12276124D01*
X12242355Y7723835D02*
G01*
X12242355Y7757604D01*
X12242355Y7757604D01*
X12757594Y7757604D01*
X12757594Y7757604D01*
X12757594Y7723835D01*
X12242355Y7276134D02*
G01*
X12242355Y7242365D01*
X12242355Y7242365D01*
X12757594Y7242365D01*
X12757594Y7242365D01*
X12757594Y7276134D01*
X12242355Y2723845D02*
G01*
X12242355Y2757614D01*
X12242355Y2757614D01*
X12757594Y2757614D01*
X12757594Y2757614D01*
X12757594Y2723845D01*
X12242355Y2276144D02*
G01*
X12242355Y2242375D01*
X12242355Y2242375D01*
X12757594Y2242375D01*
X12757594Y2242375D01*
X12757594Y2276144D01*
X17242345Y27723795D02*
G01*
X17242345Y27757564D01*
X17242345Y27757564D01*
X17757584Y27757564D01*
X17757584Y27757564D01*
X17757584Y27723795D01*
X17242345Y27276094D02*
G01*
X17242345Y27242325D01*
X17242345Y27242325D01*
X17757584Y27242325D01*
X17757584Y27242325D01*
X17757584Y27276094D01*
X17242345Y22723805D02*
G01*
X17242345Y22757574D01*
X17242345Y22757574D01*
X17757584Y22757574D01*
X17757584Y22757574D01*
X17757584Y22723805D01*
X17242345Y22276104D02*
G01*
X17242345Y22242335D01*
X17242345Y22242335D01*
X17757584Y22242335D01*
X17757584Y22242335D01*
X17757584Y22276104D01*
X17242345Y17723815D02*
G01*
X17242345Y17757584D01*
X17242345Y17757584D01*
X17757584Y17757584D01*
X17757584Y17757584D01*
X17757584Y17723815D01*
X17242345Y17276114D02*
G01*
X17242345Y17242345D01*
X17242345Y17242345D01*
X17757584Y17242345D01*
X17757584Y17242345D01*
X17757584Y17276114D01*
X17242345Y12723825D02*
G01*
X17242345Y12757594D01*
X17242345Y12757594D01*
X17757584Y12757594D01*
X17757584Y12757594D01*
X17757584Y12723825D01*
X17242345Y12276124D02*
G01*
X17242345Y12242355D01*
X17242345Y12242355D01*
X17757584Y12242355D01*
X17757584Y12242355D01*
X17757584Y12276124D01*
X17242345Y7723835D02*
G01*
X17242345Y7757604D01*
X17242345Y7757604D01*
X17757584Y7757604D01*
X17757584Y7757604D01*
X17757584Y7723835D01*
X17242345Y7276134D02*
G01*
X17242345Y7242365D01*
X17242345Y7242365D01*
X17757584Y7242365D01*
X17757584Y7242365D01*
X17757584Y7276134D01*
X17242345Y2723845D02*
G01*
X17242345Y2757614D01*
X17242345Y2757614D01*
X17757584Y2757614D01*
X17757584Y2757614D01*
X17757584Y2723845D01*
X17242345Y2276144D02*
G01*
X17242345Y2242375D01*
X17242345Y2242375D01*
X17757584Y2242375D01*
X17757584Y2242375D01*
X17757584Y2276144D01*
D10*
X3007995Y29476941D02*
G01*
X3007995Y29222941D01*
X1991995Y29222941D01*
X1991995Y29476941D01*
X2182495Y29476941D01*
D13*
X3007995Y29476941D02*
G01*
X2182495Y29476941D01*
D10*
X3007995Y776998D02*
G01*
X3007995Y522998D01*
X1991995Y522998D01*
X1991995Y776998D01*
X2182495Y776998D01*
D13*
X3007995Y776998D02*
G01*
X2182495Y776998D01*
D12*
G75*
G01*
X2401626Y27850084D02*
G03*
X2416866Y27865324I0J15240D01*
G75*
G01*
X2416866Y27934564D02*
G03*
X2401626Y27949804I-15240J0D01*
G75*
G01*
X2198365Y27850084D02*
G02*
X2183125Y27865324I0J15240D01*
G75*
G01*
X2183125Y27934564D02*
G02*
X2198365Y27949804I15240J0D01*
G75*
G01*
X2401626Y22850094D02*
G03*
X2416866Y22865334I0J15240D01*
G75*
G01*
X2416866Y22934574D02*
G03*
X2401626Y22949814I-15240J0D01*
G75*
G01*
X2198365Y22850094D02*
G02*
X2183125Y22865334I0J15240D01*
G75*
G01*
X2183125Y22934574D02*
G02*
X2198365Y22949814I15240J0D01*
G75*
G01*
X2401626Y17850104D02*
G03*
X2416866Y17865344I0J15240D01*
G75*
G01*
X2416866Y17934584D02*
G03*
X2401626Y17949824I-15240J0D01*
G75*
G01*
X2198365Y17850104D02*
G02*
X2183125Y17865344I0J15240D01*
G75*
G01*
X2183125Y17934584D02*
G02*
X2198365Y17949824I15240J0D01*
G75*
G01*
X2401626Y12850114D02*
G03*
X2416866Y12865354I0J15240D01*
G75*
G01*
X2416866Y12934594D02*
G03*
X2401626Y12949834I-15240J0D01*
G75*
G01*
X2198365Y12850114D02*
G02*
X2183125Y12865354I0J15240D01*
G75*
G01*
X2183125Y12934594D02*
G02*
X2198365Y12949834I15240J0D01*
G75*
G01*
X2401626Y7850124D02*
G03*
X2416866Y7865364I0J15240D01*
G75*
G01*
X2416866Y7934604D02*
G03*
X2401626Y7949844I-15240J0D01*
G75*
G01*
X2198365Y7850124D02*
G02*
X2183125Y7865364I0J15240D01*
G75*
G01*
X2183125Y7934604D02*
G02*
X2198365Y7949844I15240J0D01*
G75*
G01*
X2401626Y2850134D02*
G03*
X2416866Y2865374I0J15240D01*
G75*
G01*
X2416866Y2934614D02*
G03*
X2401626Y2949854I-15240J0D01*
G75*
G01*
X2198365Y2850134D02*
G02*
X2183125Y2865374I0J15240D01*
G75*
G01*
X2183125Y2934614D02*
G02*
X2198365Y2949854I15240J0D01*
G75*
G01*
X7401616Y27850084D02*
G03*
X7416856Y27865324I0J15240D01*
G75*
G01*
X7416856Y27934564D02*
G03*
X7401616Y27949804I-15240J0D01*
G75*
G01*
X7198355Y27850084D02*
G02*
X7183115Y27865324I0J15240D01*
G75*
G01*
X7183115Y27934564D02*
G02*
X7198355Y27949804I15240J0D01*
G75*
G01*
X7401616Y22850094D02*
G03*
X7416856Y22865334I0J15240D01*
G75*
G01*
X7416856Y22934574D02*
G03*
X7401616Y22949814I-15240J0D01*
G75*
G01*
X7198355Y22850094D02*
G02*
X7183115Y22865334I0J15240D01*
G75*
G01*
X7183115Y22934574D02*
G02*
X7198355Y22949814I15240J0D01*
G75*
G01*
X7401616Y17850104D02*
G03*
X7416856Y17865344I0J15240D01*
G75*
G01*
X7416856Y17934584D02*
G03*
X7401616Y17949824I-15240J0D01*
G75*
G01*
X7198355Y17850104D02*
G02*
X7183115Y17865344I0J15240D01*
G75*
G01*
X7183115Y17934584D02*
G02*
X7198355Y17949824I15240J0D01*
G75*
G01*
X7401616Y12850114D02*
G03*
X7416856Y12865354I0J15240D01*
G75*
G01*
X7416856Y12934594D02*
G03*
X7401616Y12949834I-15240J0D01*
G75*
G01*
X7198355Y12850114D02*
G02*
X7183115Y12865354I0J15240D01*
G75*
G01*
X7183115Y12934594D02*
G02*
X7198355Y12949834I15240J0D01*
G75*
G01*
X7401616Y7850124D02*
G03*
X7416856Y7865364I0J15240D01*
G75*
G01*
X7416856Y7934604D02*
G03*
X7401616Y7949844I-15240J0D01*
G75*
G01*
X7198355Y7850124D02*
G02*
X7183115Y7865364I0J15240D01*
G75*
G01*
X7183115Y7934604D02*
G02*
X7198355Y7949844I15240J0D01*
G75*
G01*
X7401616Y2850134D02*
G03*
X7416856Y2865374I0J15240D01*
G75*
G01*
X7416856Y2934614D02*
G03*
X7401616Y2949854I-15240J0D01*
G75*
G01*
X7198355Y2850134D02*
G02*
X7183115Y2865374I0J15240D01*
G75*
G01*
X7183115Y2934614D02*
G02*
X7198355Y2949854I15240J0D01*
G75*
G01*
X12401606Y27850084D02*
G03*
X12416846Y27865324I0J15240D01*
G75*
G01*
X12416846Y27934564D02*
G03*
X12401606Y27949804I-15240J0D01*
G75*
G01*
X12198345Y27850084D02*
G02*
X12183105Y27865324I0J15240D01*
G75*
G01*
X12183105Y27934564D02*
G02*
X12198345Y27949804I15240J0D01*
G75*
G01*
X12401606Y22850094D02*
G03*
X12416846Y22865334I0J15240D01*
G75*
G01*
X12416846Y22934574D02*
G03*
X12401606Y22949814I-15240J0D01*
G75*
G01*
X12198345Y22850094D02*
G02*
X12183105Y22865334I0J15240D01*
G75*
G01*
X12183105Y22934574D02*
G02*
X12198345Y22949814I15240J0D01*
G75*
G01*
X12401606Y17850104D02*
G03*
X12416846Y17865344I0J15240D01*
G75*
G01*
X12416846Y17934584D02*
G03*
X12401606Y17949824I-15240J0D01*
G75*
G01*
X12198345Y17850104D02*
G02*
X12183105Y17865344I0J15240D01*
G75*
G01*
X12183105Y17934584D02*
G02*
X12198345Y17949824I15240J0D01*
G75*
G01*
X12401606Y12850114D02*
G03*
X12416846Y12865354I0J15240D01*
G75*
G01*
X12416846Y12934594D02*
G03*
X12401606Y12949834I-15240J0D01*
G75*
G01*
X12198345Y12850114D02*
G02*
X12183105Y12865354I0J15240D01*
G75*
G01*
X12183105Y12934594D02*
G02*
X12198345Y12949834I15240J0D01*
G75*
G01*
X12401606Y7850124D02*
G03*
X12416846Y7865364I0J15240D01*
G75*
G01*
X12416846Y7934604D02*
G03*
X12401606Y7949844I-15240J0D01*
G75*
G01*
X12198345Y7850124D02*
G02*
X12183105Y7865364I0J15240D01*
G75*
G01*
X12183105Y7934604D02*
G02*
X12198345Y7949844I15240J0D01*
G75*
G01*
X12401606Y2850134D02*
G03*
X12416846Y2865374I0J15240D01*
G75*
G01*
X12416846Y2934614D02*
G03*
X12401606Y2949854I-15240J0D01*
G75*
G01*
X12198345Y2850134D02*
G02*
X12183105Y2865374I0J15240D01*
G75*
G01*
X12183105Y2934614D02*
G02*
X12198345Y2949854I15240J0D01*
G75*
G01*
X17401596Y27850084D02*
G03*
X17416836Y27865324I0J15240D01*
G75*
G01*
X17416836Y27934564D02*
G03*
X17401596Y27949804I-15240J0D01*
G75*
G01*
X17198335Y27850084D02*
G02*
X17183095Y27865324I0J15240D01*
G75*
G01*
X17183095Y27934564D02*
G02*
X17198335Y27949804I15240J0D01*
G75*
G01*
X17401596Y22850094D02*
G03*
X17416836Y22865334I0J15240D01*
G75*
G01*
X17416836Y22934574D02*
G03*
X17401596Y22949814I-15240J0D01*
G75*
G01*
X17198335Y22850094D02*
G02*
X17183095Y22865334I0J15240D01*
G75*
G01*
X17183095Y22934574D02*
G02*
X17198335Y22949814I15240J0D01*
G75*
G01*
X17401596Y17850104D02*
G03*
X17416836Y17865344I0J15240D01*
G75*
G01*
X17416836Y17934584D02*
G03*
X17401596Y17949824I-15240J0D01*
G75*
G01*
X17198335Y17850104D02*
G02*
X17183095Y17865344I0J15240D01*
G75*
G01*
X17183095Y17934584D02*
G02*
X17198335Y17949824I15240J0D01*
G75*
G01*
X17401596Y12850114D02*
G03*
X17416836Y12865354I0J15240D01*
G75*
G01*
X17416836Y12934594D02*
G03*
X17401596Y12949834I-15240J0D01*
G75*
G01*
X17198335Y12850114D02*
G02*
X17183095Y12865354I0J15240D01*
G75*
G01*
X17183095Y12934594D02*
G02*
X17198335Y12949834I15240J0D01*
G75*
G01*
X17401596Y7850124D02*
G03*
X17416836Y7865364I0J15240D01*
G75*
G01*
X17416836Y7934604D02*
G03*
X17401596Y7949844I-15240J0D01*
G75*
G01*
X17198335Y7850124D02*
G02*
X17183095Y7865364I0J15240D01*
G75*
G01*
X17183095Y7934604D02*
G02*
X17198335Y7949844I15240J0D01*
G75*
G01*
X17401596Y2850134D02*
G03*
X17416836Y2865374I0J15240D01*
G75*
G01*
X17416836Y2934614D02*
G03*
X17401596Y2949854I-15240J0D01*
G75*
G01*
X17198335Y2850134D02*
G02*
X17183095Y2865374I0J15240D01*
G75*
G01*
X17183095Y2934614D02*
G02*
X17198335Y2949854I15240J0D01*
D14*
G75*
G01
X2172487Y27659940D02*
G03X2172487Y27659940I-12497J0D01*
G75*
G01
X2172487Y22659950D02*
G03X2172487Y22659950I-12497J0D01*
G75*
G01
X2172487Y17659960D02*
G03X2172487Y17659960I-12497J0D01*
G75*
G01
X2172487Y12659970D02*
G03X2172487Y12659970I-12497J0D01*
G75*
G01
X2172487Y7659980D02*
G03X2172487Y7659980I-12497J0D01*
G75*
G01
X2172487Y2659990D02*
G03X2172487Y2659990I-12497J0D01*
G75*
G01
X7172477Y27659940D02*
G03X7172477Y27659940I-12497J0D01*
G75*
G01
X7172477Y22659950D02*
G03X7172477Y22659950I-12497J0D01*
G75*
G01
X7172477Y17659960D02*
G03X7172477Y17659960I-12497J0D01*
G75*
G01
X7172477Y12659970D02*
G03X7172477Y12659970I-12497J0D01*
G75*
G01
X7172477Y7659980D02*
G03X7172477Y7659980I-12497J0D01*
G75*
G01
X7172477Y2659990D02*
G03X7172477Y2659990I-12497J0D01*
G75*
G01
X12172467Y27659940D02*
G03X12172467Y27659940I-12497J0D01*
G75*
G01
X12172467Y22659950D02*
G03X12172467Y22659950I-12497J0D01*
G75*
G01
X12172467Y17659960D02*
G03X12172467Y17659960I-12497J0D01*
G75*
G01
X12172467Y12659970D02*
G03X12172467Y12659970I-12497J0D01*
G75*
G01
X12172467Y7659980D02*
G03X12172467Y7659980I-12497J0D01*
G75*
G01
X12172467Y2659990D02*
G03X12172467Y2659990I-12497J0D01*
G75*
G01
X17172457Y27659940D02*
G03X17172457Y27659940I-12497J0D01*
G75*
G01
X17172457Y22659950D02*
G03X17172457Y22659950I-12497J0D01*
G75*
G01
X17172457Y17659960D02*
G03X17172457Y17659960I-12497J0D01*
G75*
G01
X17172457Y12659970D02*
G03X17172457Y12659970I-12497J0D01*
G75*
G01
X17172457Y7659980D02*
G03X17172457Y7659980I-12497J0D01*
G75*
G01
X17172457Y2659990D02*
G03X17172457Y2659990I-12497J0D01*
D15*
X850011Y29139946D02*
G01*
X1545005Y29139946D01*
X1545005Y28359938D01*
X850011Y28359938D01*
X850011Y29139946D01*
X17958866Y29330878D02*
G01*
X19338874Y29330878D01*
X19338874Y27680869D01*
X17958866Y27680869D01*
X17958866Y29330878D01*
M02*
