G04 Layer: BottomSilkscreenLayer*
G04 EasyEDA v6.5.34, 2023-09-21 20:05:10*
G04 25a6d9880ab04e118feb333d8ddcd0f2,9bdec9015a8d4a8fb4e1132389f24c00,10*
G04 Gerber Generator version 0.2*
G04 Scale: 100 percent, Rotated: No, Reflected: No *
G04 Dimensions in millimeters *
G04 leading zeros omitted , absolute positions ,4 integer and 5 decimal *
%FSLAX45Y45*%
%MOMM*%

%ADD10C,0.2032*%
%ADD11C,0.4000*%
%ADD12C,0.2540*%

%LPD*%
G36*
X14165275Y26869948D02*
G01*
X14165275Y26713383D01*
X15073376Y26713383D01*
X15073376Y25961797D01*
X14321840Y25961797D01*
X14321840Y26713383D01*
X14165275Y26713383D01*
X14165275Y25805231D01*
X15229992Y25805231D01*
X15229992Y26869948D01*
G37*
G36*
X13559840Y26869948D02*
G01*
X13559840Y26561999D01*
X13716406Y26561999D01*
X13716406Y26869948D01*
G37*
G36*
X11894921Y26869948D02*
G01*
X11894921Y26718615D01*
X11743537Y26718615D01*
X11743537Y26415898D01*
X11440820Y26415898D01*
X11440820Y25805231D01*
X11597386Y25805231D01*
X11597386Y26107948D01*
X12651689Y26107948D01*
X12651689Y25805231D01*
X12808254Y25805231D01*
X12808254Y25956564D01*
X12954406Y25956564D01*
X12954406Y25659080D01*
X12803022Y25659080D01*
X12803022Y25507746D01*
X12656921Y25507746D01*
X12656921Y25659080D01*
X12505537Y25659080D01*
X12505537Y25961797D01*
X12348972Y25961797D01*
X12348972Y25810464D01*
X12202820Y25810464D01*
X12202820Y26107948D01*
X11743537Y26107948D01*
X11743537Y25956564D01*
X12046254Y25956564D01*
X12046254Y25810464D01*
X11900103Y25810464D01*
X11900103Y25956564D01*
X11743537Y25956564D01*
X11743537Y25805231D01*
X11894921Y25805231D01*
X11894921Y25659080D01*
X11743537Y25659080D01*
X11743537Y25502514D01*
X11900103Y25502514D01*
X11900103Y25653847D01*
X12348972Y25653847D01*
X12348972Y25507746D01*
X12202820Y25507746D01*
X12202820Y25653847D01*
X12046254Y25653847D01*
X12046254Y25356362D01*
X11743537Y25356362D01*
X11743537Y25199797D01*
X11894921Y25199797D01*
X11894921Y25053645D01*
X11743537Y25053645D01*
X11743537Y24902312D01*
X11592204Y24902312D01*
X11592204Y24750979D01*
X11294719Y24750979D01*
X11294719Y24897080D01*
X11446052Y24897080D01*
X11446052Y25048464D01*
X11597386Y25048464D01*
X11597386Y25356362D01*
X11440820Y25356362D01*
X11440820Y25205029D01*
X11143335Y25205029D01*
X11143335Y25351181D01*
X11294719Y25351181D01*
X11294719Y25502514D01*
X11446052Y25502514D01*
X11446052Y25659080D01*
X11289487Y25659080D01*
X11289487Y25507746D01*
X11143335Y25507746D01*
X11143335Y25659080D01*
X10986770Y25659080D01*
X10986770Y25502514D01*
X11138103Y25502514D01*
X11138103Y25356362D01*
X10689285Y25356362D01*
X10689285Y25502514D01*
X10840618Y25502514D01*
X10840618Y25659080D01*
X10684052Y25659080D01*
X10684052Y25507746D01*
X10537901Y25507746D01*
X10537901Y25659080D01*
X10381335Y25659080D01*
X10381335Y25507746D01*
X10230002Y25507746D01*
X10230002Y25351181D01*
X10684052Y25351181D01*
X10684052Y25205029D01*
X10537901Y25205029D01*
X10537901Y25351181D01*
X10381335Y25351181D01*
X10381335Y25199797D01*
X11138103Y25199797D01*
X11138103Y25053645D01*
X10992002Y25053645D01*
X10992002Y25199797D01*
X10835386Y25199797D01*
X10835386Y25053645D01*
X10689285Y25053645D01*
X10689285Y25199797D01*
X10532668Y25199797D01*
X10532668Y25048464D01*
X11289487Y25048464D01*
X11289487Y24902312D01*
X11143335Y24902312D01*
X11143335Y25048464D01*
X10684052Y25048464D01*
X10684052Y24897080D01*
X10986770Y24897080D01*
X10986770Y24750979D01*
X10835386Y24750979D01*
X10835386Y24599595D01*
X11597386Y24599595D01*
X11597386Y24745746D01*
X11748770Y24745746D01*
X11748770Y24897080D01*
X11900103Y24897080D01*
X11900103Y25048464D01*
X12197638Y25048464D01*
X12197638Y24745746D01*
X12354204Y24745746D01*
X12354204Y25053645D01*
X12202820Y25053645D01*
X12202820Y25351181D01*
X12500356Y25351181D01*
X12500356Y25199797D01*
X12656921Y25199797D01*
X12656921Y25351181D01*
X12803022Y25351181D01*
X12803022Y25199797D01*
X13105739Y25199797D01*
X13105739Y25053645D01*
X12959638Y25053645D01*
X12959638Y25199797D01*
X12803022Y25199797D01*
X12803022Y25053645D01*
X12500356Y25053645D01*
X12500356Y24897080D01*
X12651689Y24897080D01*
X12651689Y24448262D01*
X12505537Y24448262D01*
X12505537Y24599595D01*
X12197638Y24599595D01*
X12197638Y24448262D01*
X12051487Y24448262D01*
X12051487Y24750979D01*
X11894921Y24750979D01*
X11894921Y24599595D01*
X10835386Y24599595D01*
X10835386Y24594362D01*
X10986770Y24594362D01*
X10986770Y24448262D01*
X10835386Y24448262D01*
X10835386Y24443029D01*
X12046254Y24443029D01*
X12046254Y24296878D01*
X11900103Y24296878D01*
X11900103Y24443029D01*
X11289487Y24443029D01*
X11289487Y24296878D01*
X11143335Y24296878D01*
X11143335Y24443029D01*
X10835386Y24443029D01*
X10835386Y24296878D01*
X10684052Y24296878D01*
X10684052Y23994160D01*
X10537901Y23994160D01*
X10537901Y24443029D01*
X10689285Y24443029D01*
X10689285Y24599595D01*
X10537901Y24599595D01*
X10537901Y24902312D01*
X10230002Y24902312D01*
X10230002Y24745746D01*
X10381335Y24745746D01*
X10381335Y24594362D01*
X10532668Y24594362D01*
X10532668Y24448262D01*
X10381335Y24448262D01*
X10381335Y24296878D01*
X10230002Y24296878D01*
X10230002Y24140312D01*
X10381335Y24140312D01*
X10381335Y23988928D01*
X10532668Y23988928D01*
X10532668Y23842827D01*
X10381335Y23842827D01*
X10381335Y23691443D01*
X10230002Y23691443D01*
X10230002Y23534878D01*
X10381335Y23534878D01*
X10381335Y23388726D01*
X10537901Y23388726D01*
X10537901Y23837595D01*
X10689285Y23837595D01*
X10689285Y23988928D01*
X10840618Y23988928D01*
X10840618Y24291645D01*
X11894921Y24291645D01*
X11894921Y24145544D01*
X11748770Y24145544D01*
X11748770Y24291645D01*
X11592204Y24291645D01*
X11592204Y24140312D01*
X12348972Y24140312D01*
X12348972Y23988928D01*
X12651689Y23988928D01*
X12651689Y23842827D01*
X12505537Y23842827D01*
X12505537Y23988928D01*
X12348972Y23988928D01*
X12348972Y23837595D01*
X12500356Y23837595D01*
X12500356Y23691443D01*
X12202820Y23691443D01*
X12202820Y24140312D01*
X11743537Y24140312D01*
X11743537Y23842827D01*
X11597386Y23842827D01*
X11597386Y23994160D01*
X11446052Y23994160D01*
X11446052Y24145544D01*
X11294719Y24145544D01*
X11294719Y24291645D01*
X11138103Y24291645D01*
X11138103Y23988928D01*
X11289487Y23988928D01*
X11289487Y23837595D01*
X12046254Y23837595D01*
X12046254Y23388726D01*
X11900103Y23388726D01*
X11900103Y23540110D01*
X11748770Y23540110D01*
X11748770Y23837595D01*
X11440820Y23837595D01*
X11440820Y23686262D01*
X11592204Y23686262D01*
X11592204Y23540110D01*
X11294719Y23540110D01*
X11294719Y23691443D01*
X11138103Y23691443D01*
X11138103Y23540110D01*
X10986770Y23540110D01*
X10986770Y23534878D01*
X11743537Y23534878D01*
X11743537Y23388726D01*
X11597386Y23388726D01*
X11597386Y23534878D01*
X10986770Y23534878D01*
X10986770Y23388726D01*
X10840618Y23388726D01*
X10840618Y23686262D01*
X10992002Y23686262D01*
X10992002Y23842827D01*
X10835386Y23842827D01*
X10835386Y23691443D01*
X10684052Y23691443D01*
X10684052Y23388726D01*
X10381335Y23388726D01*
X10381335Y23383544D01*
X10532668Y23383544D01*
X10532668Y23232160D01*
X12197638Y23232160D01*
X12197638Y23086009D01*
X11900103Y23086009D01*
X11900103Y23232160D01*
X11743537Y23232160D01*
X11743537Y23086009D01*
X11597386Y23086009D01*
X11597386Y23232160D01*
X10835386Y23232160D01*
X10835386Y23086009D01*
X10532668Y23086009D01*
X10532668Y23080827D01*
X11894921Y23080827D01*
X11894921Y22929443D01*
X12505537Y22929443D01*
X12505537Y23080827D01*
X12651689Y23080827D01*
X12651689Y22778110D01*
X13105739Y22778110D01*
X13105739Y22631958D01*
X12959638Y22631958D01*
X12959638Y22778110D01*
X12803022Y22778110D01*
X12803022Y22480625D01*
X12656921Y22480625D01*
X12656921Y22631958D01*
X12348972Y22631958D01*
X12348972Y22480625D01*
X12202820Y22480625D01*
X12202820Y22783292D01*
X11748770Y22783292D01*
X11748770Y23080827D01*
X11440820Y23080827D01*
X11440820Y22631958D01*
X10992002Y22631958D01*
X10992002Y23080827D01*
X10532668Y23080827D01*
X10532668Y22934676D01*
X10386568Y22934676D01*
X10386568Y23237393D01*
X10230002Y23237393D01*
X10230002Y22929443D01*
X10684052Y22929443D01*
X10684052Y22783292D01*
X10537901Y22783292D01*
X10537901Y22929443D01*
X10381335Y22929443D01*
X10381335Y22783292D01*
X10230002Y22783292D01*
X10230002Y22626726D01*
X10835386Y22626726D01*
X10835386Y22329241D01*
X10537901Y22329241D01*
X10537901Y22480625D01*
X10386568Y22480625D01*
X10386568Y22626726D01*
X10230002Y22626726D01*
X10230002Y22324009D01*
X10532668Y22324009D01*
X10532668Y22026524D01*
X10381335Y22026524D01*
X10381335Y21869958D01*
X10537901Y21869958D01*
X10537901Y22021292D01*
X10684052Y22021292D01*
X10684052Y21869958D01*
X10840618Y21869958D01*
X10840618Y22324009D01*
X11143335Y22324009D01*
X11143335Y22475393D01*
X11289487Y22475393D01*
X11289487Y22172676D01*
X11592204Y22172676D01*
X11592204Y22026524D01*
X11143335Y22026524D01*
X11143335Y22177908D01*
X10986770Y22177908D01*
X10986770Y22021292D01*
X11138103Y22021292D01*
X11138103Y21869958D01*
X11900103Y21869958D01*
X11900103Y22021292D01*
X12197638Y22021292D01*
X12197638Y21869958D01*
X12354204Y21869958D01*
X12354204Y22177908D01*
X11900103Y22177908D01*
X11900103Y22329241D01*
X11597386Y22329241D01*
X11597386Y22626726D01*
X11743537Y22626726D01*
X11743537Y22475393D01*
X11900103Y22475393D01*
X11900103Y22626726D01*
X12046254Y22626726D01*
X12046254Y22324009D01*
X12500356Y22324009D01*
X12500356Y22172676D01*
X12651689Y22172676D01*
X12651689Y22026524D01*
X12500356Y22026524D01*
X12500356Y21869958D01*
X12656921Y21869958D01*
X12656921Y22021292D01*
X13110972Y22021292D01*
X13110972Y22177908D01*
X12959638Y22177908D01*
X12959638Y22329241D01*
X12808254Y22329241D01*
X12808254Y22475393D01*
X13110972Y22475393D01*
X13110972Y22626726D01*
X13257123Y22626726D01*
X13257123Y22475393D01*
X13413689Y22475393D01*
X13413689Y22783292D01*
X13262356Y22783292D01*
X13262356Y22929443D01*
X13413689Y22929443D01*
X13413689Y23080827D01*
X13559840Y23080827D01*
X13559840Y22626726D01*
X13862557Y22626726D01*
X13862557Y22480625D01*
X13716406Y22480625D01*
X13716406Y22626726D01*
X13559840Y22626726D01*
X13559840Y22475393D01*
X13711174Y22475393D01*
X13711174Y22329241D01*
X13257123Y22329241D01*
X13257123Y22324009D01*
X13862557Y22324009D01*
X13862557Y22177908D01*
X13716406Y22177908D01*
X13716406Y22324009D01*
X13257123Y22324009D01*
X13257123Y22172676D01*
X13408456Y22172676D01*
X13408456Y21869958D01*
X13565022Y21869958D01*
X13565022Y22172676D01*
X13711174Y22172676D01*
X13711174Y21869958D01*
X14019123Y21869958D01*
X14019123Y22631958D01*
X13867739Y22631958D01*
X13867739Y22778110D01*
X14019123Y22778110D01*
X14019123Y23080827D01*
X14321840Y23080827D01*
X14321840Y23232160D01*
X14467941Y23232160D01*
X14467941Y23080827D01*
X14775891Y23080827D01*
X14775891Y23232160D01*
X14927275Y23232160D01*
X14927275Y23534878D01*
X15073376Y23534878D01*
X15073376Y23080827D01*
X15229992Y23080827D01*
X15229992Y23691443D01*
X14775891Y23691443D01*
X14775891Y23994160D01*
X14321840Y23994160D01*
X14321840Y24145544D01*
X14170456Y24145544D01*
X14170456Y24291645D01*
X14321840Y24291645D01*
X14321840Y24448262D01*
X14170456Y24448262D01*
X14170456Y24594362D01*
X14321840Y24594362D01*
X14321840Y24750979D01*
X14165275Y24750979D01*
X14165275Y24599595D01*
X14019123Y24599595D01*
X14019123Y24897080D01*
X14321840Y24897080D01*
X14321840Y25048464D01*
X14619325Y25048464D01*
X14619325Y24902312D01*
X14467941Y24902312D01*
X14467941Y24745746D01*
X14619325Y24745746D01*
X14619325Y24599595D01*
X14467941Y24599595D01*
X14467941Y24140312D01*
X14775891Y24140312D01*
X14775891Y24291645D01*
X14927275Y24291645D01*
X14927275Y24594362D01*
X15073376Y24594362D01*
X15073376Y24291645D01*
X15229992Y24291645D01*
X15229992Y24599595D01*
X15078608Y24599595D01*
X15078608Y24745746D01*
X15229992Y24745746D01*
X15229992Y25659080D01*
X14467941Y25659080D01*
X14467941Y25502514D01*
X14922042Y25502514D01*
X14922042Y25351181D01*
X15073376Y25351181D01*
X15073376Y25053645D01*
X14922042Y25053645D01*
X14922042Y24897080D01*
X15073376Y24897080D01*
X15073376Y24750979D01*
X14624557Y24750979D01*
X14624557Y24897080D01*
X14775891Y24897080D01*
X14775891Y25205029D01*
X14624557Y25205029D01*
X14624557Y25502514D01*
X14467941Y25502514D01*
X14467941Y25356362D01*
X14165275Y25356362D01*
X14165275Y25205029D01*
X14013891Y25205029D01*
X14013891Y25199797D01*
X14316608Y25199797D01*
X14316608Y25053645D01*
X14170456Y25053645D01*
X14170456Y25199797D01*
X14013891Y25199797D01*
X14013891Y25053645D01*
X13559840Y25053645D01*
X13559840Y24897080D01*
X13862557Y24897080D01*
X13862557Y24594362D01*
X14013891Y24594362D01*
X14013891Y24448262D01*
X13862557Y24448262D01*
X13862557Y24443029D01*
X14165275Y24443029D01*
X14165275Y24296878D01*
X14019123Y24296878D01*
X14019123Y24443029D01*
X13862557Y24443029D01*
X13862557Y24296878D01*
X13711174Y24296878D01*
X13711174Y24291645D01*
X14013891Y24291645D01*
X14013891Y24145544D01*
X13867739Y24145544D01*
X13867739Y24291645D01*
X13711174Y24291645D01*
X13711174Y24140312D01*
X14165275Y24140312D01*
X14165275Y23994160D01*
X14019123Y23994160D01*
X14019123Y24140312D01*
X13862557Y24140312D01*
X13862557Y23994160D01*
X13711174Y23994160D01*
X13711174Y23837595D01*
X13867739Y23837595D01*
X13867739Y23988928D01*
X14316608Y23988928D01*
X14316608Y23842827D01*
X14170456Y23842827D01*
X14170456Y23988928D01*
X14013891Y23988928D01*
X14013891Y23540110D01*
X14170456Y23540110D01*
X14170456Y23686262D01*
X14321840Y23686262D01*
X14321840Y23837595D01*
X14467941Y23837595D01*
X14467941Y23686262D01*
X14619325Y23686262D01*
X14619325Y23534878D01*
X14770658Y23534878D01*
X14770658Y23237393D01*
X14624557Y23237393D01*
X14624557Y23388726D01*
X14473174Y23388726D01*
X14473174Y23540110D01*
X13862557Y23540110D01*
X13862557Y23388726D01*
X13565022Y23388726D01*
X13565022Y23540110D01*
X13257123Y23540110D01*
X13257123Y23383544D01*
X13408456Y23383544D01*
X13408456Y23086009D01*
X13867739Y23086009D01*
X13867739Y23383544D01*
X14019123Y23383544D01*
X14019123Y23534878D01*
X14165275Y23534878D01*
X14165275Y23383544D01*
X14316608Y23383544D01*
X14316608Y23237393D01*
X14013891Y23237393D01*
X14013891Y23086009D01*
X12954406Y23086009D01*
X12954406Y22934676D01*
X12808254Y22934676D01*
X12808254Y23086009D01*
X12656921Y23086009D01*
X12656921Y23237393D01*
X12500356Y23237393D01*
X12500356Y23086009D01*
X12354204Y23086009D01*
X12354204Y23388726D01*
X12202820Y23388726D01*
X12202820Y23534878D01*
X12505537Y23534878D01*
X12505537Y23686262D01*
X12651689Y23686262D01*
X12651689Y23383544D01*
X12803022Y23383544D01*
X12803022Y23232160D01*
X13110972Y23232160D01*
X13110972Y23388726D01*
X12959638Y23388726D01*
X12959638Y23540110D01*
X12808254Y23540110D01*
X12808254Y23691443D01*
X12656921Y23691443D01*
X12656921Y23837595D01*
X12808254Y23837595D01*
X12808254Y23988928D01*
X13105739Y23988928D01*
X13105739Y23842827D01*
X12954406Y23842827D01*
X12954406Y23686262D01*
X13110972Y23686262D01*
X13110972Y23837595D01*
X13257123Y23837595D01*
X13257123Y23686262D01*
X13413689Y23686262D01*
X13413689Y23994160D01*
X13262356Y23994160D01*
X13262356Y24140312D01*
X13413689Y24140312D01*
X13413689Y24291645D01*
X13565022Y24291645D01*
X13565022Y24443029D01*
X13716406Y24443029D01*
X13716406Y24750979D01*
X13257123Y24750979D01*
X13257123Y24594362D01*
X13408456Y24594362D01*
X13408456Y24296878D01*
X12954406Y24296878D01*
X12954406Y24145544D01*
X12803022Y24145544D01*
X12803022Y23994160D01*
X12656921Y23994160D01*
X12656921Y24145544D01*
X12354204Y24145544D01*
X12354204Y24296878D01*
X12202820Y24296878D01*
X12202820Y24443029D01*
X12500356Y24443029D01*
X12500356Y24291645D01*
X12656921Y24291645D01*
X12656921Y24443029D01*
X12808254Y24443029D01*
X12808254Y24594362D01*
X12954406Y24594362D01*
X12954406Y24443029D01*
X13110972Y24443029D01*
X13110972Y24599595D01*
X12959638Y24599595D01*
X12959638Y24897080D01*
X13110972Y24897080D01*
X13110972Y25048464D01*
X13257123Y25048464D01*
X13257123Y24897080D01*
X13413689Y24897080D01*
X13413689Y25205029D01*
X13262356Y25205029D01*
X13262356Y25351181D01*
X13413689Y25351181D01*
X13413689Y25502514D01*
X13559840Y25502514D01*
X13559840Y25199797D01*
X13716406Y25199797D01*
X13716406Y25502514D01*
X14321840Y25502514D01*
X14321840Y25659080D01*
X13867739Y25659080D01*
X13867739Y25805231D01*
X14019123Y25805231D01*
X14019123Y26113181D01*
X13867739Y26113181D01*
X13867739Y26259282D01*
X14019123Y26259282D01*
X14019123Y26415898D01*
X13559840Y26415898D01*
X13559840Y26259282D01*
X13711174Y26259282D01*
X13711174Y25961797D01*
X13565022Y25961797D01*
X13565022Y26113181D01*
X13257123Y26113181D01*
X13257123Y25956564D01*
X13862557Y25956564D01*
X13862557Y25810464D01*
X13716406Y25810464D01*
X13716406Y25956564D01*
X13559840Y25956564D01*
X13559840Y25810464D01*
X13413689Y25810464D01*
X13413689Y25956564D01*
X13257123Y25956564D01*
X13257123Y25805231D01*
X13408456Y25805231D01*
X13408456Y25653847D01*
X13711174Y25653847D01*
X13711174Y25507746D01*
X13565022Y25507746D01*
X13565022Y25653847D01*
X13408456Y25653847D01*
X13408456Y25507746D01*
X12959638Y25507746D01*
X12959638Y25653847D01*
X13110972Y25653847D01*
X13110972Y25961797D01*
X12959638Y25961797D01*
X12959638Y26259282D01*
X13110972Y26259282D01*
X13110972Y26410665D01*
X13257123Y26410665D01*
X13257123Y26259282D01*
X13413689Y26259282D01*
X13413689Y26567231D01*
X13262356Y26567231D01*
X13262356Y26713383D01*
X13413689Y26713383D01*
X13413689Y26869948D01*
X13105739Y26869948D01*
X13105739Y26718615D01*
X12959638Y26718615D01*
X12959638Y26869948D01*
X12803022Y26869948D01*
X12803022Y26561999D01*
X13105739Y26561999D01*
X13105739Y26415898D01*
X12803022Y26415898D01*
X12803022Y26264514D01*
X12656921Y26264514D01*
X12656921Y26415898D01*
X12505537Y26415898D01*
X12505537Y26567231D01*
X12348972Y26567231D01*
X12348972Y26410665D01*
X12500356Y26410665D01*
X12500356Y26264514D01*
X12046254Y26264514D01*
X12046254Y26113181D01*
X11748770Y26113181D01*
X11748770Y26259282D01*
X11900103Y26259282D01*
X11900103Y26410665D01*
X12051487Y26410665D01*
X12051487Y26561999D01*
X12202820Y26561999D01*
X12202820Y26713383D01*
X12656921Y26713383D01*
X12656921Y26869948D01*
G37*
G36*
X10230002Y26869948D02*
G01*
X10230002Y26713383D01*
X11138103Y26713383D01*
X11138103Y25961797D01*
X10386568Y25961797D01*
X10386568Y26713383D01*
X10230002Y26713383D01*
X10230002Y25805231D01*
X11294719Y25805231D01*
X11294719Y26869948D01*
G37*
G36*
X13862557Y26718615D02*
G01*
X13862557Y26561999D01*
X14019123Y26561999D01*
X14019123Y26718615D01*
G37*
G36*
X14467941Y26567231D02*
G01*
X14467941Y26107948D01*
X14927275Y26107948D01*
X14927275Y26567231D01*
G37*
G36*
X10532668Y26567231D02*
G01*
X10532668Y26107948D01*
X10992002Y26107948D01*
X10992002Y26567231D01*
G37*
G36*
X14922042Y23994160D02*
G01*
X14922042Y23837595D01*
X15078608Y23837595D01*
X15078608Y23994160D01*
G37*
G36*
X14165275Y22934676D02*
G01*
X14165275Y22778110D01*
X15073376Y22778110D01*
X15073376Y22026524D01*
X14321840Y22026524D01*
X14321840Y22778110D01*
X14165275Y22778110D01*
X14165275Y21869958D01*
X15229992Y21869958D01*
X15229992Y22934676D01*
G37*
G36*
X11138103Y22934676D02*
G01*
X11138103Y22778110D01*
X11294719Y22778110D01*
X11294719Y22934676D01*
G37*
G36*
X14467941Y22631958D02*
G01*
X14467941Y22172676D01*
X14927275Y22172676D01*
X14927275Y22631958D01*
G37*
G36*
X12229134Y27661463D02*
G01*
X12216282Y27661158D01*
X12203633Y27660142D01*
X12191288Y27658517D01*
X12179249Y27656332D01*
X12167463Y27653488D01*
X12156033Y27650135D01*
X12144857Y27646223D01*
X12134088Y27641753D01*
X12123623Y27636876D01*
X12113564Y27631440D01*
X12103862Y27625649D01*
X12094565Y27619401D01*
X12085675Y27612746D01*
X12077192Y27605685D01*
X12069114Y27598319D01*
X12061494Y27590648D01*
X12096038Y27548992D01*
X12105081Y27557171D01*
X12114428Y27564791D01*
X12124080Y27571852D01*
X12134138Y27578253D01*
X12144502Y27584044D01*
X12149836Y27586736D01*
X12160808Y27591512D01*
X12172188Y27595576D01*
X12184024Y27598877D01*
X12196318Y27601367D01*
X12209068Y27603094D01*
X12215622Y27603653D01*
X12229134Y27604110D01*
X12236196Y27603958D01*
X12249861Y27602942D01*
X12256363Y27602078D01*
X12268860Y27599538D01*
X12274804Y27597963D01*
X12280493Y27596134D01*
X12286030Y27594052D01*
X12291314Y27591765D01*
X12301169Y27586533D01*
X12305741Y27583536D01*
X12310059Y27580386D01*
X12314123Y27577034D01*
X12317933Y27573477D01*
X12321489Y27569668D01*
X12324740Y27565705D01*
X12327737Y27561539D01*
X12330430Y27557171D01*
X12332817Y27552650D01*
X12334951Y27547925D01*
X12336729Y27542998D01*
X12338202Y27537968D01*
X12339370Y27532685D01*
X12340234Y27527250D01*
X12340742Y27521712D01*
X12340894Y27515921D01*
X12340640Y27508758D01*
X12339878Y27501900D01*
X12338608Y27495449D01*
X12336881Y27489302D01*
X12334697Y27483511D01*
X12332106Y27478024D01*
X12329160Y27472843D01*
X12325858Y27467915D01*
X12322200Y27463292D01*
X12318238Y27458924D01*
X12313970Y27454758D01*
X12309500Y27450846D01*
X12299797Y27443633D01*
X12294717Y27440280D01*
X12284049Y27434133D01*
X12272975Y27428444D01*
X12261697Y27423211D01*
X12244882Y27415845D01*
X12161316Y27380590D01*
X12145111Y27373021D01*
X12134646Y27367687D01*
X12124537Y27362099D01*
X12114784Y27356206D01*
X12105436Y27349907D01*
X12096597Y27343252D01*
X12088215Y27336140D01*
X12080443Y27328571D01*
X12073229Y27320494D01*
X12066625Y27311858D01*
X12060732Y27302663D01*
X12055551Y27292858D01*
X12051080Y27282394D01*
X12047474Y27271218D01*
X12045950Y27265376D01*
X12043613Y27253082D01*
X12042190Y27240026D01*
X12041682Y27226158D01*
X12042089Y27214931D01*
X12043257Y27203958D01*
X12045137Y27193239D01*
X12047778Y27182775D01*
X12051182Y27172615D01*
X12055246Y27162760D01*
X12060072Y27153260D01*
X12065508Y27144116D01*
X12071654Y27135378D01*
X12078462Y27126996D01*
X12085929Y27119072D01*
X12094006Y27111604D01*
X12102744Y27104543D01*
X12112040Y27098040D01*
X12121946Y27092046D01*
X12132411Y27086560D01*
X12143486Y27081632D01*
X12155068Y27077314D01*
X12167209Y27073606D01*
X12179858Y27070507D01*
X12193016Y27068068D01*
X12206732Y27066290D01*
X12220854Y27065224D01*
X12228118Y27064919D01*
X12242292Y27064919D01*
X12255652Y27065528D01*
X12268809Y27066697D01*
X12281662Y27068475D01*
X12294260Y27070812D01*
X12306604Y27073707D01*
X12318644Y27077162D01*
X12330430Y27081073D01*
X12341910Y27085544D01*
X12353086Y27090471D01*
X12364008Y27095907D01*
X12374575Y27101850D01*
X12384836Y27108200D01*
X12394742Y27115008D01*
X12404394Y27122221D01*
X12413691Y27129841D01*
X12422632Y27137918D01*
X12431217Y27146351D01*
X12435382Y27150720D01*
X12396012Y27195424D01*
X12386868Y27186077D01*
X12377166Y27177288D01*
X12367056Y27169008D01*
X12356541Y27161337D01*
X12345619Y27154276D01*
X12334341Y27147824D01*
X12322708Y27142084D01*
X12310821Y27136953D01*
X12298629Y27132584D01*
X12286183Y27128927D01*
X12273584Y27126031D01*
X12260783Y27123948D01*
X12247829Y27122678D01*
X12234722Y27122221D01*
X12220346Y27122729D01*
X12213437Y27123288D01*
X12200128Y27125117D01*
X12193778Y27126336D01*
X12181687Y27129435D01*
X12170460Y27133346D01*
X12160046Y27138071D01*
X12150496Y27143506D01*
X12146026Y27146554D01*
X12137847Y27153057D01*
X12130582Y27160270D01*
X12124283Y27168144D01*
X12119000Y27176628D01*
X12116714Y27181098D01*
X12114682Y27185670D01*
X12111431Y27195272D01*
X12110212Y27200301D01*
X12109246Y27205432D01*
X12108535Y27210715D01*
X12108129Y27216049D01*
X12107976Y27221586D01*
X12108129Y27228088D01*
X12108637Y27234235D01*
X12109450Y27240128D01*
X12110516Y27245767D01*
X12111939Y27251101D01*
X12113615Y27256130D01*
X12115596Y27260956D01*
X12117832Y27265579D01*
X12120321Y27269897D01*
X12123064Y27274062D01*
X12129312Y27281784D01*
X12132767Y27285391D01*
X12140387Y27292147D01*
X12148769Y27298345D01*
X12157862Y27304136D01*
X12167666Y27309622D01*
X12178080Y27314855D01*
X12200432Y27325116D01*
X12298883Y27368804D01*
X12307976Y27373072D01*
X12317171Y27377745D01*
X12326264Y27382825D01*
X12335306Y27388312D01*
X12344095Y27394204D01*
X12352629Y27400656D01*
X12360859Y27407565D01*
X12368631Y27415032D01*
X12375896Y27423059D01*
X12382601Y27431644D01*
X12388697Y27440889D01*
X12394031Y27450796D01*
X12396419Y27456028D01*
X12400534Y27466950D01*
X12403734Y27478583D01*
X12404953Y27484730D01*
X12405918Y27491029D01*
X12406630Y27497532D01*
X12407036Y27504237D01*
X12407087Y27517039D01*
X12406172Y27528621D01*
X12404344Y27539899D01*
X12403124Y27545385D01*
X12399975Y27556155D01*
X12396063Y27566467D01*
X12391288Y27576373D01*
X12385802Y27585873D01*
X12379553Y27594915D01*
X12372543Y27603450D01*
X12364872Y27611527D01*
X12360808Y27615388D01*
X12352172Y27622652D01*
X12342876Y27629358D01*
X12333020Y27635504D01*
X12322606Y27641042D01*
X12311634Y27645969D01*
X12300153Y27650287D01*
X12288215Y27653894D01*
X12275769Y27656840D01*
X12262916Y27659126D01*
X12249708Y27660600D01*
X12236094Y27661412D01*
G37*
G36*
X14993670Y27651354D02*
G01*
X14993670Y27596236D01*
X15256814Y27596236D01*
X15256814Y27406498D01*
X15035326Y27406498D01*
X15035326Y27351329D01*
X15256814Y27351329D01*
X15256814Y27130095D01*
X14985034Y27130095D01*
X14985034Y27075028D01*
X15322092Y27075028D01*
X15322092Y27651354D01*
G37*
G36*
X14796820Y27651354D02*
G01*
X14796820Y27130095D01*
X14541804Y27130095D01*
X14541804Y27075028D01*
X14862098Y27075028D01*
X14862098Y27651354D01*
G37*
G36*
X14374926Y27651354D02*
G01*
X14374926Y27130095D01*
X14119656Y27130095D01*
X14119656Y27075028D01*
X14440204Y27075028D01*
X14440204Y27651354D01*
G37*
G36*
X13952778Y27651354D02*
G01*
X13952778Y27075028D01*
X14018056Y27075028D01*
X14018056Y27651354D01*
G37*
G36*
X13463828Y27651354D02*
G01*
X13463828Y27596236D01*
X13726718Y27596236D01*
X13726718Y27406498D01*
X13505484Y27406498D01*
X13505484Y27351329D01*
X13726718Y27351329D01*
X13726718Y27130095D01*
X13455192Y27130095D01*
X13455192Y27075028D01*
X13791996Y27075028D01*
X13791996Y27651354D01*
G37*
G36*
X13015010Y27651354D02*
G01*
X13001904Y27651151D01*
X12989052Y27650541D01*
X12976555Y27649576D01*
X12964414Y27648204D01*
X12952577Y27646477D01*
X12941046Y27644344D01*
X12929819Y27641854D01*
X12918948Y27639010D01*
X12908381Y27635758D01*
X12898170Y27632152D01*
X12888264Y27628189D01*
X12878663Y27623820D01*
X12869418Y27619147D01*
X12860528Y27614067D01*
X12851942Y27608682D01*
X12843662Y27602891D01*
X12835737Y27596795D01*
X12828117Y27590343D01*
X12820853Y27583536D01*
X12813893Y27576373D01*
X12807289Y27568855D01*
X12801041Y27561032D01*
X12795097Y27552903D01*
X12789509Y27544420D01*
X12784226Y27535581D01*
X12779298Y27526437D01*
X12774676Y27516937D01*
X12770408Y27507184D01*
X12766497Y27497074D01*
X12762941Y27486610D01*
X12759690Y27475891D01*
X12756743Y27464816D01*
X12754203Y27453488D01*
X12751968Y27441804D01*
X12750088Y27429866D01*
X12748514Y27417572D01*
X12747345Y27405025D01*
X12746482Y27392172D01*
X12745974Y27379015D01*
X12745770Y27365604D01*
X12812572Y27365604D01*
X12812776Y27379218D01*
X12813385Y27392477D01*
X12814401Y27405330D01*
X12815773Y27417826D01*
X12817551Y27429968D01*
X12819786Y27441702D01*
X12822377Y27453031D01*
X12825374Y27464003D01*
X12828778Y27474570D01*
X12832588Y27484679D01*
X12836804Y27494433D01*
X12841427Y27503780D01*
X12846456Y27512670D01*
X12851892Y27521204D01*
X12857784Y27529282D01*
X12864033Y27536902D01*
X12870688Y27544115D01*
X12877749Y27550872D01*
X12885267Y27557222D01*
X12893192Y27563114D01*
X12901472Y27568550D01*
X12910210Y27573579D01*
X12919405Y27578100D01*
X12928955Y27582164D01*
X12938963Y27585771D01*
X12949326Y27588921D01*
X12960197Y27591613D01*
X12971424Y27593798D01*
X12983057Y27595525D01*
X12995148Y27596744D01*
X13007695Y27597506D01*
X13020598Y27597760D01*
X13091464Y27597760D01*
X13091464Y27128571D01*
X13014096Y27128673D01*
X13001396Y27129181D01*
X12989052Y27130248D01*
X12977215Y27131772D01*
X12965734Y27133803D01*
X12954711Y27136394D01*
X12944094Y27139442D01*
X12933883Y27142948D01*
X12924129Y27146961D01*
X12914782Y27151482D01*
X12905790Y27156410D01*
X12897307Y27161845D01*
X12889179Y27167738D01*
X12881457Y27174088D01*
X12874193Y27180844D01*
X12867284Y27188058D01*
X12860832Y27195729D01*
X12854787Y27203806D01*
X12849148Y27212340D01*
X12843916Y27221230D01*
X12839090Y27230577D01*
X12834670Y27240331D01*
X12830657Y27250440D01*
X12827050Y27261007D01*
X12823799Y27271929D01*
X12821005Y27283206D01*
X12818618Y27294890D01*
X12816636Y27306930D01*
X12815011Y27319325D01*
X12813842Y27332127D01*
X12813030Y27345233D01*
X12812572Y27365604D01*
X12745770Y27365604D01*
X12745974Y27352142D01*
X12746482Y27338934D01*
X12747345Y27326031D01*
X12748514Y27313432D01*
X12750088Y27301088D01*
X12751968Y27289048D01*
X12754203Y27277263D01*
X12756743Y27265833D01*
X12759639Y27254657D01*
X12762890Y27243786D01*
X12766446Y27233219D01*
X12770358Y27222958D01*
X12774625Y27213001D01*
X12779197Y27203349D01*
X12784074Y27194052D01*
X12789357Y27185061D01*
X12794894Y27176374D01*
X12800787Y27168043D01*
X12807035Y27160067D01*
X12813588Y27152396D01*
X12820497Y27145030D01*
X12827711Y27138071D01*
X12835229Y27131416D01*
X12843103Y27125117D01*
X12851282Y27119173D01*
X12859816Y27113636D01*
X12868656Y27108403D01*
X12877800Y27103527D01*
X12887299Y27099056D01*
X12897104Y27094942D01*
X12907213Y27091182D01*
X12917627Y27087830D01*
X12928396Y27084832D01*
X12939471Y27082242D01*
X12950850Y27080057D01*
X12962534Y27078228D01*
X12974574Y27076857D01*
X12986867Y27075841D01*
X12999516Y27075231D01*
X13012470Y27075028D01*
X13156742Y27075028D01*
X13156742Y27651354D01*
G37*
G36*
X12553492Y27651354D02*
G01*
X12553492Y27075028D01*
X12618770Y27075028D01*
X12618770Y27651354D01*
G37*
G36*
X11766854Y27651354D02*
G01*
X11753138Y27651151D01*
X11739778Y27650643D01*
X11726773Y27649779D01*
X11714124Y27648560D01*
X11701881Y27646985D01*
X11690096Y27645004D01*
X11678666Y27642667D01*
X11667642Y27639873D01*
X11657076Y27636724D01*
X11646966Y27633117D01*
X11637314Y27629053D01*
X11628120Y27624582D01*
X11619382Y27619655D01*
X11611152Y27614270D01*
X11603380Y27608428D01*
X11596166Y27602078D01*
X11589410Y27595220D01*
X11583263Y27587854D01*
X11577574Y27580031D01*
X11572494Y27571649D01*
X11567972Y27562708D01*
X11563959Y27553259D01*
X11560606Y27543252D01*
X11557812Y27532634D01*
X11555577Y27521458D01*
X11554002Y27509724D01*
X11553088Y27497379D01*
X11552732Y27484476D01*
X11617248Y27484476D01*
X11617655Y27497024D01*
X11618874Y27508708D01*
X11620855Y27519528D01*
X11623700Y27529586D01*
X11625376Y27534311D01*
X11629390Y27543150D01*
X11631676Y27547265D01*
X11636908Y27554986D01*
X11639804Y27558593D01*
X11646204Y27565248D01*
X11653367Y27571242D01*
X11661343Y27576526D01*
X11670131Y27581199D01*
X11679682Y27585263D01*
X11690045Y27588718D01*
X11701170Y27591613D01*
X11713108Y27593950D01*
X11725859Y27595830D01*
X11739321Y27597150D01*
X11753646Y27598014D01*
X11768683Y27598420D01*
X11861342Y27598471D01*
X11861342Y27361540D01*
X11765432Y27361591D01*
X11750446Y27362150D01*
X11736273Y27363267D01*
X11722912Y27364994D01*
X11710365Y27367280D01*
X11698630Y27370176D01*
X11687657Y27373681D01*
X11677548Y27377796D01*
X11668201Y27382520D01*
X11659666Y27387854D01*
X11651945Y27393849D01*
X11648338Y27397100D01*
X11641785Y27404110D01*
X11638788Y27407819D01*
X11633403Y27415794D01*
X11631015Y27420011D01*
X11626799Y27429002D01*
X11623344Y27438705D01*
X11620703Y27449068D01*
X11618772Y27460143D01*
X11617655Y27471928D01*
X11617248Y27484476D01*
X11552732Y27484476D01*
X11553088Y27471877D01*
X11554002Y27459787D01*
X11555577Y27448154D01*
X11557762Y27437029D01*
X11560505Y27426361D01*
X11563858Y27416150D01*
X11567820Y27406447D01*
X11572290Y27397202D01*
X11577320Y27388413D01*
X11582908Y27380082D01*
X11589054Y27372259D01*
X11595658Y27364842D01*
X11602821Y27357933D01*
X11610492Y27351431D01*
X11618620Y27345436D01*
X11627205Y27339899D01*
X11636298Y27334768D01*
X11645798Y27330146D01*
X11655806Y27325929D01*
X11666220Y27322170D01*
X11677040Y27318919D01*
X11688318Y27316023D01*
X11699951Y27313636D01*
X11711990Y27311654D01*
X11724386Y27310130D01*
X11737187Y27309064D01*
X11750344Y27308403D01*
X11763806Y27308200D01*
X11861342Y27308200D01*
X11861342Y27075028D01*
X11926874Y27075028D01*
X11926874Y27651354D01*
G37*
G36*
X11368582Y27651354D02*
G01*
X11368582Y27130095D01*
X11113312Y27130095D01*
X11113312Y27075028D01*
X11433860Y27075028D01*
X11433860Y27651354D01*
G37*
G36*
X10816640Y27651354D02*
G01*
X10698979Y27308200D01*
X10762284Y27308200D01*
X10809986Y27456333D01*
X10828426Y27516683D01*
X10851946Y27596998D01*
X10855248Y27596998D01*
X10862310Y27571649D01*
X10876534Y27522424D01*
X10891113Y27474214D01*
X10906302Y27426056D01*
X10944148Y27308200D01*
X10698979Y27308200D01*
X10619028Y27075028D01*
X10688116Y27075028D01*
X10745774Y27256892D01*
X10960658Y27256892D01*
X11019586Y27075028D01*
X11085118Y27075028D01*
X10888268Y27651354D01*
G37*
G36*
X10216438Y27651354D02*
G01*
X10389666Y27301037D01*
X10389666Y27075028D01*
X10454436Y27075028D01*
X10454436Y27301037D01*
X10627664Y27651354D01*
X10558322Y27651354D01*
X10469575Y27459228D01*
X10441127Y27396694D01*
X10422940Y27358492D01*
X10419638Y27358492D01*
X10381030Y27440432D01*
X10366959Y27471776D01*
X10361472Y27484476D01*
X10283494Y27651354D01*
G37*
G36*
X9800132Y27651354D02*
G01*
X9786366Y27651151D01*
X9773005Y27650643D01*
X9759950Y27649779D01*
X9747300Y27648560D01*
X9735058Y27646985D01*
X9723221Y27645004D01*
X9711791Y27642667D01*
X9700768Y27639873D01*
X9690201Y27636724D01*
X9680041Y27633117D01*
X9670389Y27629053D01*
X9661194Y27624582D01*
X9652457Y27619655D01*
X9644176Y27614270D01*
X9636455Y27608428D01*
X9629190Y27602078D01*
X9622485Y27595220D01*
X9616287Y27587854D01*
X9610648Y27580031D01*
X9605518Y27571649D01*
X9600996Y27562708D01*
X9596983Y27553259D01*
X9593630Y27543252D01*
X9590836Y27532634D01*
X9588601Y27521458D01*
X9587026Y27509724D01*
X9586112Y27497379D01*
X9585756Y27484476D01*
X9650526Y27484476D01*
X9650933Y27497024D01*
X9652152Y27508708D01*
X9653016Y27514194D01*
X9655454Y27524659D01*
X9656927Y27529586D01*
X9658604Y27534311D01*
X9662617Y27543150D01*
X9667392Y27551227D01*
X9672980Y27558593D01*
X9679381Y27565248D01*
X9686544Y27571242D01*
X9694519Y27576526D01*
X9703257Y27581199D01*
X9712807Y27585263D01*
X9723120Y27588718D01*
X9734245Y27591613D01*
X9746183Y27593950D01*
X9758883Y27595830D01*
X9772396Y27597150D01*
X9786670Y27598014D01*
X9801707Y27598420D01*
X9894620Y27598471D01*
X9894620Y27361540D01*
X9798456Y27361591D01*
X9783470Y27362150D01*
X9769297Y27363267D01*
X9755936Y27364994D01*
X9743389Y27367280D01*
X9731705Y27370176D01*
X9720783Y27373681D01*
X9710674Y27377796D01*
X9701326Y27382520D01*
X9696958Y27385111D01*
X9688880Y27390801D01*
X9681514Y27397100D01*
X9678162Y27400503D01*
X9672015Y27407819D01*
X9666630Y27415794D01*
X9664242Y27420011D01*
X9660026Y27429002D01*
X9656622Y27438705D01*
X9653930Y27449068D01*
X9652050Y27460143D01*
X9650933Y27471928D01*
X9650526Y27484476D01*
X9585756Y27484476D01*
X9586112Y27471877D01*
X9587026Y27459787D01*
X9588601Y27448154D01*
X9590786Y27437029D01*
X9593529Y27426361D01*
X9596882Y27416150D01*
X9600844Y27406447D01*
X9605314Y27397202D01*
X9610344Y27388413D01*
X9615932Y27380082D01*
X9622078Y27372259D01*
X9628682Y27364842D01*
X9635845Y27357933D01*
X9643465Y27351431D01*
X9651644Y27345436D01*
X9660229Y27339899D01*
X9669322Y27334768D01*
X9678822Y27330146D01*
X9688830Y27325929D01*
X9699244Y27322170D01*
X9710064Y27318919D01*
X9721342Y27316023D01*
X9732975Y27313636D01*
X9745014Y27311654D01*
X9757410Y27310130D01*
X9770211Y27309064D01*
X9783368Y27308403D01*
X9796830Y27308200D01*
X9894620Y27308200D01*
X9894620Y27075028D01*
X9959898Y27075028D01*
X9959898Y27651354D01*
G37*
G36*
X9318802Y27651354D02*
G01*
X9201141Y27308200D01*
X9264700Y27308200D01*
X9296501Y27407768D01*
X9312249Y27456333D01*
X9321596Y27486508D01*
X9341561Y27553310D01*
X9354362Y27596998D01*
X9357410Y27596998D01*
X9377070Y27528520D01*
X9389821Y27486254D01*
X9410649Y27419960D01*
X9446564Y27308200D01*
X9201141Y27308200D01*
X9121190Y27075028D01*
X9190532Y27075028D01*
X9247936Y27256892D01*
X9463074Y27256892D01*
X9522002Y27075028D01*
X9587534Y27075028D01*
X9390684Y27651354D01*
G37*
G36*
X8633002Y27651354D02*
G01*
X8633002Y27075028D01*
X8700820Y27075028D01*
X8917228Y27448154D01*
X8980220Y27566213D01*
X8984284Y27566213D01*
X8978544Y27466899D01*
X8977426Y27441702D01*
X8976563Y27409952D01*
X8976410Y27390750D01*
X8976410Y27075028D01*
X9037878Y27075028D01*
X9037878Y27651354D01*
X8970822Y27651354D01*
X8752890Y27278228D01*
X8690660Y27160118D01*
X8686596Y27160118D01*
X8690508Y27216862D01*
X8693150Y27262226D01*
X8694267Y27288236D01*
X8695232Y27333295D01*
X8695232Y27651354D01*
G37*
G36*
X8144052Y27651354D02*
G01*
X8144052Y27596236D01*
X8407196Y27596236D01*
X8407196Y27406498D01*
X8185962Y27406498D01*
X8185962Y27351329D01*
X8407196Y27351329D01*
X8407196Y27130095D01*
X8135416Y27130095D01*
X8135416Y27075028D01*
X8472474Y27075028D01*
X8472474Y27651354D01*
G37*
G36*
X7947202Y27651354D02*
G01*
X7947202Y27130095D01*
X7692186Y27130095D01*
X7692186Y27075028D01*
X8012734Y27075028D01*
X8012734Y27651354D01*
G37*
G36*
X7651496Y26999387D02*
G01*
X7643012Y26997914D01*
X7636256Y26993646D01*
X7631785Y26987093D01*
X7630159Y26978559D01*
X7631785Y26969465D01*
X7636256Y26962608D01*
X7643012Y26958239D01*
X7651496Y26956715D01*
X7656169Y26957121D01*
X7660335Y26958239D01*
X7664043Y26960118D01*
X7667142Y26962608D01*
X7669682Y26965757D01*
X7671562Y26969465D01*
X7672679Y26973784D01*
X7673086Y26978559D01*
X7671562Y26987093D01*
X7667142Y26993646D01*
X7660335Y26997914D01*
G37*
G36*
X9644634Y26985671D02*
G01*
X9703308Y26706779D01*
X9740900Y26706779D01*
X9785350Y26880515D01*
X9799066Y26943761D01*
X9800590Y26943761D01*
X9805365Y26922526D01*
X9811512Y26896568D01*
X9815068Y26880515D01*
X9858502Y26706779D01*
X9895586Y26706779D01*
X9955784Y26985671D01*
X9923272Y26985671D01*
X9891268Y26824939D01*
X9875266Y26740307D01*
X9873742Y26740307D01*
X9861245Y26796949D01*
X9854742Y26824939D01*
X9814052Y26985671D01*
X9784588Y26985671D01*
X9744456Y26830477D01*
X9724136Y26740307D01*
X9722104Y26740307D01*
X9707930Y26819352D01*
X9674860Y26985671D01*
G37*
G36*
X8485378Y26985671D02*
G01*
X8472271Y26985366D01*
X8459876Y26984350D01*
X8448243Y26982623D01*
X8442706Y26981505D01*
X8437422Y26980184D01*
X8427415Y26976882D01*
X8422690Y26974952D01*
X8418271Y26972768D01*
X8414054Y26970380D01*
X8410041Y26967789D01*
X8406282Y26964944D01*
X8402777Y26961896D01*
X8399526Y26958544D01*
X8396528Y26954988D01*
X8393785Y26951228D01*
X8391347Y26947164D01*
X8389112Y26942846D01*
X8387181Y26938224D01*
X8385556Y26933398D01*
X8384184Y26928267D01*
X8383117Y26922882D01*
X8382355Y26917192D01*
X8381898Y26911198D01*
X8381746Y26904899D01*
X8412988Y26904899D01*
X8413191Y26910995D01*
X8413750Y26916634D01*
X8414766Y26921917D01*
X8416086Y26926743D01*
X8417864Y26931213D01*
X8419947Y26935328D01*
X8422487Y26939036D01*
X8425383Y26942440D01*
X8428685Y26945488D01*
X8432342Y26948180D01*
X8436406Y26950619D01*
X8440826Y26952702D01*
X8445652Y26954530D01*
X8450834Y26956054D01*
X8456371Y26957324D01*
X8462365Y26958340D01*
X8468664Y26959102D01*
X8482482Y26959915D01*
X8531098Y26960017D01*
X8531098Y26845463D01*
X8488426Y26845463D01*
X8480958Y26845615D01*
X8473897Y26846022D01*
X8467242Y26846682D01*
X8460994Y26847647D01*
X8455101Y26848917D01*
X8449614Y26850441D01*
X8444534Y26852270D01*
X8439810Y26854403D01*
X8435492Y26856842D01*
X8431580Y26859585D01*
X8428024Y26862633D01*
X8424824Y26865986D01*
X8422081Y26869694D01*
X8419642Y26873708D01*
X8417610Y26878076D01*
X8415934Y26882750D01*
X8414664Y26887779D01*
X8413750Y26893113D01*
X8413191Y26898853D01*
X8412988Y26904899D01*
X8381746Y26904899D01*
X8381898Y26898853D01*
X8382355Y26892961D01*
X8383117Y26887373D01*
X8384184Y26881937D01*
X8385505Y26876806D01*
X8387130Y26871879D01*
X8389010Y26867154D01*
X8391194Y26862684D01*
X8393633Y26858417D01*
X8396325Y26854403D01*
X8399322Y26850594D01*
X8402523Y26847038D01*
X8405977Y26843685D01*
X8409686Y26840535D01*
X8413597Y26837639D01*
X8417763Y26834947D01*
X8422132Y26832458D01*
X8426754Y26830223D01*
X8431580Y26828191D01*
X8436610Y26826362D01*
X8447328Y26823365D01*
X8452967Y26822196D01*
X8464804Y26820520D01*
X8477351Y26819707D01*
X8483854Y26819555D01*
X8531098Y26819555D01*
X8531098Y26706779D01*
X8562848Y26706779D01*
X8562848Y26985671D01*
G37*
G36*
X9102344Y26970685D02*
G01*
X9102344Y26912519D01*
X9045448Y26912519D01*
X9045448Y26886865D01*
X9102344Y26886865D01*
X9102344Y26767739D01*
X9102191Y26761694D01*
X9101683Y26756055D01*
X9100769Y26750822D01*
X9099448Y26746098D01*
X9097670Y26741882D01*
X9095435Y26738122D01*
X9092641Y26734922D01*
X9089339Y26732280D01*
X9085427Y26730147D01*
X9080906Y26728623D01*
X9075724Y26727708D01*
X9069832Y26727353D01*
X9063837Y26727810D01*
X9057640Y26729029D01*
X9051493Y26730807D01*
X9045956Y26732941D01*
X9039860Y26709573D01*
X9048800Y26706626D01*
X9058148Y26704137D01*
X9067495Y26702359D01*
X9076436Y26701699D01*
X9084157Y26702054D01*
X9091218Y26702969D01*
X9097619Y26704493D01*
X9103410Y26706576D01*
X9108592Y26709268D01*
X9113215Y26712418D01*
X9117330Y26716126D01*
X9120886Y26720342D01*
X9123934Y26724965D01*
X9126474Y26730096D01*
X9128607Y26735633D01*
X9130284Y26741577D01*
X9131554Y26747927D01*
X9132417Y26754632D01*
X9132925Y26761643D01*
X9133078Y26769009D01*
X9133078Y26886865D01*
X9164320Y26886865D01*
X9164320Y26910741D01*
X9132062Y26912519D01*
X9128252Y26970685D01*
G37*
G36*
X9518904Y26917853D02*
G01*
X9513570Y26917700D01*
X9508286Y26917294D01*
X9503054Y26916532D01*
X9497923Y26915465D01*
X9492843Y26914144D01*
X9487865Y26912519D01*
X9482988Y26910588D01*
X9478264Y26908404D01*
X9473641Y26905965D01*
X9469120Y26903222D01*
X9464802Y26900174D01*
X9460636Y26896872D01*
X9456623Y26893316D01*
X9452762Y26889506D01*
X9445701Y26881074D01*
X9442500Y26876451D01*
X9439503Y26871574D01*
X9436709Y26866494D01*
X9434220Y26861109D01*
X9431934Y26855521D01*
X9429953Y26849679D01*
X9428226Y26843583D01*
X9426803Y26837284D01*
X9425686Y26830680D01*
X9424822Y26823924D01*
X9424365Y26816913D01*
X9424162Y26809649D01*
X9456166Y26809649D01*
X9456369Y26816862D01*
X9456928Y26823822D01*
X9457893Y26830527D01*
X9459163Y26836928D01*
X9460788Y26843075D01*
X9462770Y26848917D01*
X9465056Y26854403D01*
X9467646Y26859636D01*
X9470542Y26864462D01*
X9473742Y26868983D01*
X9477197Y26873098D01*
X9480905Y26876857D01*
X9484918Y26880261D01*
X9489135Y26883207D01*
X9493554Y26885747D01*
X9498228Y26887881D01*
X9503105Y26889506D01*
X9508185Y26890726D01*
X9513468Y26891488D01*
X9518904Y26891691D01*
X9524390Y26891488D01*
X9529673Y26890726D01*
X9534753Y26889506D01*
X9539630Y26887881D01*
X9544304Y26885747D01*
X9548774Y26883207D01*
X9552990Y26880261D01*
X9556953Y26876857D01*
X9560610Y26873098D01*
X9564065Y26868983D01*
X9567214Y26864462D01*
X9570059Y26859636D01*
X9572650Y26854403D01*
X9574885Y26848917D01*
X9576866Y26843075D01*
X9578441Y26836928D01*
X9579711Y26830527D01*
X9580626Y26823822D01*
X9581184Y26816862D01*
X9581388Y26809649D01*
X9581184Y26802384D01*
X9580626Y26795425D01*
X9579711Y26788668D01*
X9578441Y26782217D01*
X9576866Y26776070D01*
X9574885Y26770228D01*
X9572650Y26764691D01*
X9570059Y26759509D01*
X9567214Y26754683D01*
X9564065Y26750162D01*
X9560610Y26746047D01*
X9556953Y26742339D01*
X9552990Y26738986D01*
X9548774Y26736039D01*
X9544304Y26733500D01*
X9539630Y26731417D01*
X9534753Y26729791D01*
X9529673Y26728572D01*
X9524390Y26727861D01*
X9518904Y26727607D01*
X9513468Y26727861D01*
X9508185Y26728572D01*
X9503105Y26729791D01*
X9498228Y26731417D01*
X9493554Y26733500D01*
X9489135Y26736039D01*
X9484918Y26738986D01*
X9480905Y26742339D01*
X9477197Y26746047D01*
X9473742Y26750162D01*
X9470542Y26754683D01*
X9467646Y26759509D01*
X9465056Y26764691D01*
X9462770Y26770228D01*
X9460788Y26776070D01*
X9459163Y26782217D01*
X9457893Y26788668D01*
X9456928Y26795425D01*
X9456369Y26802384D01*
X9456166Y26809649D01*
X9424162Y26809649D01*
X9424365Y26802486D01*
X9424822Y26795476D01*
X9425686Y26788719D01*
X9426803Y26782166D01*
X9428226Y26775867D01*
X9429953Y26769822D01*
X9431934Y26763980D01*
X9434220Y26758392D01*
X9436709Y26753058D01*
X9439503Y26747927D01*
X9442500Y26743101D01*
X9445701Y26738478D01*
X9449155Y26734160D01*
X9452762Y26730096D01*
X9456623Y26726235D01*
X9460636Y26722679D01*
X9469120Y26716380D01*
X9473641Y26713637D01*
X9478264Y26711148D01*
X9482988Y26708963D01*
X9487865Y26707084D01*
X9492843Y26705458D01*
X9497923Y26704137D01*
X9503054Y26703070D01*
X9508286Y26702308D01*
X9513570Y26701851D01*
X9518904Y26701699D01*
X9524288Y26701851D01*
X9529622Y26702308D01*
X9534906Y26703070D01*
X9540087Y26704137D01*
X9545167Y26705458D01*
X9550146Y26707084D01*
X9555022Y26708963D01*
X9559747Y26711148D01*
X9564370Y26713637D01*
X9568840Y26716380D01*
X9577324Y26722679D01*
X9581286Y26726235D01*
X9585096Y26730096D01*
X9588703Y26734160D01*
X9592106Y26738478D01*
X9595307Y26743101D01*
X9598304Y26747927D01*
X9601047Y26753058D01*
X9603536Y26758392D01*
X9605721Y26763980D01*
X9607702Y26769822D01*
X9609429Y26775867D01*
X9610801Y26782166D01*
X9611918Y26788719D01*
X9612731Y26795476D01*
X9613239Y26802486D01*
X9613392Y26809649D01*
X9613239Y26816913D01*
X9612731Y26823924D01*
X9611918Y26830680D01*
X9610801Y26837284D01*
X9609429Y26843583D01*
X9607702Y26849679D01*
X9605721Y26855521D01*
X9603536Y26861109D01*
X9601047Y26866494D01*
X9598304Y26871574D01*
X9595307Y26876451D01*
X9592106Y26881074D01*
X9588703Y26885392D01*
X9585096Y26889506D01*
X9581286Y26893316D01*
X9577324Y26896872D01*
X9573158Y26900174D01*
X9568840Y26903222D01*
X9564370Y26905965D01*
X9559747Y26908404D01*
X9555022Y26910588D01*
X9550146Y26912519D01*
X9545167Y26914144D01*
X9540087Y26915465D01*
X9534906Y26916532D01*
X9529622Y26917294D01*
X9524288Y26917700D01*
G37*
G36*
X8928100Y26917853D02*
G01*
X8921800Y26917700D01*
X8915755Y26917142D01*
X8909913Y26916176D01*
X8904274Y26914856D01*
X8898940Y26913230D01*
X8893810Y26911198D01*
X8888933Y26908810D01*
X8884310Y26906118D01*
X8879941Y26903070D01*
X8875826Y26899717D01*
X8871966Y26896009D01*
X8868359Y26891996D01*
X8865006Y26887677D01*
X8861958Y26883055D01*
X8859215Y26878127D01*
X8856675Y26872895D01*
X8854490Y26867408D01*
X8852509Y26861617D01*
X8850884Y26855572D01*
X8849512Y26849222D01*
X8848445Y26842618D01*
X8847683Y26835811D01*
X8847163Y26825651D01*
X8874506Y26825651D01*
X8874760Y26833677D01*
X8875420Y26841196D01*
X8876588Y26848155D01*
X8878112Y26854708D01*
X8880144Y26860703D01*
X8882532Y26866189D01*
X8885377Y26871218D01*
X8888628Y26875689D01*
X8892235Y26879651D01*
X8896248Y26883106D01*
X8900617Y26886052D01*
X8905392Y26888439D01*
X8910472Y26890319D01*
X8915958Y26891640D01*
X8921750Y26892453D01*
X8927846Y26892707D01*
X8933535Y26892453D01*
X8939072Y26891589D01*
X8944508Y26890167D01*
X8949740Y26888186D01*
X8954820Y26885646D01*
X8959646Y26882648D01*
X8964218Y26879092D01*
X8968536Y26875028D01*
X8972550Y26870456D01*
X8976207Y26865427D01*
X8979509Y26859890D01*
X8982405Y26853946D01*
X8984894Y26847495D01*
X8986926Y26840637D01*
X8988501Y26833372D01*
X8989568Y26825651D01*
X8847163Y26825651D01*
X8847124Y26816253D01*
X8847836Y26806804D01*
X8848598Y26802791D01*
X8989060Y26802791D01*
X8988602Y26796085D01*
X8987790Y26789583D01*
X8986570Y26783334D01*
X8984996Y26777340D01*
X8983116Y26771600D01*
X8980881Y26766215D01*
X8978290Y26761084D01*
X8975394Y26756258D01*
X8972194Y26751737D01*
X8968638Y26747571D01*
X8964828Y26743761D01*
X8960764Y26740256D01*
X8956344Y26737157D01*
X8951722Y26734414D01*
X8946794Y26732077D01*
X8941663Y26730147D01*
X8936278Y26728623D01*
X8930640Y26727505D01*
X8924798Y26726845D01*
X8918702Y26726591D01*
X8911234Y26726896D01*
X8904122Y26727759D01*
X8897264Y26729182D01*
X8890660Y26731112D01*
X8884259Y26733500D01*
X8878112Y26736344D01*
X8872169Y26739646D01*
X8866378Y26743355D01*
X8854948Y26722781D01*
X8864244Y26717294D01*
X8874099Y26712265D01*
X8884716Y26707998D01*
X8890355Y26706169D01*
X8896248Y26704645D01*
X8902395Y26703426D01*
X8908796Y26702512D01*
X8915501Y26701902D01*
X8922512Y26701699D01*
X8928252Y26701851D01*
X8933942Y26702308D01*
X8939479Y26703070D01*
X8944965Y26704137D01*
X8950299Y26705509D01*
X8955532Y26707134D01*
X8960561Y26709065D01*
X8965539Y26711249D01*
X8970314Y26713738D01*
X8974937Y26716532D01*
X8979357Y26719530D01*
X8983624Y26722832D01*
X8991600Y26730248D01*
X8995257Y26734363D01*
X8998712Y26738732D01*
X9001912Y26743304D01*
X9004909Y26748181D01*
X9007703Y26753261D01*
X9010192Y26758595D01*
X9012428Y26764183D01*
X9014409Y26770025D01*
X9016085Y26776070D01*
X9017508Y26782318D01*
X9018625Y26788821D01*
X9019387Y26795577D01*
X9019895Y26802537D01*
X9020048Y26809649D01*
X9019895Y26816710D01*
X9019387Y26823568D01*
X9018574Y26830274D01*
X9017457Y26836674D01*
X9016034Y26842923D01*
X9014307Y26848968D01*
X9012326Y26854759D01*
X9010091Y26860347D01*
X9007602Y26865681D01*
X9004858Y26870812D01*
X9001912Y26875689D01*
X8998762Y26880312D01*
X8991803Y26888846D01*
X8988044Y26892707D01*
X8984132Y26896314D01*
X8980068Y26899666D01*
X8975852Y26902765D01*
X8971483Y26905559D01*
X8967012Y26908099D01*
X8962390Y26910385D01*
X8957716Y26912315D01*
X8952941Y26913992D01*
X8948064Y26915364D01*
X8943136Y26916481D01*
X8938158Y26917243D01*
X8933180Y26917700D01*
G37*
G36*
X8707120Y26917853D02*
G01*
X8701074Y26917650D01*
X8695690Y26916837D01*
X8690610Y26915414D01*
X8685530Y26913281D01*
X8691626Y26886357D01*
X8696452Y26887881D01*
X8700922Y26888897D01*
X8705545Y26889506D01*
X8710930Y26889659D01*
X8715400Y26889405D01*
X8719972Y26888541D01*
X8724646Y26887119D01*
X8729319Y26884985D01*
X8734044Y26882242D01*
X8738717Y26878737D01*
X8743340Y26874470D01*
X8747810Y26869491D01*
X8752179Y26863649D01*
X8756396Y26856944D01*
X8760307Y26849374D01*
X8764016Y26840891D01*
X8764016Y26706779D01*
X8794750Y26706779D01*
X8794750Y26912519D01*
X8769604Y26912519D01*
X8766556Y26874673D01*
X8765540Y26874673D01*
X8761882Y26881023D01*
X8757920Y26886966D01*
X8753703Y26892503D01*
X8749284Y26897533D01*
X8744610Y26902054D01*
X8739784Y26906118D01*
X8734704Y26909572D01*
X8729522Y26912519D01*
X8724138Y26914805D01*
X8718600Y26916481D01*
X8712911Y26917548D01*
G37*
G36*
X8261350Y26917853D02*
G01*
X8255050Y26917700D01*
X8248954Y26917142D01*
X8243062Y26916176D01*
X8237474Y26914856D01*
X8232089Y26913230D01*
X8226958Y26911198D01*
X8222081Y26908810D01*
X8217458Y26906118D01*
X8213039Y26903070D01*
X8208975Y26899717D01*
X8205114Y26896009D01*
X8201507Y26891996D01*
X8198205Y26887677D01*
X8195157Y26883055D01*
X8192363Y26878127D01*
X8189874Y26872895D01*
X8187690Y26867408D01*
X8185759Y26861617D01*
X8184083Y26855572D01*
X8182762Y26849222D01*
X8181695Y26842618D01*
X8180933Y26835811D01*
X8180413Y26825651D01*
X8207756Y26825651D01*
X8208009Y26833677D01*
X8208670Y26841196D01*
X8209838Y26848155D01*
X8211362Y26854708D01*
X8213394Y26860703D01*
X8215782Y26866189D01*
X8218627Y26871218D01*
X8221827Y26875689D01*
X8225434Y26879651D01*
X8229447Y26883106D01*
X8233816Y26886052D01*
X8238540Y26888439D01*
X8243620Y26890319D01*
X8249005Y26891640D01*
X8254796Y26892453D01*
X8260842Y26892707D01*
X8266531Y26892453D01*
X8272068Y26891589D01*
X8277504Y26890167D01*
X8282787Y26888186D01*
X8287867Y26885646D01*
X8292693Y26882648D01*
X8297316Y26879092D01*
X8301634Y26875028D01*
X8305647Y26870456D01*
X8309356Y26865427D01*
X8312658Y26859890D01*
X8315604Y26853946D01*
X8318093Y26847495D01*
X8320176Y26840637D01*
X8321751Y26833372D01*
X8322818Y26825651D01*
X8180413Y26825651D01*
X8180374Y26816253D01*
X8181086Y26806804D01*
X8181848Y26802791D01*
X8322309Y26802791D01*
X8321852Y26796085D01*
X8321040Y26789583D01*
X8319820Y26783334D01*
X8318246Y26777340D01*
X8316366Y26771600D01*
X8314131Y26766215D01*
X8311540Y26761084D01*
X8308644Y26756258D01*
X8305444Y26751737D01*
X8301888Y26747571D01*
X8298078Y26743761D01*
X8294014Y26740256D01*
X8289594Y26737157D01*
X8284972Y26734414D01*
X8280044Y26732077D01*
X8274913Y26730147D01*
X8269528Y26728623D01*
X8263890Y26727505D01*
X8258048Y26726845D01*
X8251952Y26726591D01*
X8244484Y26726896D01*
X8237372Y26727759D01*
X8230514Y26729182D01*
X8223910Y26731112D01*
X8217509Y26733500D01*
X8211362Y26736344D01*
X8205419Y26739646D01*
X8199628Y26743355D01*
X8188198Y26722781D01*
X8197494Y26717294D01*
X8207349Y26712265D01*
X8212531Y26710030D01*
X8223554Y26706169D01*
X8229447Y26704645D01*
X8235543Y26703426D01*
X8241893Y26702512D01*
X8248548Y26701902D01*
X8255508Y26701699D01*
X8261299Y26701851D01*
X8266988Y26702308D01*
X8272576Y26703070D01*
X8278063Y26704137D01*
X8283397Y26705509D01*
X8288629Y26707134D01*
X8293709Y26709065D01*
X8298688Y26711249D01*
X8303463Y26713738D01*
X8312556Y26719530D01*
X8316823Y26722832D01*
X8324799Y26730248D01*
X8328456Y26734363D01*
X8331911Y26738732D01*
X8335162Y26743304D01*
X8338159Y26748181D01*
X8340902Y26753261D01*
X8343442Y26758595D01*
X8345678Y26764183D01*
X8347659Y26770025D01*
X8349335Y26776070D01*
X8350758Y26782318D01*
X8351875Y26788821D01*
X8352637Y26795577D01*
X8353145Y26802537D01*
X8353298Y26809649D01*
X8353145Y26816710D01*
X8352637Y26823568D01*
X8351824Y26830274D01*
X8350707Y26836674D01*
X8349284Y26842923D01*
X8347557Y26848968D01*
X8345576Y26854759D01*
X8343341Y26860347D01*
X8340852Y26865681D01*
X8338108Y26870812D01*
X8335162Y26875689D01*
X8332012Y26880312D01*
X8325053Y26888846D01*
X8321294Y26892707D01*
X8317382Y26896314D01*
X8313318Y26899666D01*
X8309102Y26902765D01*
X8304733Y26905559D01*
X8300262Y26908099D01*
X8295640Y26910385D01*
X8290966Y26912315D01*
X8286191Y26913992D01*
X8281314Y26915364D01*
X8276386Y26916481D01*
X8271408Y26917243D01*
X8266430Y26917700D01*
G37*
G36*
X8029448Y26917853D02*
G01*
X8023148Y26917650D01*
X8017205Y26917040D01*
X8011617Y26916024D01*
X8006334Y26914551D01*
X8001406Y26912722D01*
X7996834Y26910487D01*
X7992567Y26907794D01*
X7988655Y26904746D01*
X7985048Y26901292D01*
X7981746Y26897431D01*
X7978851Y26893164D01*
X7976209Y26888541D01*
X7973923Y26883461D01*
X7971891Y26878026D01*
X7970215Y26872234D01*
X7968894Y26866037D01*
X7967827Y26859433D01*
X7967065Y26852473D01*
X7966608Y26845107D01*
X7966456Y26837335D01*
X7966456Y26706779D01*
X7997698Y26706779D01*
X7997698Y26833525D01*
X7997850Y26840738D01*
X7998307Y26847393D01*
X7999018Y26853540D01*
X8000085Y26859179D01*
X8001406Y26864360D01*
X8003082Y26869034D01*
X8005064Y26873250D01*
X8007400Y26876959D01*
X8010042Y26880261D01*
X8013039Y26883055D01*
X8016392Y26885442D01*
X8020100Y26887322D01*
X8024164Y26888795D01*
X8028584Y26889862D01*
X8033410Y26890472D01*
X8038592Y26890675D01*
X8043875Y26890472D01*
X8048955Y26889760D01*
X8053882Y26888592D01*
X8058658Y26886966D01*
X8063382Y26884884D01*
X8068056Y26882344D01*
X8072678Y26879346D01*
X8077403Y26875892D01*
X8087004Y26867561D01*
X8097266Y26857401D01*
X8097266Y26706779D01*
X8128000Y26706779D01*
X8128000Y26912519D01*
X8102853Y26912519D01*
X8099806Y26882293D01*
X8098790Y26882293D01*
X8088731Y26891742D01*
X8083550Y26896110D01*
X8078266Y26900225D01*
X8072831Y26904035D01*
X8067294Y26907439D01*
X8061502Y26910436D01*
X8055559Y26913027D01*
X8049412Y26915059D01*
X8043011Y26916583D01*
X8036356Y26917548D01*
G37*
G36*
X7798816Y26917853D02*
G01*
X7792567Y26917650D01*
X7786624Y26917040D01*
X7781036Y26916024D01*
X7775803Y26914551D01*
X7770926Y26912722D01*
X7766354Y26910487D01*
X7762087Y26907794D01*
X7758175Y26904746D01*
X7754620Y26901292D01*
X7751368Y26897431D01*
X7748422Y26893164D01*
X7745831Y26888541D01*
X7743494Y26883461D01*
X7741513Y26878026D01*
X7739837Y26872234D01*
X7738516Y26866037D01*
X7737449Y26859433D01*
X7736687Y26852473D01*
X7736230Y26845107D01*
X7736078Y26837335D01*
X7736078Y26706779D01*
X7767320Y26706779D01*
X7767320Y26833525D01*
X7767472Y26840738D01*
X7767929Y26847393D01*
X7768640Y26853540D01*
X7769656Y26859179D01*
X7771028Y26864360D01*
X7772704Y26869034D01*
X7774686Y26873250D01*
X7776972Y26876959D01*
X7779613Y26880261D01*
X7782610Y26883055D01*
X7785963Y26885442D01*
X7789621Y26887322D01*
X7793634Y26888795D01*
X7798053Y26889862D01*
X7802829Y26890472D01*
X7807959Y26890675D01*
X7813294Y26890472D01*
X7818424Y26889760D01*
X7823352Y26888592D01*
X7828127Y26886966D01*
X7832852Y26884884D01*
X7837474Y26882344D01*
X7842148Y26879346D01*
X7846822Y26875892D01*
X7856423Y26867561D01*
X7866634Y26857401D01*
X7866634Y26706779D01*
X7897622Y26706779D01*
X7897622Y26912519D01*
X7872475Y26912519D01*
X7869428Y26882293D01*
X7868158Y26882293D01*
X7858099Y26891742D01*
X7852918Y26896110D01*
X7847634Y26900225D01*
X7842199Y26904035D01*
X7836662Y26907439D01*
X7830870Y26910436D01*
X7824927Y26913027D01*
X7818780Y26915059D01*
X7812379Y26916583D01*
X7805724Y26917548D01*
G37*
G36*
X7465822Y26917853D02*
G01*
X7459573Y26917650D01*
X7453630Y26917040D01*
X7448042Y26916024D01*
X7442809Y26914551D01*
X7437932Y26912722D01*
X7433360Y26910487D01*
X7429093Y26907794D01*
X7425181Y26904746D01*
X7421625Y26901292D01*
X7418374Y26897431D01*
X7415428Y26893164D01*
X7412837Y26888541D01*
X7410500Y26883461D01*
X7408519Y26878026D01*
X7406843Y26872234D01*
X7405522Y26866037D01*
X7404455Y26859433D01*
X7403693Y26852473D01*
X7403236Y26845107D01*
X7403084Y26837335D01*
X7403084Y26706779D01*
X7434325Y26706779D01*
X7434325Y26833525D01*
X7434478Y26840738D01*
X7434935Y26847393D01*
X7435646Y26853540D01*
X7436662Y26859179D01*
X7438034Y26864360D01*
X7439710Y26869034D01*
X7441692Y26873250D01*
X7443978Y26876959D01*
X7446619Y26880261D01*
X7449616Y26883055D01*
X7452969Y26885442D01*
X7456627Y26887322D01*
X7460640Y26888795D01*
X7465059Y26889862D01*
X7469835Y26890472D01*
X7474966Y26890675D01*
X7480300Y26890472D01*
X7485430Y26889760D01*
X7490358Y26888592D01*
X7495133Y26886966D01*
X7499858Y26884884D01*
X7504480Y26882344D01*
X7509154Y26879346D01*
X7513828Y26875892D01*
X7523429Y26867561D01*
X7533640Y26857401D01*
X7533640Y26706779D01*
X7564628Y26706779D01*
X7564628Y26912519D01*
X7539481Y26912519D01*
X7536434Y26882293D01*
X7535164Y26882293D01*
X7525105Y26891742D01*
X7519924Y26896110D01*
X7514640Y26900225D01*
X7509205Y26904035D01*
X7503668Y26907439D01*
X7497876Y26910436D01*
X7491933Y26913027D01*
X7485786Y26915059D01*
X7479385Y26916583D01*
X7472730Y26917548D01*
G37*
G36*
X7266178Y26917853D02*
G01*
X7257897Y26917396D01*
X7250328Y26916176D01*
X7243572Y26914449D01*
X7237730Y26912519D01*
X7166356Y26912519D01*
X7166356Y26888643D01*
X7209790Y26888643D01*
X7206132Y26884579D01*
X7202728Y26880058D01*
X7199731Y26875028D01*
X7197090Y26869542D01*
X7194956Y26863700D01*
X7193381Y26857452D01*
X7192365Y26850848D01*
X7192049Y26844701D01*
X7220203Y26844701D01*
X7220661Y26852168D01*
X7221880Y26859077D01*
X7223861Y26865478D01*
X7226553Y26871269D01*
X7229856Y26876502D01*
X7233767Y26881124D01*
X7238187Y26885138D01*
X7243114Y26888439D01*
X7248398Y26891030D01*
X7254036Y26892961D01*
X7259980Y26894129D01*
X7266178Y26894485D01*
X7272477Y26894129D01*
X7278522Y26893012D01*
X7284212Y26891132D01*
X7289596Y26888541D01*
X7294473Y26885290D01*
X7298944Y26881327D01*
X7302804Y26876756D01*
X7306106Y26871523D01*
X7308799Y26865681D01*
X7310780Y26859280D01*
X7311999Y26852270D01*
X7312406Y26844701D01*
X7311999Y26837132D01*
X7310729Y26830070D01*
X7308697Y26823517D01*
X7305954Y26817523D01*
X7302601Y26812138D01*
X7298639Y26807363D01*
X7294168Y26803248D01*
X7289241Y26799794D01*
X7283907Y26797050D01*
X7278268Y26795069D01*
X7272324Y26793850D01*
X7266178Y26793393D01*
X7260132Y26793850D01*
X7254240Y26795069D01*
X7248601Y26797050D01*
X7243318Y26799794D01*
X7238390Y26803248D01*
X7233970Y26807363D01*
X7230008Y26812138D01*
X7226655Y26817523D01*
X7223912Y26823517D01*
X7221931Y26830070D01*
X7220661Y26837132D01*
X7220203Y26844701D01*
X7192049Y26844701D01*
X7192264Y26837538D01*
X7192975Y26831340D01*
X7194143Y26825397D01*
X7195769Y26819707D01*
X7197801Y26814322D01*
X7200239Y26809192D01*
X7203033Y26804315D01*
X7206183Y26799794D01*
X7209739Y26795577D01*
X7213600Y26791615D01*
X7217765Y26788059D01*
X7222185Y26784808D01*
X7226909Y26781912D01*
X7231888Y26779372D01*
X7237120Y26777188D01*
X7242556Y26775359D01*
X7248245Y26773936D01*
X7254036Y26772920D01*
X7260031Y26772311D01*
X7266178Y26772057D01*
X7274204Y26772565D01*
X7282332Y26773936D01*
X7290358Y26776273D01*
X7297928Y26779423D01*
X7303312Y26774444D01*
X7307630Y26768704D01*
X7310577Y26761846D01*
X7311644Y26753515D01*
X7311237Y26748739D01*
X7309916Y26744371D01*
X7307529Y26740408D01*
X7303922Y26737005D01*
X7299045Y26734262D01*
X7292695Y26732179D01*
X7284720Y26730858D01*
X7275068Y26730401D01*
X7225334Y26730248D01*
X7217308Y26729689D01*
X7209840Y26728826D01*
X7202931Y26727556D01*
X7196581Y26725930D01*
X7190740Y26723898D01*
X7185507Y26721511D01*
X7180783Y26718717D01*
X7176617Y26715516D01*
X7173010Y26711910D01*
X7169962Y26707947D01*
X7167473Y26703527D01*
X7165543Y26698702D01*
X7164171Y26693469D01*
X7163358Y26687780D01*
X7163053Y26681633D01*
X7163254Y26677061D01*
X7193534Y26677061D01*
X7193838Y26681836D01*
X7194753Y26686052D01*
X7196277Y26689761D01*
X7198410Y26692961D01*
X7201103Y26695755D01*
X7204456Y26698092D01*
X7208316Y26699972D01*
X7212787Y26701496D01*
X7217867Y26702613D01*
X7223506Y26703426D01*
X7229703Y26703883D01*
X7274306Y26703985D01*
X7279741Y26704239D01*
X7286244Y26704950D01*
X7293305Y26706068D01*
X7300468Y26707541D01*
X7305954Y26703274D01*
X7310678Y26698854D01*
X7314539Y26694282D01*
X7317689Y26689608D01*
X7320076Y26684833D01*
X7321753Y26680058D01*
X7322769Y26675283D01*
X7323074Y26670457D01*
X7322616Y26664970D01*
X7321194Y26659839D01*
X7318857Y26655064D01*
X7315606Y26650696D01*
X7311542Y26646733D01*
X7306614Y26643228D01*
X7300874Y26640180D01*
X7294422Y26637589D01*
X7287209Y26635557D01*
X7279233Y26634084D01*
X7270648Y26633220D01*
X7261352Y26632865D01*
X7253833Y26633119D01*
X7246620Y26633881D01*
X7239812Y26635049D01*
X7233412Y26636675D01*
X7227417Y26638707D01*
X7221829Y26641044D01*
X7216698Y26643736D01*
X7212025Y26646682D01*
X7207859Y26649934D01*
X7204151Y26653388D01*
X7201001Y26657046D01*
X7198359Y26660856D01*
X7196277Y26664818D01*
X7194753Y26668831D01*
X7193838Y26672946D01*
X7193534Y26677061D01*
X7163257Y26677010D01*
X7163866Y26672438D01*
X7164882Y26667917D01*
X7166305Y26663497D01*
X7168083Y26659128D01*
X7170267Y26654912D01*
X7172807Y26650797D01*
X7175703Y26646835D01*
X7178954Y26642974D01*
X7182561Y26639316D01*
X7186523Y26635811D01*
X7190790Y26632458D01*
X7195413Y26629360D01*
X7200341Y26626413D01*
X7205573Y26623721D01*
X7211110Y26621232D01*
X7216952Y26618996D01*
X7223048Y26617015D01*
X7229449Y26615339D01*
X7236155Y26613916D01*
X7243064Y26612799D01*
X7250277Y26611986D01*
X7257745Y26611478D01*
X7265416Y26611275D01*
X7272934Y26611427D01*
X7280148Y26611884D01*
X7287107Y26612646D01*
X7293762Y26613662D01*
X7300163Y26614983D01*
X7306208Y26616609D01*
X7311948Y26618488D01*
X7317333Y26620622D01*
X7322362Y26623060D01*
X7327036Y26625753D01*
X7331303Y26628750D01*
X7335215Y26632001D01*
X7338669Y26635456D01*
X7341717Y26639215D01*
X7344359Y26643228D01*
X7346543Y26647495D01*
X7348270Y26651965D01*
X7349490Y26656741D01*
X7350252Y26661719D01*
X7350506Y26666901D01*
X7349998Y26673403D01*
X7348423Y26679804D01*
X7345883Y26686103D01*
X7342428Y26692250D01*
X7338059Y26698143D01*
X7332827Y26703731D01*
X7326833Y26709014D01*
X7320025Y26713891D01*
X7320025Y26715415D01*
X7323886Y26718107D01*
X7327442Y26721206D01*
X7330592Y26724762D01*
X7333284Y26728724D01*
X7335520Y26733195D01*
X7337196Y26738122D01*
X7338212Y26743558D01*
X7338568Y26749451D01*
X7338009Y26755750D01*
X7336485Y26761643D01*
X7334097Y26767129D01*
X7331049Y26772158D01*
X7327544Y26776730D01*
X7323683Y26780845D01*
X7319670Y26784452D01*
X7315708Y26787551D01*
X7315708Y26789075D01*
X7319060Y26791970D01*
X7322362Y26795171D01*
X7325563Y26798777D01*
X7328611Y26802740D01*
X7331456Y26807007D01*
X7334097Y26811579D01*
X7336434Y26816456D01*
X7338466Y26821587D01*
X7340092Y26827022D01*
X7341362Y26832712D01*
X7342124Y26838605D01*
X7342378Y26844701D01*
X7342124Y26851254D01*
X7341362Y26857502D01*
X7340142Y26863548D01*
X7338466Y26869288D01*
X7336332Y26874774D01*
X7333792Y26880007D01*
X7330846Y26884934D01*
X7327544Y26889557D01*
X7323886Y26893875D01*
X7319924Y26897888D01*
X7315606Y26901546D01*
X7310983Y26904848D01*
X7306157Y26907845D01*
X7301026Y26910436D01*
X7295692Y26912671D01*
X7290104Y26914500D01*
X7284364Y26915973D01*
X7278420Y26917040D01*
X7272375Y26917650D01*
G37*
G36*
X7064248Y26917853D02*
G01*
X7058152Y26917650D01*
X7052157Y26917040D01*
X7046315Y26916075D01*
X7040625Y26914754D01*
X7035038Y26913128D01*
X7029703Y26911198D01*
X7024471Y26909014D01*
X7019493Y26906575D01*
X7010146Y26901139D01*
X7005828Y26898142D01*
X7001764Y26894993D01*
X7017003Y26874673D01*
X7027773Y26881988D01*
X7033310Y26885138D01*
X7039000Y26887881D01*
X7044893Y26890116D01*
X7051040Y26891792D01*
X7057491Y26892859D01*
X7064248Y26893215D01*
X7073849Y26892554D01*
X7082078Y26890675D01*
X7088987Y26887728D01*
X7094626Y26883817D01*
X7098944Y26879143D01*
X7101992Y26873860D01*
X7103770Y26868069D01*
X7104380Y26861973D01*
X7103973Y26857096D01*
X7102703Y26852676D01*
X7100671Y26848714D01*
X7097979Y26845107D01*
X7094677Y26841856D01*
X7090765Y26838859D01*
X7086396Y26836166D01*
X7081570Y26833677D01*
X7076440Y26831340D01*
X7053732Y26822653D01*
X7042302Y26818031D01*
X7031228Y26812951D01*
X7025995Y26810106D01*
X7020966Y26807058D01*
X7016242Y26803756D01*
X7011822Y26800098D01*
X7007859Y26796085D01*
X7004354Y26791665D01*
X7001408Y26786789D01*
X6998970Y26781455D01*
X6997192Y26775613D01*
X6996074Y26769212D01*
X6995668Y26762151D01*
X6995871Y26757325D01*
X6996430Y26752499D01*
X6997395Y26747825D01*
X6998766Y26743304D01*
X7000494Y26738884D01*
X7002576Y26734668D01*
X7005015Y26730604D01*
X7007859Y26726743D01*
X7011060Y26723086D01*
X7014616Y26719682D01*
X7018528Y26716482D01*
X7022795Y26713586D01*
X7027418Y26710944D01*
X7032345Y26708608D01*
X7037679Y26706576D01*
X7043318Y26704848D01*
X7049312Y26703527D01*
X7055662Y26702512D01*
X7062317Y26701902D01*
X7069328Y26701699D01*
X7076592Y26701953D01*
X7083806Y26702715D01*
X7090867Y26703883D01*
X7097826Y26705458D01*
X7104634Y26707490D01*
X7111288Y26709827D01*
X7117689Y26712519D01*
X7123887Y26715516D01*
X7129830Y26718768D01*
X7135469Y26722273D01*
X7140803Y26725981D01*
X7145781Y26729893D01*
X7130288Y26750975D01*
X7121245Y26744117D01*
X7111898Y26738122D01*
X7107072Y26735481D01*
X7102144Y26733144D01*
X7097014Y26731061D01*
X7091730Y26729334D01*
X7086193Y26727962D01*
X7080402Y26726946D01*
X7074408Y26726337D01*
X7068058Y26726083D01*
X7061250Y26726438D01*
X7055053Y26727302D01*
X7049414Y26728775D01*
X7044385Y26730756D01*
X7039914Y26733195D01*
X7036053Y26736090D01*
X7032802Y26739392D01*
X7030161Y26743050D01*
X7028078Y26747012D01*
X7026605Y26751229D01*
X7025690Y26755699D01*
X7025386Y26760373D01*
X7025894Y26765707D01*
X7027367Y26770584D01*
X7029653Y26774952D01*
X7032701Y26778915D01*
X7036409Y26782572D01*
X7040727Y26785824D01*
X7045502Y26788821D01*
X7050684Y26791564D01*
X7061809Y26796441D01*
X7084466Y26804975D01*
X7095337Y26809649D01*
X7100620Y26812239D01*
X7105650Y26815034D01*
X7110425Y26818082D01*
X7114946Y26821384D01*
X7119061Y26824990D01*
X7122820Y26828902D01*
X7126173Y26833118D01*
X7128967Y26837741D01*
X7131253Y26842770D01*
X7132929Y26848206D01*
X7133996Y26854099D01*
X7134352Y26860449D01*
X7134047Y26866342D01*
X7133183Y26872031D01*
X7131710Y26877568D01*
X7129678Y26882852D01*
X7127087Y26887830D01*
X7123988Y26892605D01*
X7120280Y26897025D01*
X7116064Y26901089D01*
X7111339Y26904797D01*
X7106107Y26908099D01*
X7100316Y26910944D01*
X7094067Y26913382D01*
X7087311Y26915313D01*
X7080097Y26916735D01*
X7072426Y26917599D01*
G37*
G36*
X9210802Y26912519D02*
G01*
X9210802Y26706779D01*
X9236456Y26706779D01*
X9238996Y26739545D01*
X9240266Y26739545D01*
X9250070Y26728978D01*
X9255099Y26724203D01*
X9260230Y26719834D01*
X9265564Y26715821D01*
X9271000Y26712265D01*
X9276689Y26709166D01*
X9282531Y26706576D01*
X9288627Y26704493D01*
X9295028Y26702969D01*
X9301632Y26702054D01*
X9308592Y26701699D01*
X9314891Y26701953D01*
X9320834Y26702562D01*
X9326473Y26703578D01*
X9331706Y26705001D01*
X9336633Y26706880D01*
X9341205Y26709115D01*
X9345422Y26711757D01*
X9349333Y26714805D01*
X9352940Y26718260D01*
X9356140Y26722120D01*
X9359087Y26726337D01*
X9361678Y26730960D01*
X9363964Y26735989D01*
X9365945Y26741374D01*
X9367621Y26747165D01*
X9368942Y26753312D01*
X9370009Y26759865D01*
X9370771Y26766774D01*
X9371177Y26774089D01*
X9371330Y26781709D01*
X9371330Y26912519D01*
X9340342Y26912519D01*
X9340342Y26785773D01*
X9340189Y26778661D01*
X9339783Y26772057D01*
X9339072Y26765910D01*
X9338056Y26760271D01*
X9336735Y26755140D01*
X9335109Y26750467D01*
X9333179Y26746301D01*
X9330893Y26742593D01*
X9328251Y26739342D01*
X9325305Y26736497D01*
X9321952Y26734160D01*
X9318294Y26732230D01*
X9314230Y26730756D01*
X9309760Y26729740D01*
X9304934Y26729131D01*
X9299702Y26728877D01*
X9294368Y26729131D01*
X9289288Y26729842D01*
X9284360Y26731010D01*
X9279585Y26732687D01*
X9274911Y26734820D01*
X9270288Y26737513D01*
X9265716Y26740764D01*
X9261094Y26744523D01*
X9256471Y26748841D01*
X9251696Y26753718D01*
X9246819Y26759153D01*
X9241790Y26765199D01*
X9241790Y26912519D01*
G37*
G36*
X7636256Y26912519D02*
G01*
X7636256Y26706779D01*
X7666990Y26706779D01*
X7666990Y26912519D01*
G37*
G36*
X8470036Y26636776D02*
G01*
X8461756Y26636472D01*
X8453780Y26635506D01*
X8446160Y26633932D01*
X8438946Y26631849D01*
X8432038Y26629309D01*
X8425484Y26626362D01*
X8419338Y26623010D01*
X8413546Y26619352D01*
X8408162Y26615491D01*
X8403132Y26611376D01*
X8398510Y26607109D01*
X8394293Y26602740D01*
X8411870Y26582166D01*
X8415578Y26586078D01*
X8419490Y26589736D01*
X8423554Y26593088D01*
X8427872Y26596238D01*
X8432393Y26599032D01*
X8437067Y26601521D01*
X8441994Y26603706D01*
X8447125Y26605484D01*
X8452459Y26606957D01*
X8457996Y26607973D01*
X8463788Y26608633D01*
X8469731Y26608836D01*
X8475522Y26608684D01*
X8481110Y26608176D01*
X8486546Y26607363D01*
X8491880Y26606195D01*
X8497011Y26604722D01*
X8501989Y26602944D01*
X8506764Y26600810D01*
X8511387Y26598422D01*
X8515858Y26595730D01*
X8520125Y26592733D01*
X8524189Y26589431D01*
X8528050Y26585824D01*
X8531758Y26581963D01*
X8535212Y26577798D01*
X8538514Y26573378D01*
X8541562Y26568704D01*
X8544407Y26563726D01*
X8546998Y26558494D01*
X8549386Y26553058D01*
X8551570Y26547318D01*
X8553500Y26541374D01*
X8555177Y26535126D01*
X8556599Y26528674D01*
X8558733Y26515110D01*
X8559393Y26507948D01*
X8559800Y26500582D01*
X8559952Y26493012D01*
X8559800Y26485392D01*
X8558784Y26470813D01*
X8557869Y26463802D01*
X8555329Y26450544D01*
X8553704Y26444244D01*
X8551824Y26438199D01*
X8549741Y26432408D01*
X8547455Y26426871D01*
X8542121Y26416558D01*
X8539124Y26411783D01*
X8535924Y26407313D01*
X8532520Y26403096D01*
X8528913Y26399185D01*
X8525052Y26395527D01*
X8521039Y26392174D01*
X8516823Y26389076D01*
X8512454Y26386332D01*
X8507831Y26383894D01*
X8503056Y26381760D01*
X8498128Y26379932D01*
X8492998Y26378408D01*
X8487664Y26377239D01*
X8482228Y26376376D01*
X8476589Y26375868D01*
X8470747Y26375664D01*
X8464194Y26375918D01*
X8457844Y26376630D01*
X8451697Y26377798D01*
X8445804Y26379424D01*
X8440115Y26381456D01*
X8434628Y26383996D01*
X8429345Y26386891D01*
X8424164Y26390244D01*
X8419185Y26394003D01*
X8414359Y26398169D01*
X8409584Y26402741D01*
X8404961Y26407668D01*
X8387486Y26387856D01*
X8391550Y26383183D01*
X8400237Y26374648D01*
X8404758Y26370788D01*
X8409432Y26367181D01*
X8414258Y26363930D01*
X8419287Y26360882D01*
X8424468Y26358189D01*
X8429802Y26355802D01*
X8435289Y26353668D01*
X8440978Y26351890D01*
X8446871Y26350417D01*
X8452916Y26349248D01*
X8459165Y26348436D01*
X8465616Y26347927D01*
X8472322Y26347724D01*
X8483650Y26348232D01*
X8489188Y26348842D01*
X8494623Y26349706D01*
X8499957Y26350823D01*
X8510320Y26353770D01*
X8515299Y26355548D01*
X8525002Y26359865D01*
X8534146Y26365098D01*
X8542782Y26371245D01*
X8546896Y26374648D01*
X8554618Y26382065D01*
X8558276Y26386078D01*
X8561781Y26390346D01*
X8568232Y26399439D01*
X8574024Y26409345D01*
X8579104Y26420064D01*
X8581339Y26425702D01*
X8585250Y26437589D01*
X8588349Y26450188D01*
X8590584Y26463498D01*
X8591397Y26470457D01*
X8592312Y26484834D01*
X8592312Y26499667D01*
X8591397Y26513891D01*
X8590584Y26520800D01*
X8588298Y26534008D01*
X8586825Y26540409D01*
X8585149Y26546556D01*
X8581136Y26558392D01*
X8576411Y26569466D01*
X8573719Y26574750D01*
X8567826Y26584656D01*
X8561273Y26593800D01*
X8554008Y26602131D01*
X8546084Y26609598D01*
X8537600Y26616202D01*
X8533130Y26619200D01*
X8523782Y26624483D01*
X8513927Y26628852D01*
X8503615Y26632306D01*
X8498281Y26633677D01*
X8492794Y26634795D01*
X8487257Y26635659D01*
X8475827Y26636675D01*
G37*
G36*
X9785959Y26631696D02*
G01*
X9785959Y26605026D01*
X9912959Y26605026D01*
X9912959Y26506728D01*
X9805263Y26506728D01*
X9805263Y26480058D01*
X9912959Y26480058D01*
X9912959Y26352804D01*
X9944506Y26352804D01*
X9944506Y26631696D01*
G37*
G36*
X8653627Y26631696D02*
G01*
X8653627Y26352804D01*
X8685377Y26352804D01*
X8685377Y26631696D01*
G37*
G36*
X8166506Y26631696D02*
G01*
X8166506Y26605026D01*
X8251850Y26605026D01*
X8251850Y26352804D01*
X8283854Y26352804D01*
X8283854Y26605026D01*
X8368690Y26605026D01*
X8368690Y26631696D01*
G37*
G36*
X9248495Y26616710D02*
G01*
X9248495Y26558544D01*
X9191650Y26558544D01*
X9191650Y26532890D01*
X9248495Y26532890D01*
X9248495Y26413764D01*
X9248343Y26407719D01*
X9247835Y26402080D01*
X9246920Y26396848D01*
X9245600Y26392124D01*
X9243872Y26387907D01*
X9241586Y26384148D01*
X9238843Y26380948D01*
X9235490Y26378306D01*
X9231579Y26376172D01*
X9227058Y26374648D01*
X9221876Y26373734D01*
X9216034Y26373378D01*
X9210040Y26373836D01*
X9203791Y26375055D01*
X9197695Y26376833D01*
X9192158Y26378966D01*
X9186011Y26355598D01*
X9194952Y26352652D01*
X9204350Y26350163D01*
X9213697Y26348385D01*
X9222638Y26347724D01*
X9230309Y26348080D01*
X9237370Y26348994D01*
X9243771Y26350518D01*
X9249562Y26352601D01*
X9254794Y26355294D01*
X9259417Y26358443D01*
X9263481Y26362152D01*
X9267037Y26366368D01*
X9270085Y26370991D01*
X9272676Y26376122D01*
X9274759Y26381659D01*
X9276435Y26387602D01*
X9277705Y26393952D01*
X9278569Y26400658D01*
X9279077Y26407668D01*
X9279229Y26415034D01*
X9279229Y26532890D01*
X9310522Y26532890D01*
X9310522Y26556766D01*
X9278213Y26558544D01*
X9274454Y26616710D01*
G37*
G36*
X9666325Y26563878D02*
G01*
X9655657Y26563320D01*
X9650425Y26562558D01*
X9645243Y26561491D01*
X9640163Y26560170D01*
X9635185Y26558544D01*
X9630308Y26556614D01*
X9625584Y26554430D01*
X9620961Y26551991D01*
X9616440Y26549248D01*
X9612122Y26546200D01*
X9607956Y26542898D01*
X9603943Y26539342D01*
X9600133Y26535532D01*
X9596475Y26531417D01*
X9593072Y26527099D01*
X9589871Y26522476D01*
X9586874Y26517600D01*
X9584080Y26512520D01*
X9581591Y26507135D01*
X9579356Y26501547D01*
X9577374Y26495705D01*
X9575647Y26489609D01*
X9574225Y26483310D01*
X9573107Y26476706D01*
X9572294Y26469949D01*
X9571786Y26462939D01*
X9571634Y26455674D01*
X9603638Y26455674D01*
X9603790Y26462888D01*
X9604400Y26469848D01*
X9605314Y26476553D01*
X9606584Y26482954D01*
X9608261Y26489101D01*
X9610191Y26494943D01*
X9612477Y26500429D01*
X9615068Y26505662D01*
X9617964Y26510488D01*
X9621164Y26515009D01*
X9624618Y26519124D01*
X9628378Y26522883D01*
X9632340Y26526286D01*
X9636556Y26529233D01*
X9641027Y26531773D01*
X9645700Y26533906D01*
X9650577Y26535532D01*
X9655657Y26536751D01*
X9660890Y26537513D01*
X9666325Y26537716D01*
X9671812Y26537513D01*
X9677095Y26536751D01*
X9682226Y26535532D01*
X9687102Y26533906D01*
X9691776Y26531773D01*
X9696196Y26529233D01*
X9700412Y26526286D01*
X9704374Y26522883D01*
X9708083Y26519124D01*
X9711486Y26515009D01*
X9714636Y26510488D01*
X9717532Y26505662D01*
X9720072Y26500429D01*
X9722358Y26494943D01*
X9724288Y26489101D01*
X9725914Y26482954D01*
X9727184Y26476553D01*
X9728098Y26469848D01*
X9728657Y26462888D01*
X9728809Y26455674D01*
X9728657Y26448410D01*
X9728098Y26441450D01*
X9727184Y26434694D01*
X9725914Y26428242D01*
X9724288Y26422096D01*
X9722358Y26416253D01*
X9720072Y26410716D01*
X9717532Y26405535D01*
X9714636Y26400709D01*
X9711486Y26396188D01*
X9708083Y26392073D01*
X9704374Y26388364D01*
X9700412Y26385012D01*
X9696196Y26382065D01*
X9691776Y26379525D01*
X9687102Y26377442D01*
X9682226Y26375817D01*
X9677095Y26374598D01*
X9671812Y26373886D01*
X9666325Y26373632D01*
X9660890Y26373886D01*
X9655657Y26374598D01*
X9650577Y26375817D01*
X9645700Y26377442D01*
X9641027Y26379525D01*
X9636556Y26382065D01*
X9632340Y26385012D01*
X9628378Y26388364D01*
X9624618Y26392073D01*
X9621164Y26396188D01*
X9617964Y26400709D01*
X9615068Y26405535D01*
X9612477Y26410716D01*
X9610191Y26416253D01*
X9608261Y26422096D01*
X9606584Y26428242D01*
X9605314Y26434694D01*
X9604400Y26441450D01*
X9603790Y26448410D01*
X9603638Y26455674D01*
X9571634Y26455674D01*
X9571786Y26448512D01*
X9572294Y26441501D01*
X9573107Y26434745D01*
X9574225Y26428192D01*
X9575647Y26421892D01*
X9577374Y26415847D01*
X9579356Y26410005D01*
X9581591Y26404417D01*
X9584080Y26399083D01*
X9586874Y26393952D01*
X9589871Y26389126D01*
X9593072Y26384503D01*
X9596475Y26380186D01*
X9603943Y26372261D01*
X9607956Y26368705D01*
X9616440Y26362406D01*
X9620961Y26359662D01*
X9625584Y26357173D01*
X9630308Y26354989D01*
X9635185Y26353109D01*
X9640163Y26351484D01*
X9645243Y26350163D01*
X9650425Y26349096D01*
X9655657Y26348334D01*
X9660991Y26347877D01*
X9666325Y26347724D01*
X9671710Y26347877D01*
X9677044Y26348334D01*
X9682276Y26349096D01*
X9687407Y26350163D01*
X9692487Y26351484D01*
X9697466Y26353109D01*
X9702342Y26354989D01*
X9707067Y26357173D01*
X9711690Y26359662D01*
X9716160Y26362406D01*
X9724644Y26368705D01*
X9728657Y26372261D01*
X9732467Y26376122D01*
X9736074Y26380186D01*
X9739477Y26384503D01*
X9742678Y26389126D01*
X9745675Y26393952D01*
X9748418Y26399083D01*
X9750907Y26404417D01*
X9753142Y26410005D01*
X9755124Y26415847D01*
X9756851Y26421892D01*
X9758222Y26428192D01*
X9759340Y26434745D01*
X9760153Y26441501D01*
X9760661Y26448512D01*
X9760813Y26455674D01*
X9760661Y26462939D01*
X9760153Y26469949D01*
X9759340Y26476706D01*
X9758222Y26483310D01*
X9756851Y26489609D01*
X9755124Y26495705D01*
X9753142Y26501547D01*
X9750907Y26507135D01*
X9748418Y26512520D01*
X9745675Y26517600D01*
X9742678Y26522476D01*
X9739477Y26527099D01*
X9736074Y26531417D01*
X9732467Y26535532D01*
X9728657Y26539342D01*
X9724644Y26542898D01*
X9720478Y26546200D01*
X9716160Y26549248D01*
X9711690Y26551991D01*
X9707067Y26554430D01*
X9702342Y26556614D01*
X9697466Y26558544D01*
X9692487Y26560170D01*
X9687407Y26561491D01*
X9682276Y26562558D01*
X9677044Y26563320D01*
X9671710Y26563726D01*
G37*
G36*
X9416897Y26563878D02*
G01*
X9410598Y26563675D01*
X9404654Y26563065D01*
X9399066Y26562050D01*
X9393783Y26560576D01*
X9388856Y26558748D01*
X9384284Y26556512D01*
X9380016Y26553820D01*
X9376105Y26550772D01*
X9372498Y26547318D01*
X9369247Y26543457D01*
X9366300Y26539189D01*
X9363659Y26534567D01*
X9361373Y26529487D01*
X9359392Y26524051D01*
X9357715Y26518260D01*
X9356344Y26512062D01*
X9355277Y26505458D01*
X9354515Y26498499D01*
X9354058Y26491133D01*
X9353956Y26352804D01*
X9385147Y26352804D01*
X9385147Y26479550D01*
X9385300Y26486764D01*
X9385757Y26493419D01*
X9386468Y26499565D01*
X9387535Y26505204D01*
X9388856Y26510386D01*
X9390532Y26515060D01*
X9392513Y26519276D01*
X9394850Y26522984D01*
X9397492Y26526286D01*
X9400540Y26529080D01*
X9403842Y26531468D01*
X9407550Y26533348D01*
X9411614Y26534821D01*
X9416084Y26535888D01*
X9420860Y26536497D01*
X9426041Y26536700D01*
X9431324Y26536497D01*
X9436404Y26535786D01*
X9441332Y26534618D01*
X9446158Y26532992D01*
X9450832Y26530909D01*
X9455505Y26528369D01*
X9460179Y26525372D01*
X9464852Y26521918D01*
X9474504Y26513586D01*
X9484715Y26503426D01*
X9484715Y26352804D01*
X9515500Y26352804D01*
X9515500Y26558544D01*
X9490354Y26558544D01*
X9487306Y26528318D01*
X9486290Y26528318D01*
X9476232Y26537767D01*
X9471050Y26542136D01*
X9465767Y26546251D01*
X9460331Y26550061D01*
X9454743Y26553464D01*
X9449003Y26556462D01*
X9443008Y26559052D01*
X9436862Y26561084D01*
X9430461Y26562608D01*
X9423806Y26563574D01*
G37*
G36*
X8891879Y26563878D02*
G01*
X8885732Y26563675D01*
X8879687Y26563065D01*
X8873794Y26562100D01*
X8868105Y26560780D01*
X8862517Y26559154D01*
X8857132Y26557224D01*
X8851950Y26555039D01*
X8846972Y26552601D01*
X8842197Y26549959D01*
X8837676Y26547165D01*
X8833408Y26544168D01*
X8829395Y26541018D01*
X8844686Y26520698D01*
X8849918Y26524508D01*
X8855303Y26528014D01*
X8860790Y26531163D01*
X8866479Y26533906D01*
X8872372Y26536142D01*
X8878570Y26537818D01*
X8885072Y26538885D01*
X8891879Y26539240D01*
X8901480Y26538580D01*
X8909710Y26536700D01*
X8916568Y26533754D01*
X8922156Y26529842D01*
X8926423Y26525169D01*
X8929420Y26519886D01*
X8931198Y26514094D01*
X8931808Y26507998D01*
X8931351Y26503122D01*
X8930081Y26498702D01*
X8928100Y26494739D01*
X8925356Y26491133D01*
X8922054Y26487882D01*
X8918143Y26484884D01*
X8913774Y26482192D01*
X8908999Y26479703D01*
X8898382Y26475182D01*
X8886850Y26470914D01*
X8875471Y26466393D01*
X8864244Y26461618D01*
X8858808Y26458976D01*
X8853576Y26456132D01*
X8848547Y26453084D01*
X8843822Y26449782D01*
X8839454Y26446124D01*
X8835491Y26442111D01*
X8832037Y26437691D01*
X8829040Y26432814D01*
X8826601Y26427480D01*
X8824823Y26421638D01*
X8823706Y26415238D01*
X8823350Y26408176D01*
X8823502Y26403350D01*
X8824112Y26398524D01*
X8825077Y26393851D01*
X8826398Y26389330D01*
X8828125Y26384910D01*
X8830208Y26380694D01*
X8832646Y26376630D01*
X8835491Y26372769D01*
X8838692Y26369111D01*
X8842197Y26365708D01*
X8846108Y26362507D01*
X8850376Y26359612D01*
X8854998Y26356970D01*
X8859926Y26354633D01*
X8865209Y26352601D01*
X8870848Y26350874D01*
X8876842Y26349553D01*
X8883142Y26348537D01*
X8889746Y26347927D01*
X8896756Y26347724D01*
X8904071Y26347978D01*
X8911285Y26348740D01*
X8918397Y26349909D01*
X8925356Y26351484D01*
X8932164Y26353515D01*
X8938818Y26355852D01*
X8945219Y26358545D01*
X8951417Y26361542D01*
X8957360Y26364793D01*
X8962999Y26368298D01*
X8968384Y26372007D01*
X8973413Y26375918D01*
X8957665Y26397000D01*
X8948724Y26390142D01*
X8939479Y26384148D01*
X8934704Y26381506D01*
X8929725Y26379170D01*
X8924645Y26377087D01*
X8919362Y26375360D01*
X8913825Y26373988D01*
X8908084Y26372972D01*
X8902039Y26372362D01*
X8895740Y26372108D01*
X8888831Y26372464D01*
X8882583Y26373327D01*
X8876944Y26374801D01*
X8871915Y26376782D01*
X8867444Y26379220D01*
X8863634Y26382116D01*
X8860383Y26385418D01*
X8857742Y26389076D01*
X8855659Y26393038D01*
X8854186Y26397254D01*
X8853322Y26401725D01*
X8853068Y26406398D01*
X8853525Y26411732D01*
X8854998Y26416609D01*
X8857234Y26420978D01*
X8860282Y26424940D01*
X8863990Y26428598D01*
X8868308Y26431849D01*
X8873032Y26434846D01*
X8878214Y26437589D01*
X8889390Y26442466D01*
X8912047Y26451001D01*
X8922918Y26455674D01*
X8928150Y26458265D01*
X8933180Y26461059D01*
X8937955Y26464107D01*
X8942476Y26467409D01*
X8946642Y26471016D01*
X8950401Y26474927D01*
X8953754Y26479144D01*
X8956598Y26483767D01*
X8958884Y26488796D01*
X8960612Y26494232D01*
X8961628Y26500124D01*
X8962034Y26506474D01*
X8961729Y26512367D01*
X8960815Y26518057D01*
X8959342Y26523594D01*
X8957310Y26528877D01*
X8954719Y26533856D01*
X8951569Y26538631D01*
X8947861Y26543050D01*
X8943644Y26547114D01*
X8938869Y26550823D01*
X8933637Y26554125D01*
X8927846Y26556970D01*
X8921597Y26559408D01*
X8914892Y26561338D01*
X8907678Y26562761D01*
X8900007Y26563624D01*
G37*
G36*
X8990431Y26558544D02*
G01*
X9071051Y26327912D01*
X9075674Y26316686D01*
X9078163Y26311301D01*
X9083649Y26301090D01*
X9089796Y26291844D01*
X9093098Y26287577D01*
X9096654Y26283564D01*
X9100362Y26279906D01*
X9104274Y26276503D01*
X9108440Y26273455D01*
X9112758Y26270762D01*
X9117380Y26268426D01*
X9122206Y26266495D01*
X9127286Y26264971D01*
X9132620Y26263853D01*
X9138259Y26263142D01*
X9144152Y26262888D01*
X9150756Y26263193D01*
X9156903Y26264006D01*
X9162542Y26265276D01*
X9167774Y26266952D01*
X9161170Y26292098D01*
X9157766Y26290981D01*
X9153804Y26290015D01*
X9149537Y26289355D01*
X9145168Y26289050D01*
X9139428Y26289508D01*
X9134043Y26290676D01*
X9128963Y26292606D01*
X9124238Y26295248D01*
X9119819Y26298550D01*
X9115704Y26302411D01*
X9111894Y26306830D01*
X9108389Y26311758D01*
X9105188Y26317143D01*
X9102242Y26322934D01*
X9099550Y26329081D01*
X9097111Y26335532D01*
X9092590Y26351534D01*
X9175597Y26558544D01*
X9143390Y26558544D01*
X9099397Y26440942D01*
X9078874Y26382776D01*
X9077045Y26382776D01*
X9059570Y26440942D01*
X9020911Y26558544D01*
G37*
G36*
X8554364Y26311301D02*
G01*
X8554364Y26226922D01*
X8555888Y26189381D01*
X8545880Y26197204D01*
X8540699Y26200862D01*
X8529878Y26207466D01*
X8524341Y26210310D01*
X8518702Y26212850D01*
X8512962Y26214984D01*
X8507171Y26216711D01*
X8501329Y26217981D01*
X8495487Y26218794D01*
X8489594Y26219048D01*
X8483904Y26218896D01*
X8478469Y26218438D01*
X8473186Y26217676D01*
X8468156Y26216610D01*
X8463280Y26215238D01*
X8458606Y26213562D01*
X8454085Y26211631D01*
X8449818Y26209396D01*
X8445754Y26206907D01*
X8441842Y26204113D01*
X8438184Y26201065D01*
X8434679Y26197763D01*
X8428329Y26190448D01*
X8425434Y26186384D01*
X8422792Y26182116D01*
X8418068Y26172871D01*
X8414207Y26162762D01*
X8412581Y26157377D01*
X8409990Y26145947D01*
X8408263Y26133806D01*
X8407704Y26127456D01*
X8407303Y26113943D01*
X8439810Y26113943D01*
X8439912Y26120801D01*
X8440267Y26127405D01*
X8440877Y26133806D01*
X8441791Y26140003D01*
X8442909Y26145845D01*
X8444382Y26151484D01*
X8446058Y26156818D01*
X8448040Y26161796D01*
X8450326Y26166470D01*
X8452916Y26170839D01*
X8455812Y26174852D01*
X8459063Y26178510D01*
X8462568Y26181761D01*
X8466429Y26184656D01*
X8470646Y26187095D01*
X8475218Y26189177D01*
X8480094Y26190803D01*
X8485327Y26191972D01*
X8490966Y26192683D01*
X8496960Y26192937D01*
X8501430Y26192683D01*
X8505952Y26192073D01*
X8510524Y26191006D01*
X8515146Y26189482D01*
X8519820Y26187603D01*
X8524595Y26185266D01*
X8529421Y26182574D01*
X8534247Y26179475D01*
X8544204Y26172109D01*
X8554364Y26163219D01*
X8554364Y26051713D01*
X8547201Y26045972D01*
X8540089Y26041248D01*
X8533079Y26037336D01*
X8526221Y26034339D01*
X8519617Y26032053D01*
X8513318Y26030529D01*
X8507323Y26029615D01*
X8501786Y26029361D01*
X8496452Y26029564D01*
X8491321Y26030275D01*
X8486343Y26031494D01*
X8481568Y26033120D01*
X8476996Y26035203D01*
X8472576Y26037692D01*
X8468410Y26040689D01*
X8464499Y26044042D01*
X8460790Y26047801D01*
X8457336Y26052018D01*
X8454186Y26056589D01*
X8451291Y26061517D01*
X8448700Y26066851D01*
X8446414Y26072592D01*
X8444433Y26078637D01*
X8442807Y26085038D01*
X8441486Y26091743D01*
X8440572Y26098855D01*
X8439962Y26106221D01*
X8439810Y26113943D01*
X8407303Y26113943D01*
X8407450Y26106729D01*
X8407908Y26099566D01*
X8408670Y26092607D01*
X8411108Y26079348D01*
X8412734Y26073100D01*
X8414664Y26067105D01*
X8416798Y26061365D01*
X8419185Y26055827D01*
X8421827Y26050595D01*
X8424672Y26045566D01*
X8427720Y26040842D01*
X8430971Y26036371D01*
X8434425Y26032155D01*
X8441842Y26024535D01*
X8449970Y26018032D01*
X8454186Y26015238D01*
X8458606Y26012648D01*
X8463127Y26010412D01*
X8467750Y26008431D01*
X8472424Y26006755D01*
X8477250Y26005383D01*
X8482126Y26004316D01*
X8487105Y26003554D01*
X8492134Y26003097D01*
X8497214Y26002945D01*
X8502040Y26003148D01*
X8506917Y26003758D01*
X8511946Y26004774D01*
X8517026Y26006145D01*
X8522106Y26007923D01*
X8527186Y26010057D01*
X8532266Y26012495D01*
X8537346Y26015238D01*
X8542324Y26018337D01*
X8547201Y26021741D01*
X8551976Y26025398D01*
X8556650Y26029361D01*
X8557412Y26029361D01*
X8560968Y26007974D01*
X8585352Y26007974D01*
X8585352Y26311301D01*
G37*
G36*
X9859670Y26291997D02*
G01*
X9853422Y26291794D01*
X9847326Y26291336D01*
X9841331Y26290524D01*
X9835489Y26289406D01*
X9829800Y26288034D01*
X9824212Y26286409D01*
X9813594Y26282345D01*
X9808514Y26279906D01*
X9798913Y26274420D01*
X9794392Y26271423D01*
X9785959Y26264768D01*
X9778390Y26257453D01*
X9795154Y26237387D01*
X9799523Y26241349D01*
X9804044Y26245058D01*
X9808768Y26248512D01*
X9813594Y26251611D01*
X9818624Y26254405D01*
X9823856Y26256894D01*
X9829292Y26259027D01*
X9834930Y26260806D01*
X9840722Y26262177D01*
X9846818Y26263193D01*
X9853117Y26263803D01*
X9859670Y26264006D01*
X9867493Y26263701D01*
X9874859Y26262685D01*
X9881717Y26261060D01*
X9888016Y26258774D01*
X9893706Y26255929D01*
X9898786Y26252525D01*
X9903206Y26248563D01*
X9906914Y26244042D01*
X9909810Y26239063D01*
X9911994Y26233627D01*
X9913315Y26227684D01*
X9913772Y26221385D01*
X9913264Y26214628D01*
X9911791Y26208532D01*
X9909505Y26203097D01*
X9906457Y26198220D01*
X9902748Y26193851D01*
X9898532Y26189939D01*
X9893808Y26186434D01*
X9888778Y26183285D01*
X9883546Y26180389D01*
X9872675Y26175208D01*
X9826904Y26155853D01*
X9815220Y26150214D01*
X9809632Y26147217D01*
X9799269Y26140562D01*
X9794494Y26136854D01*
X9790023Y26132942D01*
X9785908Y26128675D01*
X9782200Y26124103D01*
X9778847Y26119226D01*
X9775952Y26113943D01*
X9773513Y26108304D01*
X9771583Y26102208D01*
X9770160Y26095655D01*
X9769246Y26088644D01*
X9768992Y26081177D01*
X9769144Y26075741D01*
X9769703Y26070458D01*
X9770618Y26065226D01*
X9771888Y26060196D01*
X9773513Y26055269D01*
X9775494Y26050493D01*
X9777831Y26045871D01*
X9780473Y26041451D01*
X9783419Y26037184D01*
X9786721Y26033120D01*
X9790328Y26029310D01*
X9794189Y26025652D01*
X9798405Y26022249D01*
X9802926Y26019048D01*
X9807702Y26016153D01*
X9812782Y26013511D01*
X9818116Y26011124D01*
X9823704Y26008990D01*
X9829596Y26007212D01*
X9835743Y26005688D01*
X9842093Y26004469D01*
X9848748Y26003605D01*
X9855606Y26003097D01*
X9862718Y26002945D01*
X9870033Y26003097D01*
X9877247Y26003656D01*
X9884257Y26004570D01*
X9891166Y26005840D01*
X9897821Y26007415D01*
X9904374Y26009346D01*
X9910724Y26011581D01*
X9916871Y26014121D01*
X9922865Y26016966D01*
X9928707Y26020115D01*
X9939731Y26027227D01*
X9944963Y26031189D01*
X9949992Y26035406D01*
X9954818Y26039876D01*
X9959492Y26044601D01*
X9940442Y26066445D01*
X9932466Y26058622D01*
X9928199Y26055015D01*
X9919258Y26048512D01*
X9914585Y26045566D01*
X9909759Y26042874D01*
X9904831Y26040435D01*
X9899802Y26038251D01*
X9889388Y26034695D01*
X9884105Y26033323D01*
X9878720Y26032256D01*
X9873234Y26031494D01*
X9867747Y26031037D01*
X9862210Y26030885D01*
X9855200Y26031088D01*
X9848596Y26031748D01*
X9842398Y26032815D01*
X9836556Y26034339D01*
X9831120Y26036219D01*
X9826091Y26038505D01*
X9821468Y26041096D01*
X9817303Y26044093D01*
X9813544Y26047395D01*
X9810292Y26051052D01*
X9807498Y26055015D01*
X9805162Y26059231D01*
X9803384Y26063752D01*
X9802063Y26068578D01*
X9801250Y26073608D01*
X9800996Y26078840D01*
X9801402Y26085952D01*
X9802622Y26092251D01*
X9804654Y26097890D01*
X9807346Y26102919D01*
X9810750Y26107389D01*
X9814712Y26111403D01*
X9819284Y26115060D01*
X9824313Y26118413D01*
X9829800Y26121563D01*
X9841941Y26127456D01*
X9888880Y26148182D01*
X9898735Y26152703D01*
X9908692Y26158139D01*
X9913518Y26161238D01*
X9918242Y26164641D01*
X9922764Y26168350D01*
X9927031Y26172414D01*
X9930993Y26176782D01*
X9934600Y26181558D01*
X9937800Y26186739D01*
X9940493Y26192276D01*
X9942728Y26198271D01*
X9944354Y26204722D01*
X9945420Y26211682D01*
X9945776Y26219048D01*
X9945471Y26225296D01*
X9944658Y26231342D01*
X9943388Y26237234D01*
X9941560Y26242822D01*
X9939274Y26248258D01*
X9936530Y26253389D01*
X9933330Y26258316D01*
X9929723Y26262939D01*
X9925710Y26267308D01*
X9921290Y26271321D01*
X9916515Y26275080D01*
X9911334Y26278433D01*
X9905898Y26281481D01*
X9900107Y26284174D01*
X9894011Y26286510D01*
X9887610Y26288441D01*
X9881006Y26289965D01*
X9874097Y26291082D01*
X9866985Y26291743D01*
G37*
G36*
X7852562Y26291997D02*
G01*
X7846466Y26291794D01*
X7840573Y26291286D01*
X7834884Y26290473D01*
X7829397Y26289355D01*
X7824165Y26287933D01*
X7819136Y26286155D01*
X7814360Y26284123D01*
X7809788Y26281786D01*
X7805470Y26279144D01*
X7801356Y26276249D01*
X7797546Y26273099D01*
X7793939Y26269696D01*
X7790637Y26265987D01*
X7787589Y26262076D01*
X7784795Y26257910D01*
X7782255Y26253490D01*
X7780020Y26248817D01*
X7778089Y26243991D01*
X7776413Y26238860D01*
X7775041Y26233577D01*
X7773924Y26228090D01*
X7773162Y26222401D01*
X7772704Y26216508D01*
X7772653Y26205738D01*
X7773416Y26196239D01*
X7775041Y26186790D01*
X7777378Y26177290D01*
X7780528Y26167740D01*
X7784338Y26158139D01*
X7788859Y26148487D01*
X7794091Y26138835D01*
X7799984Y26129081D01*
X7806537Y26119277D01*
X7813649Y26109371D01*
X7821422Y26099414D01*
X7829753Y26089356D01*
X7838643Y26079246D01*
X7848092Y26069036D01*
X7858048Y26058672D01*
X7868462Y26048258D01*
X7885074Y26032358D01*
X7873542Y26033374D01*
X7850276Y26034542D01*
X7839354Y26034695D01*
X7759344Y26034695D01*
X7759344Y26007974D01*
X7931810Y26007974D01*
X7931810Y26026821D01*
X7917383Y26039572D01*
X7903870Y26051916D01*
X7891272Y26063905D01*
X7879588Y26075589D01*
X7868767Y26086866D01*
X7858759Y26097839D01*
X7849666Y26108507D01*
X7841386Y26118870D01*
X7833969Y26128929D01*
X7827365Y26138733D01*
X7821574Y26148284D01*
X7816596Y26157580D01*
X7812379Y26166673D01*
X7808975Y26175563D01*
X7806385Y26184199D01*
X7804505Y26192683D01*
X7803388Y26201014D01*
X7803032Y26209193D01*
X7803184Y26215187D01*
X7803794Y26221029D01*
X7804810Y26226617D01*
X7806181Y26231951D01*
X7808010Y26236980D01*
X7810246Y26241705D01*
X7812887Y26246124D01*
X7815935Y26250138D01*
X7819440Y26253795D01*
X7823352Y26257046D01*
X7827670Y26259840D01*
X7832496Y26262228D01*
X7837728Y26264057D01*
X7843367Y26265428D01*
X7849514Y26266292D01*
X7856118Y26266597D01*
X7861808Y26266292D01*
X7867396Y26265428D01*
X7872882Y26264006D01*
X7878216Y26262126D01*
X7883448Y26259789D01*
X7888478Y26256996D01*
X7893405Y26253846D01*
X7898130Y26250341D01*
X7902752Y26246531D01*
X7911439Y26238098D01*
X7915554Y26233577D01*
X7933842Y26251103D01*
X7925257Y26259840D01*
X7916468Y26267765D01*
X7911947Y26271372D01*
X7907324Y26274725D01*
X7902600Y26277824D01*
X7897774Y26280668D01*
X7892745Y26283208D01*
X7887614Y26285444D01*
X7882280Y26287374D01*
X7876743Y26289000D01*
X7871002Y26290270D01*
X7865109Y26291235D01*
X7858963Y26291794D01*
G37*
G36*
X7635138Y26291997D02*
G01*
X7630261Y26291844D01*
X7625537Y26291438D01*
X7620914Y26290727D01*
X7616444Y26289762D01*
X7612075Y26288542D01*
X7607858Y26287018D01*
X7603744Y26285189D01*
X7599730Y26283107D01*
X7595920Y26280770D01*
X7592212Y26278128D01*
X7588605Y26275233D01*
X7585202Y26272032D01*
X7581900Y26268527D01*
X7575803Y26260755D01*
X7570266Y26251814D01*
X7567726Y26246937D01*
X7563154Y26236269D01*
X7559243Y26224534D01*
X7555941Y26211580D01*
X7554569Y26204722D01*
X7552385Y26190092D01*
X7550861Y26174293D01*
X7550099Y26157377D01*
X7550048Y26148487D01*
X7580274Y26148487D01*
X7580375Y26158443D01*
X7581290Y26176935D01*
X7583017Y26193648D01*
X7585608Y26208532D01*
X7587183Y26215339D01*
X7588961Y26221639D01*
X7590942Y26227582D01*
X7593075Y26233069D01*
X7595412Y26238098D01*
X7597902Y26242721D01*
X7600543Y26246937D01*
X7603337Y26250696D01*
X7606334Y26254049D01*
X7609433Y26257046D01*
X7612735Y26259586D01*
X7616139Y26261720D01*
X7619695Y26263498D01*
X7623352Y26264819D01*
X7627162Y26265784D01*
X7631074Y26266394D01*
X7635138Y26266597D01*
X7639202Y26266394D01*
X7643164Y26265784D01*
X7646974Y26264819D01*
X7650683Y26263498D01*
X7654290Y26261720D01*
X7657744Y26259586D01*
X7661046Y26257046D01*
X7664196Y26254049D01*
X7667244Y26250696D01*
X7670088Y26246937D01*
X7672781Y26242721D01*
X7675321Y26238098D01*
X7677658Y26233069D01*
X7679842Y26227582D01*
X7681874Y26221639D01*
X7683652Y26215339D01*
X7685278Y26208532D01*
X7686700Y26201319D01*
X7687919Y26193648D01*
X7688935Y26185520D01*
X7690256Y26167892D01*
X7690764Y26148487D01*
X7690256Y26128675D01*
X7688935Y26110742D01*
X7687919Y26102462D01*
X7686700Y26094639D01*
X7685278Y26087273D01*
X7681874Y26073963D01*
X7679842Y26067918D01*
X7677658Y26062381D01*
X7675321Y26057250D01*
X7672781Y26052526D01*
X7670088Y26048258D01*
X7667244Y26044448D01*
X7664196Y26040994D01*
X7661046Y26037997D01*
X7657744Y26035406D01*
X7654290Y26033222D01*
X7650683Y26031443D01*
X7646974Y26030072D01*
X7643164Y26029107D01*
X7639202Y26028497D01*
X7635138Y26028345D01*
X7631074Y26028497D01*
X7627162Y26029107D01*
X7623352Y26030072D01*
X7619695Y26031443D01*
X7616139Y26033222D01*
X7612735Y26035406D01*
X7609433Y26037997D01*
X7606334Y26040994D01*
X7603337Y26044448D01*
X7600543Y26048258D01*
X7597902Y26052526D01*
X7595412Y26057250D01*
X7593075Y26062381D01*
X7590942Y26067918D01*
X7588961Y26073963D01*
X7587183Y26080415D01*
X7585608Y26087273D01*
X7583017Y26102462D01*
X7581290Y26119429D01*
X7580375Y26138327D01*
X7580274Y26148487D01*
X7550048Y26148487D01*
X7550099Y26139495D01*
X7550861Y26122376D01*
X7552385Y26106424D01*
X7554569Y26091642D01*
X7557516Y26077976D01*
X7561122Y26065480D01*
X7563154Y26059638D01*
X7567726Y26048868D01*
X7570266Y26043889D01*
X7572959Y26039216D01*
X7575803Y26034796D01*
X7578801Y26030681D01*
X7581900Y26026872D01*
X7585202Y26023316D01*
X7588605Y26020064D01*
X7592212Y26017067D01*
X7595920Y26014375D01*
X7599730Y26011987D01*
X7603744Y26009854D01*
X7607858Y26008025D01*
X7612075Y26006450D01*
X7616444Y26005180D01*
X7620914Y26004215D01*
X7625537Y26003504D01*
X7630261Y26003046D01*
X7639964Y26003046D01*
X7644739Y26003504D01*
X7649362Y26004215D01*
X7653883Y26005180D01*
X7658303Y26006450D01*
X7662519Y26008025D01*
X7666685Y26009854D01*
X7670698Y26011987D01*
X7674559Y26014375D01*
X7678267Y26017067D01*
X7681874Y26020064D01*
X7685328Y26023316D01*
X7688630Y26026872D01*
X7691780Y26030681D01*
X7694777Y26034796D01*
X7697622Y26039216D01*
X7702905Y26048868D01*
X7705293Y26054100D01*
X7709560Y26065480D01*
X7713167Y26077976D01*
X7716113Y26091642D01*
X7718348Y26106424D01*
X7719872Y26122376D01*
X7720634Y26139495D01*
X7720634Y26157377D01*
X7719872Y26174344D01*
X7718348Y26190193D01*
X7716113Y26204824D01*
X7714742Y26211733D01*
X7711440Y26224636D01*
X7709560Y26230630D01*
X7705293Y26241857D01*
X7702905Y26247039D01*
X7697622Y26256488D01*
X7694777Y26260806D01*
X7691780Y26264870D01*
X7688630Y26268629D01*
X7685328Y26272083D01*
X7681874Y26275284D01*
X7678267Y26278179D01*
X7674559Y26280821D01*
X7670698Y26283158D01*
X7666685Y26285240D01*
X7662519Y26287018D01*
X7658303Y26288542D01*
X7653883Y26289762D01*
X7649362Y26290727D01*
X7644739Y26291438D01*
X7639964Y26291844D01*
G37*
G36*
X7434224Y26291997D02*
G01*
X7428128Y26291794D01*
X7422235Y26291286D01*
X7416546Y26290473D01*
X7411059Y26289355D01*
X7405827Y26287933D01*
X7400798Y26286155D01*
X7396022Y26284123D01*
X7391450Y26281786D01*
X7387132Y26279144D01*
X7383018Y26276249D01*
X7379208Y26273099D01*
X7375601Y26269696D01*
X7372299Y26265987D01*
X7369251Y26262076D01*
X7366457Y26257910D01*
X7363917Y26253490D01*
X7361681Y26248817D01*
X7359751Y26243991D01*
X7358075Y26238860D01*
X7356703Y26233577D01*
X7355586Y26228090D01*
X7354824Y26222401D01*
X7354366Y26216508D01*
X7354316Y26205738D01*
X7355078Y26196239D01*
X7356703Y26186790D01*
X7359040Y26177290D01*
X7362190Y26167740D01*
X7366000Y26158139D01*
X7370521Y26148487D01*
X7375753Y26138835D01*
X7381646Y26129081D01*
X7388199Y26119277D01*
X7395311Y26109371D01*
X7403084Y26099414D01*
X7411415Y26089356D01*
X7420305Y26079246D01*
X7429753Y26069036D01*
X7439710Y26058672D01*
X7450124Y26048258D01*
X7466736Y26032358D01*
X7455204Y26033374D01*
X7431938Y26034542D01*
X7421016Y26034695D01*
X7341006Y26034695D01*
X7341006Y26007974D01*
X7513472Y26007974D01*
X7513472Y26026821D01*
X7499045Y26039572D01*
X7485532Y26051916D01*
X7472934Y26063905D01*
X7461250Y26075589D01*
X7450429Y26086866D01*
X7440422Y26097839D01*
X7431328Y26108507D01*
X7423048Y26118870D01*
X7415631Y26128929D01*
X7409027Y26138733D01*
X7403236Y26148284D01*
X7398258Y26157580D01*
X7394041Y26166673D01*
X7390638Y26175563D01*
X7388047Y26184199D01*
X7386167Y26192683D01*
X7385050Y26201014D01*
X7384694Y26209193D01*
X7384846Y26215187D01*
X7385456Y26221029D01*
X7386472Y26226617D01*
X7387844Y26231951D01*
X7389672Y26236980D01*
X7391908Y26241705D01*
X7394549Y26246124D01*
X7397597Y26250138D01*
X7401102Y26253795D01*
X7405014Y26257046D01*
X7409332Y26259840D01*
X7414158Y26262228D01*
X7419390Y26264057D01*
X7425029Y26265428D01*
X7431176Y26266292D01*
X7437780Y26266597D01*
X7443470Y26266292D01*
X7449058Y26265428D01*
X7454544Y26264006D01*
X7459878Y26262126D01*
X7465110Y26259789D01*
X7470140Y26256996D01*
X7475067Y26253846D01*
X7479792Y26250341D01*
X7484414Y26246531D01*
X7493101Y26238098D01*
X7497216Y26233577D01*
X7515504Y26251103D01*
X7506919Y26259840D01*
X7498130Y26267765D01*
X7493609Y26271372D01*
X7488986Y26274725D01*
X7484262Y26277824D01*
X7479436Y26280668D01*
X7474407Y26283208D01*
X7469276Y26285444D01*
X7463942Y26287374D01*
X7458405Y26289000D01*
X7452664Y26290270D01*
X7446772Y26291235D01*
X7440625Y26291794D01*
G37*
G36*
X7222896Y26291997D02*
G01*
X7216089Y26291794D01*
X7209536Y26291235D01*
X7203186Y26290270D01*
X7197090Y26289000D01*
X7191197Y26287323D01*
X7185609Y26285291D01*
X7180275Y26282954D01*
X7175246Y26280211D01*
X7170521Y26277214D01*
X7166102Y26273810D01*
X7162038Y26270102D01*
X7158380Y26266089D01*
X7155027Y26261720D01*
X7152081Y26257097D01*
X7149592Y26252119D01*
X7147458Y26246836D01*
X7145832Y26241298D01*
X7144613Y26235456D01*
X7143851Y26229310D01*
X7143648Y26222858D01*
X7143851Y26216508D01*
X7144562Y26210412D01*
X7145680Y26204621D01*
X7147204Y26199084D01*
X7149185Y26193902D01*
X7151522Y26188924D01*
X7154265Y26184301D01*
X7157364Y26179932D01*
X7160818Y26175817D01*
X7164578Y26172058D01*
X7168692Y26168502D01*
X7173112Y26165251D01*
X7177786Y26162304D01*
X7182764Y26159612D01*
X7187946Y26157224D01*
X7193432Y26155040D01*
X7193432Y26153516D01*
X7187336Y26151890D01*
X7181443Y26149858D01*
X7175753Y26147420D01*
X7170318Y26144626D01*
X7165086Y26141375D01*
X7160209Y26137819D01*
X7155637Y26133856D01*
X7151420Y26129488D01*
X7147559Y26124814D01*
X7144156Y26119785D01*
X7141159Y26114400D01*
X7138670Y26108660D01*
X7136638Y26102564D01*
X7135164Y26096163D01*
X7134301Y26089457D01*
X7133996Y26082447D01*
X7134199Y26076300D01*
X7134758Y26070407D01*
X7135723Y26064718D01*
X7137095Y26059231D01*
X7138771Y26053999D01*
X7140803Y26049020D01*
X7143191Y26044245D01*
X7145832Y26039673D01*
X7148830Y26035406D01*
X7152131Y26031342D01*
X7155688Y26027532D01*
X7159498Y26024027D01*
X7163562Y26020725D01*
X7167880Y26017677D01*
X7172452Y26014934D01*
X7177227Y26012444D01*
X7182205Y26010260D01*
X7187336Y26008330D01*
X7192670Y26006704D01*
X7198156Y26005332D01*
X7203846Y26004316D01*
X7209637Y26003554D01*
X7215581Y26003097D01*
X7221626Y26002945D01*
X7229551Y26003148D01*
X7237120Y26003758D01*
X7244384Y26004774D01*
X7251242Y26006145D01*
X7257796Y26007872D01*
X7263993Y26009904D01*
X7269835Y26012190D01*
X7275423Y26014730D01*
X7280706Y26017524D01*
X7285685Y26020471D01*
X7290358Y26023620D01*
X7298944Y26030326D01*
X7306564Y26037387D01*
X7310018Y26041045D01*
X7294016Y26061314D01*
X7285431Y26053135D01*
X7280808Y26049173D01*
X7275880Y26045464D01*
X7270648Y26041959D01*
X7265111Y26038810D01*
X7259218Y26035965D01*
X7252919Y26033526D01*
X7246264Y26031545D01*
X7239203Y26030072D01*
X7231634Y26029158D01*
X7223658Y26028853D01*
X7217359Y26029056D01*
X7211364Y26029818D01*
X7205624Y26030986D01*
X7200138Y26032663D01*
X7195007Y26034746D01*
X7190181Y26037286D01*
X7185761Y26040232D01*
X7181646Y26043585D01*
X7177989Y26047293D01*
X7174738Y26051408D01*
X7171893Y26055929D01*
X7169556Y26060755D01*
X7167676Y26065937D01*
X7166356Y26071474D01*
X7165492Y26077316D01*
X7165238Y26083463D01*
X7165390Y26088492D01*
X7165949Y26093369D01*
X7166864Y26098093D01*
X7168184Y26102614D01*
X7169912Y26106932D01*
X7172045Y26110996D01*
X7174636Y26114908D01*
X7177684Y26118566D01*
X7181189Y26121969D01*
X7185101Y26125119D01*
X7189571Y26128014D01*
X7194499Y26130656D01*
X7199985Y26133043D01*
X7205929Y26135126D01*
X7212482Y26136904D01*
X7219543Y26138377D01*
X7227163Y26139546D01*
X7235393Y26140410D01*
X7244181Y26140918D01*
X7253630Y26141121D01*
X7253630Y26165505D01*
X7245146Y26165657D01*
X7237272Y26166165D01*
X7229906Y26167029D01*
X7223099Y26168197D01*
X7216800Y26169721D01*
X7211009Y26171499D01*
X7205675Y26173531D01*
X7200849Y26175868D01*
X7196480Y26178459D01*
X7192568Y26181304D01*
X7189063Y26184402D01*
X7186015Y26187704D01*
X7183323Y26191210D01*
X7181088Y26194918D01*
X7179208Y26198830D01*
X7177684Y26202843D01*
X7176566Y26207110D01*
X7175753Y26211479D01*
X7175296Y26215949D01*
X7175144Y26220572D01*
X7175500Y26227277D01*
X7176668Y26233526D01*
X7178548Y26239317D01*
X7181088Y26244651D01*
X7184339Y26249477D01*
X7188250Y26253795D01*
X7192822Y26257503D01*
X7197902Y26260653D01*
X7203643Y26263142D01*
X7209891Y26264971D01*
X7216648Y26266139D01*
X7223912Y26266597D01*
X7229551Y26266292D01*
X7235088Y26265530D01*
X7240524Y26264412D01*
X7245807Y26262838D01*
X7250988Y26260907D01*
X7255967Y26258621D01*
X7260844Y26256030D01*
X7265568Y26253135D01*
X7270089Y26249934D01*
X7274407Y26246480D01*
X7282586Y26238911D01*
X7299858Y26259231D01*
X7289241Y26268070D01*
X7283653Y26272134D01*
X7277862Y26275944D01*
X7271867Y26279398D01*
X7265619Y26282548D01*
X7259167Y26285291D01*
X7252462Y26287577D01*
X7245502Y26289457D01*
X7238238Y26290828D01*
X7230719Y26291692D01*
G37*
G36*
X9242958Y26271931D02*
G01*
X9242958Y26213714D01*
X9186062Y26213714D01*
X9186062Y26188111D01*
X9242958Y26188111D01*
X9242958Y26068985D01*
X9242755Y26062889D01*
X9242247Y26057250D01*
X9241332Y26052018D01*
X9239961Y26047293D01*
X9238183Y26043077D01*
X9235897Y26039318D01*
X9233154Y26036117D01*
X9229801Y26033476D01*
X9225889Y26031342D01*
X9221368Y26029818D01*
X9216237Y26028904D01*
X9210446Y26028548D01*
X9204452Y26029005D01*
X9198152Y26030224D01*
X9192006Y26032002D01*
X9186316Y26034187D01*
X9180474Y26010819D01*
X9189212Y26007872D01*
X9198508Y26005332D01*
X9207855Y26003554D01*
X9216796Y26002945D01*
X9224518Y26003250D01*
X9231630Y26004164D01*
X9238081Y26005688D01*
X9243872Y26007771D01*
X9249105Y26010463D01*
X9253778Y26013613D01*
X9257842Y26017321D01*
X9261398Y26021538D01*
X9264497Y26026160D01*
X9267037Y26031291D01*
X9269171Y26036828D01*
X9270847Y26042772D01*
X9272117Y26049122D01*
X9272981Y26055827D01*
X9273489Y26062838D01*
X9273692Y26070255D01*
X9273692Y26188111D01*
X9304934Y26188111D01*
X9304934Y26211987D01*
X9272676Y26213714D01*
X9268612Y26271931D01*
G37*
G36*
X9640214Y26219048D02*
G01*
X9633864Y26218896D01*
X9627768Y26218337D01*
X9621875Y26217372D01*
X9616287Y26216051D01*
X9610902Y26214425D01*
X9605721Y26212393D01*
X9600844Y26210006D01*
X9596221Y26207313D01*
X9591802Y26204265D01*
X9587687Y26200912D01*
X9583826Y26197204D01*
X9580219Y26193191D01*
X9576866Y26188873D01*
X9573818Y26184250D01*
X9571024Y26179322D01*
X9568535Y26174090D01*
X9566300Y26168604D01*
X9564370Y26162812D01*
X9562693Y26156767D01*
X9561372Y26150417D01*
X9560306Y26143813D01*
X9559544Y26137006D01*
X9559024Y26126897D01*
X9586366Y26126897D01*
X9586569Y26134872D01*
X9587280Y26142391D01*
X9588398Y26149401D01*
X9589973Y26155904D01*
X9591954Y26161898D01*
X9594392Y26167384D01*
X9597186Y26172414D01*
X9600438Y26176884D01*
X9604044Y26180846D01*
X9608058Y26184301D01*
X9612477Y26187247D01*
X9617202Y26189635D01*
X9622332Y26191514D01*
X9627768Y26192835D01*
X9633559Y26193648D01*
X9639706Y26193953D01*
X9645345Y26193648D01*
X9650933Y26192784D01*
X9656368Y26191362D01*
X9661601Y26189381D01*
X9666681Y26186892D01*
X9671558Y26183843D01*
X9676130Y26180288D01*
X9680448Y26176224D01*
X9684461Y26171652D01*
X9688118Y26166622D01*
X9691420Y26161085D01*
X9694316Y26155142D01*
X9696805Y26148741D01*
X9698837Y26141883D01*
X9700361Y26134568D01*
X9701428Y26126897D01*
X9559024Y26126897D01*
X9558985Y26117448D01*
X9559747Y26107999D01*
X9560458Y26104037D01*
X9701174Y26104037D01*
X9700666Y26097280D01*
X9699802Y26090778D01*
X9698583Y26084530D01*
X9696958Y26078535D01*
X9695027Y26072795D01*
X9692792Y26067410D01*
X9690201Y26062279D01*
X9687255Y26057453D01*
X9684054Y26052932D01*
X9680498Y26048766D01*
X9676688Y26044956D01*
X9672574Y26041451D01*
X9668205Y26038352D01*
X9663531Y26035609D01*
X9658654Y26033272D01*
X9653473Y26031342D01*
X9648088Y26029818D01*
X9642449Y26028700D01*
X9636607Y26028040D01*
X9630562Y26027837D01*
X9623145Y26028091D01*
X9616084Y26028954D01*
X9609277Y26030377D01*
X9602673Y26032307D01*
X9596374Y26034695D01*
X9590227Y26037539D01*
X9584283Y26040842D01*
X9578492Y26044601D01*
X9567062Y26024027D01*
X9576206Y26018489D01*
X9586061Y26013460D01*
X9596678Y26009193D01*
X9602317Y26007364D01*
X9608210Y26005840D01*
X9614357Y26004621D01*
X9620707Y26003707D01*
X9627412Y26003097D01*
X9634372Y26002945D01*
X9640112Y26003097D01*
X9645751Y26003554D01*
X9651339Y26004266D01*
X9656775Y26005332D01*
X9662109Y26006704D01*
X9667341Y26008330D01*
X9672421Y26010260D01*
X9677349Y26012444D01*
X9682124Y26014934D01*
X9686747Y26017727D01*
X9691166Y26020725D01*
X9699548Y26027634D01*
X9703409Y26031443D01*
X9707067Y26035558D01*
X9710521Y26039927D01*
X9713772Y26044499D01*
X9716770Y26049376D01*
X9719513Y26054456D01*
X9722002Y26059790D01*
X9724237Y26065378D01*
X9726218Y26071220D01*
X9727895Y26077265D01*
X9729317Y26083514D01*
X9730435Y26090016D01*
X9731248Y26096772D01*
X9731705Y26103732D01*
X9731908Y26110895D01*
X9731705Y26117905D01*
X9731248Y26124814D01*
X9730384Y26131469D01*
X9729266Y26137920D01*
X9727895Y26144118D01*
X9726168Y26150163D01*
X9724186Y26155954D01*
X9721951Y26161542D01*
X9719513Y26166876D01*
X9716770Y26172007D01*
X9713823Y26176884D01*
X9710674Y26181507D01*
X9707321Y26185876D01*
X9703765Y26190041D01*
X9700006Y26193902D01*
X9696094Y26197509D01*
X9692030Y26200862D01*
X9687864Y26203960D01*
X9683496Y26206754D01*
X9679025Y26209294D01*
X9674453Y26211580D01*
X9669780Y26213511D01*
X9665004Y26215187D01*
X9660128Y26216610D01*
X9655251Y26217676D01*
X9650272Y26218438D01*
X9645243Y26218896D01*
G37*
G36*
X9411360Y26219048D02*
G01*
X9405670Y26218896D01*
X9400184Y26218438D01*
X9394901Y26217676D01*
X9389821Y26216610D01*
X9384893Y26215238D01*
X9380220Y26213562D01*
X9375749Y26211631D01*
X9371431Y26209396D01*
X9367316Y26206907D01*
X9363405Y26204113D01*
X9359747Y26201065D01*
X9356242Y26197763D01*
X9352940Y26194207D01*
X9349892Y26190448D01*
X9346996Y26186384D01*
X9344304Y26182116D01*
X9341866Y26177595D01*
X9337548Y26167892D01*
X9335719Y26162762D01*
X9334093Y26157377D01*
X9331502Y26145947D01*
X9329775Y26133806D01*
X9329216Y26127456D01*
X9328815Y26113943D01*
X9361322Y26113943D01*
X9361424Y26120801D01*
X9361779Y26127405D01*
X9362389Y26133806D01*
X9363303Y26140003D01*
X9364421Y26145845D01*
X9365894Y26151484D01*
X9367570Y26156818D01*
X9369552Y26161796D01*
X9371838Y26166470D01*
X9374428Y26170839D01*
X9377324Y26174852D01*
X9380575Y26178510D01*
X9384080Y26181761D01*
X9387941Y26184656D01*
X9392158Y26187095D01*
X9396730Y26189177D01*
X9401606Y26190803D01*
X9406839Y26191972D01*
X9412478Y26192683D01*
X9418472Y26192937D01*
X9422993Y26192683D01*
X9427514Y26192073D01*
X9432086Y26191006D01*
X9436709Y26189482D01*
X9441383Y26187603D01*
X9446107Y26185266D01*
X9450882Y26182574D01*
X9455708Y26179475D01*
X9460636Y26175970D01*
X9470694Y26167842D01*
X9475876Y26163219D01*
X9475876Y26051713D01*
X9468662Y26045972D01*
X9461500Y26041248D01*
X9454489Y26037336D01*
X9447682Y26034339D01*
X9441078Y26032053D01*
X9434779Y26030529D01*
X9428835Y26029615D01*
X9423298Y26029361D01*
X9417964Y26029564D01*
X9412833Y26030275D01*
X9407855Y26031494D01*
X9403080Y26033120D01*
X9398508Y26035203D01*
X9394088Y26037692D01*
X9389922Y26040689D01*
X9386011Y26044042D01*
X9382302Y26047801D01*
X9378848Y26052018D01*
X9375698Y26056589D01*
X9372803Y26061517D01*
X9370212Y26066851D01*
X9367926Y26072592D01*
X9365945Y26078637D01*
X9364319Y26085038D01*
X9362998Y26091743D01*
X9362084Y26098855D01*
X9361474Y26106221D01*
X9361322Y26113943D01*
X9328815Y26113943D01*
X9328962Y26106729D01*
X9329420Y26099566D01*
X9330182Y26092607D01*
X9332620Y26079348D01*
X9334246Y26073100D01*
X9336176Y26067105D01*
X9338310Y26061365D01*
X9340697Y26055827D01*
X9343339Y26050595D01*
X9346184Y26045566D01*
X9349232Y26040842D01*
X9352483Y26036371D01*
X9355937Y26032155D01*
X9363354Y26024535D01*
X9371482Y26018032D01*
X9375698Y26015238D01*
X9380118Y26012648D01*
X9384639Y26010412D01*
X9389262Y26008431D01*
X9393936Y26006755D01*
X9398762Y26005383D01*
X9403638Y26004316D01*
X9408617Y26003554D01*
X9413646Y26003097D01*
X9418726Y26002945D01*
X9423501Y26003097D01*
X9428276Y26003656D01*
X9433102Y26004570D01*
X9437928Y26005790D01*
X9442754Y26007364D01*
X9452457Y26011479D01*
X9457334Y26014019D01*
X9467088Y26019963D01*
X9476892Y26027024D01*
X9475876Y25990753D01*
X9475876Y25919582D01*
X9506864Y25919582D01*
X9506864Y26213714D01*
X9481718Y26213714D01*
X9478670Y26189889D01*
X9477400Y26189889D01*
X9467545Y26197306D01*
X9457080Y26204214D01*
X9451695Y26207313D01*
X9446158Y26210158D01*
X9440570Y26212698D01*
X9434830Y26214882D01*
X9429038Y26216660D01*
X9423196Y26217981D01*
X9417304Y26218794D01*
G37*
G36*
X9068714Y26219048D02*
G01*
X9062415Y26218896D01*
X9056319Y26218337D01*
X9050477Y26217372D01*
X9044889Y26216051D01*
X9039504Y26214425D01*
X9034373Y26212393D01*
X9029496Y26210006D01*
X9024874Y26207313D01*
X9020505Y26204265D01*
X9016390Y26200912D01*
X9012529Y26197204D01*
X9008922Y26193191D01*
X9005620Y26188873D01*
X9002572Y26184250D01*
X8999778Y26179322D01*
X8997289Y26174090D01*
X8995054Y26168604D01*
X8993124Y26162812D01*
X8991447Y26156767D01*
X8990126Y26150417D01*
X8989060Y26143813D01*
X8988298Y26137006D01*
X8987778Y26126897D01*
X9015120Y26126897D01*
X9015323Y26134872D01*
X9016034Y26142391D01*
X9017152Y26149401D01*
X9018727Y26155904D01*
X9020708Y26161898D01*
X9023146Y26167384D01*
X9025940Y26172414D01*
X9029192Y26176884D01*
X9032798Y26180846D01*
X9036812Y26184301D01*
X9041231Y26187247D01*
X9045956Y26189635D01*
X9051086Y26191514D01*
X9056522Y26192835D01*
X9062313Y26193648D01*
X9068460Y26193953D01*
X9074099Y26193648D01*
X9079687Y26192784D01*
X9085072Y26191362D01*
X9090355Y26189381D01*
X9095384Y26186892D01*
X9100210Y26183843D01*
X9104833Y26180288D01*
X9109100Y26176224D01*
X9113113Y26171652D01*
X9116771Y26166622D01*
X9120073Y26161085D01*
X9122968Y26155142D01*
X9125458Y26148741D01*
X9127540Y26141883D01*
X9129115Y26134568D01*
X9130182Y26126897D01*
X8987778Y26126897D01*
X8987739Y26117448D01*
X8987942Y26112520D01*
X8988399Y26107999D01*
X8989212Y26104037D01*
X9129674Y26104037D01*
X9129217Y26097280D01*
X9128353Y26090778D01*
X9127185Y26084530D01*
X9125610Y26078535D01*
X9123680Y26072795D01*
X9121444Y26067410D01*
X9118854Y26062279D01*
X9115958Y26057453D01*
X9112758Y26052932D01*
X9109252Y26048766D01*
X9105442Y26044956D01*
X9101328Y26041451D01*
X9096959Y26038352D01*
X9092285Y26035609D01*
X9087408Y26033272D01*
X9082227Y26031342D01*
X9076842Y26029818D01*
X9071203Y26028700D01*
X9065361Y26028040D01*
X9059316Y26027837D01*
X9051848Y26028091D01*
X9044686Y26028954D01*
X9037828Y26030377D01*
X9031224Y26032307D01*
X9024874Y26034695D01*
X9018727Y26037539D01*
X9012783Y26040842D01*
X9006992Y26044601D01*
X8995562Y26024027D01*
X9004808Y26018489D01*
X9014714Y26013460D01*
X9019895Y26011225D01*
X9025331Y26009193D01*
X9030970Y26007364D01*
X9036862Y26005840D01*
X9042958Y26004621D01*
X9049410Y26003707D01*
X9056116Y26003097D01*
X9063126Y26002945D01*
X9068866Y26003097D01*
X9074505Y26003554D01*
X9080093Y26004266D01*
X9085529Y26005332D01*
X9090863Y26006704D01*
X9096095Y26008330D01*
X9101175Y26010260D01*
X9106103Y26012444D01*
X9110878Y26014934D01*
X9115501Y26017727D01*
X9119920Y26020725D01*
X9128302Y26027634D01*
X9132163Y26031443D01*
X9135821Y26035558D01*
X9139275Y26039927D01*
X9142526Y26044499D01*
X9145524Y26049376D01*
X9148267Y26054456D01*
X9150756Y26059790D01*
X9152991Y26065378D01*
X9154972Y26071220D01*
X9156649Y26077265D01*
X9158071Y26083514D01*
X9159189Y26090016D01*
X9160002Y26096772D01*
X9160459Y26103732D01*
X9160662Y26110895D01*
X9160459Y26117905D01*
X9159951Y26124814D01*
X9159138Y26131469D01*
X9158020Y26137920D01*
X9156598Y26144118D01*
X9154922Y26150163D01*
X9152940Y26155954D01*
X9150654Y26161542D01*
X9148165Y26166876D01*
X9145473Y26172007D01*
X9142476Y26176884D01*
X9139326Y26181507D01*
X9135973Y26185876D01*
X9132366Y26190041D01*
X9128658Y26193902D01*
X9124696Y26197509D01*
X9120632Y26200862D01*
X9116415Y26203960D01*
X9112046Y26206754D01*
X9107576Y26209294D01*
X9103004Y26211580D01*
X9098280Y26213511D01*
X9093504Y26215187D01*
X9088678Y26216610D01*
X9083751Y26217676D01*
X9078772Y26218438D01*
X9073743Y26218896D01*
G37*
G36*
X8716670Y26219048D02*
G01*
X8710523Y26218845D01*
X8704732Y26218235D01*
X8699246Y26217219D01*
X8694064Y26215746D01*
X8689187Y26213917D01*
X8684666Y26211682D01*
X8680450Y26208989D01*
X8676538Y26205942D01*
X8672982Y26202487D01*
X8669680Y26198626D01*
X8666734Y26194359D01*
X8664092Y26189736D01*
X8661755Y26184656D01*
X8659723Y26179272D01*
X8658047Y26173430D01*
X8656624Y26167232D01*
X8655558Y26160628D01*
X8654796Y26153668D01*
X8654338Y26146302D01*
X8654186Y26138581D01*
X8654186Y26007974D01*
X8685428Y26007974D01*
X8685428Y26134771D01*
X8685682Y26144169D01*
X8686495Y26152754D01*
X8687816Y26160374D01*
X8689695Y26167181D01*
X8692184Y26173074D01*
X8695182Y26178205D01*
X8698788Y26182421D01*
X8702954Y26185876D01*
X8707678Y26188517D01*
X8713063Y26190397D01*
X8719007Y26191514D01*
X8725560Y26191921D01*
X8729726Y26191667D01*
X8733993Y26191006D01*
X8738260Y26189838D01*
X8742629Y26188212D01*
X8746998Y26186180D01*
X8751468Y26183640D01*
X8755938Y26180643D01*
X8760510Y26177189D01*
X8765184Y26173226D01*
X8769908Y26168858D01*
X8779662Y26158647D01*
X8779662Y26007974D01*
X8810396Y26007974D01*
X8810396Y26134771D01*
X8810548Y26141934D01*
X8810955Y26148588D01*
X8811717Y26154735D01*
X8812784Y26160374D01*
X8814155Y26165556D01*
X8815832Y26170229D01*
X8817864Y26174446D01*
X8820200Y26178205D01*
X8822842Y26181456D01*
X8825839Y26184250D01*
X8829141Y26186638D01*
X8832748Y26188517D01*
X8836761Y26190041D01*
X8841079Y26191057D01*
X8845753Y26191667D01*
X8850782Y26191921D01*
X8854795Y26191667D01*
X8858961Y26191006D01*
X8863177Y26189838D01*
X8867495Y26188212D01*
X8871864Y26186180D01*
X8876334Y26183640D01*
X8880906Y26180643D01*
X8885529Y26177189D01*
X8890203Y26173226D01*
X8894927Y26168858D01*
X8899753Y26163981D01*
X8904630Y26158647D01*
X8904630Y26007974D01*
X8935364Y26007974D01*
X8935364Y26213714D01*
X8910218Y26213714D01*
X8907170Y26183285D01*
X8906154Y26183285D01*
X8896807Y26192784D01*
X8891879Y26197204D01*
X8886850Y26201370D01*
X8881618Y26205180D01*
X8876334Y26208583D01*
X8870899Y26211631D01*
X8865311Y26214171D01*
X8859672Y26216254D01*
X8853881Y26217778D01*
X8848039Y26218743D01*
X8842146Y26219048D01*
X8834424Y26218743D01*
X8827363Y26217829D01*
X8820861Y26216254D01*
X8814968Y26214171D01*
X8809583Y26211479D01*
X8804706Y26208278D01*
X8800388Y26204570D01*
X8796477Y26200354D01*
X8793073Y26195731D01*
X8790025Y26190600D01*
X8787434Y26185114D01*
X8785250Y26179221D01*
X8774226Y26190244D01*
X8768689Y26195274D01*
X8763152Y26199896D01*
X8757615Y26204113D01*
X8751976Y26207923D01*
X8746337Y26211174D01*
X8740597Y26213917D01*
X8734755Y26216152D01*
X8728862Y26217727D01*
X8722817Y26218743D01*
G37*
G36*
X8275472Y26219048D02*
G01*
X8269173Y26218896D01*
X8263077Y26218337D01*
X8257235Y26217372D01*
X8251647Y26216051D01*
X8246262Y26214425D01*
X8241131Y26212393D01*
X8236254Y26210006D01*
X8231631Y26207313D01*
X8227263Y26204265D01*
X8223148Y26200912D01*
X8219287Y26197204D01*
X8215680Y26193191D01*
X8212378Y26188873D01*
X8209330Y26184250D01*
X8206536Y26179322D01*
X8204047Y26174090D01*
X8201812Y26168604D01*
X8199881Y26162812D01*
X8198205Y26156767D01*
X8196884Y26150417D01*
X8195818Y26143813D01*
X8195056Y26137006D01*
X8194536Y26126897D01*
X8221878Y26126897D01*
X8222081Y26134872D01*
X8222792Y26142391D01*
X8223910Y26149401D01*
X8225485Y26155904D01*
X8227466Y26161898D01*
X8229904Y26167384D01*
X8232698Y26172414D01*
X8235950Y26176884D01*
X8239556Y26180846D01*
X8243570Y26184301D01*
X8247989Y26187247D01*
X8252714Y26189635D01*
X8257844Y26191514D01*
X8263280Y26192835D01*
X8269071Y26193648D01*
X8275218Y26193953D01*
X8280857Y26193648D01*
X8286445Y26192784D01*
X8291830Y26191362D01*
X8297113Y26189381D01*
X8302142Y26186892D01*
X8306968Y26183843D01*
X8311591Y26180288D01*
X8315858Y26176224D01*
X8319871Y26171652D01*
X8323529Y26166622D01*
X8326831Y26161085D01*
X8329726Y26155142D01*
X8332216Y26148741D01*
X8334298Y26141883D01*
X8335873Y26134568D01*
X8336940Y26126897D01*
X8194536Y26126897D01*
X8194497Y26117448D01*
X8194700Y26112520D01*
X8195157Y26107999D01*
X8195970Y26104037D01*
X8336432Y26104037D01*
X8335975Y26097280D01*
X8335111Y26090778D01*
X8333943Y26084530D01*
X8332368Y26078535D01*
X8330438Y26072795D01*
X8328202Y26067410D01*
X8325612Y26062279D01*
X8322716Y26057453D01*
X8319516Y26052932D01*
X8316010Y26048766D01*
X8312200Y26044956D01*
X8308086Y26041451D01*
X8303717Y26038352D01*
X8299043Y26035609D01*
X8294166Y26033272D01*
X8288985Y26031342D01*
X8283600Y26029818D01*
X8277961Y26028700D01*
X8272119Y26028040D01*
X8266074Y26027837D01*
X8258606Y26028091D01*
X8251444Y26028954D01*
X8244586Y26030377D01*
X8237981Y26032307D01*
X8231631Y26034695D01*
X8225485Y26037539D01*
X8219541Y26040842D01*
X8213750Y26044601D01*
X8202320Y26024027D01*
X8211566Y26018489D01*
X8221472Y26013460D01*
X8226653Y26011225D01*
X8232089Y26009193D01*
X8237728Y26007364D01*
X8243620Y26005840D01*
X8249716Y26004621D01*
X8256168Y26003707D01*
X8262874Y26003097D01*
X8269884Y26002945D01*
X8275624Y26003097D01*
X8281263Y26003554D01*
X8286851Y26004266D01*
X8292287Y26005332D01*
X8297621Y26006704D01*
X8302853Y26008330D01*
X8307933Y26010260D01*
X8312861Y26012444D01*
X8317636Y26014934D01*
X8322259Y26017727D01*
X8326678Y26020725D01*
X8335060Y26027634D01*
X8338921Y26031443D01*
X8342579Y26035558D01*
X8346033Y26039927D01*
X8349284Y26044499D01*
X8352281Y26049376D01*
X8355025Y26054456D01*
X8357514Y26059790D01*
X8359749Y26065378D01*
X8361730Y26071220D01*
X8363407Y26077265D01*
X8364829Y26083514D01*
X8365947Y26090016D01*
X8366759Y26096772D01*
X8367217Y26103732D01*
X8367420Y26110895D01*
X8367217Y26117905D01*
X8366709Y26124814D01*
X8365896Y26131469D01*
X8364778Y26137920D01*
X8363356Y26144118D01*
X8361680Y26150163D01*
X8359698Y26155954D01*
X8357412Y26161542D01*
X8354923Y26166876D01*
X8352231Y26172007D01*
X8349234Y26176884D01*
X8346084Y26181507D01*
X8342731Y26185876D01*
X8339124Y26190041D01*
X8335416Y26193902D01*
X8331453Y26197509D01*
X8327390Y26200862D01*
X8323173Y26203960D01*
X8318804Y26206754D01*
X8314334Y26209294D01*
X8309762Y26211580D01*
X8305038Y26213511D01*
X8300262Y26215187D01*
X8295436Y26216610D01*
X8290509Y26217676D01*
X8285530Y26218438D01*
X8280501Y26218896D01*
G37*
G36*
X8054492Y26219048D02*
G01*
X8048396Y26218845D01*
X8043011Y26218032D01*
X8037931Y26216610D01*
X8032902Y26214527D01*
X8038998Y26187603D01*
X8043773Y26189076D01*
X8048244Y26190092D01*
X8052917Y26190702D01*
X8058302Y26190905D01*
X8062722Y26190600D01*
X8067294Y26189736D01*
X8071967Y26188314D01*
X8076692Y26186180D01*
X8081365Y26183437D01*
X8086039Y26179932D01*
X8090662Y26175665D01*
X8095183Y26170686D01*
X8099552Y26164844D01*
X8103717Y26158139D01*
X8107680Y26150570D01*
X8111388Y26142137D01*
X8111388Y26007974D01*
X8142122Y26007974D01*
X8142122Y26213714D01*
X8116976Y26213714D01*
X8113928Y26175919D01*
X8112912Y26175919D01*
X8109203Y26182218D01*
X8105241Y26188162D01*
X8101025Y26193699D01*
X8096605Y26198728D01*
X8091982Y26203249D01*
X8087106Y26207313D01*
X8082076Y26210768D01*
X8076844Y26213714D01*
X8071459Y26216000D01*
X8065922Y26217676D01*
X8060283Y26218743D01*
G37*
G36*
X814527Y944371D02*
G01*
X808482Y944219D01*
X802589Y943711D01*
X796899Y942898D01*
X791413Y941730D01*
X786180Y940308D01*
X781151Y938580D01*
X776376Y936498D01*
X771804Y934161D01*
X767486Y931570D01*
X763371Y928674D01*
X759561Y925525D01*
X755954Y922070D01*
X752652Y918413D01*
X749604Y914450D01*
X746810Y910285D01*
X744270Y905865D01*
X742035Y901242D01*
X740054Y896366D01*
X737006Y886002D01*
X735939Y880465D01*
X735177Y874776D01*
X734720Y868883D01*
X734517Y862837D01*
X734923Y853389D01*
X736142Y843940D01*
X738124Y834440D01*
X740867Y824890D01*
X744321Y815340D01*
X748538Y805738D01*
X753414Y796086D01*
X758952Y786333D01*
X765200Y776579D01*
X772007Y766724D01*
X779475Y756818D01*
X787501Y746810D01*
X796137Y736701D01*
X805281Y726541D01*
X814984Y716280D01*
X825195Y705866D01*
X847039Y684784D01*
X835558Y685800D01*
X823823Y686511D01*
X801319Y687070D01*
X721309Y687070D01*
X721309Y660400D01*
X893775Y660400D01*
X893775Y679196D01*
X879398Y691946D01*
X865886Y704342D01*
X853287Y716330D01*
X841603Y727964D01*
X830732Y739292D01*
X820775Y750265D01*
X811682Y760882D01*
X803402Y771245D01*
X795985Y781354D01*
X789381Y791159D01*
X783590Y800709D01*
X778611Y810006D01*
X774395Y819099D01*
X770991Y827938D01*
X768350Y836625D01*
X766521Y845108D01*
X765403Y853389D01*
X764997Y861568D01*
X765200Y867613D01*
X765810Y873455D01*
X766826Y879043D01*
X768197Y884377D01*
X770026Y889406D01*
X772261Y894130D01*
X774903Y898499D01*
X777951Y902563D01*
X781405Y906221D01*
X785368Y909472D01*
X789686Y912266D01*
X794512Y914603D01*
X799744Y916482D01*
X805383Y917854D01*
X811530Y918667D01*
X818083Y918971D01*
X823823Y918667D01*
X829411Y917803D01*
X834898Y916432D01*
X840232Y914552D01*
X845413Y912164D01*
X850493Y909421D01*
X855421Y906271D01*
X860145Y902766D01*
X864768Y898956D01*
X869187Y894842D01*
X877519Y885952D01*
X895807Y903478D01*
X887272Y912215D01*
X882903Y916330D01*
X873963Y923747D01*
X869340Y927150D01*
X864616Y930249D01*
X854760Y935634D01*
X849579Y937869D01*
X844245Y939800D01*
X838758Y941425D01*
X833018Y942695D01*
X827125Y943610D01*
X820928Y944168D01*
G37*
G36*
X911301Y939292D02*
G01*
X1000455Y660400D01*
X1036777Y660400D01*
X1126185Y939292D01*
X1093165Y939292D01*
X1040892Y767334D01*
X1026160Y716737D01*
X1018743Y693166D01*
X1017219Y693166D01*
X1009853Y716737D01*
X994968Y767334D01*
X943305Y939292D01*
G37*
D10*
X9099981Y28604989D02*
G01*
X9099981Y28411027D01*
X9099981Y28604989D02*
G01*
X9026090Y28411027D01*
X8952199Y28604989D02*
G01*
X9026090Y28411027D01*
X8952199Y28604989D02*
G01*
X8952199Y28411027D01*
X8845057Y28540336D02*
G01*
X8863530Y28531098D01*
X8882004Y28512627D01*
X8891239Y28484918D01*
X8891239Y28466445D01*
X8882004Y28438736D01*
X8863530Y28420263D01*
X8845057Y28411027D01*
X8817348Y28411027D01*
X8798877Y28420263D01*
X8780404Y28438736D01*
X8771166Y28466445D01*
X8771166Y28484918D01*
X8780404Y28512627D01*
X8798877Y28531098D01*
X8817348Y28540336D01*
X8845057Y28540336D01*
X8710206Y28540336D02*
G01*
X8710206Y28447972D01*
X8700970Y28420263D01*
X8682497Y28411027D01*
X8654788Y28411027D01*
X8636317Y28420263D01*
X8608606Y28447972D01*
X8608606Y28540336D02*
G01*
X8608606Y28411027D01*
X8547646Y28540336D02*
G01*
X8547646Y28411027D01*
X8547646Y28503389D02*
G01*
X8519937Y28531098D01*
X8501466Y28540336D01*
X8473757Y28540336D01*
X8455284Y28531098D01*
X8446046Y28503389D01*
X8446046Y28411027D01*
X8357377Y28604989D02*
G01*
X8357377Y28447972D01*
X8348141Y28420263D01*
X8329668Y28411027D01*
X8311197Y28411027D01*
X8385086Y28540336D02*
G01*
X8320432Y28540336D01*
X8250237Y28604989D02*
G01*
X8240999Y28595754D01*
X8231764Y28604989D01*
X8240999Y28614227D01*
X8250237Y28604989D01*
X8240999Y28540336D02*
G01*
X8240999Y28411027D01*
X8170804Y28540336D02*
G01*
X8170804Y28411027D01*
X8170804Y28503389D02*
G01*
X8143095Y28531098D01*
X8124621Y28540336D01*
X8096912Y28540336D01*
X8078439Y28531098D01*
X8069204Y28503389D01*
X8069204Y28411027D01*
X7897406Y28540336D02*
G01*
X7897406Y28392554D01*
X7906644Y28364845D01*
X7915879Y28355607D01*
X7934352Y28346372D01*
X7962061Y28346372D01*
X7980535Y28355607D01*
X7897406Y28512627D02*
G01*
X7915879Y28531098D01*
X7934352Y28540336D01*
X7962061Y28540336D01*
X7980535Y28531098D01*
X7999006Y28512627D01*
X8008244Y28484918D01*
X8008244Y28466445D01*
X7999006Y28438736D01*
X7980535Y28420263D01*
X7962061Y28411027D01*
X7934352Y28411027D01*
X7915879Y28420263D01*
X7897406Y28438736D01*
X7694206Y28604989D02*
G01*
X7694206Y28411027D01*
X7694206Y28503389D02*
G01*
X7666497Y28531098D01*
X7648026Y28540336D01*
X7620317Y28540336D01*
X7601844Y28531098D01*
X7592606Y28503389D01*
X7592606Y28411027D01*
X7485466Y28540336D02*
G01*
X7503937Y28531098D01*
X7522410Y28512627D01*
X7531646Y28484918D01*
X7531646Y28466445D01*
X7522410Y28438736D01*
X7503937Y28420263D01*
X7485466Y28411027D01*
X7457757Y28411027D01*
X7439284Y28420263D01*
X7420810Y28438736D01*
X7411575Y28466445D01*
X7411575Y28484918D01*
X7420810Y28512627D01*
X7439284Y28531098D01*
X7457757Y28540336D01*
X7485466Y28540336D01*
X7350615Y28604989D02*
G01*
X7350615Y28411027D01*
X7289655Y28484918D02*
G01*
X7178817Y28484918D01*
X7178817Y28503389D01*
X7188055Y28521863D01*
X7197290Y28531098D01*
X7215764Y28540336D01*
X7243472Y28540336D01*
X7261946Y28531098D01*
X7280417Y28512627D01*
X7289655Y28484918D01*
X7289655Y28466445D01*
X7280417Y28438736D01*
X7261946Y28420263D01*
X7243472Y28411027D01*
X7215764Y28411027D01*
X7197290Y28420263D01*
X7178817Y28438736D01*
X6910964Y28641936D02*
G01*
X6929437Y28623463D01*
X6947908Y28595754D01*
X6966381Y28558807D01*
X6975617Y28512627D01*
X6975617Y28475680D01*
X6966381Y28429498D01*
X6947908Y28392554D01*
X6929437Y28364845D01*
X6910964Y28346372D01*
X6831530Y28604989D02*
G01*
X6729930Y28604989D01*
X6785348Y28531098D01*
X6757639Y28531098D01*
X6739166Y28521863D01*
X6729930Y28512627D01*
X6720695Y28484918D01*
X6720695Y28466445D01*
X6729930Y28438736D01*
X6748404Y28420263D01*
X6776112Y28411027D01*
X6803821Y28411027D01*
X6831530Y28420263D01*
X6840766Y28429498D01*
X6850004Y28447972D01*
X6659735Y28540336D02*
G01*
X6659735Y28411027D01*
X6659735Y28503389D02*
G01*
X6632026Y28531098D01*
X6613552Y28540336D01*
X6585844Y28540336D01*
X6567370Y28531098D01*
X6558135Y28503389D01*
X6558135Y28411027D01*
X6558135Y28503389D02*
G01*
X6530426Y28531098D01*
X6511952Y28540336D01*
X6484244Y28540336D01*
X6465770Y28531098D01*
X6456535Y28503389D01*
X6456535Y28411027D01*
X6395575Y28540336D02*
G01*
X6395575Y28411027D01*
X6395575Y28503389D02*
G01*
X6367866Y28531098D01*
X6349392Y28540336D01*
X6321684Y28540336D01*
X6303210Y28531098D01*
X6293975Y28503389D01*
X6293975Y28411027D01*
X6293975Y28503389D02*
G01*
X6266266Y28531098D01*
X6247792Y28540336D01*
X6220084Y28540336D01*
X6201610Y28531098D01*
X6192375Y28503389D01*
X6192375Y28411027D01*
X6131415Y28641936D02*
G01*
X6112941Y28623463D01*
X6094468Y28595754D01*
X6075997Y28558807D01*
X6066759Y28512627D01*
X6066759Y28475680D01*
X6075997Y28429498D01*
X6094468Y28392554D01*
X6112941Y28364845D01*
X6131415Y28346372D01*
X5863559Y28494154D02*
G01*
X5697306Y28494154D01*
X5636346Y28577280D02*
G01*
X5488564Y28494154D01*
X5636346Y28411027D01*
X14362196Y28577280D02*
G01*
X14509978Y28494154D01*
X14362196Y28411027D01*
X14301236Y28494154D02*
G01*
X14134983Y28494154D01*
X13867127Y28641936D02*
G01*
X13885600Y28623463D01*
X13904074Y28595754D01*
X13922545Y28558807D01*
X13931783Y28512627D01*
X13931783Y28475680D01*
X13922545Y28429498D01*
X13904074Y28392554D01*
X13885600Y28364845D01*
X13867127Y28346372D01*
X13787694Y28604989D02*
G01*
X13686094Y28604989D01*
X13741514Y28531098D01*
X13713802Y28531098D01*
X13695332Y28521863D01*
X13686094Y28512627D01*
X13676858Y28484918D01*
X13676858Y28466445D01*
X13686094Y28438736D01*
X13704567Y28420263D01*
X13732276Y28411027D01*
X13759985Y28411027D01*
X13787694Y28420263D01*
X13796932Y28429498D01*
X13806167Y28447972D01*
X13615898Y28540336D02*
G01*
X13615898Y28411027D01*
X13615898Y28503389D02*
G01*
X13588189Y28531098D01*
X13569716Y28540336D01*
X13542007Y28540336D01*
X13523534Y28531098D01*
X13514298Y28503389D01*
X13514298Y28411027D01*
X13514298Y28503389D02*
G01*
X13486589Y28531098D01*
X13468116Y28540336D01*
X13440407Y28540336D01*
X13421934Y28531098D01*
X13412698Y28503389D01*
X13412698Y28411027D01*
X13351738Y28540336D02*
G01*
X13351738Y28411027D01*
X13351738Y28503389D02*
G01*
X13324029Y28531098D01*
X13305556Y28540336D01*
X13277847Y28540336D01*
X13259374Y28531098D01*
X13250138Y28503389D01*
X13250138Y28411027D01*
X13250138Y28503389D02*
G01*
X13222429Y28531098D01*
X13203956Y28540336D01*
X13176247Y28540336D01*
X13157774Y28531098D01*
X13148538Y28503389D01*
X13148538Y28411027D01*
X13087578Y28641936D02*
G01*
X13069105Y28623463D01*
X13050634Y28595754D01*
X13032160Y28558807D01*
X13022922Y28512627D01*
X13022922Y28475680D01*
X13032160Y28429498D01*
X13050634Y28392554D01*
X13069105Y28364845D01*
X13087578Y28346372D01*
X12819722Y28604989D02*
G01*
X12819722Y28411027D01*
X12819722Y28604989D02*
G01*
X12745834Y28411027D01*
X12671943Y28604989D02*
G01*
X12745834Y28411027D01*
X12671943Y28604989D02*
G01*
X12671943Y28411027D01*
X12564800Y28540336D02*
G01*
X12583274Y28531098D01*
X12601745Y28512627D01*
X12610983Y28484918D01*
X12610983Y28466445D01*
X12601745Y28438736D01*
X12583274Y28420263D01*
X12564800Y28411027D01*
X12537092Y28411027D01*
X12518618Y28420263D01*
X12500145Y28438736D01*
X12490909Y28466445D01*
X12490909Y28484918D01*
X12500145Y28512627D01*
X12518618Y28531098D01*
X12537092Y28540336D01*
X12564800Y28540336D01*
X12429949Y28540336D02*
G01*
X12429949Y28447972D01*
X12420714Y28420263D01*
X12402240Y28411027D01*
X12374532Y28411027D01*
X12356058Y28420263D01*
X12328349Y28447972D01*
X12328349Y28540336D02*
G01*
X12328349Y28411027D01*
X12267389Y28540336D02*
G01*
X12267389Y28411027D01*
X12267389Y28503389D02*
G01*
X12239680Y28531098D01*
X12221207Y28540336D01*
X12193498Y28540336D01*
X12175025Y28531098D01*
X12165789Y28503389D01*
X12165789Y28411027D01*
X12077120Y28604989D02*
G01*
X12077120Y28447972D01*
X12067882Y28420263D01*
X12049412Y28411027D01*
X12030938Y28411027D01*
X12104829Y28540336D02*
G01*
X12040174Y28540336D01*
X11969978Y28604989D02*
G01*
X11960743Y28595754D01*
X11951505Y28604989D01*
X11960743Y28614227D01*
X11969978Y28604989D01*
X11960743Y28540336D02*
G01*
X11960743Y28411027D01*
X11890545Y28540336D02*
G01*
X11890545Y28411027D01*
X11890545Y28503389D02*
G01*
X11862836Y28531098D01*
X11844362Y28540336D01*
X11816654Y28540336D01*
X11798183Y28531098D01*
X11788945Y28503389D01*
X11788945Y28411027D01*
X11617149Y28540336D02*
G01*
X11617149Y28392554D01*
X11626385Y28364845D01*
X11635623Y28355607D01*
X11654094Y28346372D01*
X11681802Y28346372D01*
X11700276Y28355607D01*
X11617149Y28512627D02*
G01*
X11635623Y28531098D01*
X11654094Y28540336D01*
X11681802Y28540336D01*
X11700276Y28531098D01*
X11718749Y28512627D01*
X11727985Y28484918D01*
X11727985Y28466445D01*
X11718749Y28438736D01*
X11700276Y28420263D01*
X11681802Y28411027D01*
X11654094Y28411027D01*
X11635623Y28420263D01*
X11617149Y28438736D01*
X11413949Y28604989D02*
G01*
X11413949Y28411027D01*
X11413949Y28503389D02*
G01*
X11386240Y28531098D01*
X11367767Y28540336D01*
X11340058Y28540336D01*
X11321585Y28531098D01*
X11312349Y28503389D01*
X11312349Y28411027D01*
X11205207Y28540336D02*
G01*
X11223680Y28531098D01*
X11242154Y28512627D01*
X11251389Y28484918D01*
X11251389Y28466445D01*
X11242154Y28438736D01*
X11223680Y28420263D01*
X11205207Y28411027D01*
X11177498Y28411027D01*
X11159025Y28420263D01*
X11140554Y28438736D01*
X11131316Y28466445D01*
X11131316Y28484918D01*
X11140554Y28512627D01*
X11159025Y28531098D01*
X11177498Y28540336D01*
X11205207Y28540336D01*
X11070356Y28604989D02*
G01*
X11070356Y28411027D01*
X11009396Y28484918D02*
G01*
X10898560Y28484918D01*
X10898560Y28503389D01*
X10907796Y28521863D01*
X10917034Y28531098D01*
X10935505Y28540336D01*
X10963214Y28540336D01*
X10981687Y28531098D01*
X11000160Y28512627D01*
X11009396Y28484918D01*
X11009396Y28466445D01*
X11000160Y28438736D01*
X10981687Y28420263D01*
X10963214Y28411027D01*
X10935505Y28411027D01*
X10917034Y28420263D01*
X10898560Y28438736D01*
D11*
X10392719Y29403588D02*
G01*
X10392719Y29021770D01*
X10519991Y29403588D02*
G01*
X10265445Y29403588D01*
X10036355Y29403588D02*
G01*
X10072720Y29385404D01*
X10109083Y29349042D01*
X10127264Y29312679D01*
X10145445Y29258133D01*
X10145445Y29167223D01*
X10127264Y29112679D01*
X10109083Y29076314D01*
X10072720Y29039952D01*
X10036355Y29021770D01*
X9963630Y29021770D01*
X9927264Y29039952D01*
X9890902Y29076314D01*
X9872720Y29112679D01*
X9854539Y29167223D01*
X9854539Y29258133D01*
X9872720Y29312679D01*
X9890902Y29349042D01*
X9927264Y29385404D01*
X9963630Y29403588D01*
X10036355Y29403588D01*
X9734539Y29403588D02*
G01*
X9734539Y29021770D01*
X9734539Y29403588D02*
G01*
X9570902Y29403588D01*
X9516356Y29385404D01*
X9498175Y29367223D01*
X9479993Y29330860D01*
X9479993Y29276314D01*
X9498175Y29239951D01*
X9516356Y29221770D01*
X9570902Y29203589D01*
X9734539Y29203589D01*
X11099977Y1003647D02*
G01*
X11099977Y621830D01*
X11099977Y1003647D02*
G01*
X10936340Y1003647D01*
X10881796Y985464D01*
X10863615Y967282D01*
X10845431Y930920D01*
X10845431Y894557D01*
X10863615Y858192D01*
X10881796Y840011D01*
X10936340Y821829D01*
X11099977Y821829D02*
G01*
X10936340Y821829D01*
X10881796Y803648D01*
X10863615Y785464D01*
X10845431Y749101D01*
X10845431Y694557D01*
X10863615Y658192D01*
X10881796Y640011D01*
X10936340Y621830D01*
X11099977Y621830D01*
X10616341Y1003647D02*
G01*
X10652706Y985464D01*
X10689069Y949101D01*
X10707250Y912738D01*
X10725431Y858192D01*
X10725431Y767283D01*
X10707250Y712739D01*
X10689069Y676374D01*
X10652706Y640011D01*
X10616341Y621830D01*
X10543616Y621830D01*
X10507251Y640011D01*
X10470888Y676374D01*
X10452707Y712739D01*
X10434525Y767283D01*
X10434525Y858192D01*
X10452707Y912738D01*
X10470888Y949101D01*
X10507251Y985464D01*
X10543616Y1003647D01*
X10616341Y1003647D01*
X10187251Y1003647D02*
G01*
X10187251Y621830D01*
X10314525Y1003647D02*
G01*
X10059979Y1003647D01*
X9812708Y1003647D02*
G01*
X9812708Y621830D01*
X9939980Y1003647D02*
G01*
X9685434Y1003647D01*
X9456343Y1003647D02*
G01*
X9492708Y985464D01*
X9529071Y949101D01*
X9547252Y912738D01*
X9565434Y858192D01*
X9565434Y767283D01*
X9547252Y712739D01*
X9529071Y676374D01*
X9492708Y640011D01*
X9456343Y621830D01*
X9383618Y621830D01*
X9347253Y640011D01*
X9310890Y676374D01*
X9292709Y712739D01*
X9274528Y767283D01*
X9274528Y858192D01*
X9292709Y912738D01*
X9310890Y949101D01*
X9347253Y985464D01*
X9383618Y1003647D01*
X9456343Y1003647D01*
X9154528Y1003647D02*
G01*
X9154528Y621830D01*
X9154528Y1003647D02*
G01*
X9009072Y621830D01*
X8863619Y1003647D02*
G01*
X9009072Y621830D01*
X8863619Y1003647D02*
G01*
X8863619Y621830D01*
D10*
X9119981Y1365044D02*
G01*
X9119981Y1171082D01*
X9119981Y1365044D02*
G01*
X9046090Y1171082D01*
X8972199Y1365044D02*
G01*
X9046090Y1171082D01*
X8972199Y1365044D02*
G01*
X8972199Y1171082D01*
X8865057Y1300391D02*
G01*
X8883530Y1291153D01*
X8902004Y1272682D01*
X8911239Y1244973D01*
X8911239Y1226499D01*
X8902004Y1198791D01*
X8883530Y1180317D01*
X8865057Y1171082D01*
X8837348Y1171082D01*
X8818877Y1180317D01*
X8800404Y1198791D01*
X8791166Y1226499D01*
X8791166Y1244973D01*
X8800404Y1272682D01*
X8818877Y1291153D01*
X8837348Y1300391D01*
X8865057Y1300391D01*
X8730206Y1300391D02*
G01*
X8730206Y1208026D01*
X8720970Y1180317D01*
X8702497Y1171082D01*
X8674788Y1171082D01*
X8656317Y1180317D01*
X8628606Y1208026D01*
X8628606Y1300391D02*
G01*
X8628606Y1171082D01*
X8567646Y1300391D02*
G01*
X8567646Y1171082D01*
X8567646Y1263444D02*
G01*
X8539937Y1291153D01*
X8521466Y1300391D01*
X8493757Y1300391D01*
X8475284Y1291153D01*
X8466046Y1263444D01*
X8466046Y1171082D01*
X8377377Y1365044D02*
G01*
X8377377Y1208026D01*
X8368141Y1180317D01*
X8349668Y1171082D01*
X8331197Y1171082D01*
X8405086Y1300391D02*
G01*
X8340432Y1300391D01*
X8270237Y1365044D02*
G01*
X8260999Y1355808D01*
X8251764Y1365044D01*
X8260999Y1374282D01*
X8270237Y1365044D01*
X8260999Y1300391D02*
G01*
X8260999Y1171082D01*
X8190804Y1300391D02*
G01*
X8190804Y1171082D01*
X8190804Y1263444D02*
G01*
X8163095Y1291153D01*
X8144621Y1300391D01*
X8116912Y1300391D01*
X8098439Y1291153D01*
X8089204Y1263444D01*
X8089204Y1171082D01*
X7917406Y1300391D02*
G01*
X7917406Y1152608D01*
X7926644Y1124899D01*
X7935879Y1115661D01*
X7954352Y1106426D01*
X7982061Y1106426D01*
X8000535Y1115661D01*
X7917406Y1272682D02*
G01*
X7935879Y1291153D01*
X7954352Y1300391D01*
X7982061Y1300391D01*
X8000535Y1291153D01*
X8019006Y1272682D01*
X8028244Y1244973D01*
X8028244Y1226499D01*
X8019006Y1198791D01*
X8000535Y1180317D01*
X7982061Y1171082D01*
X7954352Y1171082D01*
X7935879Y1180317D01*
X7917406Y1198791D01*
X7714206Y1365044D02*
G01*
X7714206Y1171082D01*
X7714206Y1263444D02*
G01*
X7686497Y1291153D01*
X7668026Y1300391D01*
X7640317Y1300391D01*
X7621844Y1291153D01*
X7612606Y1263444D01*
X7612606Y1171082D01*
X7505466Y1300391D02*
G01*
X7523937Y1291153D01*
X7542410Y1272682D01*
X7551646Y1244973D01*
X7551646Y1226499D01*
X7542410Y1198791D01*
X7523937Y1180317D01*
X7505466Y1171082D01*
X7477757Y1171082D01*
X7459284Y1180317D01*
X7440810Y1198791D01*
X7431575Y1226499D01*
X7431575Y1244973D01*
X7440810Y1272682D01*
X7459284Y1291153D01*
X7477757Y1300391D01*
X7505466Y1300391D01*
X7370615Y1365044D02*
G01*
X7370615Y1171082D01*
X7309655Y1244973D02*
G01*
X7198817Y1244973D01*
X7198817Y1263444D01*
X7208055Y1281917D01*
X7217290Y1291153D01*
X7235764Y1300391D01*
X7263472Y1300391D01*
X7281946Y1291153D01*
X7300417Y1272682D01*
X7309655Y1244973D01*
X7309655Y1226499D01*
X7300417Y1198791D01*
X7281946Y1180317D01*
X7263472Y1171082D01*
X7235764Y1171082D01*
X7217290Y1180317D01*
X7198817Y1198791D01*
X6930964Y1401991D02*
G01*
X6949437Y1383517D01*
X6967908Y1355808D01*
X6986381Y1318861D01*
X6995617Y1272682D01*
X6995617Y1235735D01*
X6986381Y1189553D01*
X6967908Y1152608D01*
X6949437Y1124899D01*
X6930964Y1106426D01*
X6851530Y1365044D02*
G01*
X6749930Y1365044D01*
X6805348Y1291153D01*
X6777639Y1291153D01*
X6759166Y1281917D01*
X6749930Y1272682D01*
X6740695Y1244973D01*
X6740695Y1226499D01*
X6749930Y1198791D01*
X6768404Y1180317D01*
X6796112Y1171082D01*
X6823821Y1171082D01*
X6851530Y1180317D01*
X6860766Y1189553D01*
X6870004Y1208026D01*
X6679735Y1300391D02*
G01*
X6679735Y1171082D01*
X6679735Y1263444D02*
G01*
X6652026Y1291153D01*
X6633552Y1300391D01*
X6605844Y1300391D01*
X6587370Y1291153D01*
X6578135Y1263444D01*
X6578135Y1171082D01*
X6578135Y1263444D02*
G01*
X6550426Y1291153D01*
X6531952Y1300391D01*
X6504244Y1300391D01*
X6485770Y1291153D01*
X6476535Y1263444D01*
X6476535Y1171082D01*
X6415575Y1300391D02*
G01*
X6415575Y1171082D01*
X6415575Y1263444D02*
G01*
X6387866Y1291153D01*
X6369392Y1300391D01*
X6341684Y1300391D01*
X6323210Y1291153D01*
X6313975Y1263444D01*
X6313975Y1171082D01*
X6313975Y1263444D02*
G01*
X6286266Y1291153D01*
X6267792Y1300391D01*
X6240084Y1300391D01*
X6221610Y1291153D01*
X6212375Y1263444D01*
X6212375Y1171082D01*
X6151415Y1401991D02*
G01*
X6132941Y1383517D01*
X6114468Y1355808D01*
X6095997Y1318861D01*
X6086759Y1272682D01*
X6086759Y1235735D01*
X6095997Y1189553D01*
X6114468Y1152608D01*
X6132941Y1124899D01*
X6151415Y1106426D01*
X5883559Y1254208D02*
G01*
X5717306Y1254208D01*
X5656346Y1337335D02*
G01*
X5508564Y1254208D01*
X5656346Y1171082D01*
X14352188Y1327335D02*
G01*
X14499970Y1244208D01*
X14352188Y1161082D01*
X14291228Y1244208D02*
G01*
X14124975Y1244208D01*
X13857119Y1391991D02*
G01*
X13875593Y1373517D01*
X13894066Y1345808D01*
X13912537Y1308862D01*
X13921775Y1262682D01*
X13921775Y1225735D01*
X13912537Y1179553D01*
X13894066Y1142608D01*
X13875593Y1114899D01*
X13857119Y1096426D01*
X13777686Y1355044D02*
G01*
X13676086Y1355044D01*
X13731506Y1281153D01*
X13703795Y1281153D01*
X13685324Y1271917D01*
X13676086Y1262682D01*
X13666850Y1234973D01*
X13666850Y1216499D01*
X13676086Y1188791D01*
X13694559Y1170317D01*
X13722268Y1161082D01*
X13749977Y1161082D01*
X13777686Y1170317D01*
X13786924Y1179553D01*
X13796159Y1198026D01*
X13605891Y1290391D02*
G01*
X13605891Y1161082D01*
X13605891Y1253444D02*
G01*
X13578182Y1281153D01*
X13559708Y1290391D01*
X13531999Y1290391D01*
X13513526Y1281153D01*
X13504291Y1253444D01*
X13504291Y1161082D01*
X13504291Y1253444D02*
G01*
X13476582Y1281153D01*
X13458108Y1290391D01*
X13430399Y1290391D01*
X13411926Y1281153D01*
X13402691Y1253444D01*
X13402691Y1161082D01*
X13341731Y1290391D02*
G01*
X13341731Y1161082D01*
X13341731Y1253444D02*
G01*
X13314022Y1281153D01*
X13295548Y1290391D01*
X13267839Y1290391D01*
X13249366Y1281153D01*
X13240131Y1253444D01*
X13240131Y1161082D01*
X13240131Y1253444D02*
G01*
X13212422Y1281153D01*
X13193948Y1290391D01*
X13166239Y1290391D01*
X13147766Y1281153D01*
X13138531Y1253444D01*
X13138531Y1161082D01*
X13077570Y1391991D02*
G01*
X13059097Y1373517D01*
X13040626Y1345808D01*
X13022153Y1308862D01*
X13012915Y1262682D01*
X13012915Y1225735D01*
X13022153Y1179553D01*
X13040626Y1142608D01*
X13059097Y1114899D01*
X13077570Y1096426D01*
X12809715Y1355044D02*
G01*
X12809715Y1161082D01*
X12809715Y1355044D02*
G01*
X12735826Y1161082D01*
X12661935Y1355044D02*
G01*
X12735826Y1161082D01*
X12661935Y1355044D02*
G01*
X12661935Y1161082D01*
X12554793Y1290391D02*
G01*
X12573266Y1281153D01*
X12591737Y1262682D01*
X12600975Y1234973D01*
X12600975Y1216499D01*
X12591737Y1188791D01*
X12573266Y1170317D01*
X12554793Y1161082D01*
X12527084Y1161082D01*
X12508611Y1170317D01*
X12490137Y1188791D01*
X12480902Y1216499D01*
X12480902Y1234973D01*
X12490137Y1262682D01*
X12508611Y1281153D01*
X12527084Y1290391D01*
X12554793Y1290391D01*
X12419942Y1290391D02*
G01*
X12419942Y1198026D01*
X12410706Y1170317D01*
X12392233Y1161082D01*
X12364524Y1161082D01*
X12346050Y1170317D01*
X12318342Y1198026D01*
X12318342Y1290391D02*
G01*
X12318342Y1161082D01*
X12257382Y1290391D02*
G01*
X12257382Y1161082D01*
X12257382Y1253444D02*
G01*
X12229673Y1281153D01*
X12211199Y1290391D01*
X12183490Y1290391D01*
X12165017Y1281153D01*
X12155782Y1253444D01*
X12155782Y1161082D01*
X12067113Y1355044D02*
G01*
X12067113Y1198026D01*
X12057875Y1170317D01*
X12039404Y1161082D01*
X12020931Y1161082D01*
X12094822Y1290391D02*
G01*
X12030166Y1290391D01*
X11959970Y1355044D02*
G01*
X11950735Y1345808D01*
X11941497Y1355044D01*
X11950735Y1364282D01*
X11959970Y1355044D01*
X11950735Y1290391D02*
G01*
X11950735Y1161082D01*
X11880537Y1290391D02*
G01*
X11880537Y1161082D01*
X11880537Y1253444D02*
G01*
X11852828Y1281153D01*
X11834355Y1290391D01*
X11806646Y1290391D01*
X11788175Y1281153D01*
X11778937Y1253444D01*
X11778937Y1161082D01*
X11607142Y1290391D02*
G01*
X11607142Y1142608D01*
X11616377Y1114899D01*
X11625615Y1105662D01*
X11644086Y1096426D01*
X11671795Y1096426D01*
X11690268Y1105662D01*
X11607142Y1262682D02*
G01*
X11625615Y1281153D01*
X11644086Y1290391D01*
X11671795Y1290391D01*
X11690268Y1281153D01*
X11708742Y1262682D01*
X11717977Y1234973D01*
X11717977Y1216499D01*
X11708742Y1188791D01*
X11690268Y1170317D01*
X11671795Y1161082D01*
X11644086Y1161082D01*
X11625615Y1170317D01*
X11607142Y1188791D01*
X11403942Y1355044D02*
G01*
X11403942Y1161082D01*
X11403942Y1253444D02*
G01*
X11376233Y1281153D01*
X11357759Y1290391D01*
X11330050Y1290391D01*
X11311577Y1281153D01*
X11302342Y1253444D01*
X11302342Y1161082D01*
X11195199Y1290391D02*
G01*
X11213673Y1281153D01*
X11232146Y1262682D01*
X11241382Y1234973D01*
X11241382Y1216499D01*
X11232146Y1188791D01*
X11213673Y1170317D01*
X11195199Y1161082D01*
X11167490Y1161082D01*
X11149017Y1170317D01*
X11130546Y1188791D01*
X11121308Y1216499D01*
X11121308Y1234973D01*
X11130546Y1262682D01*
X11149017Y1281153D01*
X11167490Y1290391D01*
X11195199Y1290391D01*
X11060348Y1355044D02*
G01*
X11060348Y1161082D01*
X10999388Y1234973D02*
G01*
X10888553Y1234973D01*
X10888553Y1253444D01*
X10897788Y1271917D01*
X10907026Y1281153D01*
X10925497Y1290391D01*
X10953206Y1290391D01*
X10971679Y1281153D01*
X10990153Y1262682D01*
X10999388Y1234973D01*
X10999388Y1216499D01*
X10990153Y1188791D01*
X10971679Y1170317D01*
X10953206Y1161082D01*
X10925497Y1161082D01*
X10907026Y1170317D01*
X10888553Y1188791D01*
X15070660Y21697294D02*
G01*
X15089134Y21715768D01*
X15116843Y21725003D01*
X15153787Y21725003D01*
X15181496Y21715768D01*
X15199969Y21697294D01*
X15199969Y21678821D01*
X15190734Y21660347D01*
X15181496Y21651112D01*
X15163025Y21641876D01*
X15107605Y21623403D01*
X15089134Y21614168D01*
X15079896Y21604930D01*
X15070660Y21586456D01*
X15070660Y21558747D01*
X15089134Y21540276D01*
X15116843Y21531038D01*
X15153787Y21531038D01*
X15181496Y21540276D01*
X15199969Y21558747D01*
X14898865Y21632638D02*
G01*
X14917336Y21651112D01*
X14935809Y21660347D01*
X14963518Y21660347D01*
X14981991Y21651112D01*
X15000465Y21632638D01*
X15009700Y21604930D01*
X15009700Y21586456D01*
X15000465Y21558747D01*
X14981991Y21540276D01*
X14963518Y21531038D01*
X14935809Y21531038D01*
X14917336Y21540276D01*
X14898865Y21558747D01*
X14727067Y21660347D02*
G01*
X14727067Y21531038D01*
X14727067Y21632638D02*
G01*
X14745540Y21651112D01*
X14764014Y21660347D01*
X14791723Y21660347D01*
X14810193Y21651112D01*
X14828667Y21632638D01*
X14837905Y21604930D01*
X14837905Y21586456D01*
X14828667Y21558747D01*
X14810193Y21540276D01*
X14791723Y21531038D01*
X14764014Y21531038D01*
X14745540Y21540276D01*
X14727067Y21558747D01*
X14666107Y21660347D02*
G01*
X14666107Y21531038D01*
X14666107Y21623403D02*
G01*
X14638398Y21651112D01*
X14619925Y21660347D01*
X14592216Y21660347D01*
X14573745Y21651112D01*
X14564507Y21623403D01*
X14564507Y21531038D01*
X14305889Y21725003D02*
G01*
X14324363Y21715768D01*
X14342833Y21697294D01*
X14352071Y21678821D01*
X14361307Y21651112D01*
X14361307Y21604930D01*
X14352071Y21577221D01*
X14342833Y21558747D01*
X14324363Y21540276D01*
X14305889Y21531038D01*
X14268945Y21531038D01*
X14250471Y21540276D01*
X14231998Y21558747D01*
X14222763Y21577221D01*
X14213525Y21604930D01*
X14213525Y21651112D01*
X14222763Y21678821D01*
X14231998Y21697294D01*
X14250471Y21715768D01*
X14268945Y21725003D01*
X14305889Y21725003D01*
X14278180Y21567985D02*
G01*
X14222763Y21512568D01*
X14152565Y21725003D02*
G01*
X14152565Y21531038D01*
X14152565Y21725003D02*
G01*
X14069438Y21725003D01*
X14041729Y21715768D01*
X14032494Y21706530D01*
X14023256Y21688056D01*
X14023256Y21669585D01*
X14032494Y21651112D01*
X14041729Y21641876D01*
X14069438Y21632638D01*
X14152565Y21632638D01*
X14087911Y21632638D02*
G01*
X14023256Y21531038D01*
X13746165Y21725003D02*
G01*
X13764638Y21725003D01*
X13783111Y21715768D01*
X13792347Y21688056D01*
X13792347Y21531038D01*
X13820056Y21660347D02*
G01*
X13755403Y21660347D01*
X13639025Y21660347D02*
G01*
X13657496Y21651112D01*
X13675969Y21632638D01*
X13685205Y21604930D01*
X13685205Y21586456D01*
X13675969Y21558747D01*
X13657496Y21540276D01*
X13639025Y21531038D01*
X13611313Y21531038D01*
X13592843Y21540276D01*
X13574369Y21558747D01*
X13565134Y21586456D01*
X13565134Y21604930D01*
X13574369Y21632638D01*
X13592843Y21651112D01*
X13611313Y21660347D01*
X13639025Y21660347D01*
X13504174Y21660347D02*
G01*
X13504174Y21531038D01*
X13504174Y21604930D02*
G01*
X13494936Y21632638D01*
X13476465Y21651112D01*
X13457991Y21660347D01*
X13430283Y21660347D01*
X13227083Y21660347D02*
G01*
X13227083Y21531038D01*
X13227083Y21623403D02*
G01*
X13199374Y21651112D01*
X13180900Y21660347D01*
X13153191Y21660347D01*
X13134718Y21651112D01*
X13125483Y21623403D01*
X13125483Y21531038D01*
X13125483Y21623403D02*
G01*
X13097774Y21651112D01*
X13079300Y21660347D01*
X13051591Y21660347D01*
X13033118Y21651112D01*
X13023883Y21623403D01*
X13023883Y21531038D01*
X12916740Y21660347D02*
G01*
X12935214Y21651112D01*
X12953685Y21632638D01*
X12962923Y21604930D01*
X12962923Y21586456D01*
X12953685Y21558747D01*
X12935214Y21540276D01*
X12916740Y21531038D01*
X12889031Y21531038D01*
X12870558Y21540276D01*
X12852085Y21558747D01*
X12842849Y21586456D01*
X12842849Y21604930D01*
X12852085Y21632638D01*
X12870558Y21651112D01*
X12889031Y21660347D01*
X12916740Y21660347D01*
X12781889Y21660347D02*
G01*
X12781889Y21531038D01*
X12781889Y21604930D02*
G01*
X12772654Y21632638D01*
X12754180Y21651112D01*
X12735707Y21660347D01*
X12707998Y21660347D01*
X12647038Y21604930D02*
G01*
X12536203Y21604930D01*
X12536203Y21623403D01*
X12545438Y21641876D01*
X12554673Y21651112D01*
X12573147Y21660347D01*
X12600856Y21660347D01*
X12619329Y21651112D01*
X12637803Y21632638D01*
X12647038Y21604930D01*
X12647038Y21586456D01*
X12637803Y21558747D01*
X12619329Y21540276D01*
X12600856Y21531038D01*
X12573147Y21531038D01*
X12554673Y21540276D01*
X12536203Y21558747D01*
X12333003Y21725003D02*
G01*
X12323765Y21715768D01*
X12314529Y21725003D01*
X12323765Y21734238D01*
X12333003Y21725003D01*
X12323765Y21660347D02*
G01*
X12323765Y21531038D01*
X12253569Y21660347D02*
G01*
X12253569Y21531038D01*
X12253569Y21623403D02*
G01*
X12225860Y21651112D01*
X12207387Y21660347D01*
X12179678Y21660347D01*
X12161205Y21651112D01*
X12151969Y21623403D01*
X12151969Y21531038D01*
X12017118Y21725003D02*
G01*
X12035591Y21725003D01*
X12054065Y21715768D01*
X12063300Y21688056D01*
X12063300Y21531038D01*
X12091009Y21660347D02*
G01*
X12026353Y21660347D01*
X11909976Y21660347D02*
G01*
X11928449Y21651112D01*
X11946923Y21632638D01*
X11956158Y21604930D01*
X11956158Y21586456D01*
X11946923Y21558747D01*
X11928449Y21540276D01*
X11909976Y21531038D01*
X11882267Y21531038D01*
X11863793Y21540276D01*
X11845323Y21558747D01*
X11836085Y21586456D01*
X11836085Y21604930D01*
X11845323Y21632638D01*
X11863793Y21651112D01*
X11882267Y21660347D01*
X11909976Y21660347D01*
D12*
G75*
G01
X5353533Y28499943D02*
G03X5353533Y28499943I-353543J0D01*
G75*
G01
X15353513Y28499943D02*
G03X15353513Y28499943I-353543J0D01*
G75*
G01
X5353533Y1249985D02*
G03X5353533Y1249985I-353543J0D01*
G75*
G01
X15353513Y1249985D02*
G03X15353513Y1249985I-353543J0D01*
X10099979Y26969948D02*
G01*
X15319959Y26969948D01*
X15319959Y21399957D01*
X10099979Y21399957D01*
X10099979Y26969948D01*
M02*
