G04 Layer: TopSolderMaskLayer*
G04 EasyEDA v6.5.34, 2023-09-21 20:05:10*
G04 25a6d9880ab04e118feb333d8ddcd0f2,9bdec9015a8d4a8fb4e1132389f24c00,10*
G04 Gerber Generator version 0.2*
G04 Scale: 100 percent, Rotated: No, Reflected: No *
G04 Dimensions in millimeters *
G04 leading zeros omitted , absolute positions ,4 integer and 5 decimal *
%FSLAX45Y45*%
%MOMM*%

%AMMACRO1*1,1,$1,$2,$3*1,1,$1,$4,$5*1,1,$1,0-$2,0-$3*1,1,$1,0-$4,0-$5*20,1,$1,$2,$3,$4,$5,0*20,1,$1,$4,$5,0-$2,0-$3,0*20,1,$1,0-$2,0-$3,0-$4,0-$5,0*20,1,$1,0-$4,0-$5,$2,$3,0*4,1,4,$2,$3,$4,$5,0-$2,0-$3,0-$4,0-$5,$2,$3,0*%
%ADD10MACRO1,0.1016X-0.395X-0.27X-0.395X0.27*%
%ADD11MACRO1,0.1016X0.395X-0.27X0.395X0.27*%
%ADD12MACRO1,0.1016X-0.75X0.5X0.75X0.5*%
%ADD13MACRO1,0.1016X-0.7874X0.7874X0.7874X0.7874*%
%ADD14C,1.6764*%
%ADD15C,1.6256*%

%LPD*%
D10*
G01*
X2354501Y27899944D03*
D11*
G01*
X2245489Y27899944D03*
D10*
G01*
X2354501Y22899954D03*
D11*
G01*
X2245489Y22899954D03*
D10*
G01*
X2354501Y17899964D03*
D11*
G01*
X2245489Y17899964D03*
D10*
G01*
X2354501Y12899974D03*
D11*
G01*
X2245489Y12899974D03*
D10*
G01*
X2354501Y7899984D03*
D11*
G01*
X2245489Y7899984D03*
D10*
G01*
X2354501Y2899994D03*
D11*
G01*
X2245489Y2899994D03*
D10*
G01*
X7354491Y27899944D03*
D11*
G01*
X7245479Y27899944D03*
D10*
G01*
X7354491Y22899954D03*
D11*
G01*
X7245479Y22899954D03*
D10*
G01*
X7354491Y17899964D03*
D11*
G01*
X7245479Y17899964D03*
D10*
G01*
X7354491Y12899974D03*
D11*
G01*
X7245479Y12899974D03*
D10*
G01*
X7354491Y7899984D03*
D11*
G01*
X7245479Y7899984D03*
D10*
G01*
X7354491Y2899994D03*
D11*
G01*
X7245479Y2899994D03*
D10*
G01*
X12354481Y27899944D03*
D11*
G01*
X12245469Y27899944D03*
D10*
G01*
X12354481Y22899954D03*
D11*
G01*
X12245469Y22899954D03*
D10*
G01*
X12354481Y17899964D03*
D11*
G01*
X12245469Y17899964D03*
D10*
G01*
X12354481Y12899974D03*
D11*
G01*
X12245469Y12899974D03*
D10*
G01*
X12354481Y7899984D03*
D11*
G01*
X12245469Y7899984D03*
D10*
G01*
X12354481Y2899994D03*
D11*
G01*
X12245469Y2899994D03*
D10*
G01*
X17354471Y27899944D03*
D11*
G01*
X17245459Y27899944D03*
D10*
G01*
X17354471Y22899954D03*
D11*
G01*
X17245459Y22899954D03*
D10*
G01*
X17354471Y17899964D03*
D11*
G01*
X17245459Y17899964D03*
D10*
G01*
X17354471Y12899974D03*
D11*
G01*
X17245459Y12899974D03*
D10*
G01*
X17354471Y7899984D03*
D11*
G01*
X17245459Y7899984D03*
D10*
G01*
X17354471Y2899994D03*
D11*
G01*
X17245459Y2899994D03*
D12*
G01*
X2259994Y27659939D03*
G01*
X2259994Y27499945D03*
G01*
X2259994Y27339950D03*
G01*
X2739995Y27339950D03*
G01*
X2739995Y27499945D03*
G01*
X2739995Y27659939D03*
G01*
X2259994Y22659949D03*
G01*
X2259994Y22499955D03*
G01*
X2259994Y22339960D03*
G01*
X2739995Y22339960D03*
G01*
X2739995Y22499955D03*
G01*
X2739995Y22659949D03*
G01*
X2259994Y17659959D03*
G01*
X2259994Y17499964D03*
G01*
X2259994Y17339970D03*
G01*
X2739995Y17339970D03*
G01*
X2739995Y17499964D03*
G01*
X2739995Y17659959D03*
G01*
X2259994Y12659969D03*
G01*
X2259994Y12499975D03*
G01*
X2259994Y12339980D03*
G01*
X2739995Y12339980D03*
G01*
X2739995Y12499975D03*
G01*
X2739995Y12659969D03*
G01*
X2259994Y7659979D03*
G01*
X2259994Y7499985D03*
G01*
X2259994Y7339990D03*
G01*
X2739995Y7339990D03*
G01*
X2739995Y7499985D03*
G01*
X2739995Y7659979D03*
G01*
X2259994Y2659989D03*
G01*
X2259994Y2499994D03*
G01*
X2259994Y2340000D03*
G01*
X2739995Y2340000D03*
G01*
X2739995Y2499994D03*
G01*
X2739995Y2659989D03*
G01*
X7259984Y27659939D03*
G01*
X7259984Y27499945D03*
G01*
X7259984Y27339950D03*
G01*
X7739985Y27339950D03*
G01*
X7739985Y27499945D03*
G01*
X7739985Y27659939D03*
G01*
X7259984Y22659949D03*
G01*
X7259984Y22499955D03*
G01*
X7259984Y22339960D03*
G01*
X7739985Y22339960D03*
G01*
X7739985Y22499955D03*
G01*
X7739985Y22659949D03*
G01*
X7259984Y17659959D03*
G01*
X7259984Y17499964D03*
G01*
X7259984Y17339970D03*
G01*
X7739985Y17339970D03*
G01*
X7739985Y17499964D03*
G01*
X7739985Y17659959D03*
G01*
X7259984Y12659969D03*
G01*
X7259984Y12499975D03*
G01*
X7259984Y12339980D03*
G01*
X7739985Y12339980D03*
G01*
X7739985Y12499975D03*
G01*
X7739985Y12659969D03*
G01*
X7259984Y7659979D03*
G01*
X7259984Y7499985D03*
G01*
X7259984Y7339990D03*
G01*
X7739985Y7339990D03*
G01*
X7739985Y7499985D03*
G01*
X7739985Y7659979D03*
G01*
X7259984Y2659989D03*
G01*
X7259984Y2499994D03*
G01*
X7259984Y2340000D03*
G01*
X7739985Y2340000D03*
G01*
X7739985Y2499994D03*
G01*
X7739985Y2659989D03*
G01*
X12259974Y27659939D03*
G01*
X12259974Y27499945D03*
G01*
X12259974Y27339950D03*
G01*
X12739975Y27339950D03*
G01*
X12739975Y27499945D03*
G01*
X12739975Y27659939D03*
G01*
X12259974Y22659949D03*
G01*
X12259974Y22499955D03*
G01*
X12259974Y22339960D03*
G01*
X12739975Y22339960D03*
G01*
X12739975Y22499955D03*
G01*
X12739975Y22659949D03*
G01*
X12259974Y17659959D03*
G01*
X12259974Y17499964D03*
G01*
X12259974Y17339970D03*
G01*
X12739975Y17339970D03*
G01*
X12739975Y17499964D03*
G01*
X12739975Y17659959D03*
G01*
X12259974Y12659969D03*
G01*
X12259974Y12499975D03*
G01*
X12259974Y12339980D03*
G01*
X12739975Y12339980D03*
G01*
X12739975Y12499975D03*
G01*
X12739975Y12659969D03*
G01*
X12259974Y7659979D03*
G01*
X12259974Y7499985D03*
G01*
X12259974Y7339990D03*
G01*
X12739975Y7339990D03*
G01*
X12739975Y7499985D03*
G01*
X12739975Y7659979D03*
G01*
X12259974Y2659989D03*
G01*
X12259974Y2499994D03*
G01*
X12259974Y2340000D03*
G01*
X12739975Y2340000D03*
G01*
X12739975Y2499994D03*
G01*
X12739975Y2659989D03*
G01*
X17259964Y27659939D03*
G01*
X17259964Y27499945D03*
G01*
X17259964Y27339950D03*
G01*
X17739965Y27339950D03*
G01*
X17739965Y27499945D03*
G01*
X17739965Y27659939D03*
G01*
X17259964Y22659949D03*
G01*
X17259964Y22499955D03*
G01*
X17259964Y22339960D03*
G01*
X17739965Y22339960D03*
G01*
X17739965Y22499955D03*
G01*
X17739965Y22659949D03*
G01*
X17259964Y17659959D03*
G01*
X17259964Y17499964D03*
G01*
X17259964Y17339970D03*
G01*
X17739965Y17339970D03*
G01*
X17739965Y17499964D03*
G01*
X17739965Y17659959D03*
G01*
X17259964Y12659969D03*
G01*
X17259964Y12499975D03*
G01*
X17259964Y12339980D03*
G01*
X17739965Y12339980D03*
G01*
X17739965Y12499975D03*
G01*
X17739965Y12659969D03*
G01*
X17259964Y7659979D03*
G01*
X17259964Y7499985D03*
G01*
X17259964Y7339990D03*
G01*
X17739965Y7339990D03*
G01*
X17739965Y7499985D03*
G01*
X17739965Y7659979D03*
G01*
X17259964Y2659989D03*
G01*
X17259964Y2499994D03*
G01*
X17259964Y2340000D03*
G01*
X17739965Y2340000D03*
G01*
X17739965Y2499994D03*
G01*
X17739965Y2659989D03*
D13*
G01*
X2118994Y29349941D03*
D14*
G01*
X2372995Y29349928D03*
G01*
X2626995Y29349928D03*
G01*
X2880995Y29349928D03*
D13*
G01*
X2118994Y649998D03*
D14*
G01*
X2372995Y649986D03*
G01*
X2626995Y649986D03*
G01*
X2880995Y649986D03*
D15*
G01*
X1399997Y28999942D03*
G01*
X1399997Y28499943D03*
M02*
